<?xml version="1.0" encoding="UTF-8"?> <svg xmlns="http://www.w3.org/2000/svg" viewBox="0 0 385.62 385.62"> <defs> <style>.cls-1{fill:#fff;}</style> </defs> <title>100 </title> <g id="Слой_2" data-name="Слой 2"> <g id="Слой_1-2" data-name="Слой 1"> <path class="cls-1" d="M193,114.43a4.92,4.92,0,0,0,4.92-4.92V4.91a4.92,4.92,0,0,0-9.83,0v104.6A4.91,4.91,0,0,0,193,114.43Z"></path> <path class="cls-1" d="M141.52,113.4a4.91,4.91,0,0,0,8.51-4.92l-17.31-30a4.91,4.91,0,0,0-8.51,4.92Z"></path> <path class="cls-1" d="M143.79,277.31a4.91,4.91,0,0,0-6.71,1.8l-19.5,33.77a4.91,4.91,0,0,0,1.8,6.71h0a4.91,4.91,0,0,0,6.71-1.8L145.59,284A4.92,4.92,0,0,0,143.79,277.31Z"></path> <rect class="cls-1" x="187.69" y="279.14" width="9.83" height="106.48" rx="4.74"></rect> <path class="cls-1" d="M271,318.83l-29.16-50.5a4.91,4.91,0,0,0-6.71-1.8h0a4.91,4.91,0,0,0-1.8,6.71l29.16,50.51a4.91,4.91,0,1,0,8.51-4.92Z"></path> <path class="cls-1" d="M380.7,188.1H322.49V135.69a21.63,21.63,0,0,0-2.87-10.18l38.47-22.22a4.91,4.91,0,0,0,1.8-6.71h0a4.92,4.92,0,0,0-6.71-1.8l-39.94,23.06a18.31,18.31,0,0,0-6.16-3.32C232.9,96.93,163,143.62,88.78,126a20.4,20.4,0,0,0-2.3-.52L50.91,105A4.91,4.91,0,1,0,46,113.49l28.69,16.56a11.53,11.53,0,0,0-1.33,5.64v52H4.91a4.92,4.92,0,0,0,0,9.83H73.36v52.41a18.93,18.93,0,0,0,.87,5.43l-16.48,9.52a4.92,4.92,0,0,0-1.8,6.71h0a4.93,4.93,0,0,0,6.72,1.8L78.86,264a20.85,20.85,0,0,0,9.92,7.06c69.78,16.54,135.83-23.8,205.18-14l59,34.07a4.91,4.91,0,1,0,4.92-8.51l-40.6-23.44c3.18-1.57,5.2-4.73,5.2-9.31v-52H380.7a4.92,4.92,0,1,0,0-9.83ZM314,197.93v48.51c0,3.8-3.08,5.74-6.88,4.61q-3.15-.74-6.27-1.33a156.34,156.34,0,0,0-24.18-2.61c-63.09-2-123.9,30.62-187.85,15.45a9,9,0,0,1-3.62-2.16,10.12,10.12,0,0,1-3.27-7V139.18a4.81,4.81,0,0,1,1.76-4,5.66,5.66,0,0,1,5.13-.66,147.49,147.49,0,0,0,17.73,3.06c67,7.39,131-30,198.5-15l2.07.46a10.39,10.39,0,0,1,6.26,6.08,8.63,8.63,0,0,1,.62,3.08v65.72Z"></path> <rect class="cls-1" x="242.7" y="66.19" width="41.23" height="9.83" rx="4" transform="translate(70.09 263.59) rotate(-60)"></rect> <path class="cls-1" d="M207.15,147.39a17,17,0,0,0-14.49-3l-1.59.36c-10.39,2.34-18.52,12.31-18.52,22.68v60a16.5,16.5,0,0,0,6,13.07A16.22,16.22,0,0,0,188.74,244a19.06,19.06,0,0,0,4.21-.47l1.6-.36c10.39-2.35,18.52-12.37,18.52-22.79v-60A16.17,16.17,0,0,0,207.15,147.39Zm-2.61,73c0,6.38-5.44,13-11.88,14.47h0l-1.59.36a8.39,8.39,0,0,1-7.22-1.32,7.94,7.94,0,0,1-2.77-6.41v-60c0-6.33,5.43-12.9,11.87-14.36l1.6-.36a10.93,10.93,0,0,1,2.43-.28,7.64,7.64,0,0,1,4.84,1.58,7.81,7.81,0,0,1,2.72,6.31Z"></path> <path class="cls-1" d="M256.22,138.56a17.26,17.26,0,0,0-13.94-4.05l-1.62.23c-10.39,1.5-18.85,11.38-18.85,22v60a16.77,16.77,0,0,0,5.68,12.93,17.23,17.23,0,0,0,11.43,4.12,21.37,21.37,0,0,0,3-.21l1.57-.22h0c10.59-1.47,18.88-10.7,18.88-21v-60a18.71,18.71,0,0,0-.59-4.63A17.76,17.76,0,0,0,256.22,138.56Zm-2.42,73.77c0,6.16-5.06,11.68-11.52,12.58l-1.62.22a9.32,9.32,0,0,1-7.59-1.91,8.26,8.26,0,0,1-2.73-6.48v-60c0-6.34,5.39-12.68,11.55-13.57l1.56-.22a10.65,10.65,0,0,1,1.37-.1,8.74,8.74,0,0,1,5.8,2.13,9.71,9.71,0,0,1,3.18,7.35Z"></path> <path class="cls-1" d="M161.51,241.24c-4.48.77-7.37,1.23-11,1.68v-85.6a2.66,2.66,0,0,0,0-.28,4.36,4.36,0,0,0-.05-.52c0-.13-.07-.26-.11-.39a3.1,3.1,0,0,0-.13-.4c0-.13-.12-.24-.18-.37a3.35,3.35,0,0,0-.2-.37c-.07-.11-.17-.21-.25-.32a4.15,4.15,0,0,0-.27-.32,3.09,3.09,0,0,0-.39-.33,1,1,0,0,0-.22-.19s0,0,0,0a4.21,4.21,0,0,0-.55-.3,1.86,1.86,0,0,0-.19-.11,3.38,3.38,0,0,0-.42-.13c-.13,0-.25-.09-.39-.12a1.6,1.6,0,0,0-.23,0,4.07,4.07,0,0,0-.61-.06h0l-.28,0a4.57,4.57,0,0,0-.52,0,2.72,2.72,0,0,0-.38.11c-.14,0-.28.07-.41.12s-.24.12-.36.18-.26.13-.38.21a3.49,3.49,0,0,0-.32.25l-.32.26a4,4,0,0,0-.33.39c-.07.08-.14.14-.2.22-6.21,8.89-9.37,13.33-15.87,22.09a4.27,4.27,0,0,0,.89,6,4.21,4.21,0,0,0,2.54.84,4.26,4.26,0,0,0,3.42-1.72c3.34-4.51,5.81-7.88,8.26-11.29v73.11c-3.91.38-6.88.56-11.79.69a4.27,4.27,0,0,0,.11,8.53h.11c6.62-.17,10-.45,16.3-1.14,6.52-.72,9.76-1.21,16.2-2.31a4.27,4.27,0,0,0-1.44-8.41Z"></path> <path class="cls-1" d="M298.61,126.28a13.65,13.65,0,0,0-5.92-2.56,11.55,11.55,0,0,0-9.37,2.54,11.89,11.89,0,0,0-4.1,9.11,12.21,12.21,0,0,0,.17,2,14,14,0,0,0,4.86,8.54,14.47,14.47,0,0,0,7.08,3.27,12.83,12.83,0,0,0,2.13.17,11.57,11.57,0,0,0,7.53-2.65,11,11,0,0,0,3.81-8.57,13.69,13.69,0,0,0-.54-3.77A15.61,15.61,0,0,0,298.61,126.28Zm-3.15,13.93a3.18,3.18,0,0,1-2.34.59l-.43,0a5.84,5.84,0,0,1-4.94-5.4,3.33,3.33,0,0,1,1.1-2.61,2.85,2.85,0,0,1,1.88-.67,4.28,4.28,0,0,1,.6,0,6.56,6.56,0,0,1,4.94,6,3.3,3.3,0,0,1-.13.92A2.17,2.17,0,0,1,295.46,140.21Z"></path> <path class="cls-1" d="M106.69,143a14.57,14.57,0,0,0-3.72-1.19,12.45,12.45,0,0,0-6.78.66,10.6,10.6,0,0,0-2.92,1.72,10.91,10.91,0,0,0-3.83,8.54c0,6.85,5.41,13.37,12.06,14.54a12.29,12.29,0,0,0,2.09.18,11.37,11.37,0,0,0,7.32-2.63,11.79,11.79,0,0,0,4.11-9.09A14.3,14.3,0,0,0,106.69,143Zm-1.27,15.29a2.91,2.91,0,0,1-2.45.57,6.75,6.75,0,0,1-5-6.13,2.52,2.52,0,0,1,.78-2,2.94,2.94,0,0,1,1.89-.58,5.29,5.29,0,0,1,.86.08,6,6,0,0,1,5,5.51A3.26,3.26,0,0,1,105.42,158.29Z"></path> <path class="cls-1" d="M279.87,334.19a4.91,4.91,0,0,0-8.51,4.91l5.47,9.47a4.91,4.91,0,0,0,8.51-4.91Z"></path> <path class="cls-1" d="M116.56,324.48h0a4.92,4.92,0,0,0-6.72,1.8l-9.45,16.38a4.91,4.91,0,1,0,8.51,4.91l9.45-16.38A4.9,4.9,0,0,0,116.56,324.48Z"></path> <path class="cls-1" d="M110.59,59.81a4.91,4.91,0,1,0,8.51-4.91L117.41,52a4.9,4.9,0,0,0-6.71-1.79h0a4.92,4.92,0,0,0-1.8,6.71Z"></path> </g> </g> </svg> 