<?xml version="1.0" encoding="UTF-8"?> <svg xmlns="http://www.w3.org/2000/svg" viewBox="0 0 322.57 373.69"> <defs> <style>.cls-1{fill:#fff;}</style> </defs> <title>30</title> <g id="Слой_2" data-name="Слой 2"> <g id="Слой_1-2" data-name="Слой 1"> <path class="cls-1" d="M281.87,40.71A139,139,0,0,0,44.6,139c0,.72,0,1.44,0,2.16H0V373.69H244.76V263.86a139.58,139.58,0,0,0,37.11-26.59,139,139,0,0,0,0-196.56ZM88,364.68H51.51V332.77a7.13,7.13,0,0,1,7.14-7.14H80.83a7.07,7.07,0,0,1,4.94,2,4.6,4.6,0,0,1,.52.56l.15.18a7.24,7.24,0,0,1,1.42,3.18,7.09,7.09,0,0,1,.1,1.22Zm43-215v176h0v39.53H96.5V332.77A15.69,15.69,0,0,0,80.83,317.1H58.65A15.69,15.69,0,0,0,43,332.77v32.39H8.53V149.68H130.94Zm105.29,58.08v50.62h0V365.16H141V329.9h95.2v-8.53H141v-59h0V207.76h95.2ZM290,214.51c-2.42,3.41-5,6.7-7.74,9.85q-3.08,3.55-6.4,6.87c-.73.74-1.48,1.47-2.24,2.19-2.26,2.16-4.61,4.24-7,6.23-.84.7-1.69,1.38-2.55,2.06a131.05,131.05,0,0,1-16.37,10.94c-1,.54-1.92,1.06-2.89,1.58v-55H139.47V189.9a22.92,22.92,0,0,0,15.95,6.45h.16a23,23,0,0,0,23-23V138a23,23,0,0,0-19-22.63l18.2-26a4.28,4.28,0,0,0-3.5-6.72H136.7a4.27,4.27,0,0,0,0,8.53h29.4l-18,25.64a4.26,4.26,0,0,0,3.5,6.71h3.94A14.46,14.46,0,0,1,170,138v35.4a14.46,14.46,0,0,1-14.45,14.45h-.16A14.46,14.46,0,0,1,141,173.37a4.24,4.24,0,0,0-1.5-3.22v-29H87.73a4.38,4.38,0,0,0-3.38-7.2H67.76a4.38,4.38,0,0,0-3.38,7.2H53.16c0-.72,0-1.44,0-2.16a131.45,131.45,0,0,1,1.5-19.87c.17-1.08.35-2.15.54-3.23q.86-4.81,2.07-9.51c.26-1,.55-2.07.84-3.11.58-2.06,1.22-4.1,1.9-6.12,1-3,2.16-6,3.4-8.94A130.7,130.7,0,0,1,72,71.34c1.09-1.79,2.22-3.56,3.39-5.29q3.51-5.2,7.51-10c.66-.81,1.34-1.61,2-2.4C86.31,52,87.71,50.49,89.15,49s2.92-3,4.43-4.43c.75-.72,1.52-1.43,2.29-2.13q2.31-2.1,4.73-4.1a130.45,130.45,0,0,1,29.3-18.26c1.92-.88,3.88-1.7,5.85-2.48A130.5,130.5,0,0,1,295.16,206.63Q292.7,210.67,290,214.51Z"></path> <path class="cls-1" d="M212.61,81.62h-1.87a22.15,22.15,0,0,0-22.12,22.13v70.48a22.14,22.14,0,0,0,22.12,22.12h1.87a22.14,22.14,0,0,0,22.12-22.12V103.75A22.15,22.15,0,0,0,212.61,81.62Zm13.59,92.61a13.61,13.61,0,0,1-13.59,13.59h-1.87a13.6,13.6,0,0,1-13.59-13.59V103.75a13.6,13.6,0,0,1,13.59-13.59h1.87a13.6,13.6,0,0,1,13.59,13.59Z"></path> <path class="cls-1" d="M36.56,160.94H25.84a4.9,4.9,0,0,0-1,.1,5.08,5.08,0,0,0-4.06,5v9a5.09,5.09,0,0,0,5.08,5.08H36.56a5.1,5.1,0,0,0,4.69-3.1,5.22,5.22,0,0,0,.39-2v-9A5.07,5.07,0,0,0,36.56,160.94Z"></path> <path class="cls-1" d="M64.37,180.07H75.1A5.07,5.07,0,0,0,80.18,175v-9a5.1,5.1,0,0,0-3.1-4.69,5.22,5.22,0,0,0-2-.39H64.37A5.06,5.06,0,0,0,59.29,166v9a5.22,5.22,0,0,0,.4,2A5.09,5.09,0,0,0,64.37,180.07Z"></path> <path class="cls-1" d="M102.91,180.07h10.72a5.1,5.1,0,0,0,4.69-3.1,5.22,5.22,0,0,0,.39-2v-9a5.07,5.07,0,0,0-5.08-5.08H102.91A5.07,5.07,0,0,0,97.83,166v9a5.07,5.07,0,0,0,5.08,5.08Z"></path> <path class="cls-1" d="M41.25,195.8a5.12,5.12,0,0,0-1.85-2.24,5,5,0,0,0-2.84-.87H25.84a4.9,4.9,0,0,0-1,.11,5.08,5.08,0,0,0-2.44,1.27l-.13.11a5.07,5.07,0,0,0-1.49,3.6v9a5.09,5.09,0,0,0,4.06,5,5.69,5.69,0,0,0,1,.1H36.56a5.07,5.07,0,0,0,3.6-1.49,5.21,5.21,0,0,0,1.09-1.61,6.26,6.26,0,0,0,.29-1,4.9,4.9,0,0,0,.1-1v-9a5,5,0,0,0-.1-1A5.82,5.82,0,0,0,41.25,195.8Z"></path> <path class="cls-1" d="M59.69,208.73a5.21,5.21,0,0,0,1.09,1.61,5.14,5.14,0,0,0,1.62,1.09,5,5,0,0,0,2,.4H75.1l.23,0h0a5.12,5.12,0,0,0,1.75-.38,5.14,5.14,0,0,0,2.7-2.7,5.34,5.34,0,0,0,.3-1,5.69,5.69,0,0,0,.1-1v-9a5.8,5.8,0,0,0-.1-1,5,5,0,0,0-.3-.95,5.17,5.17,0,0,0-1.84-2.24,5.51,5.51,0,0,0-.86-.47,5.22,5.22,0,0,0-2-.4H64.37a5.13,5.13,0,0,0-2,.4,5.07,5.07,0,0,0-2.71,2.71,4.36,4.36,0,0,0-.29.95,5,5,0,0,0-.11,1v9a4.9,4.9,0,0,0,.11,1A4.62,4.62,0,0,0,59.69,208.73Z"></path> <path class="cls-1" d="M98.23,208.73a5.1,5.1,0,0,0,4.68,3.1h10.72a5.07,5.07,0,0,0,3.6-1.49,5.21,5.21,0,0,0,1.09-1.61,6.26,6.26,0,0,0,.29-1,4.9,4.9,0,0,0,.1-1v-9a5,5,0,0,0-.1-1,5.82,5.82,0,0,0-.29-.95,5.12,5.12,0,0,0-1.85-2.24,5,5,0,0,0-2.84-.87H102.91a5,5,0,0,0-2.84.87,5.1,5.1,0,0,0-1.84,2.24,4.87,4.87,0,0,0-.4,2v9a4.9,4.9,0,0,0,.1,1A5.34,5.34,0,0,0,98.23,208.73Z"></path> <path class="cls-1" d="M36.56,224.45H25.84a5.09,5.09,0,0,0-5.08,5.09v9a5.09,5.09,0,0,0,5.08,5.08H36.56a5.06,5.06,0,0,0,5.08-5.08v-9a5.18,5.18,0,0,0-.39-2A5.09,5.09,0,0,0,36.56,224.45Z"></path> <path class="cls-1" d="M64.37,243.59H75.1a5.08,5.08,0,0,0,4.68-3.11,5,5,0,0,0,.4-2v-9a5,5,0,0,0-.4-2,5.08,5.08,0,0,0-4.68-3.11H64.37a5.08,5.08,0,0,0-4.68,3.11,5.18,5.18,0,0,0-.4,2v9a5.13,5.13,0,0,0,.4,2A5.08,5.08,0,0,0,64.37,243.59Z"></path> <path class="cls-1" d="M102.91,243.59h10.72a5.06,5.06,0,0,0,5.08-5.08v-9a5.18,5.18,0,0,0-.39-2,5.09,5.09,0,0,0-4.69-3.11H102.91a5.07,5.07,0,0,0-4.68,3.11,5,5,0,0,0-.4,2v9a5,5,0,0,0,.4,2A5.07,5.07,0,0,0,102.91,243.59Z"></path> <path class="cls-1" d="M40.78,258.45a5.09,5.09,0,0,0-4.22-2.24H25.84a4.9,4.9,0,0,0-1,.11,5.07,5.07,0,0,0-4.06,5v9a5.08,5.08,0,0,0,5.08,5.08H36.56a5.06,5.06,0,0,0,5-4.06,4.9,4.9,0,0,0,.1-1v-9a4.9,4.9,0,0,0-.1-1A5.06,5.06,0,0,0,40.78,258.45Z"></path> <path class="cls-1" d="M60.16,273.11a5.07,5.07,0,0,0,4.21,2.24H75.1a5.1,5.1,0,0,0,5-4.06,5.69,5.69,0,0,0,.1-1v-9a5.69,5.69,0,0,0-.1-1,5.08,5.08,0,0,0-.77-1.82,5.14,5.14,0,0,0-2.23-1.84,5.22,5.22,0,0,0-2-.4H64.37a5.09,5.09,0,0,0-4.21,2.24,5.06,5.06,0,0,0-.76,1.82,4.9,4.9,0,0,0-.11,1v9a4.9,4.9,0,0,0,.11,1A5.06,5.06,0,0,0,60.16,273.11Z"></path> <path class="cls-1" d="M98.7,273.11a5.07,5.07,0,0,0,4.21,2.24h10.72a5.06,5.06,0,0,0,5-4.06,4.9,4.9,0,0,0,.1-1v-9a4.9,4.9,0,0,0-.1-1,5.06,5.06,0,0,0-5-4.06H102.91a5.1,5.1,0,0,0-5,4.06,4.9,4.9,0,0,0-.1,1v9a4.9,4.9,0,0,0,.1,1A5.08,5.08,0,0,0,98.7,273.11Z"></path> <path class="cls-1" d="M40.78,290.21a5.62,5.62,0,0,0-.62-.75,5.07,5.07,0,0,0-3.6-1.49H25.84a5.08,5.08,0,0,0-5.08,5.08v9a5.08,5.08,0,0,0,4.06,5,4.9,4.9,0,0,0,1,.11H36.56a5.06,5.06,0,0,0,5-4.06,4.93,4.93,0,0,0,.1-1v-9a4.9,4.9,0,0,0-.1-1A5.06,5.06,0,0,0,40.78,290.21Z"></path> <path class="cls-1" d="M60.16,304.87a5.09,5.09,0,0,0,4.21,2.24H75.1a5.22,5.22,0,0,0,2-.4,5.14,5.14,0,0,0,2.23-1.84,5.08,5.08,0,0,0,.77-1.82,5.71,5.71,0,0,0,.1-1v-9a5.69,5.69,0,0,0-.1-1,5.08,5.08,0,0,0-.77-1.82,4.94,4.94,0,0,0-.62-.75A5.06,5.06,0,0,0,75.1,288H64.37a5.06,5.06,0,0,0-3.59,1.49,4.94,4.94,0,0,0-.62.75A5.06,5.06,0,0,0,59.4,292a4.9,4.9,0,0,0-.11,1v9a4.93,4.93,0,0,0,.11,1A5.06,5.06,0,0,0,60.16,304.87Z"></path> <path class="cls-1" d="M98.7,304.87a5.07,5.07,0,0,0,4.21,2.24h10.72a5.06,5.06,0,0,0,5-4.06,4.93,4.93,0,0,0,.1-1v-9a4.9,4.9,0,0,0-.1-1,5.06,5.06,0,0,0-.76-1.82,5.62,5.62,0,0,0-.62-.75,5.07,5.07,0,0,0-3.6-1.49H102.91a5.06,5.06,0,0,0-3.59,1.49,4.94,4.94,0,0,0-.62.75,5.08,5.08,0,0,0-.77,1.82,4.9,4.9,0,0,0-.1,1v9a4.93,4.93,0,0,0,.1,1A5.08,5.08,0,0,0,98.7,304.87Z"></path> <path class="cls-1" d="M164,243.59h10.72a5.06,5.06,0,0,0,5.08-5.08v-9a5.18,5.18,0,0,0-.39-2,5.09,5.09,0,0,0-4.69-3.11H164a5.07,5.07,0,0,0-4.68,3.11,5,5,0,0,0-.4,2v9a5,5,0,0,0,.4,2A5.07,5.07,0,0,0,164,243.59Z"></path> <path class="cls-1" d="M202.53,243.59h10.73a5.08,5.08,0,0,0,4.68-3.11,5,5,0,0,0,.4-2v-9a5,5,0,0,0-.4-2,5.08,5.08,0,0,0-4.68-3.11H202.53a5.08,5.08,0,0,0-4.68,3.11,5,5,0,0,0-.4,2v9a5,5,0,0,0,.4,2A5.08,5.08,0,0,0,202.53,243.59Z"></path> <path class="cls-1" d="M159.79,273.11a5.06,5.06,0,0,0,4.21,2.24h10.72a5.06,5.06,0,0,0,5-4.06,4.9,4.9,0,0,0,.1-1v-9a4.9,4.9,0,0,0-.1-1,5.06,5.06,0,0,0-5-4.06H164a5.1,5.1,0,0,0-5,4.06,4.9,4.9,0,0,0-.1,1v5.81h0v3.17a4.9,4.9,0,0,0,.1,1A5.08,5.08,0,0,0,159.79,273.11Z"></path> <path class="cls-1" d="M198.32,273.11a5.07,5.07,0,0,0,4.21,2.24h10.73a5.08,5.08,0,0,0,3.38-1.31,5.22,5.22,0,0,0,.83-.93,5.08,5.08,0,0,0,.77-1.82,5.69,5.69,0,0,0,.1-1v-9a5.69,5.69,0,0,0-.1-1,5.1,5.1,0,0,0-5-4.06H202.53a5.06,5.06,0,0,0-5,4.06,4.9,4.9,0,0,0-.11,1v9a4.9,4.9,0,0,0,.11,1A5.06,5.06,0,0,0,198.32,273.11Z"></path> <path class="cls-1" d="M159.79,304.87a5.06,5.06,0,0,0,4.21,2.24h10.72a5.06,5.06,0,0,0,5-4.06,4.93,4.93,0,0,0,.1-1v-9a4.9,4.9,0,0,0-.1-1,5.06,5.06,0,0,0-.76-1.82,5.62,5.62,0,0,0-.62-.75,5.07,5.07,0,0,0-3.6-1.49H164a5.06,5.06,0,0,0-3.59,1.49,4.94,4.94,0,0,0-.62.75A5.08,5.08,0,0,0,159,292a4.9,4.9,0,0,0-.1,1v9a4.93,4.93,0,0,0,.1,1A5.08,5.08,0,0,0,159.79,304.87Z"></path> <path class="cls-1" d="M198.32,304.87a5.07,5.07,0,0,0,4.21,2.24h10.73a5.1,5.1,0,0,0,5-4.06,5.71,5.71,0,0,0,.1-1v-9a5.69,5.69,0,0,0-.1-1,5.08,5.08,0,0,0-.77-1.82,4.94,4.94,0,0,0-.62-.75,5.06,5.06,0,0,0-3.59-1.49H202.53a5.06,5.06,0,0,0-3.59,1.49,4.94,4.94,0,0,0-.62.75,5.06,5.06,0,0,0-.76,1.82,4.9,4.9,0,0,0-.11,1v9a4.93,4.93,0,0,0,.11,1A5.06,5.06,0,0,0,198.32,304.87Z"></path> <path class="cls-1" d="M188.63,23.16a4.42,4.42,0,0,0-8.83,0V39.75a4.42,4.42,0,0,0,8.83,0Z"></path> <path class="cls-1" d="M130,36.16a4.41,4.41,0,0,0-7.64,4.41l8.29,14.36a4.41,4.41,0,1,0,7.64-4.41Z"></path> <path class="cls-1" d="M100.16,85,85.8,76.71a4.41,4.41,0,1,0-4.41,7.64l14.36,8.29A4.41,4.41,0,1,0,100.16,85Z"></path> <path class="cls-1" d="M285.78,193.62l-14.36-8.29A4.41,4.41,0,1,0,267,193l14.36,8.3a4.43,4.43,0,0,0,6-1.62h0A4.42,4.42,0,0,0,285.78,193.62Z"></path> <path class="cls-1" d="M299.41,135.21H282.83a4.41,4.41,0,1,0,0,8.82h16.58a4.41,4.41,0,0,0,0-8.82Z"></path> <path class="cls-1" d="M272.05,93.73l14.36-8.29A4.41,4.41,0,1,0,282,77.8l-14.36,8.29a4.41,4.41,0,1,0,4.41,7.64Z"></path> <path class="cls-1" d="M244.25,35.18a4.41,4.41,0,0,0-6,1.61l-8.29,14.36a4.42,4.42,0,0,0,1.62,6h0a4.4,4.4,0,0,0,6-1.62l8.29-14.36A4.4,4.4,0,0,0,244.25,35.18Z"></path> </g> </g> </svg> 