<?xml version="1.0" encoding="UTF-8"?> <!-- Generator: Adobe Illustrator 24.0.2, SVG Export Plug-In . SVG Version: 6.00 Build 0) --> <svg xmlns="http://www.w3.org/2000/svg" xmlns:xlink="http://www.w3.org/1999/xlink" id="Слой_1" x="0px" y="0px" viewBox="0 0 1000 1000" style="enable-background:new 0 0 1000 1000;" xml:space="preserve"> <style type="text/css"> .st0{fill:#F0A901;} .st1{fill:#60B252;} .st2{fill:#FFFFFF;} </style> <circle class="st0" cx="500" cy="500" r="363.9"></circle> <title>Washer</title> <g> <g id="XMLID_1_"> <g> <path class="st1" d="M541.4,651.7h-82.7c-3.8,0-6.9,3.1-6.9,6.9v20.7H369c-26.6,0-48.2-21.6-48.3-48.3V369 c0.1-26.6,21.7-48.2,48.3-48.3h262c26.7,0.1,48.3,21.7,48.3,48.3v262c0,26.7-21.6,48.3-48.3,48.3h-82.7v-20.7 C548.3,654.8,545.1,651.7,541.4,651.7z M500,637.9c76.2,0,137.9-61.7,137.9-137.9c-0.1-76.1-61.8-137.8-137.9-137.9 c-76.1,0-137.9,61.8-137.9,137.9C362.1,576.2,423.9,637.9,500,637.9z"></path> <path class="st2" d="M624.1,500C624,568.5,568.5,624,500,624.1c-68.5,0-124.1-55.6-124.1-124.1S431.4,375.9,500,375.9 S624.1,431.4,624.1,500z M596.5,500c0-15.2-12.3-27.6-27.6-27.6c-15.2,0-27.6,12.3-27.6,27.6c0,15.2,12.3,27.6,27.6,27.6 C584.2,527.6,596.5,515.2,596.5,500z M458.6,500c0-15.2-12.3-27.6-27.6-27.6c-15.2,0-27.6,12.3-27.6,27.6 c0,15.2,12.3,27.6,27.6,27.6C446.3,527.6,458.6,515.2,458.6,500z"></path> <circle class="st1" cx="568.9" cy="500" r="13.8"></circle> <path d="M582.7,500c0-7.6-6.1-13.8-13.8-13.8c-7.6,0-13.8,6.2-13.8,13.8c0,7.7,6.2,13.8,13.8,13.8 C576.6,513.8,582.7,507.6,582.7,500z M596.5,500c0,15.2-12.3,27.6-27.6,27.6c-15.2,0-27.6-12.3-27.6-27.6 c0-15.2,12.3-27.6,27.6-27.6C584.2,472.4,596.5,484.7,596.5,500z"></path> <rect x="465.5" y="665.5" class="st2" width="69" height="13.8"></rect> <circle class="st1" cx="431" cy="500" r="13.8"></circle> <path d="M444.8,500c0-7.6-6.1-13.8-13.8-13.8c-7.6,0-13.8,6.2-13.8,13.8c0,7.7,6.2,13.8,13.8,13.8 C438.7,513.8,444.8,507.6,444.8,500z M458.6,500c0,15.2-12.3,27.6-27.6,27.6c-15.2,0-27.6-12.3-27.6-27.6 c0-15.2,12.3-27.6,27.6-27.6C446.3,472.4,458.6,484.7,458.6,500z"></path> <path d="M362.1,500c0-76.1,61.8-137.9,137.9-137.9c76.1,0.1,137.8,61.8,137.9,137.9c0,76.2-61.7,137.9-137.9,137.9 C423.9,637.9,362.1,576.2,362.1,500z M500,624.1C568.5,624,624,568.5,624.1,500c0-68.5-55.6-124.1-124.1-124.1 S375.9,431.4,375.9,500S431.4,624.1,500,624.1z"></path> <path d="M534.5,679.3v-13.8h-69v13.8H534.5z M631,693.1H369c-34.3,0-62-27.8-62.1-62.1V369c0.1-34.3,27.8-62,62.1-62.1h262 c34.3,0.1,62.1,27.8,62.1,62.1v262C693.1,665.3,665.3,693.1,631,693.1z M451.7,679.3v-20.7c0-3.8,3.1-6.9,6.9-6.9h82.7 c3.8,0,6.9,3.1,6.9,6.9v20.7H631c26.7,0,48.3-21.6,48.3-48.3V369c0-26.6-21.6-48.2-48.3-48.3H369c-26.6,0.1-48.2,21.7-48.3,48.3 v262c0.1,26.7,21.7,48.3,48.3,48.3H451.7z"></path> </g> <g> </g> </g> </g> </svg> 