<?xml version="1.0" encoding="UTF-8"?> <!-- Generator: Adobe Illustrator 24.0.1, SVG Export Plug-In . SVG Version: 6.00 Build 0) --> <svg xmlns="http://www.w3.org/2000/svg" xmlns:xlink="http://www.w3.org/1999/xlink" id="Слой_1" x="0px" y="0px" viewBox="0 0 1000 1000" style="enable-background:new 0 0 1000 1000;" xml:space="preserve"> <style type="text/css"> .st0{fill:#F0A901;} .st1{fill:none;stroke:#FFFFFF;stroke-miterlimit:10;} .st2{fill:#FFFFFF;} .st3{fill:#60B252;} .st4{fill:#60B252;stroke:#000000;stroke-width:13.853;stroke-linecap:round;stroke-miterlimit:10;} .st5{fill:#60B252;stroke:#000000;stroke-width:13.9903;stroke-linecap:round;stroke-linejoin:round;stroke-miterlimit:10;} .st6{fill:#FFFFFF;stroke:#000000;stroke-width:13.9902;stroke-miterlimit:10;} .st7{fill:#60B252;stroke:#000000;stroke-width:11.0299;stroke-miterlimit:10;} .st8{fill:#FFFFFF;stroke:#000000;stroke-width:11.0299;stroke-miterlimit:10;} .st9{fill:#FFFFFF;stroke:#000000;stroke-width:5.3437;stroke-linecap:round;stroke-linejoin:round;stroke-miterlimit:10;} .st10{fill:#60B252;stroke:#000000;stroke-width:5.3437;stroke-linecap:round;stroke-linejoin:round;stroke-miterlimit:10;} .st11{fill:none;stroke:#000000;stroke-width:4.7149;stroke-miterlimit:10;} .st12{fill:#FFFFFF;stroke:#000000;stroke-width:4.7149;stroke-linecap:round;stroke-linejoin:round;stroke-miterlimit:10;} .st13{fill:#60B252;stroke:#000000;stroke-width:4.7149;stroke-miterlimit:10;} .st14{fill:#FFFFFF;stroke:#000000;stroke-width:4.3684;stroke-miterlimit:10;} .st15{fill:#FFFFFF;stroke:#000000;stroke-width:4.7149;stroke-miterlimit:10;} .st16{fill:#FFFFFF;stroke:#000000;stroke-width:3.1627;stroke-miterlimit:10;} .st17{fill:#FFFFFF;stroke:#000000;stroke-width:5.0021;stroke-miterlimit:10;} .st18{fill:#60B252;stroke:#000000;stroke-width:5.0021;stroke-miterlimit:10;} .st19{stroke:#000000;stroke-width:3.9312;stroke-miterlimit:10;} .st20{fill:#FFFFFF;stroke:#000000;stroke-width:4.2698;stroke-miterlimit:10;} .st21{fill:#FFFFFF;stroke:#000000;stroke-width:4.7613;stroke-linecap:round;stroke-linejoin:round;stroke-miterlimit:10;} .st22{fill:#60B252;stroke:#000000;stroke-width:4.7613;stroke-linecap:round;stroke-linejoin:round;stroke-miterlimit:10;} .st23{fill:#FFFFFF;stroke:#000000;stroke-width:4.8529;stroke-linecap:round;stroke-linejoin:round;stroke-miterlimit:10;} .st24{fill:#60B252;stroke:#000000;stroke-width:4.8529;stroke-linecap:round;stroke-linejoin:round;stroke-miterlimit:10;} .st25{fill:#FFFFFF;stroke:#000000;stroke-width:3.0634;stroke-linecap:round;stroke-linejoin:round;stroke-miterlimit:10;} </style> <circle class="st0" cx="500" cy="500" r="363.9"></circle> <path class="st1" d="M696.8,1180.9"></path> <g> <path class="st2" d="M-783.7,686.1c-43.3,0-78.4-35.2-78.4-78.4s35.2-78.4,78.4-78.4h139.3c14.2,0,25.8-11.6,25.8-25.8 s-11.6-25.8-25.8-25.8h-139.3c-43.3,0-78.4-35.2-78.4-78.4s35.2-78.4,78.4-78.4h282.1v52.7h-282.1c-14.2,0-25.8,11.6-25.8,25.8 c0,14.2,11.6,25.8,25.8,25.8h139.3c43.3,0,78.4,35.2,78.4,78.4s-35.2,78.4-78.4,78.4h-139.3c-14.2,0-25.8,11.6-25.8,25.8 s11.6,25.8,25.8,25.8h282.1v52.7H-783.7z"></path> <path d="M-508.8,328v38.1h-274.8c-18.2,0-33.1,14.8-33.1,33.1c0,18.2,14.8,33.1,33.1,33.1h139.3c39.3,0,71.2,31.9,71.2,71.2 c0,39.3-31.9,71.2-71.2,71.2h-139.3c-18.2,0-33.1,14.8-33.1,33.1s14.8,33.1,33.1,33.1h274.8v38.1h-274.8 c-39.3,0-71.2-31.9-71.2-71.2s31.9-71.2,71.2-71.2h139.3c18.2,0,33.1-14.8,33.1-33.1c0-18.2-14.8-33.1-33.1-33.1h-139.3 c-39.3,0-71.2-31.9-71.2-71.2c0-39.3,31.9-71.2,71.2-71.2H-508.8 M-494.3,313.5h-14.5h-274.8c-47.3,0-85.7,38.4-85.7,85.7 s38.4,85.7,85.7,85.7h139.3c10.2,0,18.5,8.3,18.5,18.5s-8.3,18.5-18.5,18.5h-139.3c-47.3,0-85.7,38.4-85.7,85.7 s38.4,85.7,85.7,85.7h274.8h14.5v-14.5v-38.1v-14.5h-14.5h-274.8c-10.2,0-18.5-8.3-18.5-18.5s8.3-18.5,18.5-18.5h139.3 c47.3,0,85.7-38.4,85.7-85.7c0-47.3-38.4-85.7-85.7-85.7h-139.3c-10.2,0-18.5-8.3-18.5-18.5s8.3-18.5,18.5-18.5h274.8h14.5v-14.5 V328V313.5L-494.3,313.5z"></path> </g> <g> <path class="st3" d="M-503.5,379.1c-8.9,0-16.1-7.2-16.1-16.1v-31.8c0-8.9,7.2-16.1,16.1-16.1c8.9,0,16.1,7.2,16.1,16.1V363 C-487.3,371.9-494.6,379.1-503.5,379.1z"></path> <path d="M-503.5,322.3c4.9,0,8.9,4,8.9,8.9v15.9V363c0,4.9-4,8.9-8.9,8.9s-8.9-4-8.9-8.9v-31.8 C-512.3,326.3-508.3,322.3-503.5,322.3 M-503.5,307.7c-12.9,0-23.4,10.5-23.4,23.4V363c0,12.9,10.5,23.4,23.4,23.4 c12.9,0,23.4-10.5,23.4-23.4v-15.9v-15.9C-480.1,318.2-490.6,307.7-503.5,307.7L-503.5,307.7z"></path> </g> <g> <path class="st3" d="M-503.5,691.8c-8.9,0-16.1-7.2-16.1-16.1v-31.8c0-8.9,7.2-16.1,16.1-16.1c8.9,0,16.1,7.2,16.1,16.1v31.8 C-487.3,684.6-494.6,691.8-503.5,691.8z"></path> <path d="M-503.5,635c4.9,0,8.9,4,8.9,8.9v15.9v15.9c0,4.9-4,8.9-8.9,8.9s-8.9-4-8.9-8.9v-31.8C-512.3,639-508.3,635-503.5,635 M-503.5,620.4c-12.9,0-23.4,10.5-23.4,23.4v31.8c0,12.9,10.5,23.4,23.4,23.4c12.9,0,23.4-10.5,23.4-23.4v-15.9v-15.9 C-480.1,630.9-490.6,620.4-503.5,620.4L-503.5,620.4z"></path> </g> <g> <path class="st3" d="M-732,550.5c-11.7,0-21.2-9.5-21.2-21.2V329.8c0-11.8,9.6-21.3,21.3-21.3h157.5c11.8,0,21.3,9.6,21.3,21.3 v199.4c0,11.7-9.5,21.2-21.2,21.2H-732z"></path> <path d="M-574.4,315.5c7.9,0,14.4,6.4,14.4,14.4v199.4c0,7.9-6.4,14.3-14.3,14.3H-732c-7.9,0-14.3-6.4-14.3-14.3V329.8 c0-7.9,6.4-14.4,14.4-14.4H-574.4 M-574.4,301.6h-157.5c-15.6,0-28.2,12.7-28.2,28.2v199.4c0,15.5,12.6,28.2,28.2,28.2h157.7 c15.5,0,28.2-12.6,28.2-28.2V329.8C-546.1,314.3-558.8,301.6-574.4,301.6L-574.4,301.6z"></path> </g> <line class="st4" x1="-745.5" y1="503.6" x2="-560" y2="503.6"></line> <g> <g> <path class="st2" d="M278.4,607.2c-9.5,0-17.3-7.7-17.3-17.3v-21.4c0-9.5,7.7-17.3,17.3-17.3h437c9.5,0,17.3,7.7,17.3,17.3V590 c0,9.5-7.7,17.3-17.3,17.3H278.4z"></path> <path d="M715.4,558.3c5.7,0,10.3,4.6,10.3,10.3V590c0,5.7-4.6,10.3-10.3,10.3h-437c-5.7,0-10.3-4.6-10.3-10.3v-21.4 c0-5.7,4.6-10.3,10.3-10.3H715.4 M715.4,544.4h-437c-13.4,0-24.2,10.9-24.2,24.2V590c0,13.4,10.9,24.2,24.2,24.2h437 c13.4,0,24.2-10.9,24.2-24.2v-21.4C739.6,555.2,728.7,544.4,715.4,544.4L715.4,544.4z"></path> </g> <g> <path class="st3" d="M663.5,546.5c-7.1,0-12.8-5.8-12.8-12.8V360.9c0-7.1,5.8-12.8,12.8-12.8h18.3c7.1,0,12.8,5.8,12.8,12.8v172.9 c0,7.1-5.8,12.8-12.8,12.8H663.5z"></path> <path d="M681.8,355c3.2,0,5.8,2.6,5.8,5.8v172.9c0,3.2-2.6,5.8-5.8,5.8h-18.3c-3.2,0-5.8-2.6-5.8-5.8V360.9c0-3.2,2.6-5.8,5.8-5.8 H681.8 M681.8,341h-18.3c-10.9,0-19.8,8.9-19.8,19.8v172.9c0,10.9,8.9,19.8,19.8,19.8h18.3c10.9,0,19.8-8.9,19.8-19.8V360.9 C701.6,349.9,692.7,341,681.8,341L681.8,341z"></path> </g> <g> <path class="st3" d="M604.1,546.5c-7.1,0-12.8-5.8-12.8-12.8V360.9c0-7.1,5.8-12.8,12.8-12.8h18.3c7.1,0,12.8,5.8,12.8,12.8v172.9 c0,7.1-5.8,12.8-12.8,12.8H604.1z"></path> <path d="M622.4,355c3.2,0,5.8,2.6,5.8,5.8v172.9c0,3.2-2.6,5.8-5.8,5.8h-18.3c-3.2,0-5.8-2.6-5.8-5.8V360.9c0-3.2,2.6-5.8,5.8-5.8 H622.4 M622.4,341h-18.3c-10.9,0-19.8,8.9-19.8,19.8v172.9c0,10.9,8.9,19.8,19.8,19.8h18.3c10.9,0,19.8-8.9,19.8-19.8V360.9 C642.2,349.9,633.3,341,622.4,341L622.4,341z"></path> </g> <g> <path class="st3" d="M523.5,546c-1.1,0-2.2-0.1-3.3-0.4l-17.7-4.6c-3.3-0.9-6.1-3-7.8-5.9s-2.2-6.4-1.3-9.7l43.8-167.2 c1.5-5.6,6.6-9.6,12.4-9.6c1.1,0,2.2,0.1,3.3,0.4l17.7,4.6c6.8,1.8,11,8.8,9.2,15.7l-43.8,167.2C534.4,542.1,529.3,546,523.5,546z "></path> <path d="M549.7,355.5c0.5,0,1,0.1,1.5,0.2l17.7,4.6c3.1,0.8,5,4,4.2,7.1l-43.8,167.2c-0.7,2.6-3.1,4.4-5.6,4.4 c-0.5,0-1-0.1-1.5-0.2l-17.7-4.6c-3.1-0.8-5-4-4.2-7.1L544,359.9C544.7,357.3,547.1,355.5,549.7,355.5 M549.7,341.5L549.7,341.5 c-9,0-16.9,6.1-19.2,14.8l-43.8,167.2c-1.3,5.1-0.6,10.5,2.1,15c2.7,4.6,7,7.8,12.1,9.2l17.7,4.6c1.6,0.4,3.3,0.6,5,0.6 c9,0,16.9-6.1,19.2-14.8L586.5,371c2.8-10.6-3.6-21.4-14.2-24.2l-17.7-4.6C553,341.8,551.3,341.5,549.7,341.5L549.7,341.5z"></path> </g> <line class="st5" x1="369.3" y1="385.9" x2="353.8" y2="474"></line> <circle class="st5" cx="369.3" cy="385.9" r="20.7"></circle> <path class="st6" d="M375.8,444.5h-17.6h-17.6c0,0-45.8,59.1-24,104.9h41.5h41.5C421.6,503.6,375.8,444.5,375.8,444.5z"></path> </g> <g> <g> <path class="st2" d="M-386.7,662.2c-9.4,0-17-7.6-17-17V354.8c0-9.4,7.6-17,17-17h246.2c9.4,0,17,7.6,17,17v290.4 c0,9.4-7.6,17-17,17H-386.7z"></path> <path d="M-140.5,343.3c6.4,0,11.5,5.2,11.5,11.5v290.4c0,6.4-5.2,11.5-11.5,11.5h-246.2c-6.4,0-11.5-5.2-11.5-11.5V354.8 c0-6.4,5.2-11.5,11.5-11.5H-140.5 M-140.5,332.3h-246.2c-12.4,0-22.5,10.1-22.5,22.5v290.4c0,12.4,10.1,22.5,22.5,22.5h246.2 c12.4,0,22.5-10.1,22.5-22.5V354.8C-118,342.4-128.1,332.3-140.5,332.3L-140.5,332.3z"></path> </g> <line class="st7" x1="-398.3" y1="396.8" x2="-129" y2="396.8"></line> <g> <path class="st3" d="M-403.8,400.2v-45.5c0-9.3,7.6-16.9,16.9-16.9h246.5c9.3,0,16.9,7.6,16.9,16.9v45.5H-403.8z"></path> <path d="M-140.4,343.3c6.3,0,11.4,5.1,11.4,11.4v40h-269.2v-40c0-6.3,5.1-11.4,11.4-11.4H-140.4 M-140.4,332.3h-246.5 c-12.4,0-22.4,10.1-22.4,22.4v40v11h11H-129h11v-11v-40C-118,342.3-128,332.3-140.4,332.3L-140.4,332.3z"></path> </g> <circle class="st8" cx="-194.2" cy="368.2" r="12.2"></circle> <path class="st8" d="M-158.8,370.6L-158.8,370.6c-1.3,0-2.3-1-2.3-2.3v0c0-1.3,1-2.3,2.3-2.3l0,0c1.3,0,2.3,1,2.3,2.3v0 C-156.4,369.5-157.5,370.6-158.8,370.6z"></path> <path class="st8" d="M-371.1,370.6L-371.1,370.6c-1.3,0-2.3-1-2.3-2.3v0c0-1.3,1-2.3,2.3-2.3h0c1.3,0,2.3,1,2.3,2.3v0 C-368.8,369.5-369.9,370.6-371.1,370.6z"></path> <path class="st8" d="M-344.4,370.6L-344.4,370.6c-1.3,0-2.3-1-2.3-2.3v0c0-1.3,1-2.3,2.3-2.3l0,0c1.3,0,2.3,1,2.3,2.3v0 C-342.1,369.5-343.1,370.6-344.4,370.6z"></path> <path class="st8" d="M-317.7,370.6L-317.7,370.6c-1.3,0-2.3-1-2.3-2.3v0c0-1.3,1-2.3,2.3-2.3l0,0c1.3,0,2.3,1,2.3,2.3v0 C-315.4,369.5-316.4,370.6-317.7,370.6z"></path> <path class="st8" d="M-291,370.6L-291,370.6c-1.3,0-2.3-1-2.3-2.3v0c0-1.3,1-2.3,2.3-2.3l0,0c1.3,0,2.3,1,2.3,2.3v0 C-288.7,369.5-289.7,370.6-291,370.6z"></path> <g> <path class="st3" d="M-360.7,629.7c-13.2,0-23.9-10.7-23.9-23.9V438.9c0-13.2,10.7-23.9,23.9-23.9h194.4 c13.2,0,23.9,10.7,23.9,23.9v166.9c0,13.2-10.7,23.9-23.9,23.9H-360.7z"></path> <path d="M-166.3,420.5c10.2,0,18.4,8.2,18.4,18.4v166.9c0,10.2-8.2,18.4-18.4,18.4h-194.4c-10.2,0-18.4-8.2-18.4-18.4V438.9 c0-10.2,8.2-18.4,18.4-18.4H-166.3 M-166.3,409.4h-194.4c-16.2,0-29.4,13.2-29.4,29.4v166.9c0,16.2,13.2,29.4,29.4,29.4h194.4 c16.2,0,29.4-13.2,29.4-29.4V438.9C-136.9,422.6-150.1,409.4-166.3,409.4L-166.3,409.4z"></path> </g> <g> <path class="st2" d="M-241.8,492.9l4-43.9c0.1-0.6,0.6-1,1.3-1h16.7c0.7,0,1.2,0.4,1.3,1l4,43.9H-241.8z"></path> <path d="M-223.6,453.5l3.1,33.9h-15.3l3.1-33.9H-223.6 M-219.7,442.5h-16.7c-3.5,0-6.5,2.6-6.8,6l-4.6,50h39.5l-4.6-50 C-213.3,445.1-216.2,442.5-219.7,442.5L-219.7,442.5z"></path> </g> <g> <path class="st2" d="M-195.7,492.9l4-43.9c0.1-0.6,0.6-1,1.3-1h16.7c0.7,0,1.2,0.4,1.3,1l4,43.9H-195.7z"></path> <path d="M-177.5,453.5l3.1,33.9h-15.3l3.1-33.9H-177.5 M-173.7,442.5h-16.7c-3.5,0-6.5,2.6-6.8,6l-4.6,50h39.5l-4.6-50 C-167.2,445.1-170.1,442.5-173.7,442.5L-173.7,442.5z"></path> </g> <g> <path class="st2" d="M-297.8,498.5c-12.5,0-22.8-10.2-22.8-22.8v-20.6c0-12.5,10.2-22.8,22.8-22.8h3.2c4.5,0,8.1,3.6,8.1,8.1v49.9 c0,4.5-3.6,8.1-8.1,8.1H-297.8z"></path> <path d="M-294.6,437.9c1.4,0,2.6,1.1,2.6,2.6v49.9c0,1.4-1.1,2.6-2.6,2.6h-3.2c-9.5,0-17.2-7.7-17.2-17.2v-20.6 c0-9.5,7.7-17.2,17.2-17.2H-294.6 M-294.6,426.9h-3.2c-15.6,0-28.3,12.7-28.3,28.3v20.6c0,15.6,12.7,28.3,28.3,28.3h3.2 c7.5,0,13.6-6.1,13.6-13.6v-49.9C-281,433-287.1,426.9-294.6,426.9L-294.6,426.9z"></path> </g> <g> <path class="st2" d="M-320.7,498.5c-12.5,0-22.8-10.2-22.8-22.8v-20.6c0-12.5,10.2-22.8,22.8-22.8h3.2c4.5,0,8.1,3.6,8.1,8.1v49.9 c0,4.5-3.6,8.1-8.1,8.1H-320.7z"></path> <path d="M-317.6,437.9c1.4,0,2.6,1.1,2.6,2.6v49.9c0,1.4-1.1,2.6-2.6,2.6h-3.2c-9.5,0-17.2-7.7-17.2-17.2v-20.6 c0-9.5,7.7-17.2,17.2-17.2H-317.6 M-317.6,426.9h-3.2c-15.6,0-28.3,12.7-28.3,28.3v20.6c0,15.6,12.7,28.3,28.3,28.3h3.2 c7.5,0,13.6-6.1,13.6-13.6v-49.9C-304,433-310.1,426.9-317.6,426.9L-317.6,426.9z"></path> </g> <g> <path class="st2" d="M-343.7,498.5c-12.5,0-22.8-10.2-22.8-22.8v-20.6c0-12.5,10.2-22.8,22.8-22.8h3.2c4.5,0,8.1,3.6,8.1,8.1v49.9 c0,4.5-3.6,8.1-8.1,8.1H-343.7z"></path> <path d="M-340.5,437.9c1.4,0,2.6,1.1,2.6,2.6v49.9c0,1.4-1.1,2.6-2.6,2.6h-3.2c-9.5,0-17.2-7.7-17.2-17.2v-20.6 c0-9.5,7.7-17.2,17.2-17.2H-340.5 M-340.5,426.9h-3.2c-15.6,0-28.3,12.7-28.3,28.3v20.6c0,15.6,12.7,28.3,28.3,28.3h3.2 c7.5,0,13.6-6.1,13.6-13.6v-49.9C-326.9,433-333,426.9-340.5,426.9L-340.5,426.9z"></path> </g> <line class="st8" x1="-379.1" y1="498.5" x2="-143.4" y2="498.5"></line> <line class="st8" x1="-379.1" y1="477.6" x2="-143.4" y2="477.6"></line> <g> <path class="st2" d="M-263.4,608.2c-15.5,0-28.1-12.6-28.1-28.1v-33.3c0-15.5,12.6-28.1,28.1-28.1h1.7c4.9,0,8.9,4,8.9,8.9v71.7 c0,4.9-4,8.9-8.9,8.9H-263.4z"></path> <path d="M-261.7,524.3c1.9,0,3.4,1.5,3.4,3.4v71.7c0,1.9-1.5,3.4-3.4,3.4h-1.7c-12.5,0-22.5-10.1-22.5-22.5v-33.3 c0-12.5,10.1-22.5,22.5-22.5H-261.7 M-261.7,513.3h-1.7c-18.5,0-33.6,15.1-33.6,33.6v33.3c0,18.5,15.1,33.6,33.6,33.6h1.7 c7.9,0,14.4-6.5,14.4-14.4v-71.7C-247.4,519.7-253.8,513.3-261.7,513.3L-261.7,513.3z"></path> </g> <g> <path class="st2" d="M-291,608.2c-15.5,0-28.1-12.6-28.1-28.1v-33.3c0-15.5,12.6-28.1,28.1-28.1h1.7c4.9,0,8.9,4,8.9,8.9v71.7 c0,4.9-4,8.9-8.9,8.9H-291z"></path> <path d="M-289.3,524.3c1.9,0,3.4,1.5,3.4,3.4v71.7c0,1.9-1.5,3.4-3.4,3.4h-1.7c-12.5,0-22.5-10.1-22.5-22.5v-33.3 c0-12.5,10.1-22.5,22.5-22.5H-289.3 M-289.3,513.3h-1.7c-18.5,0-33.6,15.1-33.6,33.6v33.3c0,18.5,15.1,33.6,33.6,33.6h1.7 c7.9,0,14.4-6.5,14.4-14.4v-71.7C-275,519.7-281.4,513.3-289.3,513.3L-289.3,513.3z"></path> </g> <g> <path class="st2" d="M-318.7,608.2c-15.5,0-28.1-12.6-28.1-28.1v-33.3c0-15.5,12.6-28.1,28.1-28.1h1.7c4.9,0,8.9,4,8.9,8.9v71.7 c0,4.9-4,8.9-8.9,8.9H-318.7z"></path> <path d="M-316.9,524.3c1.9,0,3.4,1.5,3.4,3.4v71.7c0,1.9-1.5,3.4-3.4,3.4h-1.7c-12.5,0-22.5-10.1-22.5-22.5v-33.3 c0-12.5,10.1-22.5,22.5-22.5H-316.9 M-316.9,513.3h-1.7c-18.5,0-33.6,15.1-33.6,33.6v33.3c0,18.5,15.1,33.6,33.6,33.6h1.7 c7.9,0,14.4-6.5,14.4-14.4v-71.7C-302.6,519.7-309,513.3-316.9,513.3L-316.9,513.3z"></path> </g> <g> <path class="st2" d="M-346.3,608.2c-15.5,0-28.1-12.6-28.1-28.1v-33.3c0-15.5,12.6-28.1,28.1-28.1h1.7c4.9,0,8.9,4,8.9,8.9v71.7 c0,4.9-4,8.9-8.9,8.9H-346.3z"></path> <path d="M-344.6,524.3c1.9,0,3.4,1.5,3.4,3.4v71.7c0,1.9-1.5,3.4-3.4,3.4h-1.7c-12.5,0-22.5-10.1-22.5-22.5v-33.3 c0-12.5,10.1-22.5,22.5-22.5H-344.6 M-344.6,513.3h-1.7c-18.5,0-33.6,15.1-33.6,33.6v33.3c0,18.5,15.1,33.6,33.6,33.6h1.7 c7.9,0,14.4-6.5,14.4-14.4v-71.7C-330.2,519.7-336.6,513.3-344.6,513.3L-344.6,513.3z"></path> </g> <line class="st8" x1="-379.1" y1="608.9" x2="-143.4" y2="608.9"></line> <g> <path class="st2" d="M-199.5,609c-26.8,0-48.5-21.8-48.5-48.5s21.8-48.5,48.5-48.5s48.5,21.8,48.5,48.5S-172.7,609-199.5,609z"></path> <path d="M-199.5,517.5c23.8,0,43,19.3,43,43c0,23.8-19.3,43-43,43c-23.8,0-43-19.3-43-43C-242.5,536.7-223.2,517.5-199.5,517.5 M-199.5,506.4c-29.8,0-54.1,24.2-54.1,54.1s24.2,54.1,54.1,54.1s54.1-24.2,54.1-54.1S-169.7,506.4-199.5,506.4L-199.5,506.4z"></path> </g> <g> <path class="st2" d="M-199.5,587c-14.6,0-26.5-11.9-26.5-26.5c0-14.6,11.9-26.5,26.5-26.5c14.6,0,26.5,11.9,26.5,26.5 C-173,575.1-184.9,587-199.5,587z"></path> <path d="M-199.5,539.5c11.6,0,21,9.4,21,21s-9.4,21-21,21s-21-9.4-21-21S-211.1,539.5-199.5,539.5 M-199.5,528.5 c-17.7,0-32,14.4-32,32c0,17.7,14.4,32,32,32s32-14.4,32-32C-167.4,542.8-181.8,528.5-199.5,528.5L-199.5,528.5z"></path> </g> <line class="st8" x1="-379.1" y1="588.1" x2="-143.4" y2="588.1"></line> </g> <g> <path class="st9" d="M-95.4,1391.7c-42.1,0-38.1,24-70.3,24l0.3,34.6h70h70l0.3-34.6C-57.3,1415.7-53.2,1391.7-95.4,1391.7z"></path> <line class="st10" x1="-165.6" y1="1399.8" x2="-165.4" y2="1450.2"></line> <path class="st10" d="M-107.2,1433.6h-34.4c-6.3,0-11.3,5.1-11.3,11.3v4.5h57.1v-4.5C-95.9,1438.7-100.9,1433.6-107.2,1433.6z"></path> <path class="st10" d="M-95.4,1488.5h-93.4v32.2h24.1c0,0,14.5-16.1,69.3-16.1s69.3,16.1,69.3,16.1H-2v-32.2H-95.4z"></path> <polygon class="st9" points="-25.4,1450.2 -95.4,1450.2 -165.4,1450.2 -184.4,1480.3 -184.4,1485.8 -95.4,1485.8 -6.4,1485.8 -6.4,1480.3 "></polygon> <line class="st10" x1="-25.1" y1="1399.8" x2="-25.4" y2="1450.2"></line> <path class="st10" d="M-95.4,1466.6c-92,0-89,13.7-89,13.7v5.5l89,0l89,0v-5.5C-6.4,1480.3-3.4,1466.6-95.4,1466.6z"></path> <path class="st10" d="M-83.5,1433.6h34.4c6.3,0,11.3,5.1,11.3,11.3v4.5h-57.1v-4.5C-94.9,1438.7-89.8,1433.6-83.5,1433.6z"></path> </g> <g> <g id="XMLID_3_"> <g> <path class="st2" d="M329.7,1394.9v128.5H174v-128.5c0-9.3,7.6-16.9,16.9-16.9h121.9C322.1,1378,329.7,1385.6,329.7,1394.9z"></path> </g> <g> <path class="st11" d="M312.8,1378H190.9c-9.3,0-16.9,7.6-16.9,16.9v128.5h155.7v-128.5C329.7,1385.6,322.1,1378,312.8,1378z"></path> </g> </g> <line class="st12" x1="182.8" y1="1525.7" x2="182.8" y2="1533.6"></line> <line class="st12" x1="323.3" y1="1525.7" x2="323.3" y2="1533.6"></line> <rect x="277.8" y="1472.4" class="st13" width="51.4" height="25"></rect> <rect x="277.8" y="1497.4" class="st13" width="51.4" height="26"></rect> <rect x="277.8" y="1427.8" class="st14" width="51.4" height="44.6"></rect> <line class="st15" x1="225.9" y1="1376.6" x2="225.9" y2="1525.7"></line> <path class="st13" d="M190.7,1378h35.2v145.5h-51.9v-128.7C173.9,1385.5,181.4,1378,190.7,1378z"></path> <rect x="225.9" y="1378" transform="matrix(-1 -1.224647e-16 1.224647e-16 -1 503.6254 2901.4202)" class="st13" width="51.9" height="145.5"></rect> <line class="st15" x1="277.8" y1="1376.6" x2="277.8" y2="1525.7"></line> <path class="st16" d="M236.2,1458.9L236.2,1458.9c-0.8,0-1.4-0.6-1.4-1.4v-10.4c0-0.8,0.6-1.4,1.4-1.4l0,0c0.8,0,1.4,0.6,1.4,1.4 v10.4C237.5,1458.3,236.9,1458.9,236.2,1458.9z"></path> <path class="st16" d="M296.9,1484.9L296.9,1484.9c0-0.8,0.6-1.4,1.4-1.4h10.4c0.8,0,1.4,0.6,1.4,1.4l0,0c0,0.8-0.6,1.4-1.4,1.4 h-10.4C297.5,1486.3,296.9,1485.7,296.9,1484.9z"></path> <path class="st16" d="M296.9,1510L296.9,1510c0-0.8,0.6-1.4,1.4-1.4h10.4c0.8,0,1.4,0.6,1.4,1.4l0,0c0,0.8-0.6,1.4-1.4,1.4h-10.4 C297.5,1511.3,296.9,1510.7,296.9,1510z"></path> <path class="st16" d="M216,1458.9L216,1458.9c-0.8,0-1.4-0.6-1.4-1.4v-10.4c0-0.8,0.6-1.4,1.4-1.4l0,0c0.8,0,1.4,0.6,1.4,1.4v10.4 C217.3,1458.3,216.7,1458.9,216,1458.9z"></path> </g> <g> <path class="st17" d="M677.3,1511.2H513.9V1422c0-11.8,9.5-21.3,21.3-21.3h120.8c11.8,0,21.3,9.5,21.3,21.3V1511.2z"></path> <g> <path class="st18" d="M511.2,1453.4c-7.9,0-14.3,6.4-14.3,14.3l0,0c0,5.1,2.6,9.5,6.6,12v24.1c0,4.1,3.3,7.4,7.4,7.4h14.5V1482 v-14.3C525.4,1459.8,519,1453.4,511.2,1453.4z"></path> <path class="st18" d="M680.1,1453.4c-7.9,0-14.3,6.4-14.3,14.3v14.3v29.2h14.5c4.1,0,7.4-3.3,7.4-7.4v-24.1c4-2.5,6.6-7,6.6-12 l0,0C694.4,1459.8,688,1453.4,680.1,1453.4z"></path> </g> <rect x="525.4" y="1475.2" class="st18" width="140.4" height="24.2"></rect> <g> <path class="st19" d="M512.4,1514.2c0,1.6,2.1,2.9,4.6,2.9h8.6c2.6,0,4.6-1.3,4.6-2.9v-3h-17.9V1514.2z"></path> <path class="st19" d="M661,1511.2v3c0,1.6,2.1,2.9,4.6,2.9h8.6c2.6,0,4.6-1.3,4.6-2.9v-3H661z"></path> </g> <g> <circle cx="544.2" cy="1424.9" r="3"></circle> <circle cx="544.2" cy="1451.5" r="3"></circle> <circle cx="578.5" cy="1424.9" r="3"></circle> <circle cx="578.5" cy="1451.5" r="3"></circle> <circle cx="612.8" cy="1424.9" r="3"></circle> <circle cx="612.8" cy="1451.5" r="3"></circle> <circle cx="647.1" cy="1424.9" r="3"></circle> <circle cx="647.1" cy="1451.5" r="3"></circle> </g> <circle class="st20" cx="511.2" cy="1467.6" r="5.6"></circle> <circle class="st20" cx="680.1" cy="1467.6" r="5.6"></circle> <rect x="525.4" y="1499.4" class="st18" width="140.4" height="11.4"></rect> </g> <g> <polyline class="st21" points="869.1,1536.5 869.1,1471.8 869.1,1458.1 "></polyline> <rect x="956" y="1458.1" class="st22" width="61.2" height="70.2"></rect> <rect x="869.1" y="1471.8" class="st22" width="86.9" height="18.2"></rect> <rect x="869.1" y="1458.1" class="st22" width="86.9" height="13.7"></rect> <path class="st21" d="M1019.4,1446.5H867.2c-2.9,0-5.3,2.4-5.3,5.3l0,0c0,2.9,2.4,5.3,5.3,5.3h152.2c2.9,0,5.3-2.4,5.3-5.3l0,0 C1024.7,1448.9,1022.3,1446.5,1019.4,1446.5z"></path> <rect x="956" y="1493.2" class="st22" width="61.2" height="35.1"></rect> <path class="st21" d="M979.9,1502.7L979.9,1502.7c0-0.8,0.6-1.4,1.4-1.4h10.5c0.8,0,1.4,0.6,1.4,1.4l0,0c0,0.8-0.6,1.4-1.4,1.4 h-10.5C980.5,1504.1,979.9,1503.5,979.9,1502.7z"></path> <path class="st21" d="M979.9,1466.5L979.9,1466.5c0-0.8,0.6-1.4,1.4-1.4h10.5c0.8,0,1.4,0.6,1.4,1.4l0,0c0,0.8-0.6,1.4-1.4,1.4 h-10.5C980.5,1467.9,979.9,1467.3,979.9,1466.5z"></path> <path class="st21" d="M940.1,1433.5h-60.8c-4.4,0-7.9-3.5-7.9-7.9v-42.2c0-4.4,3.5-7.9,7.9-7.9h60.8c4.4,0,7.9,3.5,7.9,7.9v42.2 C948,1429.9,944.4,1433.5,940.1,1433.5z"></path> <path class="st21" d="M940.1,1433.5h-60.8c-4.4,0-7.9-3.5-7.9-7.9v-5.8H948v5.8C948,1429.9,944.4,1433.5,940.1,1433.5z"></path> <path class="st22" d="M1010.3,1423.3h-45.5c-2.2,0-3.9-1.8-3.9-3.9v-2.1c0-2.2,1.8-3.9,3.9-3.9h45.5c2.2,0,3.9,1.8,3.9,3.9v2.1 C1014.2,1421.5,1012.5,1423.3,1010.3,1423.3z"></path> <path class="st21" d="M977.3,1413.3h-5c-2,0-3.7-1.6-3.7-3.7v-28.3c0-2,1.6-3.7,3.7-3.7h5c2,0,3.7,1.6,3.7,3.7v28.3 C981,1411.6,979.3,1413.3,977.3,1413.3z"></path> <path class="st21" d="M968.6,1387.5L968.6,1387.5c0-0.2,0.2-0.4,0.4-0.4h5.4c0.2,0,0.4,0.2,0.4,0.4l0,0c0,0.2-0.2,0.4-0.4,0.4H969 C968.8,1387.9,968.6,1387.8,968.6,1387.5z"></path> <path class="st21" d="M989.7,1413.3h-5c-2,0-3.7-1.6-3.7-3.7v-28.3c0-2,1.6-3.7,3.7-3.7h5c2,0,3.7,1.6,3.7,3.7v28.3 C993.4,1411.6,991.7,1413.3,989.7,1413.3z"></path> <path class="st21" d="M981,1387.5L981,1387.5c0-0.2,0.2-0.4,0.4-0.4h5.4c0.2,0,0.4,0.2,0.4,0.4l0,0c0,0.2-0.2,0.4-0.4,0.4h-5.4 C981.2,1387.9,981,1387.8,981,1387.5z"></path> <path class="st21" d="M1002.1,1413.3h-5c-2,0-3.7-1.6-3.7-3.7v-28.3c0-2,1.6-3.7,3.7-3.7h5c2,0,3.7,1.6,3.7,3.7v28.3 C1005.8,1411.6,1004.2,1413.3,1002.1,1413.3z"></path> <path class="st21" d="M993.4,1387.5L993.4,1387.5c0-0.2,0.2-0.4,0.4-0.4h5.4c0.2,0,0.4,0.2,0.4,0.4l0,0c0,0.2-0.2,0.4-0.4,0.4h-5.4 C993.6,1387.9,993.4,1387.8,993.4,1387.5z"></path> <line class="st21" x1="960.3" y1="1528.3" x2="960.3" y2="1536.5"></line> <line class="st21" x1="1012.1" y1="1528.3" x2="1012.1" y2="1536.5"></line> <line class="st21" x1="909.6" y1="1433.5" x2="909.6" y2="1446.5"></line> </g> <g> <g> <line class="st23" x1="1228.4" y1="1522.2" x2="1228.4" y2="1530.6"></line> <line class="st23" x1="1351" y1="1522.2" x2="1351" y2="1530.6"></line> </g> <path class="st24" d="M1351.9,1522.2h-124.3c-9.6,0-17.3-7.8-17.3-17.3v-58.4v-13.4c0-9.6,7.8-17.3,17.3-17.3h124.3 c9.6,0,17.3,7.8,17.3,17.3v71.8C1369.2,1514.5,1361.4,1522.2,1351.9,1522.2z"></path> <line class="st23" x1="1369.2" y1="1450.6" x2="1210.2" y2="1450.6"></line> <line class="st23" x1="1369.2" y1="1486.4" x2="1210.2" y2="1486.4"></line> <g> <path class="st23" d="M1245.2,1426.6L1245.2,1426.6c0-0.8,0.6-1.4,1.4-1.4h10.7c0.8,0,1.4,0.6,1.4,1.4l0,0c0,0.8-0.6,1.4-1.4,1.4 h-10.7C1245.8,1428,1245.2,1427.4,1245.2,1426.6z"></path> <path class="st23" d="M1320.7,1426.6L1320.7,1426.6c0-0.8,0.6-1.4,1.4-1.4h10.7c0.8,0,1.4,0.6,1.4,1.4l0,0c0,0.8-0.6,1.4-1.4,1.4 h-10.7C1321.3,1428,1320.7,1427.4,1320.7,1426.6z"></path> </g> <g> <path class="st23" d="M1245.2,1461.9L1245.2,1461.9c0-0.8,0.6-1.4,1.4-1.4h10.7c0.8,0,1.4,0.6,1.4,1.4l0,0c0,0.8-0.6,1.4-1.4,1.4 h-10.7C1245.8,1463.3,1245.2,1462.6,1245.2,1461.9z"></path> <path class="st23" d="M1320.7,1461.9L1320.7,1461.9c0-0.8,0.6-1.4,1.4-1.4h10.7c0.8,0,1.4,0.6,1.4,1.4l0,0c0,0.8-0.6,1.4-1.4,1.4 h-10.7C1321.3,1463.3,1320.7,1462.6,1320.7,1461.9z"></path> </g> <g> <path class="st23" d="M1245.2,1497.1L1245.2,1497.1c0-0.8,0.6-1.4,1.4-1.4h10.7c0.8,0,1.4,0.6,1.4,1.4l0,0c0,0.8-0.6,1.4-1.4,1.4 h-10.7C1245.8,1498.5,1245.2,1497.8,1245.2,1497.1z"></path> <path class="st23" d="M1320.7,1497.1L1320.7,1497.1c0-0.8,0.6-1.4,1.4-1.4h10.7c0.8,0,1.4,0.6,1.4,1.4l0,0c0,0.8-0.6,1.4-1.4,1.4 h-10.7C1321.3,1498.5,1320.7,1497.8,1320.7,1497.1z"></path> </g> <line class="st23" x1="1259.4" y1="1415" x2="1259.4" y2="1395.4"></line> <circle class="st23" cx="1259.6" cy="1378" r="18.1"></circle> <line class="st23" x1="1248.4" y1="1412.7" x2="1270.2" y2="1412.7"></line> <path class="st23" d="M1312.1,1415h-6.5c-1.4,0-2.6-1.2-2.6-2.6v-13.7c0-1.4,1.2-2.6,2.6-2.6h6.5c1.4,0,2.6,1.2,2.6,2.6v13.7 C1314.7,1413.9,1313.6,1415,1312.1,1415z"></path> <rect x="1307.2" y="1390" class="st23" width="3.5" height="5.4"></rect> <path class="st25" d="M1249.9,1383.9c-1-1.7-1.6-3.7-1.6-5.9c0-3.8,1.8-7.1,4.6-9.2"></path> <path class="st25" d="M1253.1,1387.3c-0.1-0.1-0.2-0.2-0.4-0.3"></path> </g> </svg> 