<?xml version="1.0" encoding="UTF-8"?> <!-- Generator: Adobe Illustrator 17.1.0, SVG Export Plug-In . SVG Version: 6.00 Build 0) --> <svg xmlns="http://www.w3.org/2000/svg" xmlns:xlink="http://www.w3.org/1999/xlink" id="Слой_1" x="0px" y="0px" viewBox="0 0 1000 1000" xml:space="preserve"> <g> <g id="XMLID_1_"> <g> <path d="M780.1,457.7c19.5,0,35.3,15.8,35.3,35.3s-15.8,35.3-35.3,35.3s-35.3-15.8-35.3-35.3S760.6,457.7,780.1,457.7z"></path> <path d="M780.1,598.7c19.5,0,35.3,15.8,35.3,35.3c0,19.5-15.8,35.3-35.3,35.3s-35.3-15.8-35.3-35.3 C744.8,614.5,760.6,598.7,780.1,598.7z"></path> <path d="M233.6,158h528.8v-52.9c0-9.7,7.9-17.6,17.6-17.6c9.7,0,17.6,7.9,17.6,17.6V158H877c34,0,61.7,27.7,61.7,61.7v687.5 c0,34-27.7,61.7-61.7,61.7H119c-34,0-61.7-27.7-61.7-61.7V219.7c0-34,27.7-61.7,61.7-61.7h79.3v-52.9c0-9.7,7.9-17.6,17.6-17.6 s17.6,7.9,17.6,17.6V158z M903.5,369.5H92.6v537.6c0,14.6,11.9,26.4,26.4,26.4h758c14.6,0,26.4-11.9,26.4-26.4V369.5z M762.4,193.3H233.6v52.9c0,9.7-7.9,17.6-17.6,17.6s-17.6-7.9-17.6-17.6v-52.9H119c-14.6,0-26.4,11.9-26.4,26.4v114.6h810.9 V219.7c0-14.6-11.9-26.4-26.4-26.4h-79.3v52.9c0,9.7-7.9,17.6-17.6,17.6c-9.7,0-17.6-7.9-17.6-17.6V193.3z"></path> <path fill="#FFFFFF" d="M357,528.2c19.5,0,35.3-15.8,35.3-35.3s-15.8-35.3-35.3-35.3c-19.5,0-35.3,15.8-35.3,35.3 S337.5,528.2,357,528.2z M550.9,775c0-29.1-23.7-52.9-52.9-52.9c-29.1,0-52.9,23.7-52.9,52.9c0,29.1,23.7,52.9,52.9,52.9 C527.2,827.9,550.9,804.1,550.9,775z M92.6,369.5h810.9v537.6c0,14.6-11.9,26.4-26.4,26.4H119c-14.6,0-26.4-11.9-26.4-26.4V369.5 z M498,528.2c19.5,0,35.3-15.8,35.3-35.3s-15.8-35.3-35.3-35.3c-19.5,0-35.3,15.8-35.3,35.3S478.6,528.2,498,528.2z M674.3,492.9 c0-19.5-15.8-35.3-35.3-35.3s-35.3,15.8-35.3,35.3s15.8,35.3,35.3,35.3S674.3,512.4,674.3,492.9z M216,669.2 c19.5,0,35.3-15.8,35.3-35.3c0-19.5-15.8-35.3-35.3-35.3s-35.3,15.8-35.3,35.3C180.7,653.4,196.5,669.2,216,669.2z M815.3,492.9 c0-19.5-15.8-35.3-35.3-35.3s-35.3,15.8-35.3,35.3s15.8,35.3,35.3,35.3S815.3,512.4,815.3,492.9z M815.3,634 c0-19.5-15.8-35.3-35.3-35.3s-35.3,15.8-35.3,35.3c0,19.5,15.8,35.3,35.3,35.3S815.3,653.4,815.3,634z M674.3,634 c0-19.5-15.8-35.3-35.3-35.3s-35.3,15.8-35.3,35.3c0,19.5,15.8,35.3,35.3,35.3S674.3,653.4,674.3,634z M533.3,634 c0-19.5-15.8-35.3-35.3-35.3c-19.5,0-35.3,15.8-35.3,35.3c0,19.5,15.8,35.3,35.3,35.3C517.5,669.2,533.3,653.4,533.3,634z M392.3,634c0-19.5-15.8-35.3-35.3-35.3c-19.5,0-35.3,15.8-35.3,35.3c0,19.5,15.8,35.3,35.3,35.3 C376.5,669.2,392.3,653.4,392.3,634z M392.3,775c0-19.5-15.8-35.3-35.3-35.3c-19.5,0-35.3,15.8-35.3,35.3s15.8,35.3,35.3,35.3 C376.5,810.2,392.3,794.5,392.3,775z M251.2,775c0-19.5-15.8-35.3-35.3-35.3s-35.3,15.8-35.3,35.3s15.8,35.3,35.3,35.3 S251.2,794.5,251.2,775z"></path> <path d="M639.1,457.7c19.5,0,35.3,15.8,35.3,35.3s-15.8,35.3-35.3,35.3s-35.3-15.8-35.3-35.3S619.6,457.7,639.1,457.7z"></path> <path d="M639.1,598.7c19.5,0,35.3,15.8,35.3,35.3c0,19.5-15.8,35.3-35.3,35.3s-35.3-15.8-35.3-35.3 C603.8,614.5,619.6,598.7,639.1,598.7z"></path> <path d="M498,722.1c29.1,0,52.9,23.7,52.9,52.9c0,29.1-23.7,52.9-52.9,52.9c-29.1,0-52.9-23.7-52.9-52.9 C445.1,745.8,468.9,722.1,498,722.1z M515.7,775c0-9.7-7.9-17.6-17.6-17.6s-17.6,7.9-17.6,17.6c0,9.7,7.9,17.6,17.6,17.6 S515.7,784.7,515.7,775z"></path> <path d="M533.3,492.9c0,19.5-15.8,35.3-35.3,35.3c-19.5,0-35.3-15.8-35.3-35.3s15.8-35.3,35.3-35.3 C517.5,457.7,533.3,473.5,533.3,492.9z"></path> <path d="M498,598.7c19.5,0,35.3,15.8,35.3,35.3c0,19.5-15.8,35.3-35.3,35.3c-19.5,0-35.3-15.8-35.3-35.3 C462.8,614.5,478.6,598.7,498,598.7z"></path> <path fill="#7AB95D" d="M498,757.3c9.7,0,17.6,7.9,17.6,17.6c0,9.7-7.9,17.6-17.6,17.6s-17.6-7.9-17.6-17.6 C480.4,765.2,488.3,757.3,498,757.3z"></path> <path d="M392.3,492.9c0,19.5-15.8,35.3-35.3,35.3c-19.5,0-35.3-15.8-35.3-35.3s15.8-35.3,35.3-35.3 C376.5,457.7,392.3,473.5,392.3,492.9z"></path> <path d="M357,598.7c19.5,0,35.3,15.8,35.3,35.3c0,19.5-15.8,35.3-35.3,35.3c-19.5,0-35.3-15.8-35.3-35.3 C321.8,614.5,337.5,598.7,357,598.7z"></path> <path d="M357,739.7c19.5,0,35.3,15.8,35.3,35.3s-15.8,35.3-35.3,35.3c-19.5,0-35.3-15.8-35.3-35.3S337.5,739.7,357,739.7z"></path> <path d="M216,598.7c19.5,0,35.3,15.8,35.3,35.3c0,19.5-15.8,35.3-35.3,35.3s-35.3-15.8-35.3-35.3 C180.7,614.5,196.5,598.7,216,598.7z"></path> <path fill="#7AB95D" d="M903.5,334.3H92.6V219.7c0-14.6,11.9-26.4,26.4-26.4h79.3v52.9c0,9.7,7.9,17.6,17.6,17.6 s17.6-7.9,17.6-17.6v-52.9h528.8v52.9c0,9.7,7.9,17.6,17.6,17.6c9.7,0,17.6-7.9,17.6-17.6v-52.9H877c14.6,0,26.4,11.9,26.4,26.4 V334.3z"></path> <path d="M216,739.7c19.5,0,35.3,15.8,35.3,35.3s-15.8,35.3-35.3,35.3s-35.3-15.8-35.3-35.3S196.5,739.7,216,739.7z"></path> </g> <g> </g> </g> </g> </svg> 