<?xml version="1.0" encoding="UTF-8"?> <!-- Generator: Adobe Illustrator 17.1.0, SVG Export Plug-In . SVG Version: 6.00 Build 0) --> <svg xmlns="http://www.w3.org/2000/svg" xmlns:xlink="http://www.w3.org/1999/xlink" id="Слой_1" x="0px" y="0px" viewBox="0 -114 1098 1114" xml:space="preserve"> <g> <g id="XMLID_1_"> <g> <path fill="#7AB95D" d="M1044.4,39.3v17.5H939.6V39.3c0-28.9,23.5-52.4,52.4-52.4C1021-13.1,1044.4,10.4,1044.4,39.3z"></path> <rect x="275.9" y="441.1" width="558.9" height="34.9"></rect> <rect x="730" y="336.3" width="104.8" height="34.9"></rect> <rect x="275.9" y="231.5" width="558.9" height="34.9"></rect> <path d="M808.2,563.3c38.5,43.1,34.8,109.3-8.3,147.8v96.8c0,3.4-1,6.8-2.9,9.7c-5.4,8-16.2,10.2-24.2,4.8L730,793.9l-42.7,28.5 c-2.9,1.9-6.2,2.9-9.7,2.9c-9.7,0-17.5-7.8-17.5-17.5v-96.8c-22.3-19.9-35-48.3-34.9-78.2c0.1-57.8,47-104.6,104.8-104.5 C759.9,528.4,788.3,541.1,808.2,563.3z M799.9,633.2c0-38.6-31.3-69.9-69.9-69.9c-38.6,0-69.9,31.3-69.9,69.9 s31.3,69.9,69.9,69.9C768.6,703.1,799.9,671.8,799.9,633.2z M764.9,775.2v-43.3c-22.6,8.1-47.3,8.1-69.9,0v43.3l25.2-16.8 c5.9-3.9,13.5-3.9,19.4,0L764.9,775.2z"></path> <path fill="#7AB95D" d="M782.4,965.1H188.5h-69.9c-28.9,0-52.4-23.5-52.4-52.4v-17.5h698.7v17.5 C764.9,931.6,771.1,950,782.4,965.1z"></path> <path fill="#7AB95D" d="M730,563.3c38.6,0,69.9,31.3,69.9,69.9s-31.3,69.9-69.9,69.9c-38.6,0-69.9-31.3-69.9-69.9 S691.4,563.3,730,563.3z"></path> <path fill="#7AB95D" d="M764.9,731.9v43.3l-25.2-16.8c-5.9-3.9-13.5-3.9-19.4,0l-25.2,16.8v-43.3 C717.7,740,742.4,740,764.9,731.9z"></path> <rect x="275.9" y="336.3" width="384.3" height="34.9"></rect> <rect x="433.1" y="126.7" width="227.1" height="34.9"></rect> <rect x="433.1" y="633.2" width="52.4" height="34.9"></rect> <rect x="275.9" y="545.9" width="209.6" height="34.9"></rect> <rect x="275.9" y="633.2" width="87.3" height="34.9"></rect> <path fill="#FFFFFF" d="M206,39.3c0-28.9,23.5-52.4,52.4-52.4h663.7c-0.5,0.7-0.9,1.5-1.3,2.1c-1,1.4-1.9,3-2.9,4.5 c-1.8,2.9-3.5,6-4.9,9.1c-0.8,1.7-1.6,3.5-2.2,5.2c-1.3,3.4-2.4,6.9-3.3,10.4c-0.4,1.6-0.9,3.2-1.2,4.9c-1,5.3-1.6,10.7-1.6,16.1 v873.3c0,28.9-23.5,52.4-52.4,52.4c-28.9,0-52.4-23.5-52.4-52.4v-34.9c0-9.6-7.8-17.5-17.5-17.5H206V39.3z M834.8,476v-34.9 H275.9V476H834.8z M834.8,371.2v-34.9H730v34.9H834.8z M834.8,266.4v-34.9H275.9v34.9H834.8z M799.9,711.1 c43.1-38.5,46.8-104.7,8.3-147.8c-19.9-22.2-48.3-35-78.2-34.9c-57.8-0.1-104.7,46.7-104.8,104.5c0,29.8,12.7,58.3,34.9,78.2 v96.8c0,9.6,7.8,17.5,17.5,17.5c3.5,0,6.8-1,9.7-2.9l42.7-28.5l42.7,28.5c8,5.4,18.9,3.2,24.2-4.8c1.9-2.9,2.9-6.2,2.9-9.7V711.1 z M660.1,371.2v-34.9H275.9v34.9H660.1z M660.1,161.6v-34.9H433.1v34.9H660.1z M485.5,668.1v-34.9h-52.4v34.9H485.5z M485.5,580.8v-34.9H275.9v34.9H485.5z M363.2,668.1v-34.9h-87.3v34.9H363.2z"></path> <path d="M206,39.3v820.9h576.4c9.6,0,17.5,7.8,17.5,17.5v34.9c0,28.9,23.5,52.4,52.4,52.4c28.9,0,52.4-23.5,52.4-52.4V39.3 c0-5.4,0.6-10.8,1.6-16.1c0.3-1.7,0.8-3.3,1.2-4.9c0.9-3.5,2-7,3.3-10.4c0.7-1.7,1.4-3.5,2.2-5.2c1.5-3.1,3.1-6.2,4.9-9.1 c0.9-1.5,1.8-3,2.9-4.5c0.5-0.7,0.9-1.5,1.3-2.1H258.4C229.5-13.1,206,10.4,206,39.3z M171.1,860.3V39.3 c0.1-48.2,39.1-87.3,87.3-87.3H992c48.2,0.1,87.3,39.1,87.3,87.3v34.9c0,9.6-7.8,17.5-17.5,17.5H939.6v820.9 c-0.1,48.2-39.1,87.3-87.3,87.3H118.7c-48.2-0.1-87.3-39.1-87.3-87.3v-34.9c0-9.6,7.8-17.5,17.5-17.5H171.1z M1044.4,56.8V39.3 c0-28.9-23.5-52.4-52.4-52.4c-28.9,0-52.4,23.5-52.4,52.4v17.5H1044.4z M188.5,965.1h593.9c-11.4-15.1-17.5-33.5-17.5-52.4v-17.5 H66.3v17.5c0,28.9,23.5,52.4,52.4,52.4H188.5z"></path> </g> <g> </g> </g> </g> </svg> 