<?xml version="1.0" encoding="UTF-8"?> <!-- Generator: Adobe Illustrator 17.1.0, SVG Export Plug-In . SVG Version: 6.00 Build 0) --> <svg xmlns="http://www.w3.org/2000/svg" xmlns:xlink="http://www.w3.org/1999/xlink" id="Слой_1" x="0px" y="0px" viewBox="0 0 1000 1000" xml:space="preserve"> <circle fill="#F0A901" cx="500" cy="500" r="363.9"></circle> <g> <g id="XMLID_1_"> <g> <path d="M724,617c0,24.9-6,49-17.4,69.5c-1.3,2.3-3.8,3.8-6.4,3.8h-16.6c-9.2,26.2-34,44-62.2,44s-52.9-17.8-62.2-44h-16.6 c-2.7,0-5.1-1.4-6.4-3.8C525,666.4,519,643,518.7,618.8c0-0.6,0-1.2,0-1.8c0-0.6,0-1.1,0-1.7c0-0.2,0-0.5,0-0.7c0-0.3,0-0.7,0-1 c0-0.3,0-0.6,0-0.9c0-0.2,0-0.5,0-0.8c0-0.3,0-0.6,0-1c0-0.2,0-0.5,0-0.7c0-0.3,0-0.6,0-1c0-0.2,0-0.5,0-0.7c0-0.3,0-0.7,0.1-1 c0-0.2,0-0.4,0-0.6c0-0.4,0.1-0.8,0.1-1.2c0-0.1,0-0.2,0-0.3c2.3-31.6,14.4-60.7,34.1-81.9c0.1-0.1,0.2-0.2,0.3-0.3 c0.2-0.2,0.4-0.5,0.7-0.7c3.2-3.4,6.6-6.6,10.2-9.5c0.1-0.1,0.3-0.2,0.4-0.3c0.4-0.3,0.8-0.6,1.2-0.9c0.4-0.3,0.7-0.6,1.1-0.8 c0,0,0.1,0,0.1-0.1c8.2-6.3,17.1-11,26.3-14.2l3.5-16.6c1.8-8.6,8.6-15.1,17-16.9v-20.7h14.7V441h0v22.5 c8.3,1.8,15.2,8.3,17,16.9l3.6,16.6c0.5,0.2,1,0.4,1.6,0.6c0.2,0.1,0.4,0.1,0.6,0.2c0.4,0.2,0.8,0.3,1.2,0.5 c0.3,0.1,0.6,0.2,1,0.4c0.3,0.1,0.6,0.2,0.9,0.4c20.3,8.4,37.9,24.4,50.4,45.6C716.9,565,724,590,724,617z M709.3,617 c0-7.6-0.6-15.1-1.8-22.3c-15.6-0.6-30.9-2.8-45.7-6.5c-36,29.1-80.6,46.7-126.8,50c2.1,13.2,6.1,25.9,12,37.4h148.8 C704.6,658.1,709.3,637.9,709.3,617z M662.9,573.4c13.4,3.5,27.1,5.6,41.1,6.4c-11.8-41.3-42.4-70.1-77.5-72.7c0,0,0,0,0,0 c-1.1-0.1-2.2-0.1-3.3-0.2c-0.1,0-0.2,0-0.3,0c-0.5,0-1.1,0-1.6,0c-0.5,0-1,0-1.4,0c-0.1,0-0.3,0-0.4,0c-0.4,0-0.8,0-1.1,0 c-0.1,0-0.2,0-0.4,0c-0.5,0-0.9,0-1.4,0.1c-0.1,0-0.3,0-0.4,0c-0.3,0-0.6,0-0.9,0.1c-0.2,0-0.4,0-0.6,0c-0.4,0-0.9,0.1-1.3,0.1 c-0.2,0-0.3,0-0.5,0.1c-0.3,0-0.6,0.1-0.9,0.1c-0.2,0-0.4,0-0.6,0.1c-0.3,0-0.6,0.1-0.9,0.1c-0.3,0-0.5,0.1-0.7,0.1 c-0.3,0.1-0.6,0.1-0.9,0.2c-0.2,0-0.4,0.1-0.6,0.1c-0.3,0.1-0.6,0.1-0.8,0.2c-0.2,0-0.3,0.1-0.5,0.1c-0.4,0.1-0.9,0.2-1.3,0.3 c-0.1,0-0.2,0.1-0.4,0.1c-0.4,0.1-0.8,0.2-1.1,0.3c-0.1,0-0.2,0-0.3,0.1c-10.8,2.7-21.1,8-30.4,15.7 c25.1,22.9,55.6,39.5,88.6,48.2C662.3,573.2,662.6,573.3,662.9,573.4z M667.7,690.3H575c8.4,17.7,26.3,29.3,46.3,29.3 C641.4,719.6,659.3,707.9,667.7,690.3z M633.4,493.2l-2.1-9.7c-0.7-3.4-3.7-5.8-7.2-5.8h-5.6c-3.4,0-6.5,2.4-7.2,5.8l-2.1,9.7 c1.4-0.2,2.7-0.4,4.1-0.5c0.1,0,0.2,0,0.3,0c0.6-0.1,1.2-0.1,1.8-0.1c0.4,0,0.7,0,1.1-0.1c0.2,0,0.5,0,0.7,0 c0.6,0,1.1-0.1,1.7-0.1c0.2,0,0.3,0,0.5,0c0.6,0,1.3,0,1.9,0c0.7,0,1.3,0,2,0c0.1,0,0.2,0,0.3,0c0.6,0,1.3,0,1.9,0.1 c0.1,0,0.2,0,0.3,0c1.4,0.1,2.7,0.2,4,0.3c0.1,0,0.1,0,0.2,0c0.7,0.1,1.3,0.1,2,0.2c0.1,0,0.1,0,0.2,0 C632.7,493.1,633,493.1,633.4,493.2z M644.3,583.2c-29.1-9.7-56-25.3-79.3-46.1c-0.1,0-0.1-0.1-0.2-0.1c-0.6-0.5-1.2-1.1-1.8-1.6 c-0.1-0.1-0.2-0.2-0.3-0.2c-7.3,8.2-13.4,17.6-18.1,28c0,0,0,0,0,0.1c-0.1,0.3-0.2,0.6-0.4,0.8c-0.1,0.2-0.2,0.4-0.3,0.6 c0,0.1-0.1,0.2-0.1,0.2c-2.5,5.8-4.6,12-6.3,18.4c-1.7,6.4-2.9,13-3.6,19.9c0,0.4-0.1,0.9-0.1,1.3c0,0.1,0,0.1,0,0.2 c0,0.4-0.1,0.8-0.1,1.2c0,0.1,0,0.2,0,0.2c0,0.4-0.1,0.7-0.1,1.1c0,0.1,0,0.3,0,0.4c0,0.3,0,0.6-0.1,0.9c0,0.2,0,0.4,0,0.6 c0,0.3,0,0.6-0.1,0.9c0,0.2,0,0.4,0,0.6c0,0.3,0,0.6,0,0.8c0,0.2,0,0.5,0,0.7c0,0.3,0,0.5,0,0.8c0,0.3,0,0.6,0,1 c0,0.1,0,0.3,0,0.4c0,0.3,0,0.6,0,1c0,0.2,0,0.4,0,0.5c0,0.5,0,1,0,1.4c0,2.1,0.1,4.4,0.2,6.7 C573.4,620.9,612.1,606.7,644.3,583.2z"></path> <path fill="#7AB95D" d="M709.3,617c0,20.9-4.7,41.1-13.6,58.7H546.9c-5.8-11.5-9.9-24.1-12-37.4c46.2-3.3,90.8-20.9,126.8-50 c14.8,3.7,30.2,5.8,45.7,6.5C708.7,601.9,709.3,609.3,709.3,617z"></path> <path fill="#7AB95D" d="M704.1,579.8c-14-0.8-27.8-3-41.1-6.4c-0.3-0.1-0.6-0.2-1-0.3c-33-8.7-63.4-25.4-88.6-48.2 c9.4-7.7,19.6-13,30.4-15.7c0.1,0,0.2,0,0.3-0.1c0.4-0.1,0.8-0.2,1.1-0.3c0.1,0,0.2-0.1,0.4-0.1c0.4-0.1,0.9-0.2,1.3-0.3 c0.2,0,0.3-0.1,0.5-0.1c0.3-0.1,0.6-0.1,0.8-0.2c0.2,0,0.4-0.1,0.6-0.1c0.3-0.1,0.6-0.1,0.9-0.2c0.3,0,0.5-0.1,0.7-0.1 c0.3,0,0.6-0.1,0.9-0.1c0.2,0,0.4,0,0.6-0.1c0.3,0,0.6-0.1,0.9-0.1c0.2,0,0.3,0,0.5-0.1c0.4,0,0.8-0.1,1.3-0.1c0.2,0,0.4,0,0.6,0 c0.3,0,0.6-0.1,0.9-0.1c0.1,0,0.3,0,0.4,0c0.5,0,0.9-0.1,1.4-0.1c0.1,0,0.2,0,0.4,0c0.4,0,0.8,0,1.1,0c0.1,0,0.3,0,0.4,0 c0.5,0,0.9,0,1.4,0c0.5,0,1.1,0,1.6,0c0.1,0,0.2,0,0.3,0c1.1,0,2.2,0.1,3.3,0.2c0,0,0,0,0,0C661.7,509.8,692.2,538.5,704.1,579.8 z"></path> <path fill="#FFFFFF" d="M575,690.3h92.7c-8.4,17.7-26.3,29.3-46.3,29.3C601.3,719.6,583.3,707.9,575,690.3z"></path> <path fill="#FFFFFF" d="M631.3,483.4l2.1,9.7c-0.4,0-0.7-0.1-1.1-0.1c-0.1,0-0.1,0-0.2,0c-0.7-0.1-1.3-0.2-2-0.2 c-0.1,0-0.1,0-0.2,0c-1.3-0.1-2.7-0.2-4-0.3c-0.1,0-0.2,0-0.3,0c-0.6,0-1.3-0.1-1.9-0.1c-0.1,0-0.2,0-0.3,0c-0.7,0-1.3,0-2,0 c-0.6,0-1.3,0-1.9,0c-0.2,0-0.3,0-0.5,0c-0.6,0-1.1,0-1.7,0.1c-0.2,0-0.5,0-0.7,0c-0.4,0-0.7,0-1.1,0.1c-0.6,0-1.2,0.1-1.8,0.1 c-0.1,0-0.2,0-0.3,0c-1.4,0.1-2.8,0.3-4.1,0.5l2.1-9.7c0.7-3.4,3.7-5.8,7.2-5.8h5.6C627.6,477.6,630.6,480.1,631.3,483.4z"></path> <rect x="614" y="441" width="14.7" height="1.8"></rect> <polygon points="628.7,281.4 628.7,441 614,441 614,442.7 614,442.7 614,281.4 "></polygon> <path fill="#7AB95D" d="M565,537c23.3,20.8,50.2,36.4,79.3,46.1c-32.2,23.5-70.9,37.7-110.8,40.5c-0.1-2.3-0.2-4.5-0.2-6.7 c0-0.5,0-1,0-1.4c0-0.2,0-0.4,0-0.5c0-0.3,0-0.6,0-1c0-0.1,0-0.3,0-0.4c0-0.3,0-0.6,0-1c0-0.3,0-0.5,0-0.8c0-0.2,0-0.5,0-0.7 c0-0.3,0-0.6,0-0.8c0-0.2,0-0.4,0-0.6c0-0.3,0-0.6,0.1-0.9c0-0.2,0-0.4,0-0.6c0-0.3,0-0.6,0.1-0.9c0-0.1,0-0.3,0-0.4 c0-0.4,0.1-0.7,0.1-1.1c0-0.1,0-0.2,0-0.2c0-0.4,0.1-0.8,0.1-1.2c0-0.1,0-0.1,0-0.2c0-0.4,0.1-0.9,0.1-1.3 c0.7-6.8,1.9-13.5,3.6-19.9c1.7-6.4,3.8-12.5,6.3-18.4c0-0.1,0.1-0.1,0.1-0.2c0.1-0.2,0.2-0.4,0.3-0.6c0.1-0.3,0.3-0.6,0.4-0.8 c0,0,0,0,0-0.1c4.7-10.4,10.8-19.8,18.1-28c0.1,0.1,0.2,0.2,0.3,0.2c0.6,0.6,1.2,1.1,1.8,1.6C564.9,536.9,565,537,565,537z"></path> <path d="M489.3,552.7c0,24.9-6,49-17.4,69.5c-1.3,2.3-3.8,3.8-6.4,3.8h-16.6c-9.2,26.2-34,44-62.2,44s-52.9-17.8-62.2-44h-16.6 c-2.7,0-5.1-1.4-6.4-3.8c-11.1-20.1-17.1-43.5-17.4-67.7c0-0.6,0-1.2,0-1.8c0-0.6,0-1.1,0-1.7c0-0.2,0-0.5,0-0.7c0-0.3,0-0.7,0-1 c0-0.3,0-0.6,0-0.9c0-0.2,0-0.5,0-0.8c0-0.3,0-0.6,0-1c0-0.2,0-0.5,0-0.7c0-0.3,0-0.6,0-1c0-0.2,0-0.5,0-0.7c0-0.3,0-0.7,0.1-1 c0-0.2,0-0.4,0-0.6c0-0.4,0.1-0.8,0.1-1.2c0-0.1,0-0.2,0-0.3c2.3-31.6,14.4-60.7,34.1-81.9c0.1-0.1,0.2-0.2,0.3-0.3 c0.2-0.2,0.4-0.5,0.7-0.7c3.2-3.4,6.6-6.6,10.2-9.5c0.1-0.1,0.3-0.2,0.4-0.3c0.4-0.3,0.8-0.6,1.2-0.9c0.4-0.3,0.7-0.6,1.1-0.8 c0,0,0.1-0.1,0.1-0.1c8.2-6.3,17.1-11,26.3-14.2l3.5-16.6c1.8-8.6,8.6-15.1,17-16.9V281.4H394v117.8c8.3,1.8,15.2,8.3,17,16.9 l3.6,16.6c0.5,0.2,1.1,0.4,1.6,0.6c0.2,0.1,0.4,0.1,0.6,0.2c0.4,0.2,0.8,0.3,1.2,0.5c0.3,0.1,0.6,0.3,1,0.4 c0.3,0.1,0.6,0.3,0.9,0.4c20.3,8.4,37.9,24.4,50.4,45.6C482.2,500.7,489.3,525.7,489.3,552.7z M474.7,552.7 c0-7.6-0.6-15.1-1.8-22.3c-15.6-0.6-30.9-2.8-45.7-6.5c-36,29.1-80.6,46.7-126.8,50c2.1,13.2,6.1,25.9,12,37.4h148.8 C470,593.8,474.7,573.6,474.7,552.7z M428.3,509.2c13.4,3.5,27.1,5.6,41.1,6.4c-11.8-41.3-42.4-70.1-77.5-72.7c0,0,0,0,0,0 c-1.1-0.1-2.2-0.1-3.3-0.2c-0.1,0-0.2,0-0.3,0c-0.5,0-1.1,0-1.6,0c-0.5,0-1,0-1.4,0c-0.1,0-0.3,0-0.4,0c-0.4,0-0.8,0-1.1,0 c-0.1,0-0.2,0-0.4,0c-0.5,0-0.9,0-1.4,0.1c-0.1,0-0.3,0-0.4,0c-0.3,0-0.6,0-0.9,0.1c-0.2,0-0.4,0-0.6,0c-0.4,0-0.9,0.1-1.3,0.1 c-0.2,0-0.3,0-0.5,0.1c-0.3,0-0.6,0.1-0.9,0.1c-0.2,0-0.4,0-0.6,0.1c-0.3,0-0.6,0.1-0.9,0.1c-0.3,0-0.5,0.1-0.7,0.1 c-0.3,0.1-0.6,0.1-0.9,0.2c-0.2,0-0.4,0.1-0.6,0.1c-0.3,0.1-0.6,0.1-0.8,0.2c-0.2,0-0.3,0.1-0.5,0.1c-0.4,0.1-0.9,0.2-1.3,0.3 c-0.1,0-0.2,0.1-0.4,0.1c-0.4,0.1-0.8,0.2-1.1,0.3c-0.1,0-0.2,0-0.3,0.1c-10.8,2.7-21.1,8-30.4,15.7 c25.1,22.9,55.6,39.5,88.6,48.2C427.6,508.9,428,509,428.3,509.2z M433,626.1h-92.7c8.3,17.7,26.3,29.3,46.3,29.3 C406.7,655.4,424.6,643.7,433,626.1z M398.7,428.9l-2.1-9.7c-0.7-3.4-3.7-5.8-7.2-5.8h-5.6c-3.4,0-6.5,2.4-7.2,5.8l-2.1,9.7 c1.4-0.2,2.7-0.4,4.1-0.5c0.1,0,0.2,0,0.3,0c0.6-0.1,1.2-0.1,1.8-0.1c0.4,0,0.7,0,1.1-0.1c0.2,0,0.5,0,0.7,0 c0.6,0,1.1-0.1,1.7-0.1c0.2,0,0.3,0,0.5,0c0.6,0,1.3,0,1.9,0c0.7,0,1.3,0,2,0c0.1,0,0.2,0,0.3,0c0.6,0,1.3,0,1.9,0.1 c0.1,0,0.2,0,0.3,0c1.4,0.1,2.7,0.2,4,0.3c0.1,0,0.1,0,0.2,0c0.7,0.1,1.3,0.1,2,0.2c0.1,0,0.1,0,0.2,0 C398,428.8,398.4,428.9,398.7,428.9z M409.7,518.9c-29.1-9.7-56-25.3-79.3-46.1c-0.1,0-0.1-0.1-0.2-0.1c-0.6-0.5-1.2-1.1-1.8-1.6 c-0.1-0.1-0.2-0.2-0.3-0.3c-7.3,8.2-13.4,17.6-18.1,28c0,0,0,0,0,0.1c-0.1,0.3-0.2,0.6-0.4,0.8c-0.1,0.2-0.2,0.4-0.3,0.6 c0,0.1-0.1,0.2-0.1,0.2c-2.5,5.8-4.6,12-6.3,18.4c-1.7,6.4-2.9,13-3.6,19.9c0,0.4-0.1,0.9-0.1,1.3c0,0.1,0,0.1,0,0.2 c0,0.4-0.1,0.8-0.1,1.2c0,0.1,0,0.2,0,0.2c0,0.4-0.1,0.7-0.1,1.1c0,0.1,0,0.3,0,0.4c0,0.3,0,0.6-0.1,0.9c0,0.2,0,0.4,0,0.6 c0,0.3,0,0.6-0.1,0.9c0,0.2,0,0.4,0,0.6c0,0.3,0,0.6,0,0.8c0,0.2,0,0.5,0,0.7c0,0.3,0,0.5,0,0.8c0,0.3,0,0.6,0,1 c0,0.1,0,0.3,0,0.4c0,0.3,0,0.6,0,1c0,0.2,0,0.4,0,0.5c0,0.5,0,1,0,1.4c0,2.1,0.1,4.4,0.2,6.7 C338.8,556.6,377.4,542.5,409.7,518.9z"></path> <path fill="#7AB95D" d="M472.9,530.5c1.2,7.2,1.8,14.6,1.8,22.3c0,20.9-4.7,41.1-13.6,58.7H312.3c-5.8-11.5-9.9-24.1-12-37.4 c46.2-3.3,90.8-20.9,126.8-50C442,527.7,457.3,529.8,472.9,530.5z"></path> <path fill="#7AB95D" d="M469.4,515.6c-14-0.8-27.8-3-41.1-6.4c-0.3-0.1-0.6-0.2-1-0.3c-33-8.7-63.4-25.4-88.6-48.2 c9.4-7.7,19.6-13,30.4-15.7c0.1,0,0.2,0,0.3-0.1c0.4-0.1,0.8-0.2,1.1-0.3c0.1,0,0.2-0.1,0.4-0.1c0.4-0.1,0.9-0.2,1.3-0.3 c0.2,0,0.3-0.1,0.5-0.1c0.3-0.1,0.6-0.1,0.8-0.2c0.2,0,0.4-0.1,0.6-0.1c0.3-0.1,0.6-0.1,0.9-0.2c0.3,0,0.5-0.1,0.7-0.1 c0.3,0,0.6-0.1,0.9-0.1c0.2,0,0.4,0,0.6-0.1c0.3,0,0.6-0.1,0.9-0.1c0.2,0,0.3,0,0.5-0.1c0.4,0,0.8-0.1,1.3-0.1c0.2,0,0.4,0,0.6,0 c0.3,0,0.6-0.1,0.9-0.1c0.1,0,0.3,0,0.4,0c0.5,0,0.9-0.1,1.4-0.1c0.1,0,0.2,0,0.4,0c0.4,0,0.7,0,1.1,0c0.1,0,0.3,0,0.4,0 c0.5,0,0.9,0,1.4,0c0.5,0,1.1,0,1.6,0c0.1,0,0.2,0,0.3,0c1.1,0,2.2,0.1,3.3,0.2c0,0,0,0,0,0C427,445.5,457.6,474.3,469.4,515.6z"></path> <path fill="#FFFFFF" d="M340.3,626.1H433c-8.4,17.7-26.3,29.3-46.3,29.3C366.6,655.4,348.7,643.7,340.3,626.1z"></path> <path fill="#FFFFFF" d="M396.7,419.2l2.1,9.7c-0.4,0-0.7-0.1-1.1-0.1c0,0-0.1,0-0.2,0c-0.7-0.1-1.3-0.2-2-0.2c-0.1,0-0.1,0-0.2,0 c-1.3-0.1-2.7-0.2-4-0.3c-0.1,0-0.2,0-0.3,0c-0.6,0-1.3-0.1-1.9-0.1c-0.1,0-0.2,0-0.3,0c-0.7,0-1.3,0-2,0c-0.6,0-1.3,0-1.9,0 c-0.2,0-0.3,0-0.5,0c-0.6,0-1.1,0-1.7,0.1c-0.2,0-0.5,0-0.7,0c-0.4,0-0.7,0-1.1,0.1c-0.6,0-1.2,0.1-1.8,0.1c-0.1,0-0.2,0-0.3,0 c-1.4,0.1-2.8,0.3-4.1,0.5l2.1-9.7c0.7-3.4,3.7-5.8,7.2-5.8h5.6C392.9,413.4,395.9,415.8,396.7,419.2z"></path> <path fill="#7AB95D" d="M330.4,472.8c23.3,20.8,50.2,36.4,79.3,46.1c-32.2,23.5-70.9,37.7-110.8,40.5c-0.1-2.3-0.2-4.5-0.2-6.7 c0-0.5,0-1,0-1.4c0-0.2,0-0.4,0-0.5c0-0.3,0-0.6,0-1c0-0.1,0-0.3,0-0.4c0-0.3,0-0.6,0-1c0-0.3,0-0.5,0-0.8c0-0.2,0-0.5,0-0.7 c0-0.3,0-0.6,0-0.8c0-0.2,0-0.4,0-0.6c0-0.3,0-0.6,0.1-0.9c0-0.2,0-0.4,0-0.6c0-0.3,0-0.6,0.1-0.9c0-0.1,0-0.3,0-0.4 c0-0.4,0.1-0.7,0.1-1.1c0-0.1,0-0.2,0-0.2c0-0.4,0.1-0.8,0.1-1.2c0-0.1,0-0.1,0-0.2c0-0.4,0.1-0.9,0.1-1.3 c0.7-6.8,1.9-13.5,3.6-19.9c1.7-6.4,3.8-12.5,6.3-18.4c0-0.1,0.1-0.1,0.1-0.2c0.1-0.2,0.2-0.4,0.3-0.6c0.1-0.3,0.3-0.6,0.4-0.8 c0,0,0,0,0-0.1c4.7-10.4,10.8-19.8,18.1-28c0.1,0.1,0.2,0.2,0.3,0.3c0.6,0.6,1.2,1.1,1.8,1.6 C330.3,472.7,330.3,472.8,330.4,472.8z"></path> </g> <g> </g> </g> </g> </svg> 