<?xml version="1.0" encoding="UTF-8"?> <!-- Generator: Adobe Illustrator 24.0.2, SVG Export Plug-In . SVG Version: 6.00 Build 0) --> <svg xmlns="http://www.w3.org/2000/svg" xmlns:xlink="http://www.w3.org/1999/xlink" id="Слой_1" x="0px" y="0px" viewBox="0 0 1000 1000" style="enable-background:new 0 0 1000 1000;" xml:space="preserve"> <style type="text/css"> .st0{fill:#F0A901;} .st1{fill:#60B252;} .st2{fill:#FFFFFF;} </style> <circle class="st0" cx="500" cy="500" r="363.9"></circle> <title>Washer</title> <g> <g id="XMLID_1_"> <g> <path class="st1" d="M683.2,276.3v70.6h-38.3v-12.8c11.9,0,21.6-9.7,21.6-21.6v-1.9c0-11.9-9.7-21.6-21.6-21.6v-12.8H683.2z"></path> <path class="st2" d="M662.3,367.8h-40c-2.8,0-5.1,2.2-5.1,5.1V413c0,2.8,2.3,5.1,5.1,5.1h40c2.8,0,5.1-2.3,5.1-5.1v-40.1 C667.4,370.1,665.1,367.8,662.3,367.8z M316.6,357.1h366.6v323c0,9.3-7.5,16.7-16.7,16.8H333.3c-9.3-0.1-16.7-7.5-16.7-16.8 V357.1z M377.5,367.8h-40c-2.8,0-5.1,2.2-5.1,5.1V413c0,2.8,2.3,5.1,5.1,5.1h40c2.8,0,5.1-2.3,5.1-5.1v-40.1 C382.6,370.1,380.3,367.8,377.5,367.8z M499.9,664.4c75.8,0,137.3-61.5,137.3-137.3s-61.5-137.3-137.3-137.3 s-137.3,61.5-137.3,137.3c0.1,37.8,15.5,72.1,40.3,96.9C427.8,648.9,462,664.3,499.9,664.4z"></path> <rect x="627.4" y="378" class="st1" width="29.8" height="29.9"></rect> <path class="st2" d="M656.3,310.7v1.9c0,6.3-5.1,11.4-11.4,11.4H501.2c-6.3,0-11.4-5.1-11.4-11.3c0-0.1,0-0.1,0-0.1v-1.9 c0-6.3,5.1-11.4,11.4-11.4h143.8C651.2,299.3,656.3,304.3,656.3,310.7z"></path> <polygon class="st1" points="648.2,707 645.1,723.7 608.9,723.7 605.8,707 "></polygon> <path d="M622.3,367.8h40c2.8,0,5.1,2.2,5.1,5.1V413c0,2.8-2.3,5.1-5.1,5.1h-40c-2.8,0-5.1-2.3-5.1-5.1v-40.1 C617.2,370.1,619.5,367.8,622.3,367.8z M657.2,407.9V378h-29.8v29.9H657.2z"></path> <path class="st1" d="M627,526.8c0,70.2-56.9,127.1-127.1,127.1c-70.2,0-127.1-56.9-127.1-127.1c0.2-70.2,57-126.9,127.1-127.1 C570.1,399.7,627,456.6,627,526.8z M603.6,526.9c0-57.3-46.4-103.7-103.7-103.7c-57.2,0-103.7,46.4-103.7,103.7 c0.1,57.2,46.5,103.7,103.7,103.7C557.2,630.6,603.6,584.1,603.6,526.9z"></path> <path class="st2" d="M499.9,433.4c51.6,0,93.5,41.8,93.5,93.5c0,51.6-41.9,93.5-93.5,93.5s-93.5-41.9-93.5-93.5 c0-0.1,0-0.1,0-0.1C406.5,475.3,448.3,433.5,499.9,433.4z"></path> <path class="st1" d="M644.9,346.9H433.8v-8c15.1,0,27.3-12.3,27.3-27.3c0-15.1-12.2-27.3-27.3-27.3v-8h211.1v12.8H501.2 c-11.9,0-21.6,9.6-21.6,21.6v1.9c0.1,11.9,9.7,21.6,21.6,21.6h143.7V346.9z"></path> <path d="M644.9,299.3H501.1c-6.3,0-11.4,5.1-11.4,11.4v1.9c0,0,0,0,0,0.1c0.1,6.3,5.2,11.3,11.4,11.3h143.7 c6.3,0,11.4-5.1,11.4-11.4v-1.9C656.3,304.3,651.2,299.3,644.9,299.3z M479.6,312.6v-1.9c0.1-11.9,9.7-21.6,21.6-21.6h143.7 c11.9,0,21.6,9.7,21.6,21.6v1.9c0,11.9-9.7,21.6-21.6,21.6H501.2C489.3,334.1,479.6,324.5,479.6,312.6z"></path> <path class="st2" d="M433.8,294.5c9.5,0,17.1,7.7,17.1,17.1c0,9.5-7.7,17.1-17.1,17.1s-17.1-7.7-17.1-17.1c0-4.7,1.9-9,5-12.1 C424.8,296.4,429.1,294.5,433.8,294.5z"></path> <path d="M433.8,328.7c9.5,0,17.1-7.7,17.1-17.1c0-9.5-7.7-17.1-17.1-17.1c-4.7,0-9,1.9-12.1,5c-3.1,3.1-5,7.4-5,12.1 C416.7,321.1,424.4,328.7,433.8,328.7z M461.1,311.6c0,15-12.2,27.3-27.3,27.3c-7.5,0-14.3-3.1-19.3-8s-8-11.7-8-19.3 c0-15.1,12.3-27.3,27.3-27.3C448.9,284.3,461.1,296.5,461.1,311.6z"></path> <path d="M396.2,526.9c0-57.3,46.5-103.7,103.7-103.7c57.3,0,103.7,46.4,103.7,103.7c0,57.2-46.4,103.7-103.7,103.7 C442.7,630.6,396.3,584.1,396.2,526.9z M499.9,433.4c-51.6,0.1-93.4,41.8-93.5,93.5c0,0,0,0,0,0.1c0,51.6,41.9,93.5,93.5,93.5 s93.5-41.9,93.5-93.5C593.4,475.3,551.6,433.4,499.9,433.4z"></path> <path class="st1" d="M433.8,284.3c-15,0-27.3,12.2-27.3,27.3c0,7.5,3.1,14.3,8,19.3s11.7,8,19.3,8v8h-68.5v-8 c15.1,0,27.3-12.3,27.3-27.3c0-15.1-12.2-27.3-27.3-27.3v-8h68.5V284.3z"></path> <path d="M372.8,526.8c0,70.2,56.9,127.1,127.1,127.1c70.2,0,127.1-56.9,127.1-127.1c0-70.2-56.9-127.1-127.1-127.1 C429.8,399.8,373,456.6,372.8,526.8z M362.7,527.1c0-75.8,61.5-137.3,137.3-137.3s137.3,61.5,137.3,137.3 s-61.5,137.3-137.3,137.3c-37.9-0.1-72.1-15.5-96.9-40.3C378.2,599.2,362.8,564.9,362.7,527.1z"></path> <polygon class="st1" points="394,707 390.9,723.7 354.7,723.7 351.6,707 "></polygon> <circle class="st2" cx="365.3" cy="311.6" r="17.1"></circle> <rect x="342.6" y="378" class="st1" width="29.8" height="29.9"></rect> <path class="st1" d="M365.3,338.9v8h-48.8v-70.6h48.8v8c-15,0-27.3,12.2-27.3,27.3C338.1,326.7,350.3,338.9,365.3,338.9z"></path> <path d="M392.6,311.6c0,15-12.2,27.3-27.3,27.3c-15-0.1-27.2-12.3-27.3-27.3c0-15.1,12.3-27.3,27.3-27.3 C380.4,284.3,392.6,296.5,392.6,311.6z M382.5,311.6c0-9.5-7.7-17.1-17.1-17.1s-17.1,7.7-17.1,17.1c0,9.5,7.7,17.1,17.1,17.1 S382.5,321.1,382.5,311.6z"></path> <path d="M337.5,367.8h40c2.8,0,5.1,2.2,5.1,5.1V413c0,2.8-2.3,5.1-5.1,5.1h-40c-2.8,0-5.1-2.3-5.1-5.1v-40.1 C332.5,370.1,334.7,367.8,337.5,367.8z M372.5,407.9V378h-29.8v29.9H372.5z"></path> <path d="M645.1,723.7l3.1-16.7h-42.4l3.1,16.7H645.1z M354.7,723.7h36.2L394,707h-42.4L354.7,723.7z M311.5,266.2h376.8 c0.1,0,0.1,0,0.2,0c2.8,0,5.1,2.2,5.1,5.1V680c0,14.8-12,26.9-26.9,26.9h-8l-4.2,22.7c-0.5,2.4-2.6,4.2-5.1,4.2h-44.6 c-2.5,0-4.6-1.7-5.1-4.2l-4.2-22.7h-191l-4.2,22.7c-0.5,2.4-2.6,4.2-5.1,4.2h-44.6c-2.5,0-4.6-1.7-5.1-4.2l-4.2-22.7h-8 c-14.8-0.1-26.8-12.1-26.9-26.9V271.3C306.4,268.4,308.7,266.2,311.5,266.2z M316.6,346.9h48.8h68.5h211.1h38.3v-70.6h-38.3 H433.8h-68.5h-48.8V346.9z M316.6,680c0,9.3,7.5,16.7,16.7,16.8h333.2c9.3-0.1,16.7-7.5,16.7-16.8v-323H316.6V680z"></path> </g> <g> </g> </g> </g> </svg> 