<?xml version="1.0" encoding="UTF-8"?> <!-- Generator: Adobe Illustrator 17.1.0, SVG Export Plug-In . SVG Version: 6.00 Build 0) --> <svg xmlns="http://www.w3.org/2000/svg" xmlns:xlink="http://www.w3.org/1999/xlink" id="Layer_1" x="0px" y="0px" viewBox="0 0 1000 1000" xml:space="preserve"> <title>Artboard 1 Copy 93</title> <desc>Created with Sketch.</desc> <g> <g id="XMLID_1_"> <g> <path d="M963,842.3v0.2c0,51.1-41.5,92.6-92.6,92.6h-83.3h-9.3H212.9h-83.3c-51,0-92.6-41.5-92.6-92.5v0V323.9v0 c0-51,41.6-92.5,92.6-92.5h37.1c0.4,0,0.7,0.1,1.1,0.1c8.5,0.5,15.4,6.6,17.1,14.7c0.3,1.2,0.4,2.5,0.4,3.7v0.1v129.5h152.1 c-8.7-25-13.2-45.7-13.2-61.7c0-98.7,78.9-179,175.9-179c97,0,175.9,80.3,175.9,179c0,16.1-4.5,36.7-13.2,61.7h152.1V249.8 c0-10.2,8.2-18.5,18.5-18.5h37.1c51.1,0,92.6,41.5,92.6,92.6v0.1V842.3z M926,842.6L926,842.6v-0.3c0-30.5-25-55.4-55.5-55.4 h-37.1c-10.2,0-18.5-8.3-18.5-18.5V416.6H648.1c-13.2,30.1-30.9,64.8-53.3,104.1c-39.3,69-79.1,127.9-79.5,128.5 c-3.4,5.1-9.2,8.1-15.3,8.1c-6.1,0-11.9-3-15.3-8.1c-0.4-0.6-40.2-59.5-79.5-128.5c-22.4-39.3-40.1-74-53.3-104.1H185.2v351.8 v0.1c0,2.6-0.5,5-1.5,7.2c-0.2,0.5-0.5,0.9-0.7,1.3c-0.3,0.6-0.6,1.3-1,1.8c-0.3,0.4-0.6,0.7-0.9,1.1c-0.5,0.6-0.9,1.1-1.4,1.6 c-0.1,0.1-0.3,0.2-0.4,0.3c-3.3,3.1-7.8,5.1-12.7,5.1h-37.1c-30.6,0-55.5,24.9-55.5,55.6c0,30.6,24.9,55.6,55.5,55.6h83.3h564.9 h9.3h83.3C901,898.1,926,873.2,926,842.6z M926,768.6V323.9v0c0-30.6-24.9-55.5-55.5-55.5h-18.5v481.5h18.5 C891.3,749.9,907.4,756.9,926,768.6z M638.9,317.8c0-78.3-62.3-142-138.9-142s-138.9,63.7-138.9,142c0,61,89.5,211.4,138.9,287.5 C549.4,529.1,638.9,378.8,638.9,317.8z M148.1,749.9V268.4h-18.5C99,268.4,74,293.3,74,324v444.7c18.5-11.7,34.7-18.7,55.6-18.7 H148.1z"></path> <path fill="#FFFFFF" d="M926,842.6L926,842.6c0,30.6-24.9,55.5-55.5,55.5h-83.3h-9.3H212.9h-83.3c-30.6,0-55.5-24.9-55.5-55.6 c0-30.6,24.9-55.6,55.5-55.6h37.1c4.9,0,9.4-2,12.7-5.1c0.1-0.1,0.2-0.2,0.4-0.3c0.5-0.5,0.9-1.1,1.4-1.6 c0.3-0.4,0.6-0.7,0.9-1.1c0.4-0.6,0.7-1.2,1-1.8c0.2-0.4,0.5-0.8,0.7-1.3c0.9-2.2,1.5-4.7,1.5-7.2v-0.1V416.6h166.8 c13.2,30.1,30.9,64.8,53.3,104.1c39.3,69,79.1,127.9,79.5,128.5c3.4,5.1,9.2,8.1,15.3,8.1c6.1,0,11.9-3,15.3-8.1 c0.4-0.6,40.2-59.5,79.5-128.5c22.4-39.3,40.1-74,53.3-104.1h166.8v351.9c0,10.2,8.3,18.5,18.5,18.5h37.1 c30.6,0,55.5,24.8,55.5,55.4V842.6z"></path> <path fill="#FFFFFF" d="M926,323.9v444.7c-18.5-11.7-34.7-18.7-55.5-18.7h-18.5V268.4h18.5C901,268.4,926,293.3,926,323.9 L926,323.9z"></path> <path fill="#7CBA5D" d="M500,175.8c76.6,0,138.9,63.7,138.9,142c0,61-89.5,211.3-138.9,287.5c-49.4-76.1-138.9-226.5-138.9-287.5 C361.1,239.5,423.4,175.8,500,175.8z M592.6,324c0-51.1-41.5-92.6-92.6-92.6c-51.1,0-92.6,41.5-92.6,92.6s41.5,92.6,92.6,92.6 C551.1,416.6,592.6,375.1,592.6,324z"></path> <path d="M500,231.4c51.1,0,92.6,41.5,92.6,92.6s-41.5,92.6-92.6,92.6c-51.1,0-92.6-41.5-92.6-92.6S448.9,231.4,500,231.4z M555.6,324c0-30.6-24.9-55.6-55.6-55.6s-55.6,24.9-55.6,55.6s24.9,55.6,55.6,55.6S555.6,354.6,555.6,324z"></path> <path fill="#FFFFFF" d="M500,268.4c30.6,0,55.6,24.9,55.6,55.6s-24.9,55.6-55.6,55.6s-55.6-24.9-55.6-55.6S469.4,268.4,500,268.4 z"></path> <path fill="#FFFFFF" d="M148.1,268.4v481.5h-18.5c-20.9,0-37,7-55.6,18.7V324c0-30.6,24.9-55.6,55.6-55.6H148.1z"></path> </g> <g> </g> </g> </g> </svg> 