<?xml version="1.0" encoding="UTF-8"?> <!-- Generator: Adobe Illustrator 17.1.0, SVG Export Plug-In . SVG Version: 6.00 Build 0) -->
<svg xmlns="http://www.w3.org/2000/svg" xmlns:xlink="http://www.w3.org/1999/xlink" id="Layer_1" x="0px" y="0px"
     viewBox="15 0 68 60" xml:space="preserve"> <g id="Слой_2_1_"> <g id="Слой_1-2"> <path fill="#EFA900"
                                                                                           d="M15.8,24.3c0-1.4,1.2-2.5,2.7-2.5h62.1c1.5,0,2.7,1.1,2.7,2.5v32c0,1.4-1.2,2.5-2.7,2.5H18.4 c-1.5,0-2.7-1.1-2.7-2.5V24.3z"></path> </g> </g>
    <g> <rect x="41.8" y="11" fill="#C3CBDF" width="3.1" height="1.4"></rect>
        <circle fill="#858C99" cx="38.5" cy="11.7" r="2.1"></circle>
        <path fill="#D6DBE9"
              d="M41.6,12.8h-2.3c-0.4,0-0.8-0.4-0.8-0.8v-0.5c0-0.4,0.4-0.8,0.8-0.8h2.3c0.4,0,0.8,0.4,0.8,0.8V12 C42.4,12.4,42,12.8,41.6,12.8z"></path>
        <rect x="41.8" y="31.2" fill="#C3CBDF" width="3.1" height="1.4"></rect>
        <circle fill="#858C99" cx="38.5" cy="31.8" r="2.1"></circle>
        <path fill="#D6DBE9"
              d="M41.6,32.9h-2.3c-0.4,0-0.8-0.4-0.8-0.8v-0.5c0-0.4,0.4-0.8,0.8-0.8h2.3c0.4,0,0.8,0.4,0.8,0.8v0.5 C42.4,32.5,42,32.9,41.6,32.9z"></path>
        <path fill="#D6DBE9"
              d="M78.6,29.4H46.1c-0.3,0-0.7,0.1-0.9,0.4l-0.4,0.3c-0.3,0.3-0.5,0.7-0.5,1.1v1.5c0,0.4,0.2,0.8,0.5,1.1 l0.4,0.3c0.3,0.2,0.6,0.4,0.9,0.4h32.5c0.3,0,0.7-0.1,0.9-0.4l0.4-0.3c0.3-0.3,0.5-0.7,0.5-1.1v-1.5c0-0.4-0.2-0.8-0.5-1.1 l-0.4-0.3C79.3,29.6,78.9,29.4,78.6,29.4z"></path>
        <path fill="#D6DBE9"
              d="M78.6,9.2H46.1c-0.3,0-0.7,0.1-0.9,0.4l-0.4,0.3c-0.3,0.3-0.5,0.7-0.5,1.1v1.5c0,0.4,0.2,0.8,0.5,1.1 l0.4,0.3c0.3,0.2,0.6,0.4,0.9,0.4h32.5c0.3,0,0.7-0.1,0.9-0.4l0.4-0.3c0.3-0.3,0.5-0.7,0.5-1.1V11c0-0.4-0.2-0.8-0.5-1.1l-0.4-0.3 C79.3,9.4,78.9,9.2,78.6,9.2z"></path>
        <path fill="#EFEFEF"
              d="M48.4,8.3L48,8.5c-0.6,0.3-1,0.9-1,1.6v23.6c0,0.7,0.4,1.3,1,1.6l0.4,0.2c0.5,0.2,1,0.2,1.5,0l0.4-0.2 c0.6-0.3,1-0.9,1-1.6V10.1c0-0.7-0.4-1.3-1-1.6l-0.4-0.2C49.4,8.1,48.9,8.1,48.4,8.3z"></path>
        <path fill="#EFEFEF"
              d="M53.9,8.3l-0.4,0.2c-0.6,0.3-1,0.9-1,1.6v23.6c0,0.7,0.4,1.3,1,1.6l0.4,0.2c0.5,0.2,1,0.2,1.5,0l0.4-0.2 c0.6-0.3,1-0.9,1-1.6V10.1c0-0.7-0.4-1.3-1-1.6l-0.4-0.2C54.9,8.1,54.4,8.1,53.9,8.3z"></path>
        <path fill="#EFEFEF"
              d="M59.4,8.3L59,8.5c-0.6,0.3-1,0.9-1,1.6v23.6c0,0.7,0.4,1.3,1,1.6l0.4,0.2c0.5,0.2,1,0.2,1.5,0l0.4-0.2 c0.6-0.3,1-0.9,1-1.6V10.1c0-0.7-0.4-1.3-1-1.6l-0.4-0.2C60.4,8.1,59.9,8.1,59.4,8.3z"></path>
        <path fill="#EFEFEF"
              d="M64.9,8.3l-0.4,0.2c-0.6,0.3-1,0.9-1,1.6v23.6c0,0.7,0.4,1.3,1,1.6l0.4,0.2c0.5,0.2,1,0.2,1.5,0l0.4-0.2 c0.6-0.3,1-0.9,1-1.6V10.1c0-0.7-0.4-1.3-1-1.6l-0.4-0.2C65.9,8.1,65.4,8.1,64.9,8.3z"></path>
        <path fill="#EFEFEF"
              d="M70.4,8.3L70,8.5c-0.6,0.3-1,0.9-1,1.6v23.6c0,0.7,0.4,1.3,1,1.6l0.4,0.2c0.5,0.2,1,0.2,1.5,0l0.4-0.2 c0.6-0.3,1-0.9,1-1.6V10.1c0-0.7-0.4-1.3-1-1.6l-0.4-0.2C71.4,8.1,70.9,8.1,70.4,8.3z"></path>
        <path fill="#EFEFEF"
              d="M75.9,8.3l-0.4,0.2c-0.6,0.3-1,0.9-1,1.6v23.6c0,0.7,0.4,1.3,1,1.6l0.4,0.2c0.5,0.2,1,0.2,1.5,0l0.4-0.2 c0.6-0.3,1-0.9,1-1.6V10.1c0-0.7-0.4-1.3-1-1.6l-0.4-0.2C76.9,8.1,76.4,8.1,75.9,8.3z"></path>
        <path fill="#EAEAEA"
              d="M50.3,8.5l-0.4-0.2c-0.2-0.1-0.5-0.2-0.8-0.2v27.5c0.3,0,0.5-0.1,0.8-0.2l0.4-0.2c0.6-0.3,1-0.9,1-1.6V10.1 C51.3,9.4,50.9,8.8,50.3,8.5z"></path>
        <path fill="#EAEAEA"
              d="M55.8,8.5l-0.4-0.2c-0.3-0.1-0.5-0.2-0.8-0.2v27.5c0.3,0,0.6,0,0.8-0.2l0.4-0.2c0.6-0.3,1-0.9,1-1.6V10.1 C56.8,9.4,56.4,8.8,55.8,8.5z"></path>
        <path fill="#EAEAEA"
              d="M61.3,8.5l-0.4-0.2c-0.3-0.1-0.5-0.2-0.8-0.2v27.5c0.3,0,0.5,0,0.8-0.2l0.4-0.2c0.6-0.3,1-0.9,1-1.6V10.1 C62.3,9.4,61.9,8.8,61.3,8.5z"></path>
        <path fill="#EAEAEA"
              d="M66.8,8.5l-0.4-0.2c-0.2-0.1-0.5-0.2-0.8-0.2v27.5c0.3,0,0.5-0.1,0.8-0.2l0.4-0.2c0.6-0.3,1-0.9,1-1.6V10.1 C67.8,9.4,67.4,8.8,66.8,8.5z"></path>
        <path fill="#EAEAEA"
              d="M72.3,8.5l-0.4-0.2c-0.3-0.1-0.5-0.2-0.8-0.2v27.5c0.3,0,0.6,0,0.8-0.2l0.4-0.2c0.6-0.3,1-0.9,1-1.6V10.1 C73.3,9.4,72.9,8.8,72.3,8.5z"></path>
        <path fill="#EAEAEA"
              d="M77.8,8.5l-0.4-0.2c-0.3-0.1-0.5-0.2-0.8-0.2v27.5c0.3,0,0.6,0,0.8-0.2l0.4-0.2c0.6-0.3,1-0.9,1-1.6V10.1 C78.8,9.4,78.4,8.8,77.8,8.5z"></path> </g> </svg>
