<?xml version="1.0" encoding="UTF-8"?> <!-- Generator: Adobe Illustrator 17.1.0, SVG Export Plug-In . SVG Version: 6.00 Build 0) -->
<svg xmlns="http://www.w3.org/2000/svg" xmlns:xlink="http://www.w3.org/1999/xlink" id="Layer_1" x="0px" y="0px"
     viewBox="15 0 68 60" xml:space="preserve"> <g id="Слой_2_1_"> <g id="Слой_1-2"> <path fill="#EFA900"
                                                                                           d="M15.8,24.3c0-1.4,1.2-2.5,2.7-2.5h62.1c1.5,0,2.7,1.1,2.7,2.5v32c0,1.4-1.2,2.5-2.7,2.5H18.4 c-1.5,0-2.7-1.1-2.7-2.5V24.3z"></path> </g> </g>
    <g> <g> <g> <path fill="#8FAEBC"
                      d="M55.1,4.7c-1,0.7-1.5,2-1.1,3.2c0.3,1.3,1.3,2.1,2.5,2.3L56.8,8l-1-0.7L55.1,4.7z"></path>
        <path opacity="0.2" fill="#5B363D"
              d="M56.3,7.7l-0.5-0.4l0.1,0.5c0,0-1.4,0.4-1.8,0.5 c0.1,0.3,0.3,0.6,0.5,0.8c0.8-0.2,1.9-0.5,1.9-0.5c0,0,0.2-0.1,0.3-0.3L56.8,8L56.3,7.7z"></path>
        <path fill="#BAD4DD"
              d="M57.6,3.9l0.7,2.8l-0.5,0.9l-4.2,1c0,0.1,0.1,0.1,0.1,0.2c0,0,0,0,0,0c0,0,0,0,0,0 c0.1,0.2,0.3,0.4,0.5,0.6c0.4,0.4,0.9,0.8,1.2,1.1c0.9,0.8,1.2,2.3,1.3,3.2l1.2,13.4l2.9-0.7l-1.8-14.8c0,0,0-0.1,0-0.1 c-0.3-2.3,1-2.9,1.1-4.2c0-0.3,0-0.5,0-0.6c0-0.2,0-0.4-0.1-0.5C59.8,5,58.8,4.1,57.6,3.9z"></path>
        <path fill="#8FAEBC"
              d="M60.2,6.2c-0.3-1.2-1.2-2-2.3-2.3c1,0.3,1.8,1.1,2.1,2.2C60,6.3,60,6.5,60,6.7c0,0.1,0,0.3,0,0.6 c-0.1,1.3-1.4,1.9-1.1,4.2c0,0,0,0.1,0,0.1l1.8,14.8L58,27l0,0.1l2.9-0.7l-1.8-14.8c0,0,0-0.1,0-0.1c-0.3-2.3,1-2.9,1.1-4.2 c0-0.3,0-0.5,0-0.6C60.2,6.6,60.2,6.4,60.2,6.2z"></path>
        <g> <path fill="#FFFFFF"
                  d="M56.6,9.9c-0.2,0-0.3-0.1-0.4-0.3L56,9c0-0.1,0-0.2,0-0.3c0.1-0.1,0.1-0.1,0.2-0.2L58,8.1 c0,0,0.1,0,0.1,0c0.2,0,0.3,0.1,0.3,0.3l0.1,0.7c0,0.2-0.1,0.4-0.3,0.4L56.6,9.9C56.7,9.9,56.6,9.9,56.6,9.9z"></path>
            <path fill="#8FAEBC"
                  d="M58,8.2c0.1,0,0.2,0.1,0.2,0.2l0.1,0.7c0,0.2-0.1,0.3-0.2,0.4l-1.5,0.4c0,0-0.1,0-0.1,0 c-0.1,0-0.3-0.1-0.3-0.2L56.1,9c0-0.1,0-0.1,0-0.2c0-0.1,0.1-0.1,0.2-0.1L58,8.2C58,8.2,58,8.2,58,8.2L58,8.2z M58,8.1 c0,0-0.1,0-0.1,0l-1.7,0.4C56,8.6,55.9,8.8,56,9l0.2,0.6c0.1,0.2,0.2,0.3,0.4,0.3c0,0,0.1,0,0.1,0l1.5-0.4 c0.2-0.1,0.4-0.3,0.3-0.5l-0.1-0.7C58.4,8.2,58.2,8.1,58,8.1L58,8.1z"></path> </g>
        <linearGradient id="SVGID_1_" gradientUnits="userSpaceOnUse" x1="305.2562" y1="-4870.4839" x2="361.6621"
                        y2="-4758.54"
                        gradientTransform="matrix(8.301382e-002 -1.615450e-002 1.615450e-002 8.301382e-002 107.6275 423.9032)"> <stop
                offset="9.673630e-002" style="stop-color:#FF4E30"></stop>
            <stop offset="0.1748" style="stop-color:#FA462D"></stop>
            <stop offset="0.4893" style="stop-color:#EB2D21"></stop>
            <stop offset="0.7737" style="stop-color:#E11D1A"></stop>
            <stop offset="1" style="stop-color:#DE1818"></stop> </linearGradient>
        <polygon fill="url(#SVGID_1_)" points="56.7,14 59.5,13.4 61.1,26.5 57.9,27.3 "></polygon>
        <polygon opacity="0.6" fill="#AB794C" points="59.5,13.5 56.7,14.3 56.8,15.8 59.8,15.8 "></polygon> </g>
        <path fill="#808C8C"
              d="M58.5,9.1C58.5,9.1,58.5,9.2,58.5,9.1l-2.2,0.6c0,0-0.1,0-0.1,0L56,9c0,0,0-0.1,0-0.1l2.2-0.5 c0,0,0.1,0,0.1,0L58.5,9.1z"></path>
        <path fill="#EA2F1B"
              d="M59.7,13.4c0.1,0.2-0.1,0.3-0.2,0.4l-2.7,0.7c-0.2,0.1-0.3-0.1-0.4-0.2l0,0c-0.1-0.2,0.1-0.3,0.2-0.4 l2.7-0.7C59.6,13.1,59.7,13.2,59.7,13.4L59.7,13.4z"></path> </g>
        <g> <g> <g> <radialGradient id="SVGID_2_" cx="651.7433" cy="-5056.7412" r="732.5509"
                                    gradientTransform="matrix(2.558500e-002 -1.944645e-003 1.936848e-003 2.567804e-002 63.2803 141.2188)"
                                    gradientUnits="userSpaceOnUse"> <stop offset="0" style="stop-color:#BEDFED"></stop>
            <stop offset="0.1752" style="stop-color:#ADCEDC"></stop>
            <stop offset="0.4249" style="stop-color:#9CBCCA"></stop>
            <stop offset="0.6912" style="stop-color:#92B1BF"></stop>
            <stop offset="1" style="stop-color:#8FAEBC"></stop> </radialGradient>
            <polygon fill="url(#SVGID_2_)"
                     points="79.4,13 80.2,12.7 80,11.2 75.8,9.7 75.5,10.3 71,11 66.1,26 70.9,29.3 72,28.7 71.9,27.5 72.9,26.9 72.8,25.7 73.8,25.1 73.7,23.9 74.8,23.3 74.7,22.1 75.7,21.5 75.6,20.3 76.7,19.7 76.6,18.5 77.6,17.8 77.5,16.7 78.5,16 78.4,14.8 79.5,14.2 "></polygon>
            <path opacity="0.3" fill="#5B363D"
                  d="M79.9,10.9l-4.1-1.5l-0.2,0.6l-4.5,0.7l-0.6,1.8 c0.1,0.1,0.2,0.1,0.3,0.1c0.2,0.1,3.2,1.1,3.3,1.1c1,0.3,1.6,0.4,2.6,0c1.3-0.5,2.5-1.5,3.4-2.2L79.9,10.9z"></path>
            <path fill="#FFAB2E" stroke="#FFAB2E" stroke-width="0.8454" stroke-miterlimit="10"
                  d="M82.2,5.1c-0.3-0.3-0.6-0.4-1.1-0.2 c-0.3,0.1-0.7,0.4-1,0.6c-0.4,0.3-0.6,0.2-1,0c-1-0.5-2-0.9-3-1.2c-0.2,0-0.3-0.1-0.3-0.3c-0.2-0.3-0.4-0.6-0.4-1 c-0.1-0.5-0.5-0.6-0.9-0.6c-0.5,0-0.8,0.3-0.8,0.7c0,0.7-0.4,1.2-0.8,1.8c-0.6,0.9-1.2,2.1-0.8,3.9c0.1,0.5-0.1,0.9-0.6,1.2 c-0.3,0.2-0.7,0.4-0.9,0.7c-0.2,0.4-0.3,1.2,0.4,1.4c0.2,0.1,3.1,1.1,3.2,1.1c1,0.3,1.5,0.4,2.5,0c1.3-0.5,2.7-1.6,3.6-2.1 c1-0.7,1.5-2.7,1.4-3.6c0-0.3,0.2-0.6,0.3-0.9c0.1-0.1,0.3-0.3,0.4-0.4C82.5,5.9,82.5,5.5,82.2,5.1z M78.7,8.5 c-0.2,0.6-0.9,0.9-1.5,0.7l-2.8-0.9c-0.6-0.2-0.9-0.9-0.7-1.4s0.9-0.9,1.5-0.7L78,7.1C78.6,7.3,78.9,8,78.7,8.5z"></path> </g>
            <ellipse fill="#CEE6ED" stroke="#EA8B24" stroke-width="1.2132" stroke-miterlimit="10" cx="71.5" cy="11.3"
                     rx="0.4" ry="0.4"></ellipse>
            <ellipse fill="#CEE6ED" stroke="#EA8B24" stroke-width="1.2132" stroke-miterlimit="10" cx="75" cy="12.3"
                     rx="0.4" ry="0.4"></ellipse>
            <ellipse fill="#CEE6ED" stroke="#EA8B24" stroke-width="1.2132" stroke-miterlimit="10" cx="78.4" cy="11"
                     rx="0.4" ry="0.4"></ellipse>
            <path fill="none" stroke="#EA8B24" stroke-width="3.9034" stroke-miterlimit="10"
                  d="M78.9,8.6c-0.2,0.6-0.9,1-1.6,0.7l-3-1 c-0.7-0.2-1-0.9-0.8-1.5c0.2-0.6,0.9-1,1.6-0.7l3,1C78.8,7.3,79.1,8,78.9,8.6z"></path>
            <path fill="#EA8B24"
                  d="M82.3,6.3c0.2-0.2,0.3-0.4,0.2-0.8c-0.1,0.1,0.1,0.3-0.3,0.6c-0.4,0.4-1,0.5-1,1.5 c0.1,1.7-0.5,2.6-1.1,3.1c-0.5,0.5-2.4,1.7-3,2c-0.7,0.3-1.6,0.8-2.3,0.6c-0.5-0.1-2.3-0.7-3.5-1.1c-0.8-0.3-1-0.4-1.2-0.6 c0.1,0.2,0.2,0.5,0.5,0.5c0.2,0.1,3.1,1.1,3.2,1.1c1,0.3,1.6,0.4,2.6,0c1.3-0.5,2.7-1.5,3.5-2.1c0.3-0.2,0.6-0.4,0.8-0.7 c0.7-0.9,0.8-2.2,0.7-3c0-0.3,0.1-0.7,0.3-0.9C82,6.6,82.2,6.4,82.3,6.3z"></path>
            <polygon opacity="0.4" fill="#5B363D"
                     points="72,21.5 72,21.6 75.9,14.6 69.8,14.8 69.4,15.9 72.9,15.9 69,21.5 "></polygon> </g>
            <g> <polygon fill="#E57857" points="79,15.3 50.5,15.3 50.5,13.9 79,13.9 "></polygon>
                <rect x="50.5" y="13.8" fill="#FFAB64" width="28.5" height="0.5"></rect>
                <rect x="77.2" y="13.8" opacity="0.6" fill="#AB794C" width="0.9" height="1.5"></rect>
                <path opacity="0.7" fill="#665089"
                      d="M69.4,13.9l-1.9,0.8l0.2-0.8h-1.5c0,0.8,0.5,1.3,0.8,1.5h2.4 c0.3-0.2,0.5-0.9,0.5-0.9l0.4-0.6L69.4,13.9L69.4,13.9L69.4,13.9z"></path>
                <path opacity="0.7" fill="#665089"
                      d="M61.2,15.2c0,0.1,0,0.1,0,0.2h3.1c0-0.1,0-0.1,0-0.2 c0-0.1-0.1-0.7-0.1-0.7l0.2-0.6h-3.2C61.2,14.4,61.2,14.9,61.2,15.2z M62.7,14.1L62.7,14.1L62.7,14.1c0.4,0.1,0.6,0.3,0.6,0.6 c0,0.3-0.3,0.6-0.7,0.6c-0.4,0-0.6-0.3-0.6-0.6C62,14.4,62.3,14.1,62.7,14.1z"></path>
                <polygon opacity="0.7" fill="#665089"
                         points="55,15.2 55.4,15.3 55.8,15.3 55.6,14.4 55.9,13.8 54.8,13.8 54.8,14.2 "></polygon> </g>
            <g> <g> <path fill="#BAD4DD"
                          d="M65.9,24.6l1.1-0.5l0.2-1.3l-0.9-0.8l0,0l1.1-7.6l0,0l1.3-0.7l0.2-1.5c0,0,0.9,0.6,0.7,1.9 c-0.2,1.2-1.5,1.4-1.5,1.4l-0.8,5.9l1,0.8l-0.3,2.3l-2,0.9l0,0L65.9,24.6L65.9,24.6z"></path> </g>
                <g> <path fill="#D3E9EF"
                          d="M65.9,24.6L65,23.8l0.2-1.3l1.1-0.5l0,0l1.1-7.6l0,0l-1-1l0.2-1.5c0,0-1,0.3-1.2,1.6 c-0.2,1.2,1,1.8,1,1.8l-0.9,5.9l-1.1,0.5l-0.3,2.3l1.7,1.4l0,0L65.9,24.6L65.9,24.6z"></path> </g>
                <g> <polygon fill="#FFAB2E" points="57.1,20.4 55.7,20.7 55.3,19.3 56.7,18.9 "></polygon>
                    <polygon fill="#8FAEBC" points="56.3,18.8 55.6,19 54.1,13.5 54.9,13.3 "></polygon>
                    <polygon fill="#8FAEBC" points="54.8,12.3 53.7,12.6 54.1,13.5 54.9,13.3 "></polygon>
                    <polygon fill="#BAD4DD" points="54.8,12.3 53.7,12.6 53.3,10.4 54.1,10.2 "></polygon>
                    <path fill="#FFC431" stroke="#FFC431" stroke-width="0.5636" stroke-miterlimit="10"
                          d="M57.2,18.8c0.1,0.2-0.1,0.3-0.2,0.4 l-1.9,0.5c-0.2,0.1-0.3-0.1-0.4-0.2l0,0c-0.1-0.2,0.1-0.3,0.2-0.4l1.9-0.5C57,18.6,57.2,18.7,57.2,18.8L57.2,18.8z"></path>
                    <path fill="#FFAB2E"
                          d="M58.6,24c0.2,0.6-0.2,1.2-0.8,1.3l-0.4,0.1c-0.6,0.2-1.2-0.2-1.3-0.8l-0.8-3.1c-0.2-0.6,0.2-1.2,0.8-1.3 l0.4-0.1c0.6-0.2,1.2,0.2,1.3,0.8L58.6,24z"></path>
                    <g> <path fill="#EA8B24"
                              d="M57.2,24.4c0.1,0.2-0.1,0.3-0.2,0.4l0,0c-0.2,0.1-0.3-0.1-0.4-0.2l-0.8-3.2c-0.1-0.2,0.1-0.3,0.2-0.4 l0,0c0.2-0.1,0.3,0.1,0.4,0.2L57.2,24.4z"></path>
                        <path fill="#EA8B24"
                              d="M58.2,24.1c0.1,0.2-0.1,0.3-0.2,0.4l0,0c-0.2,0.1-0.3-0.1-0.4-0.2l-0.8-3.2c-0.1-0.2,0.1-0.3,0.2-0.4 l0,0c0.2-0.1,0.3,0.1,0.4,0.2L58.2,24.1z"></path> </g> </g>
                <path fill="#8FAEBC"
                      d="M67,16c-0.1,0-0.2,0.1-0.2,0.1L66,21.9c0,0.1,0.1,0.2,0.1,0.2l0.3,0c0.1,0,0.2-0.1,0.2-0.1l0.8-5.7 c0-0.1-0.1-0.2-0.1-0.2L67,16z"></path>
                <g> <path fill="#F74123"
                          d="M69.5,30.4c-0.2,0.3-0.6,0.4-0.9,0.2l-2.8-2c-0.3-0.2-0.4-0.6-0.2-0.9L81.8,4.5c0.2-0.3,0.6-0.4,0.9-0.2 l2.8,2c0.3,0.2,0.4,0.6,0.2,0.9L69.5,30.4z"></path>
                    <ellipse fill="#177FBF" cx="82.3" cy="7.8" rx="1.6" ry="1.6"></ellipse>
                    <g> <g> <path fill="#C7E55A"
                                  d="M75.2,13.9l1,0.7c0.2,0.1,0.2,0.3,0.1,0.5l-2.7,3.8c-0.1,0.2-0.3,0.2-0.5,0.1l-1-0.7L75.2,13.9z"></path>
                        <g> <path fill="#5B363D"
                                  d="M73.3,19.2c-0.1,0-0.2,0-0.3-0.1l-1-0.7l0.2-0.3l1,0.7c0.1,0.1,0.2,0,0.2-0.1l2.7-3.8 c0.1-0.1,0-0.2-0.1-0.2l-1-0.7l0.2-0.3l1,0.7c0.2,0.2,0.3,0.5,0.1,0.7L73.7,19C73.6,19.1,73.5,19.2,73.3,19.2z"></path> </g> </g>
                        <path fill="#FAEFD1" stroke="#5B363D" stroke-width="1.9766" stroke-miterlimit="10"
                              d="M74.4,15l1.2,0.9L74.4,15z"></path>
                        <path fill="#FAEFD1" stroke="#5B363D" stroke-width="1.9766" stroke-miterlimit="10"
                              d="M72.9,17.1l1.2,0.9L72.9,17.1z"></path>
                        <path fill="#FFFFFF"
                              d="M73.9,16.2c0.2-0.3,0.5-0.4,0.7-0.3c0.2,0.1,0.2,0.5,0,0.8c-0.2,0.3-0.5,0.4-0.7,0.3 C73.7,16.8,73.7,16.5,73.9,16.2z"></path> </g>
                    <path fill="#C7E55A"
                          d="M80.8,7.6L83,9.2c0.2-0.1,0.4-0.3,0.6-0.5c0.2-0.2,0.2-0.4,0.3-0.7l-2.2-1.6c-0.2,0.1-0.4,0.3-0.6,0.5 C80.9,7.1,80.8,7.4,80.8,7.6z"></path>
                    <path fill="#D5EF65" stroke="#5B363D" stroke-width="2.2815" stroke-miterlimit="10"
                          d="M81.2,7.9l0.8-1.2L81.2,7.9z"></path>
                    <path fill="#D5EF65" stroke="#FFFFFF" stroke-width="2.2815" stroke-miterlimit="10"
                          d="M79,11.7l1.3-1.9L79,11.7z"></path>
                    <path fill="#D5EF65" stroke="#FFFFFF" stroke-width="2.2815" stroke-miterlimit="10"
                          d="M79.5,12l0.8-1.2L79.5,12z"></path>
                    <path fill="#D5EF65" stroke="#5B363D" stroke-width="2.2815" stroke-miterlimit="10"
                          d="M82.5,8.9l0.8-1.2L82.5,8.9z"></path>
                    <path fill="#FFFFFF"
                          d="M82.1,8.1C81.9,8,81.9,7.7,82,7.6c0.1-0.2,0.3-0.2,0.5,0c0.2,0.1,0.3,0.4,0.2,0.5 C82.6,8.2,82.3,8.2,82.1,8.1z"></path>
                    <ellipse fill="none" stroke="#5B363D" stroke-width="2.2815" stroke-miterlimit="10" cx="82.3"
                             cy="7.8" rx="1.6" ry="1.6"></ellipse>
                    <ellipse fill="#FFFFFF" cx="69" cy="27" rx="1.6" ry="1.6"></ellipse>
                    <path fill="#C7E55A"
                          d="M68,25.7l0.5,2.7c0.2,0.1,0.5,0.1,0.7,0.1c0.2-0.1,0.5-0.2,0.7-0.3l-0.5-2.7c-0.2-0.1-0.5-0.1-0.7-0.1 C68.4,25.5,68.2,25.6,68,25.7z"></path>
                    <path fill="#D5EF65" stroke="#5B363D" stroke-width="2.2815" stroke-miterlimit="10"
                          d="M68.1,26.3l1.4-0.3L68.1,26.3z"></path>
                    <path fill="#D5EF65" stroke="#5B363D" stroke-width="2.2815" stroke-miterlimit="10"
                          d="M68.4,27.8l1.4-0.3L68.4,27.8z"></path>
                    <path fill="#FFFFFF"
                          d="M68.7,27c0-0.2,0.1-0.4,0.2-0.5c0.2,0,0.4,0.1,0.4,0.4s-0.1,0.4-0.2,0.5C68.9,27.4,68.7,27.3,68.7,27z"></path>
                    <ellipse fill="none" stroke="#5B363D" stroke-width="2.2815" stroke-miterlimit="10" cx="69" cy="27"
                             rx="1.6" ry="1.6"></ellipse>
                    <path fill="#4F3030"
                          d="M81.8,4.4L82,4.1C82.1,4,82.2,4,82.3,4l3.6,2.5c0.1,0.1,0.1,0.2,0.1,0.3l-0.2,0.3L81.8,4.4z"></path>
                    <path fill="#4F3030"
                          d="M69.6,30.2l-0.4,0.5c-0.1,0.1-0.2,0.1-0.3,0.1l-3.6-2.5c-0.1-0.1-0.1-0.2-0.1-0.3l0.4-0.5L69.6,30.2z"></path> </g>
                <g> <path fill="#8FAEBC"
                          d="M61.6,10.6l0.4,3.5c0,0,0,0-0.1,0c-0.4,0-0.7,0.3-0.7,0.6c0,0.3,0.3,0.6,0.7,0.6l-1.2,1.3 c0,0-0.3-0.5-0.3-1.4c0-1,0.7-4.7,0.7-4.7L61.6,10.6z"></path>
                    <g> <path fill="#FFAB2E"
                              d="M65.3,26.2c-0.2-1.2-0.8-2.4-1.4-3.6c-0.5-1.1-1-2.1-1.2-3c0-0.1,0-0.1,0-0.2l0-0.1l0.1,0l1.1-0.2 l0,0.1c0,0.1,0,0.1,0,0.2c0.2,0.7,0.6,1.7,1.1,2.7c0.6,1.3,1.2,2.6,1.5,3.9l0,0.1L65.3,26.2L65.3,26.2z"></path>
                        <path fill="#FFAB2E"
                              d="M63.8,19.2c0,0.1,0,0.1,0,0.2c0.2,0.7,0.6,1.7,1.1,2.7c0.6,1.3,1.2,2.6,1.5,3.9l-1.1,0.2 c-0.2-1.2-0.8-2.4-1.4-3.6c-0.5-1.1-1-2.1-1.2-3c0-0.1,0-0.1,0-0.2c0,0,0,0,0,0L63.8,19.2L63.8,19.2z M63.9,19l-0.2,0l-1,0.2h0 l-0.1,0l0,0.1c0,0.1,0,0.1,0,0.2c0.2,0.9,0.7,1.9,1.2,3c0.6,1.2,1.1,2.4,1.4,3.6l0,0.1l0.1,0l1.1-0.2l0.1,0l0-0.1 c-0.3-1.3-0.9-2.6-1.5-3.9c-0.5-1-0.9-2-1.1-2.7c0,0,0-0.1,0-0.1L63.9,19L63.9,19z"></path> </g>
                    <path fill="#8FAEBC"
                          d="M62.6,17.9c-0.1-0.2-0.2-0.2-0.2-0.2l0-1.1c0.4,0,1.1,0.2,1.3,1c0.1,0.3,0.1,0.6,0.1,1c0,0-0.1,0-0.1,0 l-1,0.2c0,0,0-0.1,0-0.1C62.7,18.4,62.7,18.1,62.6,17.9z"></path>
                    <g> <path fill="#FFC431"
                              d="M62.7,19.5c-0.2,0-0.3-0.1-0.3-0.3c0-0.1,0-0.2,0.1-0.3c0.1-0.1,0.1-0.1,0.2-0.2l1.1-0.2 c0,0,0.1,0,0.1,0h0c0.2,0,0.3,0.1,0.3,0.3c0,0.2-0.1,0.4-0.3,0.4L62.7,19.5C62.7,19.5,62.7,19.5,62.7,19.5z"></path>
                        <path fill="#FFC431"
                              d="M63.8,18.6C63.8,18.6,63.8,18.6,63.8,18.6c0.2,0,0.3,0.1,0.3,0.2c0,0.2-0.1,0.3-0.2,0.4l0,0l-1.1,0.2 c0,0,0,0,0,0c0,0,0,0-0.1,0c-0.1,0-0.3-0.1-0.3-0.2c0-0.2,0.1-0.3,0.2-0.4l0.1,0L63.8,18.6C63.7,18.6,63.7,18.6,63.8,18.6 L63.8,18.6z M63.8,18.5C63.7,18.5,63.7,18.5,63.8,18.5l-1.1,0.2l-0.1,0c-0.1,0-0.2,0.1-0.2,0.2c-0.1,0.1-0.1,0.2-0.1,0.3 c0,0.2,0.2,0.3,0.4,0.3c0,0,0.1,0,0.1,0l0,0h0l1.1-0.2c0.2-0.1,0.4-0.3,0.3-0.5C64.1,18.7,63.9,18.5,63.8,18.5L63.8,18.5 L63.8,18.5z"></path> </g>
                    <g> <path fill="#FFAB2E"
                              d="M57.4,26.2L57.4,26.2c0.2-1.4,0.8-2.7,1.4-4c0.4-1,0.9-2,1-2.8c0-0.1,0-0.1,0-0.2l0-0.1l1.1,0.2l0.1,0 l0,0.1c0,0.1,0,0.1,0,0.2c-0.2,0.9-0.6,1.9-1.1,3c-0.5,1.2-1.1,2.5-1.3,3.7l0,0.1L57.4,26.2z"></path>
                        <path fill="#FFAB2E"
                              d="M59.9,19.3l1.1,0.2c0,0,0,0,0,0c0,0.1,0,0.1,0,0.2c-0.2,0.9-0.6,1.9-1.1,3c-0.5,1.2-1.1,2.5-1.3,3.7 l-1.1-0.2c0.2-1.3,0.8-2.6,1.3-3.9c0.4-1,0.9-2,1-2.8C59.9,19.4,59.9,19.3,59.9,19.3L59.9,19.3z M59.8,19.1l0,0.2 c0,0.1,0,0.1,0,0.1c-0.1,0.7-0.6,1.7-1,2.7c-0.6,1.3-1.1,2.6-1.4,4l0,0.1l0.1,0l1.1,0.2l0.1,0l0-0.1c0.2-1.2,0.7-2.4,1.3-3.6 c0.5-1.1,0.9-2.2,1.1-3.1c0-0.1,0-0.1,0-0.2l0-0.1l-0.1,0h0l0,0l-1.1-0.2L59.8,19.1L59.8,19.1z"></path> </g>
                    <path fill="#8FAEBC"
                          d="M61,17.9c0-0.2,0.2-0.2,0.2-0.2l0-1.1c-0.4,0-1.1,0.2-1.3,1c-0.1,0.3-0.1,0.6-0.1,1c0,0,0.1,0,0.1,0 l1,0.2c0,0,0-0.1,0-0.1C61,18.5,61,18.1,61,17.9z"></path>
                    <g> <path fill="#FFC431"
                              d="M61,19.6C61,19.6,61,19.6,61,19.6l-1.1-0.2c-0.1,0-0.2-0.1-0.2-0.1c-0.1-0.1-0.1-0.2-0.1-0.3 c0-0.2,0.2-0.3,0.3-0.3c0,0,0,0,0,0c0,0,0,0,0.1,0l1.1,0.2c0.1,0,0.2,0.1,0.2,0.1s0.1,0.2,0.1,0.3C61.3,19.4,61.2,19.6,61,19.6 L61,19.6z"></path>
                        <path fill="#FFC431"
                              d="M59.9,18.7C60,18.7,60,18.7,59.9,18.7l1,0.2l0.1,0c0.2,0,0.3,0.2,0.2,0.4c0,0.2-0.2,0.3-0.3,0.3 c0,0,0,0-0.1,0c0,0,0,0,0,0l-1.1-0.2l0,0c-0.2,0-0.3-0.2-0.2-0.4C59.7,18.8,59.8,18.7,59.9,18.7C59.9,18.7,59.9,18.7,59.9,18.7 L59.9,18.7z M59.9,18.6C59.9,18.6,59.9,18.6,59.9,18.6c-0.2,0-0.4,0.2-0.4,0.3c0,0.1,0,0.2,0.1,0.3c0.1,0.1,0.2,0.1,0.3,0.2 l1.1,0.2h0h0c0,0,0,0,0.1,0c0.2,0,0.4-0.1,0.4-0.3c0-0.2-0.1-0.4-0.3-0.5l-0.1,0L59.9,18.6C60,18.6,60,18.6,59.9,18.6 L59.9,18.6z"></path> </g>
                    <path fill="#BAD4DD"
                          d="M61.6,15.3c0.1,0,0.2,0.1,0.3,0.1c0.4,0,0.7-0.3,0.7-0.6c0-0.3-0.2-0.6-0.6-0.6l0.3-3.5l0.5-0.1 c0,0,0.8,3.7,0.8,4.7c0,0.7-0.2,1.1-0.2,1.3c0,0.1,0,0.2,0,0.3c0,0.8-0.6,1.5-1.4,1.5c-0.8,0-1.5-0.6-1.5-1.4 C60.4,16,60.9,15.4,61.6,15.3z"></path>
                    <ellipse fill="#8FAEBC" cx="61.9" cy="16.7" rx="0.7" ry="0.7"></ellipse> </g> </g>
            <g> <rect x="50.8" y="21.3" fill="#CA684D" width="27.4" height="9.8"></rect>
                <path fill="#BD6144"
                      d="M51,22h2.6c0,0,2.3,1.3,5.6,1.3c2.7,0,2.7,2.2-0.1,2.2c-2.3,0-3.2,0.7-3.2,0.7l-4.4-0.1L51,24.2L51,22z"></path>
                <path fill="#BD6144"
                      d="M51,30.8l-0.1-2.4l2.3,0.4c0,0,2-0.4,3.6-0.4c1.6,0,0.9,1.2,3.8,1.2c2.9,0,4.4,1.2,4.4,1.2L51,30.8 L51,30.8z"></path>
                <g> <rect x="51.1" y="26" fill="#8E3E28" width="26.8" height="0.5"></rect> </g> </g>
            <rect x="51.1" y="21.3" fill="#FFAB64" width="26.4" height="0.6"></rect>
            <rect x="50.9" y="21.3" fill="#8E3E28" width="0.9" height="9.8"></rect>
            <rect x="77" y="21.3" fill="#8E3E28" width="1" height="9.8"></rect>
            <rect x="49.7" y="30.7" fill="#8E3E28" width="28.8" height="0.9"></rect>
            <path fill="#BD6144"
                  d="M78.8,19.2h-0.3c-0.5,0-1,0.4-1,1v11.5h2.2V20.1C79.8,19.6,79.4,19.2,78.8,19.2z"></path>
            <path fill="#BD6144" d="M50.2,12.6h-0.3c-0.5,0-1,0.4-1,1v18.1h2.2V13.5C51.2,13,50.8,12.6,50.2,12.6z"></path>
            <path fill="#E57857"
                  d="M51.2,20.3c0,0.5-0.4,0.6-1,0.6h-0.3c-0.5,0-1-0.1-1-0.6v-7.1c0-0.5,0.4-1,1-1h0.3c0.5,0,1,0.4,1,1V20.3z"></path>
            <polygon opacity="0.7" fill="#665089"
                     points="51.7,13.8 51.2,13.8 51.2,12.6 50.7,12.7 50.2,13.4 50.5,14 48.9,14.1 48.9,16.2 51.2,19.5 51.2,15.3 51.7,15.3 "></polygon>
            <g> <polygon fill="#5B363D" points="54.5,21.3 52.4,21.3 47.5,11.5 49.1,10.7 "></polygon>
                <polygon fill="#4F3030" points="50.8,13.9 49.3,15.1 48.8,14.2 50.5,13.4 "></polygon>
                <polygon fill="#4F3030" points="53.5,21.3 52.4,21.3 47.5,11.5 48.3,11.1 "></polygon>
                <polygon fill="#808C8C" points="46.1,15.8 52.9,12.3 51.7,10 47.1,12.4 45.5,14.7 "></polygon>
                <g> <polygon fill="#BAD4DD"
                             points="45.6,14.8 45.4,14.6 46.9,12.3 51.6,9.9 51.8,10.2 47.2,12.5 "></polygon> </g>
                <polygon opacity="0.3" fill="#BAD4DD" points="48.5,14.6 50,13.8 49.8,11 48.4,11.7 "></polygon> </g>
            <path fill="#CA684D"
                  d="M60.6,24.3c0,0.3-0.5,0.6-1,0.5c-0.6,0-1.1-0.3-1.1-0.6c0-0.3,0.5-0.6,1-0.5C60.2,23.7,60.6,24,60.6,24.3z "></path>
            <path fill="#CA684D"
                  d="M74.7,29.3c0,0.4-0.6,0.7-1.3,0.7c-0.7,0-1.3-0.4-1.4-0.8c0-0.4,0.6-0.7,1.3-0.7 C74.1,28.5,74.7,28.9,74.7,29.3z"></path>
            <path opacity="0.6" fill="#BD6144"
                  d="M60.7,28.8c0,0.2-0.2,0.3-0.5,0.3c-0.3,0-0.5-0.1-0.5-0.3 c0-0.2,0.2-0.3,0.5-0.3C60.5,28.5,60.7,28.7,60.7,28.8z"></path>
            <path fill="#E57857"
                  d="M74.1,29.2c0,0.2-0.2,0.3-0.5,0.3c-0.3,0-0.5-0.1-0.5-0.3c0-0.2,0.2-0.3,0.5-0.3 C73.9,28.9,74.1,29,74.1,29.2z"></path> </g>
        <path fill="#E57857" d="M77.5,18.8v1.5c0,0.5,0.4,0.6,1,0.6h0.3c0.5,0,1-0.1,1-0.6v-4.7L77.5,18.8z"></path>
        <polygon opacity="0.7" fill="#665089" points="77.5,19.5 79.8,17.8 79.8,15.6 77.5,18.8 "></polygon> </g> </svg>
