<?xml version="1.0" encoding="UTF-8"?> <!-- Generator: Adobe Illustrator 17.1.0, SVG Export Plug-In . SVG Version: 6.00 Build 0) -->
<svg xmlns="http://www.w3.org/2000/svg" xmlns:xlink="http://www.w3.org/1999/xlink" id="Layer_1" x="0px" y="0px"
     viewBox="15 0 68 60" xml:space="preserve"> <g id="Слой_2_1_"> <g id="Слой_1-2"> <path fill="#EFA900"
                                                                                           d="M15.1,24.3c0-1.4,1.2-2.5,2.7-2.5h62.1c1.5,0,2.7,1.1,2.7,2.5v32c0,1.4-1.2,2.5-2.7,2.5H17.7 c-1.5,0-2.7-1.1-2.7-2.5v-32H15.1z"></path> </g> </g>
    <g> <g> <g> <rect x="68.8" y="14.5" transform="matrix(0.9766 0.2152 -0.2152 0.9766 5.1245 -14.5508)" fill="#FD9800"
                      width="1.2" height="3.5"></rect> </g>
        <g> <g> <polygon fill="#FD9800" points="70.9,15.2 70.1,12.8 68.5,14.7 "></polygon> </g> </g> </g>
        <ellipse transform="matrix(0.9873 -0.1588 0.1588 0.9873 -1.9746 11.1877)" fill="#0F303F" cx="69" cy="17.9"
                 rx="2.6" ry="0.5"></ellipse>
        <g> <path fill="#C12106"
                  d="M63.5,18.8l-1.2-7.3l5.5-0.9l-0.3-1.8l-6,1c-0.8,0.1-1.4,0.9-1.3,1.8l3.3,20.3c0.1,0.8,0.9,1.4,1.8,1.3 l6-1L69,17.9L63.5,18.8z"></path>
            <path fill="#A81D05"
                  d="M73.4,7.9l-5.9,0.9l0.3,1.8l5.5-0.9l1.2,7.3L69,17.9l2.3,14.3l5.9-0.9c0.8-0.1,1.4-0.9,1.3-1.8L75.2,9.2 C75.1,8.3,74.3,7.7,73.4,7.9z"></path> </g>
        <circle fill="#FFFFFF" cx="70.2" cy="25.5" r="4.8"></circle>
        <circle fill="#FFFFFF" cx="69.3" cy="19.7" r="0.4"></circle>
        <circle fill="#FFFFFF" cx="66.5" cy="21" r="0.4"></circle>
        <circle fill="#FFFFFF" cx="64.8" cy="23.4" r="0.4"></circle>
        <circle fill="#FFFFFF" cx="64.5" cy="26.4" r="0.4"></circle>
        <circle fill="#FFFFFF" cx="65.7" cy="29.2" r="0.4"></circle>
        <circle fill="#FFFFFF" cx="68.1" cy="31" r="0.4"></circle>
        <circle fill="#FFFFFF" cx="71.2" cy="31.3" r="0.4"></circle>
        <circle fill="#FFFFFF" cx="73.9" cy="30.1" r="0.4"></circle>
        <circle fill="#FFFFFF" cx="75.7" cy="27.6" r="0.4"></circle>
        <circle fill="#FFFFFF" cx="76" cy="24.6" r="0.4"></circle>
        <circle fill="#FFFFFF" cx="74.8" cy="21.8" r="0.4"></circle>
        <circle fill="#FFFFFF" cx="72.3" cy="20.1" r="0.4"></circle>
        <g> <path fill="#2C5871"
                  d="M72.9,11.8c-3.1,0.1-6.4,0.6-9.3,1.5L63.4,13c3-0.9,6.3-1.4,9.4-1.5L72.9,11.8z"></path> </g>
        <g> <path fill="#2C5871"
                  d="M67,23.2l1.5,1.8c0.1,0.5,0.3,1,0.7,1.4c0.4,0.5,0.8,0.8,1.3,1l1.5,1.8l0.8-0.7l-4.9-6L67,23.2z"></path>
            <path fill="#0F303F"
                  d="M70.1,23.6l-1.5-1.8l-0.8,0.7l4.9,6l0.8-0.7L72,26c-0.1-0.5-0.3-1-0.7-1.4C71,24.2,70.5,23.8,70.1,23.6z"></path> </g> </g>
    <g> <rect x="53.6" y="17.3" transform="matrix(0.9537 -0.3009 0.3009 0.9537 -3.174 17.2865)" fill="#908F8B"
              width="1.9" height="3.2"></rect>
        <rect x="55.4" y="16.8" transform="matrix(0.9537 -0.3009 0.3009 0.9537 -2.916 17.8093)" fill="#D9D5CE"
              width="1.9" height="3.2"></rect>
        <path fill="#908F8B"
              d="M52.4,4.8c-0.4-0.4-0.4-0.4-1-0.4L52.3,7c0.4,0.1,0.8,0.6,1,1.2c0.2,0.6,0.1,1.1-0.1,1.5l0.6,1.9l-0.5,0.1 l1.3,4c0,0,0.1,0,0.1,0c1.3-0.4,2.4-0.1,3.2,0.6C57.5,13,55.7,8.2,52.4,4.8z"></path>
        <path fill="#D9D5CE"
              d="M53.7,13.2l-0.5-1.6l-0.5,0.1l-0.6-1.9c-0.4-0.2-0.8-0.6-1-1.2c-0.2-0.6-0.1-1.1,0.1-1.5l-0.8-2.6 C50.1,5,50.1,5,50,5.5c-0.7,4.7,0.6,9.7,2.1,12.5c0.1-0.3,0.2-0.5,0.3-0.8c0.6,0.9,1.8,1.3,2.9,1c1.4-0.4,2.1-1.9,1.7-3.3 C56.6,13.6,55.1,12.8,53.7,13.2z"></path>
        <g> <path fill="#908F8B"
                  d="M55,17.2c-0.8,0.3-1.7-0.2-1.9-1c-0.3-0.8,0.2-1.7,1-1.9c0.8-0.3,1.7,0.2,1.9,1C56.2,16.1,55.8,17,55,17.2 z M54.2,14.7c-0.6,0.2-0.9,0.8-0.7,1.4c0.2,0.6,0.8,0.9,1.4,0.7c0.6-0.2,0.9-0.8,0.7-1.4C55.4,14.8,54.8,14.5,54.2,14.7z"></path> </g>
        <g> <path fill="#0F303F"
                  d="M53.2,19.9c0.1,0.6,0.2,1.2,0.3,1.8l-0.7,6.8l0,6.7c0,0.5,0.3,1,0.6,1.4C55.9,23.9,54.6,20.6,53.2,19.9z"></path>
            <path fill="#7AB95D"
                  d="M53.8,18.8c-0.6,0-0.7,0.5-0.6,1.2c1.4,0.7,2.7,4,0.2,16.6c0.4,0.4,1,0.6,1.6,0.6c1.2-0.1,2-1.1,2-2.2 c0,0-2.6-9.5-0.7-10.7L56,20.7C56,19.6,55,18.7,53.8,18.8z"></path> </g>
        <g> <path fill="#0F303F"
                  d="M58,18.4c0.3,0.5,0.5,1.1,0.8,1.6l4.5,5.1l3.8,5.5c0.3,0.5,0.4,1,0.3,1.5C58.1,23.2,57.3,19.8,58,18.4z"></path>
            <path fill="#7AB95D"
                  d="M56.8,17.8c0.5-0.3,0.9,0,1.2,0.6c-0.8,1.4,0,4.8,9.3,13.7c-0.1,0.6-0.4,1.1-1,1.4c-1,0.6-2.3,0.3-2.9-0.7 c0,0-3.3-9.3-5.6-9.2l-1.8-2.9C55.5,19.7,55.9,18.4,56.8,17.8z"></path> </g> </g> </svg>
