<?xml version="1.0" encoding="UTF-8"?> <!-- Generator: Adobe Illustrator 17.1.0, SVG Export Plug-In . SVG Version: 6.00 Build 0) -->
<svg xmlns="http://www.w3.org/2000/svg" xmlns:xlink="http://www.w3.org/1999/xlink" id="Layer_1" x="0px" y="0px"
     viewBox="15 0 68 60" xml:space="preserve"> <g id="Слой_2_1_"> <g id="Слой_1-2"> <path fill="#EFA900"
                                                                                           d="M15.8,24.3c0-1.4,1.2-2.5,2.7-2.5h62.1c1.5,0,2.7,1.1,2.7,2.5v32c0,1.4-1.2,2.5-2.7,2.5H18.4 c-1.5,0-2.7-1.1-2.7-2.5V24.3z"></path> </g> </g>
    <g> <path fill="#C5C5C5"
              d="M70.9,33.1l-4.6-15.2c0.9-1,1.2-2.6,0.8-3.9c-0.5-1.7-2.1-2.7-3.8-2.5l0.5,0.8l0,0l1.4,1.3l-0.4,1.9 l-0.9,0.3L62.9,16l-1.4-1.3l0.4-1.9l0,0v-1c-1.5,0.8-2.2,2.5-1.7,4.2c0.4,1.3,1.5,2.4,2.9,2.8l4.6,15.2c-0.7,1-0.9,2.6-0.6,3.8 c0.5,1.7,2.4,2.7,4.1,2.2c1.8-0.5,2.7-2.4,2.2-4.1C73.1,34.8,72.1,33.6,70.9,33.1z M72,38.4l-2.2,0.7l-1.6-1.5l0.5-2.2l2.2-0.7 l1.6,1.5L72,38.4z"></path>
        <rect x="66.4" y="18" transform="matrix(-0.9566 0.2914 -0.2914 -0.9566 138.4704 30.9001)" fill="#DCDCDC"
              width="1.1" height="15.5"></rect> </g>
    <g> <path
            d="M75.9,9.2c0,0.1-0.1,0.2-0.3,0.3l-3,0.3c-0.2,0-0.3-0.1-0.3-0.2l-0.1-0.6c0-0.1,0.1-0.2,0.3-0.3l3-0.3 c0.2,0,0.3,0.1,0.3,0.2L75.9,9.2z"></path>
        <rect x="71.1" y="6" transform="matrix(-0.9954 9.536620e-002 -9.536620e-002 -0.9954 148.0164 6.7387)"
              fill="#B0B0B0" width="5.6" height="1.9"></rect>
        <g> <path fill="#EFC784"
                  d="M76.8,26.4c-0.9-2.7-2.2-13.8-2.6-16.9l-1.7,0.2l2.7,28.7l0,0l1.7-0.2C78.5,34.8,77.6,28.9,76.8,26.4z"></path>
            <path fill="#E1BC7E"
                  d="M77,38.1l1.2-0.1c0,0,0.7-2.2,0.3-6.4c-0.4-4.3-1.5-9.6-2.1-15.8l-0.6-6.5l-1.5,0.1 c0.4,3.1,1.7,14.3,2.6,16.9C77.6,28.9,78.5,34.8,77,38.1z"></path>
            <path fill="#3D3D3D" d="M75.3,38.3c0,0.3,0.3,0.6,0.5,0.6l0.8-0.1c0.1-0.2,0.2-0.4,0.3-0.6L75.3,38.3z"></path>
            <path fill="#3D3D3D"
                  d="M77,38.1c-0.1,0.2-0.2,0.4-0.3,0.6l1.1-0.1c0.3,0,0.4-0.3,0.4-0.6l0,0L77,38.1z"></path> </g>
        <path fill="#DEDEDE"
              d="M76,5.6c0-0.3-0.3-0.5-0.5-0.5l-3.6,0.3c-0.3,0-0.4,0.3-0.4,0.6l0.1,1.2l4.5-0.4L76,5.6z"></path>
        <path fill="#B0B0B0"
              d="M71.6,7.2l0.1,1.2c0,0.3,0.3,0.5,0.5,0.5l3.6-0.3c0.3,0,0.4-0.3,0.4-0.6l-0.1-1.2L71.6,7.2z"></path>
        <path fill="#DEDEDE"
              d="M71.4,6.2c0-0.2-0.2-0.4-0.4-0.4l-3.2,0.1c-0.2,0-0.4,0.2-0.3,0.4l0.1,1.2l3.9-0.4L71.4,6.2z"></path>
        <path fill="#B0B0B0"
              d="M67.5,7.5l0.1,1.2c0,0.2,0.2,0.3,0.4,0.3l3.1-0.5c0.2,0,0.4-0.2,0.3-0.4l-0.1-1L67.5,7.5z"></path>
        <g> <path fill="#DEDEDE"
                  d="M76.2,5.7C76.1,5.7,76.1,5.7,76.2,5.7l0.1,0.9c1.5-0.1,3.2,0.4,3.7,1.9c0.1,0,0.2,0,0.2-0.1 C80,7.1,78.2,5.5,76.2,5.7z"></path>
            <path fill="#B0B0B0"
                  d="M76.2,6.6l0.1,1c0.1,0,0.1,0,0.2,0c1.8-0.2,2.9,0.1,3.1,0.6c0,0.1,0.2,0.2,0.3,0.3 C79.5,7,77.7,6.5,76.2,6.6z"></path> </g>
        <path fill="#B0B0B0"
              d="M68.1,8.7c0,0.1-0.1,0.3-0.2,0.3l0,0c-0.1,0-0.3-0.1-0.3-0.2l-0.2-2.5c0-0.1,0.1-0.3,0.2-0.3l0,0 c0.1,0,0.3,0.1,0.3,0.2L68.1,8.7z"></path> </g>
    <g> <g> <g> <path fill="#AAAAAA"
                      d="M53.7,23.6c0-0.1,0-0.1-0.1-0.1c-0.3-0.8,0.1-1.7,1-2L54.4,21c0.3-0.1,0.4-0.3,0.2-0.8 c-0.1-0.3-0.3-0.5-0.5-0.6l0-0.2l-0.2-0.2L54,19l-0.2-0.1l0.1-0.2l-0.2-0.1l0.1-0.2l-0.2-0.1l0.1-0.2l-0.3-0.2l0,0l-0.4-1.2 l0.9-0.3l3.4,5.1l-0.5,0.9l-0.1,0c0.3,0.8-0.1,1.7-1,2c-0.1,0-0.2,0.1-0.3,0.1l0.4,1.3l-1.5,0.5l-0.9-2.6L53.7,23.6z"></path> </g>
        <g> <circle fill="#CACACA" cx="55.1" cy="22.9" r="0.9"></circle>
            <path fill="#777777"
                  d="M54.2,23.2c-0.2-0.5,0.1-1,0.6-1.2c0.5-0.2,1,0.1,1.2,0.6c0.2,0.5-0.1,1-0.6,1.2 C54.9,24,54.4,23.7,54.2,23.2z M54.2,23.2c0.2,0.5,0.7,0.7,1.2,0.6c0.5-0.2,0.7-0.7,0.6-1.2c-0.2-0.5-0.7-0.7-1.2-0.6 C54.3,22.2,54,22.8,54.2,23.2z"></path> </g>
        <path fill="#5F6656"
              d="M57.9,36.7c-1.4-0.6-3.8-4.4-2.8-7.5c0-0.1,0.1-0.2,0.1-0.2c0.4-1.1,1.2-1.9,0.4-4.1c0,0-2.1-1-3.1-0.6 c-1,0.4,0.4,1,0.4,1s0.7-0.1-0.2,3c-1.4,5,1,9.6,3.1,10.3c3.2,1.1,3.5-0.8,2.6-1.6C58.2,36.9,58.1,36.8,57.9,36.7z"></path> </g>
        <g> <g> <path fill="#CACACA"
                      d="M56.6,22.6c0-0.1,0-0.1,0-0.1c-0.3-0.8-1.2-1.3-2-1L54.4,21c-0.3,0.1-0.5,0-0.6-0.5 c-0.1-0.3-0.1-0.6,0-0.8l-0.2-0.1l0.1-0.2l-0.2-0.1l0.1-0.2l-0.2-0.1l0.1-0.2l-0.1-0.1l0.1-0.2l-0.1-0.1l0.1-0.3l0,0l-0.4-1.2 L52,17l0.6,6.1l0.9,0.4l0.1,0c0.3,0.8,1.2,1.3,2,1c0.1,0,0.2-0.1,0.3-0.1l0.4,1.3l1.5-0.5l-0.9-2.5L56.6,22.6z"></path> </g>
            <g> <circle fill="#CACACA" cx="55.1" cy="22.9" r="0.9"></circle>
                <path fill="#777777"
                      d="M55.4,23.8c-0.5,0.2-1-0.1-1.2-0.6c-0.2-0.5,0.1-1,0.6-1.2c0.5-0.2,1,0.1,1.2,0.6 C56.1,23.1,55.9,23.6,55.4,23.8z M54.8,22.1c-0.5,0.2-0.7,0.7-0.6,1.2c0.2,0.5,0.7,0.7,1.2,0.6c0.5-0.2,0.7-0.7,0.6-1.2 C55.8,22.1,55.2,21.9,54.8,22.1z"></path> </g>
            <path fill="#5F6656"
                  d="M55.9,24.8c0,0,1-2.1,2.1-2.4c1.1-0.3,0.4,1,0.4,1s-0.6,0.4,2,2.2c4.2,3,5.2,8.2,4.1,10 c-2.1,3.3-3.7,1.2-2.9-0.2c0.7-1.4,0.2-6-2.7-7.7C57.8,27.1,56.7,27,55.9,24.8z"></path> </g>
        <circle fill="#CC1E47" cx="54.7" cy="25.4" r="0.5"></circle>
        <circle fill="#CC1E47" cx="56.9" cy="24.6" r="0.5"></circle>
        <path fill="#474B41"
              d="M57.9,36.7c-1.4-0.6-3.8-4.4-2.8-7.5c-1,1.5-1.1,5.1,0.2,6.8c0.5,0.5,1,1,1.7,1.2c0.5,0.1,0.9,0,1.3-0.2 C58.2,36.9,58.1,36.8,57.9,36.7z"></path>
        <path fill="#474B41"
              d="M61.5,35.4c0.7-1.3,0.2-5.8-2.5-7.6c1.7,0.6,4,3.3,4.1,5.4c0,0.7-0.1,1.4-0.6,2c-0.3,0.4-0.7,0.6-1.1,0.7 C61.4,35.8,61.5,35.6,61.5,35.4z"></path> </g> </svg>
