<?xml version="1.0" encoding="UTF-8"?> <!-- Generator: Adobe Illustrator 17.1.0, SVG Export Plug-In . SVG Version: 6.00 Build 0) -->
<svg xmlns="http://www.w3.org/2000/svg" xmlns:xlink="http://www.w3.org/1999/xlink" id="Layer_1" x="0px" y="0px"
     viewBox="15 0 68 60" xml:space="preserve"> <g id="Слой_2_1_"> <g id="Слой_1-2"> <path fill="#EFA900"
                                                                                           d="M15.8,24.3c0-1.4,1.2-2.5,2.7-2.5h62.1c1.5,0,2.7,1.1,2.7,2.5v32c0,1.4-1.2,2.5-2.7,2.5H18.4 c-1.5,0-2.7-1.1-2.7-2.5V24.3z"></path> </g> </g>
    <g> <ellipse fill="#00A19B" cx="65.5" cy="4.8" rx="11.2" ry="3.8"></ellipse>
        <path fill="#00A19B"
              d="M76.7,31.4c0,2.1-5,2.8-11.2,2.8c-6.2,0-11.2-0.7-11.2-2.8c0-2.1,5-3.8,11.2-3.8 C71.7,27.6,76.7,29.3,76.7,31.4z"></path>
        <path fill="#C5C8CF" d="M65.5,3.2v29.7c6.2,0,11.2-0.7,11.2-1.6V4.8C76.7,3.9,71.7,3.2,65.5,3.2z"></path>
        <path fill="#DEDEE6" d="M54.3,4.8v26.6c0,0.9,5,1.6,11.2,1.6V3.2C59.3,3.2,54.3,3.9,54.3,4.8z"></path>
        <g> <path fill="#919196"
                  d="M54.3,30.5c1.3,1.1,7.6,1.4,11.2,1.4c3.5,0,9.9-0.3,11.2-1.4v-0.4l-0.2,0c-0.1,0.5-3.9,1.3-10.9,1.3 c-7.1,0-10.8-0.8-10.9-1.3c0,0,0,0,0,0h-0.2V30.5z"></path>
            <path fill="#919196"
                  d="M65.5,4.4c-3.5,0-9.9,0.3-11.2,1.4v0.4l0.2,0c0.1-0.5,3.9-1.3,10.9-1.3c7.1,0,10.8,0.8,10.9,1.3h0.2V5.8 C75.4,4.7,69,4.4,65.5,4.4z"></path> </g>
        <path fill="#999DB6"
              d="M65.7,13.7c-2.1,0-3.8-1.7-3.8-3.8s1.7-3.8,3.8-3.8c2.1,0,3.8,1.7,3.8,3.8S67.8,13.7,65.7,13.7z"></path>
        <circle fill="#454561" cx="65.7" cy="9.9" r="3.5"></circle>
        <path fill="#E6002F"
              d="M65.5,12.3l1.2-4.1c0,0,0.1-0.1,0.1-0.1c0,0,0.1,0.1,0.1,0.1l-0.9,4.2c0,0.1-0.2,0.2-0.3,0.2 C65.5,12.6,65.4,12.5,65.5,12.3C65.5,12.4,65.5,12.3,65.5,12.3z"></path>
        <g> <path fill="#FFFFFF"
                  d="M65.7,7.5c-0.1,0-0.2-0.1-0.2-0.2V7.1c0-0.1,0.1-0.2,0.2-0.2c0.1,0,0.2,0.1,0.2,0.2v0.1 C65.9,7.4,65.8,7.5,65.7,7.5z"></path> </g>
        <g> <path fill="#FFFFFF"
                  d="M67.6,8.3c-0.1,0-0.1,0-0.2-0.1c-0.1-0.1-0.1-0.2,0-0.3l0.1-0.1c0.1-0.1,0.2-0.1,0.3,0 C68,7.9,68,8,67.9,8.1l-0.1,0.1C67.7,8.2,67.7,8.3,67.6,8.3z"></path> </g>
        <g> <path fill="#FFFFFF"
                  d="M68.5,10.2h-0.1c-0.1,0-0.2-0.1-0.2-0.2s0.1-0.2,0.2-0.2h0.1c0.1,0,0.2,0.1,0.2,0.2S68.6,10.2,68.5,10.2z"></path> </g>
        <g> <path fill="#FFFFFF"
                  d="M67.7,12.2c-0.1,0-0.1,0-0.2-0.1L67.4,12c-0.1-0.1-0.1-0.2,0-0.3c0.1-0.1,0.2-0.1,0.3,0l0.1,0.1 c0.1,0.1,0.1,0.2,0,0.3C67.8,12.1,67.8,12.2,67.7,12.2z"></path> </g>
        <g> <path fill="#FFFFFF"
                  d="M63.7,12.2c-0.1,0-0.1,0-0.2-0.1c-0.1-0.1-0.1-0.2,0-0.3l0.1-0.1c0.1-0.1,0.2-0.1,0.3,0 c0.1,0.1,0.1,0.2,0,0.3l-0.1,0.1C63.8,12.1,63.8,12.2,63.7,12.2z"></path> </g>
        <g> <path fill="#FFFFFF"
                  d="M62.9,10.2c-0.1,0-0.2-0.1-0.2-0.2c0-0.1,0.1-0.2,0.2-0.2l0.1,0c0,0,0,0,0,0c0.1,0,0.2,0.1,0.2,0.2 c0,0.1-0.1,0.2-0.2,0.2L62.9,10.2C62.9,10.2,62.9,10.2,62.9,10.2z"></path> </g>
        <g> <path fill="#FFFFFF"
                  d="M63.8,8.3c-0.1,0-0.1,0-0.2-0.1l-0.1-0.1c-0.1-0.1-0.1-0.2,0-0.3c0.1-0.1,0.2-0.1,0.3,0L64,7.9 c0.1,0.1,0.1,0.2,0,0.3C63.9,8.2,63.9,8.3,63.8,8.3z"></path> </g>
        <ellipse fill="#FFFFFF" cx="65.7" cy="12.4" rx="1.2" ry="0.3"></ellipse> </g> </svg>
