<?xml version="1.0" encoding="UTF-8"?> <!-- Generator: Adobe Illustrator 17.1.0, SVG Export Plug-In . SVG Version: 6.00 Build 0) -->
<svg xmlns="http://www.w3.org/2000/svg" xmlns:xlink="http://www.w3.org/1999/xlink" id="Layer_1" x="0px" y="0px"
     viewBox="15 0 68 60" xml:space="preserve"> <g id="Слой_2_1_"> <g id="Слой_1-2"> <path fill="#EFA900"
                                                                                           d="M15.8,24.3c0-1.4,1.2-2.5,2.7-2.5h62.1c1.5,0,2.7,1.1,2.7,2.5v32c0,1.4-1.2,2.5-2.7,2.5H18.4 c-1.5,0-2.7-1.1-2.7-2.5V24.3z"></path> </g> </g>
    <g> <path fill="#DADADA"
              d="M77.4,14.1v5.3h-3.2c-2.2,0-4,1.9-4,4.3v0.1c0,5.1-3.8,9.2-8.6,9.4c-0.1,0-0.2,0-0.3,0H61 c-0.1,0-0.2,0-0.3,0c-4.8-0.2-8.6-4.4-8.6-9.4V7.2h5v16.5c0,2.3,1.8,4.2,3.9,4.2h0.1c2.2,0,3.9-1.9,3.9-4.2v-0.1 c0-5.3,4.1-9.5,9-9.5L77.4,14.1L77.4,14.1L77.4,14.1z"></path>
        <path opacity="0.5" fill="#FFFFFF"
              d="M73.7,15.7v-0.9c-4.4,0.3-7.9,4.1-7.9,8.8v0.1 c0,0.1,0,0.2,0,0.3h1C66.8,19.6,69.7,16.3,73.7,15.7z"></path>
        <path fill="#0091A1"
              d="M65.6,24.7c-0.4,2.2-2.3,3.8-4.4,3.8H61c-2.2,0-4-1.6-4.4-3.8h-3.9c0.5,4.4,4,7.8,8.3,7.8h0.1 c4.3,0,7.8-3.4,8.3-7.8H65.6z"></path>
        <rect x="50.4" y="2.7" fill="#9D9D9C" width="8.4" height="3.9"></rect>
        <polygon fill="#878787" points="58.8,6.6 50.4,6.6 51.5,8.5 57.7,8.5 "></polygon>
        <rect x="51.9" y="8.5" fill="#575756" width="5.5" height="1.2"></rect>
        <g> <rect x="77.2" y="12.3" fill="#9D9D9C" width="3.7" height="8.8"></rect>
            <polygon fill="#878787" points="77.2,21.1 77.2,12.3 75.4,13.5 75.4,19.9 "></polygon>
            <rect x="74.4" y="13.8" fill="#575756" width="1.1" height="5.8"></rect> </g>
        <path fill="#0091A1" d="M61.5,32.1v1.1c-0.1,0-0.2,0-0.3,0H61c-0.1,0-0.2,0-0.3,0v-1.1H61.5z"></path>
        <ellipse fill="#0091A1" cx="62.5" cy="39.2" rx="9.5" ry="1.7"></ellipse>
        <ellipse fill="#0091A1" cx="64.1" cy="36.8" rx="5.6" ry="1"></ellipse>
        <ellipse fill="#0091A1" cx="57.8" cy="35.1" rx="3.6" ry="0.5"></ellipse> </g> </svg>
