<?xml version="1.0" encoding="UTF-8"?> <!-- Generator: Adobe Illustrator 17.1.0, SVG Export Plug-In . SVG Version: 6.00 Build 0) --> <svg xmlns="http://www.w3.org/2000/svg" xmlns:xlink="http://www.w3.org/1999/xlink" id="Слой_1" x="0px" y="0px" viewBox="0 0 1000 1000" xml:space="preserve"> <circle fill="#F0A901" cx="500" cy="500" r="363.9"></circle> <g> <g id="XMLID_1_"> <g> <rect x="609.2" y="394.2" fill="#7CBA5D" width="127.6" height="16"></rect> <rect x="625.2" y="330.4" fill="#7CBA5D" width="95.7" height="16"></rect> <rect x="641.1" y="362.3" fill="#FCFCFC" width="63.8" height="16"></rect> <rect x="641.1" y="298.5" fill="#FCFCFC" width="63.8" height="16"></rect> <rect x="290.2" y="521.8" fill="#7CBA5D" width="127.6" height="16"></rect> <rect x="306.1" y="585.6" fill="#7CBA5D" width="95.7" height="16"></rect> <path d="M433.8,362.3c26.4,0,47.9,21.5,47.9,47.9v111.7c0,61.6,50.1,111.7,111.7,111.7s111.7-50.1,111.7-111.7v-95.7h-63.8v95.7 c0,26.4-21.5,47.9-47.9,47.9c-26.4,0-47.9-21.5-47.9-47.9V410.1c0-61.6-50.1-111.7-111.7-111.7s-111.7,50.1-111.7,111.7v95.7 h63.8v-95.7C385.9,383.7,407.4,362.3,433.8,362.3z M465.7,521.8V410.1c0-17.6-14.3-31.9-31.9-31.9c-17.6,0-31.9,14.3-31.9,31.9 v95.7h23.9c4.4,0,8,3.6,8,8v31.9c0,4.4-3.6,8-8,8h-23.9v16h8c4.4,0,8,3.6,8,8v31.9c0,4.4-3.6,8-8,8h-8v23.9c0,4.4-3.6,8-8,8 h-79.8c-4.4,0-8-3.6-8-8v-23.9h-8c-4.4,0-8-3.6-8-8v-31.9c0-4.4,3.6-8,8-8h8v-16h-23.9c-4.4,0-8-3.6-8-8v-31.9c0-4.4,3.6-8,8-8 h23.9v-95.7c0-70.4,57.2-127.6,127.6-127.6s127.6,57.3,127.6,127.6v111.7c0,17.6,14.3,31.9,31.9,31.9c17.6,0,31.9-14.3,31.9-31.9 v-95.7h-23.9c-4.4,0-8-3.6-8-8v-31.9c0-4.4,3.6-8,8-8h23.9v-16h-8c-4.4,0-8-3.6-8-8v-31.9c0-4.4,3.6-8,8-8h8v-23.9 c0-4.4,3.6-8,8-8h79.8c4.4,0,8,3.6,8,8v23.9h8c4.4,0,8,3.6,8,8v31.9c0,4.4-3.6,8-8,8h-8v16h23.9c4.4,0,8,3.6,8,8v31.9 c0,4.4-3.6,8-8,8h-23.9v95.7c0,70.4-57.3,127.6-127.6,127.6S465.7,592.1,465.7,521.8z M417.8,537.7v-16H290.2v16H417.8z M401.9,601.5v-16h-95.7v16H401.9z M385.9,633.4v-16h-63.8v16H385.9z M385.9,569.6v-16h-63.8v16H385.9z M736.8,410.1v-16H609.2 v16H736.8z M720.9,346.3v-16h-95.7v16H720.9z M704.9,378.2v-16h-63.8v16H704.9z M704.9,314.4v-16h-63.8v16H704.9z"></path> <path d="M393.9,735.7v1.5c0,11.2-4.8,22-13,29.5c-7.4,6.7-17,10.4-26.9,10.4c-1.3,0-2.5-0.1-3.8-0.2c-20.2-1.9-36-20-36-41.1 c0-11.1,3.2-21.9,9.4-31.1l23.9-35.8c3-4.4,10.3-4.4,13.3,0l23.9,35.8C390.6,713.9,393.9,724.6,393.9,735.7z M377.9,737.1v-1.5 c0-7.9-2.3-15.6-6.7-22.1L354,687.7l-17.2,25.8c-4.4,6.6-6.7,14.2-6.7,22.1c0,13.1,9.5,24.1,21.6,25.3c6.9,0.7,13.4-1.5,18.5-6.1 C375.1,750.3,377.9,743.9,377.9,737.1z"></path> <rect x="322.1" y="617.5" fill="#FCFCFC" width="63.8" height="16"></rect> <rect x="322.1" y="553.7" fill="#FCFCFC" width="63.8" height="16"></rect> <path fill="#FCFCFC" d="M481.6,410.1c0-26.4-21.5-47.9-47.9-47.9c-26.4,0-47.9,21.5-47.9,47.9v95.7h-63.8v-95.7 c0-61.6,50.1-111.7,111.7-111.7s111.7,50.1,111.7,111.7v111.7c0,26.4,21.5,47.9,47.9,47.9c26.4,0,47.9-21.5,47.9-47.9v-95.7h63.8 v95.7c0,61.6-50.1,111.7-111.7,111.7s-111.7-50.1-111.7-111.7V410.1z"></path> <path fill="#FCFCFC" d="M377.9,735.7v1.5c0,6.7-2.9,13.2-7.8,17.7c-5,4.6-11.6,6.8-18.5,6.1c-12.1-1.2-21.6-12.2-21.6-25.3 c0-7.9,2.3-15.5,6.7-22.1l17.2-25.8l17.2,25.8C375.6,720.1,377.9,727.8,377.9,735.7z"></path> </g> <g> </g> </g> </g> </svg> 