<?xml version="1.0" encoding="UTF-8"?> <!-- Generator: Adobe Illustrator 24.0.2, SVG Export Plug-In . SVG Version: 6.00 Build 0) --> <svg xmlns="http://www.w3.org/2000/svg" xmlns:xlink="http://www.w3.org/1999/xlink" id="Слой_1" x="0px" y="0px" viewBox="0 0 1000 1000" style="enable-background:new 0 0 1000 1000;" xml:space="preserve"> <style type="text/css"> .st0{fill:#F0A901;} .st1{fill:#60B252;} .st2{fill:#FFFFFF;} </style> <circle class="st0" cx="500" cy="500" r="363.9"></circle> <title>Washer</title> <g> <g id="XMLID_1_"> <g> <path class="st1" d="M653.5,377.5v15.4h-23.1v-15.4c0-54-43.9-98-98-98s-98,43.9-98,98v217.6h-23.1V377.5 c0-32.3,12.6-62.7,35.5-85.6c22.9-22.9,53.3-35.5,85.6-35.5s62.7,12.6,85.6,35.5C640.9,314.8,653.5,345.2,653.5,377.5z"></path> <path d="M632.4,513.9c-2.8-1.6-5.1-4-6.5-6.8c-1.5-2.7-2.1-5.9-1.9-9c0.1-1.3,1.2-2.3,2.5-2.2c1.3,0.1,2.2,1.2,2.2,2.5 c-0.2,2.3,0.3,4.5,1.3,6.6c1.1,2,2.7,3.8,4.7,5c1.9,1.1,4,1.7,6.2,1.7c2.4,0,4.8-0.7,6.8-2c1.1-0.7,2.5-0.4,3.2,0.6 c0.7,1.1,0.4,2.5-0.6,3.2c-2.8,1.9-6.1,2.9-9.4,2.9C637.9,516.2,635,515.4,632.4,513.9z"></path> <path d="M632.4,641.8c-2.8-1.6-5.1-4-6.5-6.8c-1.5-2.8-2.1-5.9-1.9-9.1c0.1-1.2,1.2-2.2,2.5-2.2c1.3,0.1,2.2,1.2,2.2,2.5 c-0.2,2.3,0.3,4.6,1.3,6.6c1.1,2.1,2.7,3.8,4.7,5c1.9,1.1,4,1.7,6.2,1.7c2.4,0,4.8-0.8,6.8-2.1c1.1-0.7,2.5-0.4,3.2,0.6 c0.7,1.1,0.4,2.5-0.6,3.2c-2.8,1.8-6.1,2.9-9.4,2.9C637.9,644.1,635,643.3,632.4,641.8z"></path> <path class="st2" d="M624,498c-0.2,3.1,0.4,6.3,1.9,9c1.5,2.9,3.7,5.2,6.5,6.8c2.6,1.5,5.5,2.3,8.5,2.3c3.3,0,6.6-1,9.4-2.9 c1-0.7,1.3-2.1,0.6-3.2c-0.8-1.1-2.2-1.3-3.2-0.6c-2,1.3-4.4,2-6.8,2c-2.2,0-4.3-0.6-6.2-1.7c-2-1.2-3.7-2.9-4.7-5 c-1-2-1.5-4.3-1.3-6.6c0.1-1.3-0.9-2.4-2.2-2.5C625.2,495.8,624.1,496.7,624,498z M620,499.2c0-2.9,0.5-5.6,1.6-8.2 c0.1-0.1,0.1-0.2,0.2-0.3l0.1-0.2c0.1-0.1,0.1-0.2,0.1-0.2c0.4-0.9,0.9-1.7,1.4-2.5c0.1-0.1,0.1-0.1,0.2-0.2l17.4-31.1l17.4,31.1 c0,0.1,0.1,0.1,0.1,0.2c0.5,0.8,1,1.7,1.4,2.5c0.1,0.1,0.1,0.2,0.1,0.2l0.1,0.2c0,0.1,0.1,0.2,0.1,0.3c1.1,2.6,1.7,5.3,1.7,8.2 c0,11.5-9.4,20.9-20.9,20.9S620,510.7,620,499.2z"></path> <path class="st2" d="M625.9,634.9c1.5,2.9,3.7,5.2,6.5,6.8c2.6,1.5,5.5,2.3,8.5,2.3c3.3,0,6.6-1,9.4-2.9c1-0.7,1.3-2.2,0.6-3.2 c-0.7-1-2.2-1.3-3.2-0.6c-2,1.3-4.4,2.1-6.8,2.1c-2.2,0-4.3-0.6-6.2-1.7c-2-1.2-3.7-2.9-4.7-5c-1-2-1.5-4.3-1.3-6.6 c0.1-1.2-0.9-2.4-2.2-2.5c-1.3-0.1-2.4,0.9-2.5,2.2C623.8,629,624.4,632.1,625.9,634.9z M620,627.1c0-2.9,0.5-5.6,1.6-8.2 c0.1-0.1,0.1-0.2,0.2-0.3l0.1-0.2c0.1-0.1,0.1-0.1,0.1-0.2c0.4-0.9,0.9-1.7,1.5-2.5c0-0.1,0.1-0.1,0.1-0.2l17.4-31l17.4,31 c0,0.1,0.1,0.2,0.1,0.2c0.5,0.8,1,1.7,1.4,2.5c0.1,0.1,0.1,0.1,0.1,0.2l0.1,0.2c0,0.1,0.1,0.2,0.1,0.3c1.1,2.6,1.7,5.4,1.7,8.2 c0,11.5-9.4,20.9-20.9,20.9S620,638.6,620,627.1z"></path> <path d="M617.5,484.1l20.4-36.4c0.6-1.1,1.8-1.8,3-1.8c1.2,0,2.4,0.7,3,1.8l20.4,36.4c0.6,1,1.2,2,1.8,3.1l0.3,0.5 c0.3,0.4,0.4,0.9,0.5,1.4c1.2,3.2,1.9,6.6,1.9,10.1c0,15.4-12.5,27.9-27.9,27.9c-15.4,0-27.8-12.5-27.8-27.9 c0-3.5,0.6-6.9,1.9-10.1c0.1-0.4,0.2-0.8,0.4-1.1l0.4-0.7C616.3,486.2,616.9,485.1,617.5,484.1z M621.7,491 c-1.1,2.6-1.6,5.3-1.6,8.2c0,11.5,9.3,20.9,20.9,20.9s20.9-9.4,20.9-20.9c0-2.9-0.6-5.6-1.7-8.2c-0.1-0.1-0.1-0.2-0.1-0.3 l-0.1-0.2c-0.1-0.1-0.1-0.2-0.1-0.2c-0.4-0.9-0.9-1.7-1.4-2.5c-0.1-0.1-0.1-0.1-0.1-0.2l-17.4-31.1l-17.4,31.1 c-0.1,0.1-0.1,0.1-0.2,0.2c-0.5,0.8-1,1.7-1.4,2.5c0,0.1-0.1,0.2-0.1,0.2l-0.1,0.2C621.8,490.8,621.7,490.9,621.7,491z"></path> <path d="M615.8,615.2c0.5-1.1,1.1-2.2,1.7-3.2l20.4-36.4c0.6-1.1,1.8-1.8,3-1.8c1.2,0,2.4,0.7,3,1.8l20.4,36.4 c0.6,1,1.2,2,1.8,3.2l0.3,0.5c0.3,0.4,0.4,0.9,0.5,1.3c1.2,3.2,1.9,6.6,1.9,10.1c0,15.4-12.5,27.8-27.9,27.8 c-15.4,0-27.8-12.4-27.8-27.8c0-3.5,0.6-6.9,1.9-10.1c0.1-0.4,0.2-0.8,0.4-1.1L615.8,615.2z M621.7,618.9 c-1.1,2.6-1.6,5.4-1.6,8.2c0,11.5,9.3,20.9,20.9,20.9s20.9-9.4,20.9-20.9c0-2.9-0.6-5.6-1.7-8.2c-0.1-0.1-0.1-0.2-0.1-0.3 l-0.1-0.2c-0.1-0.1-0.1-0.1-0.1-0.2c-0.4-0.9-0.9-1.7-1.4-2.5c-0.1-0.1-0.1-0.1-0.1-0.2l-17.4-31l-17.4,31 c-0.1,0.1-0.1,0.2-0.1,0.2c-0.5,0.8-1,1.7-1.5,2.5c0,0.1-0.1,0.1-0.1,0.2l-0.1,0.2C621.8,618.7,621.7,618.8,621.7,618.9z"></path> <path class="st1" d="M526.7,643.5v11.9h-32.9v-12.2h0.2c0.5,0.3,1,0.4,1.6,0.4H526.7z"></path> <path class="st2" d="M521.5,611.1l-3.7,25.4c0,0.1,0,0.1,0,0.1h-2.7c-0.1,0-0.1,0-0.1-0.1l-3.7-25.4v-45.3h10.1V611.1z"></path> <path class="st2" d="M454.8,633.1h32.4c-0.2,0.5-0.3,1-0.3,1.5v29.3c0,0.5,0.1,1,0.3,1.5h-32.4c-3.2,0-5.8,2.6-5.8,5.8v29.7 h-51.6V671c0-3.2-2.6-5.8-5.8-5.8h-32.4c0.2-0.4,0.3-1,0.3-1.5v-29.3c0-0.5-0.2-1-0.3-1.5h32.4c3.2,0,5.8-2.6,5.8-5.8v-25.6h1.5 c0.5,0.2,1,0.4,1.6,0.4h47.1c0.5,0,1-0.1,1.5-0.3v25.6C449,630.5,451.5,633.1,454.8,633.1z"></path> <rect x="380.6" y="707.7" class="st2" width="85" height="10.2"></rect> <path class="st1" d="M352.5,643.1v12.2h-32.9v-11.9h31c0.5,0,1.1-0.1,1.6-0.4H352.5z"></path> <path class="st2" d="M334.9,611.1l-3.7,25.4c0,0.1,0,0.1,0,0.1h-2.7c0,0,0,0,0-0.1l-3.7-25.4v-45.3h10.1V611.1z"></path> <path d="M521.5,611.1v-45.3h-10.1v45.3l3.7,25.4c0,0.1,0,0.1,0.1,0.1h2.7c0,0,0,0,0-0.1L521.5,611.1z M526.7,655.3v-11.9h-31.1 c-0.6,0-1.1-0.1-1.6-0.4h-0.2v12.2H526.7z M532.5,256.5c-32.3,0-62.7,12.6-85.6,35.5c-22.8,22.8-35.5,53.2-35.5,85.6v217.6h23.1 V377.5c0-54,44-98,98-98s98,43.9,98,98v15.4h23.1v-15.4c0-32.3-12.6-62.7-35.5-85.6C595.2,269,564.8,256.5,532.5,256.5z M334.9,611.1v-45.3h-10.1v45.3l3.7,25.4c0,0.1,0,0.1,0,0.1h2.7c0,0,0,0,0-0.1L334.9,611.1z M352.5,655.3v-12.2h-0.3 c-0.4,0.3-1,0.4-1.6,0.4h-31v11.9H352.5z M465.7,707.7h-85v10.2h85V707.7z M391.6,590.1h8.3V377.5c0-35.4,13.8-68.7,38.8-93.8 c25.1-25.1,58.4-38.9,93.8-38.9s68.8,13.8,93.8,38.9c25.1,25.1,38.9,58.4,38.9,93.8v21.2c0,3.2-2.6,5.8-5.8,5.8h-34.6 c-3.2,0-5.8-2.6-5.8-5.8v-21.2c0-47.6-38.7-86.4-86.4-86.4S446,329.9,446,377.5v212.6h8.7c3.2,0,5.8,2.6,5.8,5.8v25.6h32.5 c3.2,0,5.8,2.6,5.8,5.8v4.1h3.8l-2.7-19.2c-0.1-0.3-0.1-0.5-0.1-0.9v-51.5c0-3.2,2.6-5.8,5.8-5.8h21.7c3.2,0,5.8,2.6,5.8,5.8 v51.5c0,0.3,0,0.6-0.1,0.9l-2.8,19.2h2.3c3.2,0,5.8,2.6,5.8,5.8v23.8c0,0.4-0.1,0.6-0.1,1c0.3,0.5,0.5,1.1,0.5,1.8 c0,1.9-1.6,3.4-3.5,3.4h-36.3v3.8c0,3.2-2.6,5.8-5.8,5.8h-32.5v18.9h11.3c3.2,0,5.8,2.6,5.8,5.8V724c0,3.2-2.6,5.8-5.8,5.8h-97.4 c-3.2,0-5.8-2.6-5.8-5.8v-22.5c0-3.2,2.6-5.8,5.8-5.8h11.3v-18.9h-32.5c-3.2,0-5.8-2.6-5.8-5.8v-3.8h-36.3 c-1.9,0-3.5-1.6-3.5-3.4c0-0.6,0.2-1.2,0.5-1.8c-0.1-0.3-0.1-0.6-0.1-1v-23.8c0-3.2,2.6-5.8,5.8-5.8h2.2l-2.7-19.2 c-0.1-0.3-0.1-0.5-0.1-0.9v-51.5c0-3.2,2.6-5.8,5.8-5.8h21.7c3.2,0,5.8,2.6,5.8,5.8v51.5c0,0.3,0,0.6-0.1,0.9l-2.7,19.2h3.8v-4.1 c0-3.2,2.6-5.8,5.8-5.8h32.5v-25.7C385.8,592.7,388.4,590.1,391.6,590.1z M447.5,602.1h-47.1c-0.5,0-1.1-0.2-1.6-0.4h-1.5v25.6 c0,3.2-2.6,5.8-5.8,5.8h-32.4c0.2,0.5,0.3,1,0.3,1.5v29.3c0,0.5-0.2,1-0.3,1.5h32.4c3.2,0,5.8,2.6,5.8,5.8v29.7H449V671 c0-3.2,2.6-5.8,5.8-5.8h32.4c-0.2-0.4-0.3-1-0.3-1.5v-29.3c0-0.5,0.1-1,0.3-1.5h-32.4c-3.2,0-5.8-2.6-5.8-5.8v-25.6 C448.5,602,448,602.1,447.5,602.1z"></path> </g> <g> </g> </g> </g> </svg> 