<?xml version="1.0" encoding="UTF-8"?> <!-- Generator: Adobe Illustrator 24.0.2, SVG Export Plug-In . SVG Version: 6.00 Build 0) --> <svg xmlns="http://www.w3.org/2000/svg" xmlns:xlink="http://www.w3.org/1999/xlink" id="Слой_1" x="0px" y="0px" viewBox="0 0 1000 376.5" style="enable-background:new 0 0 1000 376.5;" xml:space="preserve"> <style type="text/css"> .st0{fill:#EFA900;} .st1{fill:#60B252;} .st2{fill:#FFFFFF;} </style> <title>Ресурс 2</title> <title>SOFA-living room-living-furniture-home-lamp</title> <rect x="0.4" y="0.4" class="st0" width="1000" height="376.5"></rect> <rect y="787.5" class="st0" width="496.5" height="747"></rect> <g> <g id="XMLID_1_"> <g> <path class="st1" d="M526,283.4h-51.8c-2.4,0-4.3,1.9-4.3,4.3v13h-51.9c-16.7,0-30.2-13.5-30.3-30.3V106.1 c0.1-16.7,13.6-30.2,30.3-30.3h164.3c16.7,0.1,30.3,13.6,30.3,30.3v164.3c0,16.7-13.5,30.3-30.3,30.3h-51.8v-13 C530.3,285.3,528.3,283.4,526,283.4z M500,274.7c47.8,0,86.5-38.7,86.5-86.5c-0.1-47.7-38.7-86.4-86.5-86.5 c-47.7,0-86.5,38.7-86.5,86.5C413.5,236,452.3,274.7,500,274.7z"></path> <path class="st2" d="M577.8,188.3c-0.1,42.9-34.9,77.7-77.8,77.8c-42.9,0-77.8-34.9-77.8-77.8s34.8-77.8,77.8-77.8 S577.8,145.2,577.8,188.3z M560.5,188.3c0-9.5-7.7-17.3-17.3-17.3c-9.5,0-17.3,7.7-17.3,17.3c0,9.5,7.7,17.3,17.3,17.3 S560.5,197.8,560.5,188.3z M474,188.3c0-9.5-7.7-17.3-17.3-17.3c-9.5,0-17.3,7.7-17.3,17.3c0,9.5,7.7,17.3,17.3,17.3 S474,197.8,474,188.3z"></path> <circle class="st1" cx="543.2" cy="188.3" r="8.7"></circle> <path d="M551.8,188.3c0-4.8-3.8-8.7-8.7-8.7c-4.8,0-8.7,3.9-8.7,8.7c0,4.8,3.9,8.7,8.7,8.7C548,196.9,551.8,193,551.8,188.3z M560.5,188.3c0,9.5-7.7,17.3-17.3,17.3c-9.5,0-17.3-7.7-17.3-17.3c0-9.5,7.7-17.3,17.3-17.3 C552.8,170.9,560.5,178.7,560.5,188.3z"></path> <rect x="478.4" y="292" class="st2" width="43.3" height="8.7"></rect> <circle class="st1" cx="456.7" cy="188.3" r="8.7"></circle> <path d="M465.4,188.3c0-4.8-3.8-8.7-8.7-8.7c-4.8,0-8.7,3.9-8.7,8.7c0,4.8,3.9,8.7,8.7,8.7C461.6,196.9,465.4,193,465.4,188.3z M474,188.3c0,9.5-7.7,17.3-17.3,17.3c-9.5,0-17.3-7.7-17.3-17.3c0-9.5,7.7-17.3,17.3-17.3C466.3,170.9,474,178.7,474,188.3z"></path> <path d="M413.5,188.3c0-47.7,38.7-86.5,86.5-86.5c47.7,0.1,86.4,38.7,86.5,86.5c0,47.8-38.7,86.5-86.5,86.5 C452.3,274.7,413.5,236,413.5,188.3z M500,266.1c42.9-0.1,77.7-34.9,77.8-77.8c0-42.9-34.9-77.8-77.8-77.8s-77.8,34.8-77.8,77.8 S457,266.1,500,266.1z"></path> <path d="M521.6,300.7V292h-43.3v8.7H521.6z M582.1,309.3H417.9c-21.5,0-38.9-17.4-38.9-38.9V106.1c0.1-21.5,17.4-38.9,38.9-38.9 h164.3c21.5,0.1,38.9,17.4,38.9,38.9v164.3C621.1,291.9,603.6,309.3,582.1,309.3z M469.7,300.7v-13c0-2.4,1.9-4.3,4.3-4.3h51.8 c2.4,0,4.3,1.9,4.3,4.3v13h51.9c16.7,0,30.3-13.5,30.3-30.3V106.1c0-16.7-13.5-30.2-30.3-30.3H417.9 c-16.7,0.1-30.2,13.6-30.3,30.3v164.3c0.1,16.7,13.6,30.3,30.3,30.3H469.7z"></path> </g> </g> </g> </svg> 