<?xml version="1.0" encoding="UTF-8"?> <svg xmlns="http://www.w3.org/2000/svg" viewBox="0 0 1000 376.5"> <defs> <style>.cls-1{fill:#efa900;}.cls-2,.cls-5{fill:#fff;}.cls-3,.cls-4{fill:#60b252;}.cls-4,.cls-5{stroke:#000;}.cls-4{stroke-linecap:round;stroke-linejoin:round;stroke-width:11.8px;}.cls-5{stroke-miterlimit:10;stroke-width:11.8px;}</style> </defs> <title>Ресурс 16</title> <g id="Слой_2" data-name="Слой 2"> <g id="Слой_1-2" data-name="Слой 1"> <rect class="cls-1" width="1000" height="376.5"></rect> <rect class="cls-2" x="301.17" y="250.42" width="397.66" height="47.14" rx="14.55"></rect> <path d="M684.28,256.3A8.67,8.67,0,0,1,693,265v18a8.67,8.67,0,0,1-8.67,8.67H315.72a8.67,8.67,0,0,1-8.67-8.67V265a8.67,8.67,0,0,1,8.67-8.67H684.28m0-11.76H315.72A20.45,20.45,0,0,0,295.29,265v18a20.46,20.46,0,0,0,20.43,20.44H684.28A20.46,20.46,0,0,0,704.71,283V265a20.45,20.45,0,0,0-20.43-20.43Z"></path> <path class="cls-3" d="M640.55,78.93H656a10.83,10.83,0,0,1,10.83,10.83V235.54A10.82,10.82,0,0,1,656,246.37H640.55a10.82,10.82,0,0,1-10.82-10.82V89.75A10.83,10.83,0,0,1,640.55,78.93Z"></path> <path d="M656,84.83a4.92,4.92,0,0,1,4.92,4.92V235.54a4.93,4.93,0,0,1-4.92,4.93H640.55a4.93,4.93,0,0,1-4.92-4.93V89.75a4.92,4.92,0,0,1,4.92-4.92H656M656,73H640.55a16.74,16.74,0,0,0-16.72,16.72V235.54a16.75,16.75,0,0,0,16.72,16.73H656a16.75,16.75,0,0,0,16.72-16.73V89.75A16.74,16.74,0,0,0,656,73Z"></path> <path class="cls-3" d="M590.46,78.93h15.41A10.83,10.83,0,0,1,616.7,89.75V235.54a10.83,10.83,0,0,1-10.83,10.83H590.46a10.82,10.82,0,0,1-10.82-10.82V89.75A10.83,10.83,0,0,1,590.46,78.93Z"></path> <path d="M605.87,84.83a4.93,4.93,0,0,1,4.93,4.92V235.54a4.93,4.93,0,0,1-4.93,4.93H590.46a4.93,4.93,0,0,1-4.93-4.93V89.75a4.93,4.93,0,0,1,4.93-4.92h15.41m0-11.8H590.46a16.75,16.75,0,0,0-16.73,16.72V235.54a16.76,16.76,0,0,0,16.73,16.73h15.41a16.75,16.75,0,0,0,16.73-16.73V89.75A16.74,16.74,0,0,0,605.87,73Z"></path> <path class="cls-3" d="M522.46,245.94a10.63,10.63,0,0,1-2.74-.36l-14.91-3.9a10.84,10.84,0,0,1-7.73-13.22l37-141a10.83,10.83,0,0,1,10.47-8.08,10.69,10.69,0,0,1,2.75.35l14.91,3.91a10.83,10.83,0,0,1,7.72,13.21l-37,141A10.82,10.82,0,0,1,522.46,245.94Z"></path> <path d="M544.51,85.26a4.93,4.93,0,0,1,1.25.16l14.91,3.91a4.93,4.93,0,0,1,3.52,6l-37,141a4.94,4.94,0,0,1-6,3.52L506.3,236a4.92,4.92,0,0,1-3.51-6l37-141a4.92,4.92,0,0,1,4.76-3.67m0-11.8h0a16.73,16.73,0,0,0-16.18,12.48l-37,141a16.74,16.74,0,0,0,11.94,20.42l14.91,3.91a17,17,0,0,0,4.24.55,16.74,16.74,0,0,0,16.18-12.49l37-141a16.73,16.73,0,0,0-11.94-20.42L548.75,74a16.82,16.82,0,0,0-4.24-.54Z"></path> <line class="cls-4" x1="392.42" y1="110.87" x2="379.31" y2="185.19"></line> <circle class="cls-4" cx="392.42" cy="110.87" r="17.45"></circle> <path class="cls-5" d="M397.86,160.29H368.22S329.59,210.15,348,248.78h70.07C436.49,210.15,397.86,160.29,397.86,160.29Z"></path> </g> </g> </svg> 