<?xml version="1.0" encoding="UTF-8"?> <!-- Generator: Adobe Illustrator 17.1.0, SVG Export Plug-In . SVG Version: 6.00 Build 0) --> <svg xmlns="http://www.w3.org/2000/svg" xmlns:xlink="http://www.w3.org/1999/xlink" id="Слой_1" x="0px" y="0px" viewBox="0 536.3 1000 376.5" xml:space="preserve"> <title>Ресурс 2</title> <title>SOFA-living room-living-furniture-home-lamp</title> <rect y="536.3" fill="#EFA900" width="1000" height="376.5"></rect> <rect y="1323.8" fill="#EFA900" width="496.5" height="747"></rect> <g> <g id="XMLID_2_"> <g> <path d="M652.7,760.9c0,16.6-4,32.7-11.6,46.4c-0.9,1.5-2.5,2.5-4.3,2.5h-11.1c-6.1,17.5-22.7,29.4-41.5,29.4 c-18.8,0-35.3-11.9-41.5-29.4h-11.1c-1.8,0-3.4-0.9-4.3-2.5c-7.5-13.4-11.5-29-11.7-45.2c0-0.4,0-0.8,0-1.2s0-0.7,0-1.1 c0-0.1,0-0.3,0-0.5c0-0.2,0-0.5,0-0.7s0-0.4,0-0.6c0-0.1,0-0.3,0-0.5s0-0.4,0-0.7c0-0.1,0-0.3,0-0.5c0-0.2,0-0.4,0-0.7 c0-0.1,0-0.3,0-0.5c0-0.2,0-0.5,0.1-0.7c0-0.1,0-0.3,0-0.4c0-0.3,0.1-0.5,0.1-0.8c0-0.1,0-0.1,0-0.2c1.5-21.1,9.6-40.5,22.7-54.6 c0.1-0.1,0.1-0.1,0.2-0.2c0.1-0.1,0.3-0.3,0.5-0.5c2.1-2.3,4.4-4.4,6.8-6.3c0.1-0.1,0.2-0.1,0.3-0.2c0.3-0.2,0.5-0.4,0.8-0.6 c0.3-0.2,0.5-0.4,0.7-0.5c0,0,0.1,0,0.1-0.1c5.5-4.2,11.4-7.3,17.5-9.5l2.3-11.1c1.2-5.7,5.7-10.1,11.3-11.3v-13.8h9.8v-1l0,0v15 c5.5,1.2,10.1,5.5,11.3,11.3l2.4,11.1c0.3,0.1,0.7,0.3,1.1,0.4c0.1,0.1,0.3,0.1,0.4,0.1c0.3,0.1,0.5,0.2,0.8,0.3 c0.2,0.1,0.4,0.1,0.7,0.3c0.2,0.1,0.4,0.1,0.6,0.3c13.5,5.6,25.3,16.3,33.6,30.4C647.9,726.2,652.7,742.9,652.7,760.9z M642.9,760.9c0-5.1-0.4-10.1-1.2-14.9c-10.4-0.4-20.6-1.9-30.5-4.3c-24,19.4-53.8,31.2-84.6,33.4c1.4,8.8,4.1,17.3,8,25h99.3 C639.7,788.3,642.9,774.8,642.9,760.9z M611.9,731.8c8.9,2.3,18.1,3.7,27.4,4.3c-7.9-27.6-28.3-46.8-51.7-48.5l0,0 c-0.7-0.1-1.5-0.1-2.2-0.1c-0.1,0-0.1,0-0.2,0c-0.3,0-0.7,0-1.1,0s-0.7,0-0.9,0c-0.1,0-0.2,0-0.3,0c-0.3,0-0.5,0-0.7,0 c-0.1,0-0.1,0-0.3,0c-0.3,0-0.6,0-0.9,0.1c-0.1,0-0.2,0-0.3,0c-0.2,0-0.4,0-0.6,0.1c-0.1,0-0.3,0-0.4,0c-0.3,0-0.6,0.1-0.9,0.1 c-0.1,0-0.2,0-0.3,0.1c-0.2,0-0.4,0.1-0.6,0.1c-0.1,0-0.3,0-0.4,0.1c-0.2,0-0.4,0.1-0.6,0.1c-0.2,0-0.3,0.1-0.5,0.1 c-0.2,0.1-0.4,0.1-0.6,0.1c-0.1,0-0.3,0.1-0.4,0.1c-0.2,0.1-0.4,0.1-0.5,0.1c-0.1,0-0.2,0.1-0.3,0.1c-0.3,0.1-0.6,0.1-0.9,0.2 c-0.1,0-0.1,0.1-0.3,0.1c-0.3,0.1-0.5,0.1-0.7,0.2c-0.1,0-0.1,0-0.2,0.1c-7.2,1.8-14.1,5.3-20.3,10.5 c16.7,15.3,37.1,26.4,59.1,32.2C611.5,731.7,611.7,731.7,611.9,731.8z M615.1,809.8h-61.8c5.6,11.8,17.5,19.5,30.9,19.5 C597.6,829.3,609.5,821.5,615.1,809.8z M592.2,678.3l-1.4-6.5c-0.5-2.3-2.5-3.9-4.8-3.9h-3.7c-2.3,0-4.3,1.6-4.8,3.9l-1.4,6.5 c0.9-0.1,1.8-0.3,2.7-0.3c0.1,0,0.1,0,0.2,0c0.4-0.1,0.8-0.1,1.2-0.1c0.3,0,0.5,0,0.7-0.1c0.1,0,0.3,0,0.5,0 c0.4,0,0.7-0.1,1.1-0.1c0.1,0,0.2,0,0.3,0c0.4,0,0.9,0,1.3,0c0.5,0,0.9,0,1.3,0c0.1,0,0.1,0,0.2,0c0.4,0,0.9,0,1.3,0.1 c0.1,0,0.1,0,0.2,0c0.9,0.1,1.8,0.1,2.7,0.2c0.1,0,0.1,0,0.1,0c0.5,0.1,0.9,0.1,1.3,0.1c0.1,0,0.1,0,0.1,0 C591.8,678.2,592,678.2,592.2,678.3z M599.5,738.3c-19.4-6.5-37.4-16.9-52.9-30.8c-0.1,0-0.1-0.1-0.1-0.1 c-0.4-0.3-0.8-0.7-1.2-1.1c-0.1-0.1-0.1-0.1-0.2-0.1c-4.9,5.5-8.9,11.7-12.1,18.7c0,0,0,0,0,0.1c-0.1,0.2-0.1,0.4-0.3,0.5 c-0.1,0.1-0.1,0.3-0.2,0.4c0,0.1-0.1,0.1-0.1,0.1c-1.7,3.9-3.1,8-4.2,12.3c-1.1,4.3-1.9,8.7-2.4,13.3c0,0.3-0.1,0.6-0.1,0.9 c0,0.1,0,0.1,0,0.1c0,0.3-0.1,0.5-0.1,0.8c0,0.1,0,0.1,0,0.1c0,0.3-0.1,0.5-0.1,0.7c0,0.1,0,0.2,0,0.3c0,0.2,0,0.4-0.1,0.6 c0,0.1,0,0.3,0,0.4c0,0.2,0,0.4-0.1,0.6c0,0.1,0,0.3,0,0.4c0,0.2,0,0.4,0,0.5c0,0.1,0,0.3,0,0.5c0,0.2,0,0.3,0,0.5s0,0.4,0,0.7 c0,0.1,0,0.2,0,0.3c0,0.2,0,0.4,0,0.7c0,0.1,0,0.3,0,0.3c0,0.3,0,0.7,0,0.9c0,1.4,0.1,2.9,0.1,4.5 C552.2,763.5,578,754,599.5,738.3z"></path> <path fill="#7AB95D" d="M642.9,760.9c0,13.9-3.1,27.4-9.1,39.2h-99.3c-3.9-7.7-6.6-16.1-8-25c30.8-2.2,60.6-13.9,84.6-33.4 c9.9,2.5,20.1,3.9,30.5,4.3C642.5,750.8,642.9,755.8,642.9,760.9z"></path> <path fill="#7AB95D" d="M639.4,736.1c-9.3-0.5-18.5-2-27.4-4.3c-0.2-0.1-0.4-0.1-0.7-0.2c-22-5.8-42.3-16.9-59.1-32.2 c6.3-5.1,13.1-8.7,20.3-10.5c0.1,0,0.1,0,0.2-0.1c0.3-0.1,0.5-0.1,0.7-0.2c0.1,0,0.1-0.1,0.3-0.1c0.3-0.1,0.6-0.1,0.9-0.2 c0.1,0,0.2-0.1,0.3-0.1c0.2-0.1,0.4-0.1,0.5-0.1c0.1,0,0.3-0.1,0.4-0.1c0.2-0.1,0.4-0.1,0.6-0.1c0.2,0,0.3-0.1,0.5-0.1 c0.2,0,0.4-0.1,0.6-0.1c0.1,0,0.3,0,0.4-0.1c0.2,0,0.4-0.1,0.6-0.1c0.1,0,0.2,0,0.3-0.1c0.3,0,0.5-0.1,0.9-0.1c0.1,0,0.3,0,0.4,0 c0.2,0,0.4-0.1,0.6-0.1c0.1,0,0.2,0,0.3,0c0.3,0,0.6-0.1,0.9-0.1c0.1,0,0.1,0,0.3,0c0.3,0,0.5,0,0.7,0c0.1,0,0.2,0,0.3,0 c0.3,0,0.6,0,0.9,0s0.7,0,1.1,0c0.1,0,0.1,0,0.2,0c0.7,0,1.5,0.1,2.2,0.1l0,0C611.1,689.4,631.5,708.5,639.4,736.1z"></path> <path fill="#FFFFFF" d="M553.3,809.8h61.8c-5.6,11.8-17.5,19.5-30.9,19.5C570.8,829.3,558.8,821.5,553.3,809.8z"></path> <path fill="#FFFFFF" d="M590.8,671.8l1.4,6.5c-0.3,0-0.5-0.1-0.7-0.1c-0.1,0-0.1,0-0.1,0c-0.5-0.1-0.9-0.1-1.3-0.1 c-0.1,0-0.1,0-0.1,0c-0.9-0.1-1.8-0.1-2.7-0.2c-0.1,0-0.1,0-0.2,0c-0.4,0-0.9-0.1-1.3-0.1c-0.1,0-0.1,0-0.2,0c-0.5,0-0.9,0-1.3,0 c-0.4,0-0.9,0-1.3,0c-0.1,0-0.2,0-0.3,0c-0.4,0-0.7,0-1.1,0.1c-0.1,0-0.3,0-0.5,0c-0.3,0-0.5,0-0.7,0.1c-0.4,0-0.8,0.1-1.2,0.1 c-0.1,0-0.1,0-0.2,0c-0.9,0.1-1.9,0.2-2.7,0.3l1.4-6.5c0.5-2.3,2.5-3.9,4.8-3.9h3.7C588.4,667.9,590.4,669.6,590.8,671.8z"></path> <rect x="579.3" y="643.5" width="9.8" height="1.2"></rect> <polygon points="589.1,537 589.1,643.5 579.3,643.5 579.3,644.6 579.3,644.6 579.3,537 "></polygon> <path fill="#7AB95D" d="M546.6,707.5c15.5,13.9,33.5,24.3,52.9,30.8c-21.5,15.7-47.3,25.2-73.9,27c-0.1-1.5-0.1-3-0.1-4.5 c0-0.3,0-0.7,0-0.9c0-0.1,0-0.3,0-0.3c0-0.2,0-0.4,0-0.7c0-0.1,0-0.2,0-0.3c0-0.2,0-0.4,0-0.7c0-0.2,0-0.3,0-0.5 c0-0.1,0-0.3,0-0.5c0-0.2,0-0.4,0-0.5c0-0.1,0-0.3,0-0.4c0-0.2,0-0.4,0.1-0.6c0-0.1,0-0.3,0-0.4c0-0.2,0-0.4,0.1-0.6 c0-0.1,0-0.2,0-0.3c0-0.3,0.1-0.5,0.1-0.7c0-0.1,0-0.1,0-0.1c0-0.3,0.1-0.5,0.1-0.8c0-0.1,0-0.1,0-0.1c0-0.3,0.1-0.6,0.1-0.9 c0.5-4.5,1.3-9,2.4-13.3c1.1-4.3,2.5-8.3,4.2-12.3c0-0.1,0.1-0.1,0.1-0.1c0.1-0.1,0.1-0.3,0.2-0.4c0.1-0.2,0.2-0.4,0.3-0.5 c0,0,0,0,0-0.1c3.1-6.9,7.2-13.2,12.1-18.7c0.1,0.1,0.1,0.1,0.2,0.1c0.4,0.4,0.8,0.7,1.2,1.1 C546.5,707.5,546.6,707.5,546.6,707.5z"></path> <path d="M496.1,718c0,16.6-4,32.7-11.6,46.4c-0.9,1.5-2.5,2.5-4.3,2.5h-11.1c-6.1,17.5-22.7,29.4-41.5,29.4s-35.3-11.9-41.5-29.4 h-11.1c-1.8,0-3.4-0.9-4.3-2.5c-7.4-13.4-11.4-29-11.6-45.2c0-0.4,0-0.8,0-1.2c0-0.4,0-0.7,0-1.1c0-0.1,0-0.3,0-0.5 c0-0.2,0-0.5,0-0.7c0-0.2,0-0.4,0-0.6c0-0.1,0-0.3,0-0.5s0-0.4,0-0.7c0-0.1,0-0.3,0-0.5c0-0.2,0-0.4,0-0.7c0-0.1,0-0.3,0-0.5 c0-0.2,0-0.5,0.1-0.7c0-0.1,0-0.3,0-0.4c0-0.3,0.1-0.5,0.1-0.8c0-0.1,0-0.1,0-0.2c1.5-21.1,9.6-40.5,22.7-54.6 c0.1-0.1,0.1-0.1,0.2-0.2c0.1-0.1,0.3-0.3,0.5-0.5c2.1-2.3,4.4-4.4,6.8-6.3c0.1-0.1,0.2-0.1,0.3-0.2c0.3-0.2,0.5-0.4,0.8-0.6 c0.3-0.2,0.5-0.4,0.7-0.5l0.1-0.1c5.5-4.2,11.4-7.3,17.5-9.5l2.3-11.1c1.2-5.7,5.7-10.1,11.3-11.3V537h9.9v78.6 c5.5,1.2,10.1,5.5,11.3,11.3l2.4,11.1c0.3,0.1,0.7,0.3,1.1,0.4c0.1,0.1,0.3,0.1,0.4,0.1c0.3,0.1,0.5,0.2,0.8,0.3 c0.2,0.1,0.4,0.2,0.7,0.3c0.2,0.1,0.4,0.2,0.6,0.3c13.5,5.6,25.3,16.3,33.6,30.4C491.4,683.3,496.1,700,496.1,718z M486.4,718 c0-5.1-0.4-10.1-1.2-14.9c-10.4-0.4-20.6-1.9-30.5-4.3c-24,19.4-53.8,31.2-84.6,33.4c1.4,8.8,4.1,17.3,8,25h99.3 C483.2,745.4,486.4,731.9,486.4,718z M455.4,689c8.9,2.3,18.1,3.7,27.4,4.3c-7.9-27.6-28.3-46.8-51.7-48.5l0,0 c-0.7-0.1-1.5-0.1-2.2-0.1c-0.1,0-0.1,0-0.2,0c-0.3,0-0.7,0-1.1,0c-0.3,0-0.7,0-0.9,0c-0.1,0-0.2,0-0.3,0c-0.3,0-0.5,0-0.7,0 c-0.1,0-0.1,0-0.3,0c-0.3,0-0.6,0-0.9,0.1c-0.1,0-0.2,0-0.3,0c-0.2,0-0.4,0-0.6,0.1c-0.1,0-0.3,0-0.4,0c-0.3,0-0.6,0.1-0.9,0.1 c-0.1,0-0.2,0-0.3,0.1c-0.2,0-0.4,0.1-0.6,0.1c-0.1,0-0.3,0-0.4,0.1c-0.2,0-0.4,0.1-0.6,0.1s-0.3,0.1-0.5,0.1 c-0.2,0.1-0.4,0.1-0.6,0.1c-0.1,0-0.3,0.1-0.4,0.1c-0.2,0.1-0.4,0.1-0.5,0.1c-0.1,0-0.2,0.1-0.3,0.1c-0.3,0.1-0.6,0.1-0.9,0.2 c-0.1,0-0.1,0.1-0.3,0.1c-0.3,0.1-0.5,0.1-0.7,0.2c-0.1,0-0.1,0-0.2,0.1c-7.2,1.8-14.1,5.3-20.3,10.5 c16.7,15.3,37.1,26.4,59.1,32.2C454.9,688.8,455.2,688.8,455.4,689z M458.5,767h-61.8c5.5,11.8,17.5,19.5,30.9,19.5 C441,786.5,452.9,778.7,458.5,767z M435.7,635.4l-1.4-6.5c-0.5-2.3-2.5-3.9-4.8-3.9h-3.7c-2.3,0-4.3,1.6-4.8,3.9l-1.4,6.5 c0.9-0.1,1.8-0.3,2.7-0.3c0.1,0,0.1,0,0.2,0c0.4-0.1,0.8-0.1,1.2-0.1c0.3,0,0.5,0,0.7-0.1c0.1,0,0.3,0,0.5,0 c0.4,0,0.7-0.1,1.1-0.1c0.1,0,0.2,0,0.3,0c0.4,0,0.9,0,1.3,0c0.5,0,0.9,0,1.3,0c0.1,0,0.1,0,0.2,0c0.4,0,0.9,0,1.3,0.1 c0.1,0,0.1,0,0.2,0c0.9,0.1,1.8,0.1,2.7,0.2c0.1,0,0.1,0,0.1,0c0.5,0.1,0.9,0.1,1.3,0.1c0.1,0,0.1,0,0.1,0 C435.2,635.3,435.5,635.4,435.7,635.4z M443,695.4c-19.4-6.5-37.4-16.9-52.9-30.8c-0.1,0-0.1-0.1-0.1-0.1 c-0.4-0.3-0.8-0.7-1.2-1.1c-0.1-0.1-0.1-0.1-0.2-0.2c-4.9,5.5-8.9,11.7-12.1,18.7c0,0,0,0,0,0.1c-0.1,0.2-0.1,0.4-0.3,0.5 c-0.1,0.1-0.1,0.3-0.2,0.4c0,0.1-0.1,0.1-0.1,0.1c-1.7,3.9-3.1,8-4.2,12.3c-1.1,4.3-1.9,8.7-2.4,13.3c0,0.3-0.1,0.6-0.1,0.9 c0,0.1,0,0.1,0,0.1c0,0.3-0.1,0.5-0.1,0.8c0,0.1,0,0.1,0,0.1c0,0.3-0.1,0.5-0.1,0.7c0,0.1,0,0.2,0,0.3c0,0.2,0,0.4-0.1,0.6 c0,0.1,0,0.3,0,0.4c0,0.2,0,0.4-0.1,0.6c0,0.1,0,0.3,0,0.4c0,0.2,0,0.4,0,0.5s0,0.3,0,0.5c0,0.2,0,0.3,0,0.5s0,0.4,0,0.7 c0,0.1,0,0.2,0,0.3c0,0.2,0,0.4,0,0.7c0,0.1,0,0.3,0,0.3c0,0.3,0,0.7,0,0.9c0,1.4,0.1,2.9,0.1,4.5 C395.7,720.6,421.4,711.2,443,695.4z"></path> <path fill="#7AB95D" d="M485.2,703.2c0.8,4.8,1.2,9.7,1.2,14.9c0,13.9-3.1,27.4-9.1,39.2H378c-3.9-7.7-6.6-16.1-8-25 c30.8-2.2,60.6-13.9,84.6-33.4C464.5,701.3,474.7,702.7,485.2,703.2z"></path> <path fill="#7AB95D" d="M482.8,693.2c-9.3-0.5-18.5-2-27.4-4.3c-0.2-0.1-0.4-0.1-0.7-0.2c-22-5.8-42.3-16.9-59.1-32.2 c6.3-5.1,13.1-8.7,20.3-10.5c0.1,0,0.1,0,0.2-0.1c0.3-0.1,0.5-0.1,0.7-0.2c0.1,0,0.1-0.1,0.3-0.1c0.3-0.1,0.6-0.1,0.9-0.2 c0.1,0,0.2-0.1,0.3-0.1c0.2-0.1,0.4-0.1,0.5-0.1c0.1,0,0.3-0.1,0.4-0.1c0.2-0.1,0.4-0.1,0.6-0.1c0.2,0,0.3-0.1,0.5-0.1 c0.2,0,0.4-0.1,0.6-0.1c0.1,0,0.3,0,0.4-0.1c0.2,0,0.4-0.1,0.6-0.1c0.1,0,0.2,0,0.3-0.1c0.3,0,0.5-0.1,0.9-0.1c0.1,0,0.3,0,0.4,0 c0.2,0,0.4-0.1,0.6-0.1c0.1,0,0.2,0,0.3,0c0.3,0,0.6-0.1,0.9-0.1c0.1,0,0.1,0,0.3,0c0.3,0,0.5,0,0.7,0c0.1,0,0.2,0,0.3,0 c0.3,0,0.6,0,0.9,0s0.7,0,1.1,0c0.1,0,0.1,0,0.2,0c0.7,0,1.5,0.1,2.2,0.1l0,0C454.5,646.5,474.9,665.7,482.8,693.2z"></path> <path fill="#FFFFFF" d="M396.7,767h61.8c-5.6,11.8-17.5,19.5-30.9,19.5C414.2,786.5,402.3,778.7,396.7,767z"></path> <path fill="#FFFFFF" d="M434.3,628.9l1.4,6.5c-0.3,0-0.5-0.1-0.7-0.1c0,0-0.1,0-0.1,0c-0.5-0.1-0.9-0.1-1.3-0.1 c-0.1,0-0.1,0-0.1,0c-0.9-0.1-1.8-0.1-2.7-0.2c-0.1,0-0.1,0-0.2,0c-0.4,0-0.9-0.1-1.3-0.1c-0.1,0-0.1,0-0.2,0c-0.5,0-0.9,0-1.3,0 c-0.4,0-0.9,0-1.3,0c-0.1,0-0.2,0-0.3,0c-0.4,0-0.7,0-1.1,0.1c-0.1,0-0.3,0-0.5,0c-0.3,0-0.5,0-0.7,0.1c-0.4,0-0.8,0.1-1.2,0.1 c-0.1,0-0.1,0-0.2,0c-0.9,0.1-1.9,0.2-2.7,0.3l1.4-6.5c0.5-2.3,2.5-3.9,4.8-3.9h3.7C431.8,625.1,433.8,626.7,434.3,628.9z"></path> <path fill="#7AB95D" d="M390.1,664.7c15.5,13.9,33.5,24.3,52.9,30.8c-21.5,15.7-47.3,25.2-73.9,27c-0.1-1.5-0.1-3-0.1-4.5 c0-0.3,0-0.7,0-0.9c0-0.1,0-0.3,0-0.3c0-0.2,0-0.4,0-0.7c0-0.1,0-0.2,0-0.3c0-0.2,0-0.4,0-0.7c0-0.2,0-0.3,0-0.5 c0-0.1,0-0.3,0-0.5c0-0.2,0-0.4,0-0.5s0-0.3,0-0.4c0-0.2,0-0.4,0.1-0.6c0-0.1,0-0.3,0-0.4c0-0.2,0-0.4,0.1-0.6c0-0.1,0-0.2,0-0.3 c0-0.3,0.1-0.5,0.1-0.7c0-0.1,0-0.1,0-0.1c0-0.3,0.1-0.5,0.1-0.8c0-0.1,0-0.1,0-0.1c0-0.3,0.1-0.6,0.1-0.9 c0.5-4.5,1.3-9,2.4-13.3c1.1-4.3,2.5-8.3,4.2-12.3c0-0.1,0.1-0.1,0.1-0.1c0.1-0.1,0.1-0.3,0.2-0.4c0.1-0.2,0.2-0.4,0.3-0.5 c0,0,0,0,0-0.1c3.1-6.9,7.2-13.2,12.1-18.7c0.1,0.1,0.1,0.1,0.2,0.2c0.4,0.4,0.8,0.7,1.2,1.1C390,664.6,390,664.7,390.1,664.7z"></path> </g> </g> </g> </svg> 