<?xml version="1.0" encoding="UTF-8"?> <!-- Generator: Adobe Illustrator 24.0.2, SVG Export Plug-In . SVG Version: 6.00 Build 0) --> <svg xmlns="http://www.w3.org/2000/svg" xmlns:xlink="http://www.w3.org/1999/xlink" id="Слой_1" x="0px" y="0px" viewBox="0 0 1000 376.5" style="enable-background:new 0 0 1000 376.5;" xml:space="preserve"> <style type="text/css"> .st0{fill:#EFA900;} .st1{fill:#60B252;} .st2{fill:#FFFFFF;} </style> <title>Ресурс 2</title> <title>SOFA-living room-living-furniture-home-lamp</title> <rect x="0.4" y="0.4" class="st0" width="1000" height="376.5"></rect> <rect y="787.5" class="st0" width="496.5" height="747"></rect> <g> <g id="XMLID_1_"> <g> <path class="st1" d="M604.9,61.1v40.3H583V94c6.8,0,12.3-5.5,12.3-12.3v-1.1c0-6.8-5.5-12.3-12.3-12.3V61L604.9,61.1L604.9,61.1z "></path> <path class="st2" d="M592.9,113.2h-22.8c-1.6,0-2.9,1.3-2.9,2.9V139c0,1.6,1.3,2.9,2.9,2.9h22.8c1.6,0,2.9-1.3,2.9-2.9v-22.9 C595.8,114.6,594.5,113.2,592.9,113.2z M395.8,107.1h209v184.2c0,5.3-4.3,9.5-9.5,9.6h-190c-5.3-0.1-9.5-4.3-9.5-9.6L395.8,107.1 L395.8,107.1z M430.5,113.2h-22.8c-1.6,0-2.9,1.3-2.9,2.9V139c0,1.6,1.3,2.9,2.9,2.9h22.8c1.6,0,2.9-1.3,2.9-2.9v-22.9 C433.4,114.6,432.1,113.2,430.5,113.2z M500.3,282.4c43.2,0,78.3-35.1,78.3-78.3s-35.1-78.3-78.3-78.3S422,160.9,422,204.1 c0.1,21.6,8.8,41.1,23,55.3C459.2,273.5,478.7,282.3,500.3,282.4z"></path> <rect x="573" y="119.1" class="st1" width="17" height="17.1"></rect> <path class="st2" d="M589.5,80.7v1.1c0,3.6-2.9,6.5-6.5,6.5h-81.9c-3.6,0-6.5-2.9-6.5-6.4c0-0.1,0-0.1,0-0.1v-1.1 c0-3.6,2.9-6.5,6.5-6.5h82C586.6,74.2,589.5,77,589.5,80.7z"></path> <polygon class="st1" points="584.9,306.7 583.1,316.2 562.5,316.2 560.7,306.7 "></polygon> <path d="M570.1,113.2h22.8c1.6,0,2.9,1.3,2.9,2.9V139c0,1.6-1.3,2.9-2.9,2.9h-22.8c-1.6,0-2.9-1.3-2.9-2.9v-22.9 C567.2,114.6,568.5,113.2,570.1,113.2z M590,136.1v-17.1h-17v17.1H590z"></path> <path class="st1" d="M572.8,203.9c0,40-32.4,72.5-72.5,72.5s-72.5-32.4-72.5-72.5c0.1-40,32.5-72.4,72.5-72.5 C540.4,131.4,572.8,163.9,572.8,203.9z M559.5,204c0-32.7-26.5-59.1-59.1-59.1c-32.6,0-59.1,26.5-59.1,59.1 c0.1,32.6,26.5,59.1,59.1,59.1C533,263.1,559.5,236.6,559.5,204z"></path> <path class="st2" d="M500.3,150.7c29.4,0,53.3,23.8,53.3,53.3c0,29.4-23.9,53.3-53.3,53.3S447,233.4,447,204c0-0.1,0-0.1,0-0.1 C447.1,174.5,470.9,150.7,500.3,150.7z"></path> <path class="st1" d="M583,101.3H462.6v-4.6c8.6,0,15.6-7,15.6-15.6c0-8.6-7-15.6-15.6-15.6v-4.6H583v7.3h-81.9 c-6.8,0-12.3,5.5-12.3,12.3v1.1c0.1,6.8,5.5,12.3,12.3,12.3H583V101.3z"></path> <path d="M583,74.2h-82c-3.6,0-6.5,2.9-6.5,6.5v1.1c0,0,0,0,0,0.1c0.1,3.6,3,6.4,6.5,6.4H583c3.6,0,6.5-2.9,6.5-6.5v-1.1 C589.5,77,586.6,74.2,583,74.2z M488.8,81.8v-1.1c0.1-6.8,5.5-12.3,12.3-12.3H583c6.8,0,12.3,5.5,12.3,12.3v1.1 c0,6.8-5.5,12.3-12.3,12.3h-81.9C494.3,94,488.8,88.6,488.8,81.8z"></path> <path class="st2" d="M462.6,71.4c5.4,0,9.8,4.4,9.8,9.8c0,5.4-4.4,9.8-9.8,9.8s-9.8-4.4-9.8-9.8c0-2.7,1.1-5.1,2.9-6.9 C457.5,72.5,460,71.4,462.6,71.4z"></path> <path d="M462.6,91c5.4,0,9.8-4.4,9.8-9.8c0-5.4-4.4-9.8-9.8-9.8c-2.7,0-5.1,1.1-6.9,2.9c-1.8,1.8-2.9,4.2-2.9,6.9 C452.9,86.6,457.3,91,462.6,91z M478.2,81.2c0,8.6-7,15.6-15.6,15.6c-4.3,0-8.2-1.8-11-4.6c-2.9-2.8-4.6-6.7-4.6-11 c0-8.6,7-15.6,15.6-15.6C471.2,65.6,478.2,72.6,478.2,81.2z"></path> <path d="M441.2,204c0-32.7,26.5-59.1,59.1-59.1c32.7,0,59.1,26.5,59.1,59.1c0,32.6-26.5,59.1-59.1,59.1 C467.7,263.1,441.2,236.6,441.2,204z M500.3,150.7c-29.4,0.1-53.3,23.8-53.3,53.3c0,0,0,0,0,0.1c0,29.4,23.9,53.3,53.3,53.3 c29.4,0,53.3-23.9,53.3-53.3C553.6,174.5,529.8,150.7,500.3,150.7z"></path> <path class="st1" d="M462.6,65.6c-8.6,0-15.6,7-15.6,15.6c0,4.3,1.8,8.2,4.6,11s6.7,4.6,11,4.6v4.6h-39.1v-4.6 c8.6,0,15.6-7,15.6-15.6c0-8.6-7-15.6-15.6-15.6v-4.6h39.1V65.6z"></path> <path d="M427.8,203.9c0,40,32.4,72.5,72.5,72.5s72.5-32.4,72.5-72.5s-32.4-72.5-72.5-72.5C460.4,131.5,428,163.9,427.8,203.9z M422.1,204.1c0-43.2,35.1-78.3,78.3-78.3s78.3,35.1,78.3,78.3s-35.1,78.3-78.3,78.3c-21.6-0.1-41.1-8.8-55.3-23 C430.9,245.2,422.1,225.6,422.1,204.1z"></path> <polygon class="st1" points="439.9,306.7 438.2,316.2 417.5,316.2 415.8,306.7 "></polygon> <circle class="st2" cx="423.6" cy="81.2" r="9.8"></circle> <rect x="410.6" y="119.1" class="st1" width="17" height="17.1"></rect> <path class="st1" d="M423.6,96.8v4.6h-27.8V61.1h27.8v4.6c-8.6,0-15.6,7-15.6,15.6C408.1,89.8,415,96.8,423.6,96.8z"></path> <path d="M439.1,81.2c0,8.6-7,15.6-15.6,15.6c-8.6-0.1-15.5-7-15.6-15.6c0-8.6,7-15.6,15.6-15.6C432.2,65.6,439.1,72.6,439.1,81.2 z M433.4,81.2c0-5.4-4.4-9.8-9.8-9.8c-5.4,0-9.8,4.4-9.8,9.8c0,5.4,4.4,9.8,9.8,9.8C429,91,433.4,86.6,433.4,81.2z"></path> <path d="M407.7,113.2h22.8c1.6,0,2.9,1.3,2.9,2.9V139c0,1.6-1.3,2.9-2.9,2.9h-22.8c-1.6,0-2.9-1.3-2.9-2.9v-22.9 C404.9,114.6,406.1,113.2,407.7,113.2z M427.7,136.1v-17.1h-17v17.1H427.7z"></path> <path d="M583.1,316.2l1.8-9.5h-24.2l1.8,9.5H583.1z M417.5,316.2h20.6l1.8-9.5h-24.2L417.5,316.2z M392.9,55.3h214.9 c0.1,0,0.1,0,0.1,0c1.6,0,2.9,1.3,2.9,2.9v233.1c0,8.4-6.8,15.3-15.3,15.3h-4.6l-2.4,12.9c-0.3,1.4-1.5,2.4-2.9,2.4h-25.4 c-1.4,0-2.6-1-2.9-2.4l-2.4-12.9H445.9l-2.4,12.9c-0.3,1.4-1.5,2.4-2.9,2.4h-25.4c-1.4,0-2.6-1-2.9-2.4l-2.4-12.9h-4.6 c-8.4-0.1-15.3-6.9-15.3-15.3V58.2C390,56.6,391.3,55.3,392.9,55.3z M395.8,101.3h27.8h39.1h120.4h21.8V61.1h-21.8H462.6h-39.1 h-27.8L395.8,101.3L395.8,101.3z M395.8,291.3c0,5.3,4.3,9.5,9.5,9.6h190c5.3-0.1,9.5-4.3,9.5-9.6V107.1h-209V291.3z"></path> </g> </g> </g> </svg> 