<?xml version="1.0" encoding="UTF-8"?> <!-- Generator: Adobe Illustrator 17.1.0, SVG Export Plug-In . SVG Version: 6.00 Build 0) --> <svg xmlns="http://www.w3.org/2000/svg" xmlns:xlink="http://www.w3.org/1999/xlink" id="Слой_1" x="0px" y="0px" viewBox="0 601.1 1000 370.5" xml:space="preserve"> <title>Ресурс 2</title> <title>SOFA-living room-living-furniture-home-lamp</title> <rect y="598.1" fill="#EFA900" width="1000" height="376.5"></rect> <rect y="1009.1" fill="#EFA900" width="496.5" height="747"></rect> <g> <g id="XMLID_1_"> <g> <rect x="554.5" y="721.6" fill="#7CBA5D" width="77.3" height="9.7"></rect> <rect x="564.2" y="682.9" fill="#7CBA5D" width="58" height="9.7"></rect> <rect x="573.8" y="702.3" fill="#FCFCFC" width="38.7" height="9.7"></rect> <rect x="573.8" y="663.6" fill="#FCFCFC" width="38.7" height="9.7"></rect> <rect x="361.2" y="798.9" fill="#7CBA5D" width="77.3" height="9.7"></rect> <rect x="370.8" y="837.6" fill="#7CBA5D" width="58" height="9.7"></rect> <path d="M448.2,702.3c16,0,29,13,29,29V799c0,37.3,30.4,67.7,67.7,67.7s67.7-30.4,67.7-67.7v-58h-38.7v58c0,16-13,29-29,29 c-16,0-29-13-29-29v-67.7c0-37.3-30.4-67.7-67.7-67.7s-67.7,30.4-67.7,67.7v58h38.7v-58C419.2,715.2,432.2,702.3,448.2,702.3z M467.5,798.9v-67.7c0-10.7-8.7-19.3-19.3-19.3c-10.7,0-19.3,8.7-19.3,19.3v58h14.5c2.7,0,4.8,2.2,4.8,4.8v19.3 c0,2.7-2.2,4.8-4.8,4.8h-14.5v9.7h4.8c2.7,0,4.8,2.2,4.8,4.8v19.3c0,2.7-2.2,4.8-4.8,4.8h-4.8v14.5c0,2.7-2.2,4.8-4.8,4.8h-48.4 c-2.7,0-4.8-2.2-4.8-4.8V857h-4.8c-2.7,0-4.8-2.2-4.8-4.8v-19.3c0-2.7,2.2-4.8,4.8-4.8h4.8v-9.7h-14.5c-2.7,0-4.8-2.2-4.8-4.8 v-19.3c0-2.7,2.2-4.8,4.8-4.8h14.5v-58c0-42.7,34.7-77.3,77.3-77.3s77.3,34.7,77.3,77.3v67.7c0,10.7,8.7,19.3,19.3,19.3 s19.3-8.7,19.3-19.3v-58h-14.5c-2.7,0-4.8-2.2-4.8-4.8v-19.3c0-2.7,2.2-4.8,4.8-4.8h14.5v-9.7h-4.8c-2.7,0-4.8-2.2-4.8-4.8V678 c0-2.7,2.2-4.8,4.8-4.8h4.8v-14.5c0-2.7,2.2-4.8,4.8-4.8h48.4c2.7,0,4.8,2.2,4.8,4.8v14.5h4.8c2.7,0,4.8,2.2,4.8,4.8v19.3 c0,2.7-2.2,4.8-4.8,4.8h-4.8v9.7h14.5c2.7,0,4.8,2.2,4.8,4.8v19.3c0,2.7-2.2,4.8-4.8,4.8h-14.5v58c0,42.7-34.7,77.3-77.3,77.3 S467.5,841.5,467.5,798.9z M438.5,808.6v-9.7h-77.3v9.7H438.5z M428.8,847.2v-9.7h-58v9.7H428.8z M419.2,866.6v-9.7h-38.7v9.7 H419.2z M419.2,827.9v-9.7h-38.7v9.7H419.2z M631.8,731.2v-9.7h-77.3v9.7H631.8z M622.2,692.6v-9.7h-58v9.7H622.2z M612.5,711.9 v-9.7h-38.7v9.7H612.5z M612.5,673.3v-9.7h-38.7v9.7H612.5z"></path> <path d="M424,928.5v0.9c0,6.8-2.9,13.3-7.9,17.9c-4.5,4.1-10.3,6.3-16.3,6.3c-0.8,0-1.5-0.1-2.3-0.1 c-12.2-1.2-21.8-12.1-21.8-24.9c0-6.7,1.9-13.3,5.7-18.8l14.5-21.7c1.8-2.7,6.2-2.7,8.1,0l14.5,21.7 C422,915.3,424,921.8,424,928.5z M414.3,929.4v-0.9c0-4.8-1.4-9.5-4.1-13.4l-10.4-15.6l-10.4,15.6c-2.7,4-4.1,8.6-4.1,13.4 c0,7.9,5.8,14.6,13.1,15.3c4.2,0.4,8.1-0.9,11.2-3.7C412.6,937.4,414.3,933.5,414.3,929.4z"></path> <rect x="380.5" y="856.9" fill="#FCFCFC" width="38.7" height="9.7"></rect> <rect x="380.5" y="818.3" fill="#FCFCFC" width="38.7" height="9.7"></rect> <path fill="#FCFCFC" d="M477.1,731.2c0-16-13-29-29-29c-16,0-29,13-29,29v58h-38.7v-58c0-37.3,30.4-67.7,67.7-67.7 s67.7,30.4,67.7,67.7v67.7c0,16,13,29,29,29c16,0,29-13,29-29v-58h38.7v58c0,37.3-30.4,67.7-67.7,67.7s-67.7-30.4-67.7-67.7 V731.2L477.1,731.2z"></path> <path fill="#FCFCFC" d="M414.3,928.5v0.9c0,4.1-1.8,8-4.7,10.7c-3,2.8-7,4.1-11.2,3.7c-7.3-0.7-13.1-7.4-13.1-15.3 c0-4.8,1.4-9.4,4.1-13.4l10.4-15.6l10.4,15.6C412.9,919.1,414.3,923.8,414.3,928.5z"></path> </g> </g> </g> </svg> 