<?xml version="1.0" encoding="UTF-8"?> <!-- Generator: Adobe Illustrator 24.0.2, SVG Export Plug-In . SVG Version: 6.00 Build 0) --> <svg xmlns="http://www.w3.org/2000/svg" xmlns:xlink="http://www.w3.org/1999/xlink" id="Слой_1" x="0px" y="0px" viewBox="0 0 1000 376.5" style="enable-background:new 0 0 1000 376.5;" xml:space="preserve"> <style type="text/css"> .st0{fill:#EFA900;} .st1{fill:#60B252;} .st2{fill:#FFFFFF;} </style> <title>Ресурс 2</title> <title>SOFA-living room-living-furniture-home-lamp</title> <rect class="st0" width="1000" height="376.5"></rect> <rect y="787.5" class="st0" width="496.5" height="747"></rect> <g> <g id="XMLID_1_"> <g> <path class="st1" d="M622.7,124.5v9.8H608v-9.8c0-34.3-27.9-62.3-62.3-62.3s-62.3,27.9-62.3,62.3v138.3h-14.7V124.5 c0-20.5,8-39.9,22.6-54.4c14.6-14.6,33.9-22.6,54.4-22.6c20.5,0,39.9,8,54.4,22.6C614.7,84.7,622.7,104,622.7,124.5z"></path> <path d="M609.3,211.3c-1.8-1-3.2-2.5-4.1-4.3c-1-1.7-1.3-3.8-1.2-5.7c0.1-0.8,0.8-1.5,1.6-1.4c0.8,0.1,1.4,0.8,1.4,1.6 c-0.1,1.5,0.2,2.9,0.8,4.2c0.7,1.3,1.7,2.4,3,3.2c1.2,0.7,2.5,1.1,3.9,1.1c1.5,0,3.1-0.4,4.3-1.3c0.7-0.4,1.6-0.3,2,0.4 c0.4,0.7,0.3,1.6-0.4,2c-1.8,1.2-3.9,1.8-6,1.8C612.8,212.7,610.9,212.2,609.3,211.3z"></path> <path d="M609.3,292.6c-1.8-1-3.2-2.5-4.1-4.3c-1-1.8-1.3-3.8-1.2-5.8c0.1-0.8,0.8-1.4,1.6-1.4c0.8,0.1,1.4,0.8,1.4,1.6 c-0.1,1.5,0.2,2.9,0.8,4.2c0.7,1.3,1.7,2.4,3,3.2c1.2,0.7,2.5,1.1,3.9,1.1c1.5,0,3.1-0.5,4.3-1.3c0.7-0.4,1.6-0.3,2,0.4 c0.4,0.7,0.3,1.6-0.4,2c-1.8,1.1-3.9,1.8-6,1.8C612.8,294,610.9,293.5,609.3,292.6z"></path> <path class="st2" d="M603.9,201.2c-0.1,2,0.3,4,1.2,5.7c1,1.8,2.4,3.3,4.1,4.3c1.7,1,3.5,1.5,5.4,1.5c2.1,0,4.2-0.6,6-1.8 c0.6-0.4,0.8-1.3,0.4-2c-0.5-0.7-1.4-0.8-2-0.4c-1.3,0.8-2.8,1.3-4.3,1.3c-1.4,0-2.7-0.4-3.9-1.1c-1.3-0.8-2.4-1.8-3-3.2 c-0.6-1.3-1-2.7-0.8-4.2c0.1-0.8-0.6-1.5-1.4-1.6C604.7,199.8,604,200.3,603.9,201.2z M601.4,201.9c0-1.8,0.3-3.6,1-5.2 c0.1-0.1,0.1-0.1,0.1-0.2l0.1-0.1c0.1-0.1,0.1-0.1,0.1-0.1c0.3-0.6,0.6-1.1,0.9-1.6c0.1-0.1,0.1-0.1,0.1-0.1l11.1-19.8l11.1,19.8 c0,0.1,0.1,0.1,0.1,0.1c0.3,0.5,0.6,1.1,0.9,1.6c0.1,0.1,0.1,0.1,0.1,0.1l0.1,0.1c0,0.1,0.1,0.1,0.1,0.2c0.7,1.7,1.1,3.4,1.1,5.2 c0,7.3-6,13.3-13.3,13.3C607.4,215.2,601.4,209.2,601.4,201.9z"></path> <path class="st2" d="M605.1,288.2c1,1.8,2.4,3.3,4.1,4.3c1.7,1,3.5,1.5,5.4,1.5c2.1,0,4.2-0.6,6-1.8c0.6-0.4,0.8-1.4,0.4-2 s-1.4-0.8-2-0.4c-1.3,0.8-2.8,1.3-4.3,1.3c-1.4,0-2.7-0.4-3.9-1.1c-1.3-0.8-2.4-1.8-3-3.2c-0.6-1.3-1-2.7-0.8-4.2 c0.1-0.8-0.6-1.5-1.4-1.6c-0.8-0.1-1.5,0.6-1.6,1.4C603.8,284.4,604.2,286.4,605.1,288.2z M601.4,283.2c0-1.8,0.3-3.6,1-5.2 c0.1-0.1,0.1-0.1,0.1-0.2l0.1-0.1c0.1-0.1,0.1-0.1,0.1-0.1c0.3-0.6,0.6-1.1,1-1.6c0-0.1,0.1-0.1,0.1-0.1l11.1-19.7l11.1,19.7 c0,0.1,0.1,0.1,0.1,0.1c0.3,0.5,0.6,1.1,0.9,1.6c0.1,0.1,0.1,0.1,0.1,0.1l0.1,0.1c0,0.1,0.1,0.1,0.1,0.2c0.7,1.7,1.1,3.4,1.1,5.2 c0,7.3-6,13.3-13.3,13.3C607.4,296.5,601.4,290.5,601.4,283.2z"></path> <path d="M599.8,192.3l13-23.1c0.4-0.7,1.1-1.1,1.9-1.1c0.8,0,1.5,0.4,1.9,1.1l13,23.1c0.4,0.6,0.8,1.3,1.1,2l0.2,0.3 c0.2,0.3,0.3,0.6,0.3,0.9c0.8,2,1.2,4.2,1.2,6.4c0,9.8-7.9,17.7-17.7,17.7s-17.7-7.9-17.7-17.7c0-2.2,0.4-4.4,1.2-6.4 c0.1-0.3,0.1-0.5,0.3-0.7l0.3-0.4C599,193.6,599.4,193,599.8,192.3z M602.5,196.7c-0.7,1.7-1,3.4-1,5.2c0,7.3,5.9,13.3,13.3,13.3 c7.4,0,13.3-6,13.3-13.3c0-1.8-0.4-3.6-1.1-5.2c-0.1-0.1-0.1-0.1-0.1-0.2l-0.1-0.1c-0.1-0.1-0.1-0.1-0.1-0.1 c-0.3-0.6-0.6-1.1-0.9-1.6c-0.1-0.1-0.1-0.1-0.1-0.1l-11.1-19.8l-11.1,19.8c-0.1,0.1-0.1,0.1-0.1,0.1c-0.3,0.5-0.6,1.1-0.9,1.6 c0,0.1-0.1,0.1-0.1,0.1l-0.1,0.1C602.5,196.6,602.5,196.6,602.5,196.7z"></path> <path d="M598.7,275.7c0.3-0.7,0.7-1.4,1.1-2l13-23.1c0.4-0.7,1.1-1.1,1.9-1.1c0.8,0,1.5,0.4,1.9,1.1l13,23.1 c0.4,0.6,0.8,1.3,1.1,2l0.2,0.3c0.2,0.3,0.3,0.6,0.3,0.8c0.8,2,1.2,4.2,1.2,6.4c0,9.8-7.9,17.7-17.7,17.7S597,293,597,283.2 c0-2.2,0.4-4.4,1.2-6.4c0.1-0.3,0.1-0.5,0.3-0.7L598.7,275.7z M602.5,278c-0.7,1.7-1,3.4-1,5.2c0,7.3,5.9,13.3,13.3,13.3 c7.4,0,13.3-6,13.3-13.3c0-1.8-0.4-3.6-1.1-5.2c-0.1-0.1-0.1-0.1-0.1-0.2l-0.1-0.1c-0.1-0.1-0.1-0.1-0.1-0.1 c-0.3-0.6-0.6-1.1-0.9-1.6c-0.1-0.1-0.1-0.1-0.1-0.1l-11.1-19.7l-11.1,19.7c-0.1,0.1-0.1,0.1-0.1,0.1c-0.3,0.5-0.6,1.1-1,1.6 c0,0.1-0.1,0.1-0.1,0.1l-0.1,0.1C602.5,277.9,602.5,278,602.5,278z"></path> <path class="st1" d="M542.1,293.7v7.6h-20.9v-7.8h0.1c0.3,0.2,0.6,0.3,1,0.3L542.1,293.7L542.1,293.7z"></path> <path class="st2" d="M538.7,273.1l-2.4,16.1c0,0.1,0,0.1,0,0.1h-1.7c-0.1,0-0.1,0-0.1-0.1l-2.4-16.1v-28.8h6.4L538.7,273.1 L538.7,273.1z"></path> <path class="st2" d="M496.3,287h20.6c-0.1,0.3-0.2,0.6-0.2,1v18.6c0,0.3,0.1,0.6,0.2,1h-20.6c-2,0-3.7,1.7-3.7,3.7v18.9h-32.8 v-19c0-2-1.7-3.7-3.7-3.7h-20.6c0.1-0.3,0.2-0.6,0.2-1v-18.6c0-0.3-0.1-0.6-0.2-1h20.6c2,0,3.7-1.7,3.7-3.7V267h1 c0.3,0.1,0.6,0.3,1,0.3h29.9c0.3,0,0.6-0.1,1-0.2v16.3C492.7,285.4,494.2,287,496.3,287z"></path> <rect x="449.2" y="334.5" class="st2" width="54" height="6.5"></rect> <path class="st1" d="M431.3,293.4v7.8h-20.9v-7.6h19.7c0.3,0,0.7-0.1,1-0.3L431.3,293.4L431.3,293.4z"></path> <path class="st2" d="M420.1,273.1l-2.4,16.1c0,0.1,0,0.1,0,0.1H416c0,0,0,0,0-0.1l-2.4-16.1v-28.8h6.4L420.1,273.1L420.1,273.1z"></path> <path d="M538.7,273.1v-28.8h-6.4v28.8l2.4,16.1c0,0.1,0,0.1,0.1,0.1h1.7c0,0,0,0,0-0.1L538.7,273.1z M542.1,301.2v-7.6h-19.8 c-0.4,0-0.7-0.1-1-0.3h-0.1v7.8L542.1,301.2L542.1,301.2z M545.7,47.6c-20.5,0-39.9,8-54.4,22.6c-14.5,14.5-22.6,33.8-22.6,54.4 v138.3h14.7V124.5c0-34.3,28-62.3,62.3-62.3c34.3,0,62.3,27.9,62.3,62.3v9.8h14.7v-9.8c0-20.5-8-39.9-22.6-54.4 S566.3,47.6,545.7,47.6z M420.1,273.1v-28.8h-6.4v28.8l2.4,16.1c0,0.1,0,0.1,0,0.1h1.7c0,0,0,0,0-0.1L420.1,273.1z M431.3,301.2 v-7.8h-0.2c-0.3,0.2-0.6,0.3-1,0.3h-19.7v7.6L431.3,301.2L431.3,301.2z M503.3,334.5h-54v6.5h54V334.5z M456.2,259.7h5.3V124.5 c0-22.5,8.8-43.7,24.7-59.6c16-16,37.1-24.7,59.6-24.7c22.5,0,43.7,8.8,59.6,24.7c16,16,24.7,37.1,24.7,59.6V138 c0,2-1.7,3.7-3.7,3.7h-22c-2,0-3.7-1.7-3.7-3.7v-13.5c0-30.3-24.6-54.9-54.9-54.9c-30.3,0-55.1,24.7-55.1,54.9v135.2h5.5 c2,0,3.7,1.7,3.7,3.7v16.3h20.7c2,0,3.7,1.7,3.7,3.7v2.6h2.4l-1.7-12.2c-0.1-0.2-0.1-0.3-0.1-0.6v-32.7c0-2,1.7-3.7,3.7-3.7h13.8 c2,0,3.7,1.7,3.7,3.7v32.7c0,0.2,0,0.4-0.1,0.6l-1.8,12.2h1.5c2,0,3.7,1.7,3.7,3.7v15.1c0,0.3-0.1,0.4-0.1,0.6 c0.2,0.3,0.3,0.7,0.3,1.1c0,1.2-1,2.2-2.2,2.2h-23.1v2.4c0,2-1.7,3.7-3.7,3.7H500v12h7.2c2,0,3.7,1.7,3.7,3.7v14.3 c0,2-1.7,3.7-3.7,3.7h-61.9c-2,0-3.7-1.7-3.7-3.7v-14.3c0-2,1.7-3.7,3.7-3.7h7.2v-12h-20.7c-2,0-3.7-1.7-3.7-3.7v-2.4H405 c-1.2,0-2.2-1-2.2-2.2c0-0.4,0.1-0.8,0.3-1.1c-0.1-0.2-0.1-0.4-0.1-0.6v-15.1c0-2,1.7-3.7,3.7-3.7h1.4l-1.7-12.2 c-0.1-0.2-0.1-0.3-0.1-0.6v-32.7c0-2,1.7-3.7,3.7-3.7h13.8c2,0,3.7,1.7,3.7,3.7v32.7c0,0.2,0,0.4-0.1,0.6l-1.7,12.2h2.4v-2.6 c0-2,1.7-3.7,3.7-3.7h20.7v-16.3C452.5,261.4,454.1,259.7,456.2,259.7z M491.7,267.3h-29.9c-0.3,0-0.7-0.1-1-0.3h-1v16.3 c0,2-1.7,3.7-3.7,3.7h-20.6c0.1,0.3,0.2,0.6,0.2,1v18.6c0,0.3-0.1,0.6-0.2,1h20.6c2,0,3.7,1.7,3.7,3.7v18.9h32.9v-19 c0-2,1.7-3.7,3.7-3.7h20.6c-0.1-0.3-0.2-0.6-0.2-1v-18.6c0-0.3,0.1-0.6,0.2-1h-20.6c-2,0-3.7-1.7-3.7-3.7V267 C492.3,267.3,492,267.3,491.7,267.3z"></path> </g> </g> </g> </svg> 