<?xml version="1.0" encoding="UTF-8"?> <!-- Generator: Adobe Illustrator 17.1.0, SVG Export Plug-In . SVG Version: 6.00 Build 0) --> <svg xmlns="http://www.w3.org/2000/svg" xmlns:xlink="http://www.w3.org/1999/xlink" id="Layer_1" x="0px" y="0px" viewBox="0 0 1507 1341" xml:space="preserve"> <g> <defs> <path id="SVGID_1_" d="M642.6,305c81.2-18.8,417.7-96.8,559.5,67.8c81.4,94.5,15.1,171.8,67.8,462 c52.6,289.5,147.5,371.5,97.5,432.7c-79.6,97.4-321.8-107.8-758.7-106c-307.5,1.3-420.4,104-509,21.2 C-24.8,1066.5,50.7,726,231.1,525.4C373,367.5,553.4,325.7,642.6,305z"></path> </defs> <clipPath id="SVGID_2_"> <use xlink:href="#SVGID_1_" overflow="visible"></use> </clipPath> <g clip-path="url(#SVGID_2_)"> <rect x="-306.3" y="258.4" fill="#FAEBD2" width="2012.8" height="1046.4"></rect> <linearGradient id="SVGID_3_" gradientUnits="userSpaceOnUse" x1="-927.811" y1="1210.986" x2="1085.0227" y2="1210.986" gradientTransform="matrix(-1 0 0 1 778.749 0)"> <stop offset="0" style="stop-color:#8C5F58"></stop> <stop offset="0.5099" style="stop-color:#E2B686"></stop> <stop offset="0.5991" style="stop-color:#DBAF82"></stop> <stop offset="0.7298" style="stop-color:#C89B78"></stop> <stop offset="0.8852" style="stop-color:#A87B67"></stop> <stop offset="1" style="stop-color:#8C5F58"></stop> </linearGradient> <rect x="-306.3" y="1116.2" fill="url(#SVGID_3_)" width="2012.8" height="189.6"></rect> <linearGradient id="SVGID_4_" gradientUnits="userSpaceOnUse" x1="-927.811" y1="1284.265" x2="1085.0227" y2="1284.265" gradientTransform="matrix(-1 0 0 1 778.749 0)"> <stop offset="3.069200e-004" style="stop-color:#7D5F58"></stop> <stop offset="0.5102" style="stop-color:#B98C82"></stop> <stop offset="1" style="stop-color:#7D5F58"></stop> </linearGradient> <rect x="-306.3" y="1262.7" fill="url(#SVGID_4_)" width="2012.8" height="43.1"></rect> <g> <rect x="268" y="361" fill="#FFFFFF" width="864.2" height="688.1"></rect> <g> <rect x="674.3" y="315.9" fill="#EAEEF7" width="51.8" height="746.4"></rect> <g> <rect x="487" y="315.9" fill="#EAEEF7" width="20" height="746.4"></rect> <rect x="319.8" y="693.8" fill="#EAEEF7" width="354.4" height="22.6"></rect> <rect x="319.8" y="864.8" fill="#EAEEF7" width="354.4" height="22.6"></rect> <rect x="319.8" y="522.8" fill="#EAEEF7" width="354.4" height="22.6"></rect> </g> <g> <rect x="893.3" y="315.9" fill="#EAEEF7" width="20" height="746.4"></rect> <rect x="726" y="693.8" fill="#EAEEF7" width="354.4" height="22.6"></rect> <rect x="726" y="864.8" fill="#EAEEF7" width="354.4" height="22.6"></rect> <rect x="726" y="522.8" fill="#EAEEF7" width="354.4" height="22.6"></rect> </g> <path fill="#EAEEF7" d="M319.8,315.9h760.7h34.8c9.4,0,17,8.6,17,19.2v39.3v687.9h-51.8V374.4H319.8v687.9H268V374.4v-39.3 c0-10.6,7.6-19.2,17-19.2H319.8z"></path> <rect x="1109" y="315.9" fill="#DDE1E9" width="23.3" height="746.4"></rect> <rect x="688.5" y="315.9" fill="#DDE1E9" width="23.3" height="746.4"></rect> <rect x="268" y="315.9" fill="#DDE1E9" width="23.3" height="746.4"></rect> <rect x="236.7" y="1035.8" fill="#CFCFCF" width="926.9" height="26.5"></rect> <rect x="268" y="315.9" fill="#DDE1E9" width="864.2" height="26.3"></rect> </g> </g> <g> <g> <rect x="-71.2" y="258.3" fill="#9FE6A7" width="317.1" height="871.4"></rect> <rect x="-71.2" y="258.3" fill="#84C78B" width="226.8" height="903.1"></rect> <rect x="95.1" y="258.3" fill="#75B17C" width="33.5" height="903.1"></rect> <rect x="3.6" y="258.3" fill="#75B17C" width="19.1" height="903.1"></rect> <rect x="22.7" y="258.3" fill="#9FE6A7" width="47.9" height="903.1"></rect> </g> <g> <rect x="1154.4" y="258.3" fill="#9FE6A7" width="317.1" height="871.4"></rect> <rect x="1244.7" y="258.3" fill="#84C78B" width="226.8" height="903.1"></rect> <rect x="1270.7" y="258.3" fill="#75B17C" width="33.5" height="903.1"></rect> <rect x="1377.6" y="258.3" fill="#75B17C" width="19.1" height="903.1"></rect> <rect x="1329.7" y="258.3" fill="#9FE6A7" width="47.9" height="903.1"></rect> </g> </g> <g> <rect x="1090.1" y="258.3" fill="#7D7673" width="10.4" height="115.3"></rect> <path fill="#7D7673" d="M963.8,435.4h263c0-21.6-9.4-41-24.4-54.2c-12.8-11.4-29.6-18.2-48.1-18.2h-118.1 c-18.4,0-35.3,6.9-48,18.2c-7.5,6.6-13.6,14.8-17.8,24C966.1,414.4,963.8,424.6,963.8,435.4z"></path> <path fill="#958C86" d="M963.8,435.4h194.9c0-21.6-9.4-41-24.4-54.2c-12.8-11.4-29.6-18.2-48-18.2h-50c-18.4,0-35.3,6.9-48,18.2 c-7.5,6.6-13.6,14.8-17.8,24C966.1,414.4,963.8,424.6,963.8,435.4z"></path> </g> <g> <rect x="298.8" y="258.3" fill="#7D7673" width="10.4" height="115.3"></rect> <path fill="#7D7673" d="M172.5,435.4h263c0-10.8-2.4-21-6.6-30.2c-4.3-9.2-10.4-17.3-17.8-24c-12.8-11.4-29.6-18.2-48.1-18.2H245 c-18.4,0-35.3,6.9-48,18.2C182,394.4,172.5,413.8,172.5,435.4z"></path> <path fill="#958C86" d="M239.1,435.4h196.4c0-10.8-2.4-21-6.6-30.2c-4.3-9.2-10.4-17.3-17.8-24c-12.8-11.4-29.6-18.2-48.1-18.2 h-51.5c-18.4,0-35.3,6.9-48.1,18.2C248.5,394.4,239.1,413.8,239.1,435.4z"></path> </g> <g> <rect x="694.5" y="258.3" fill="#7D7673" width="10.4" height="115.3"></rect> <path fill="#7D7673" d="M568.1,435.4h263c0-10.8-2.4-21-6.6-30.2c-4.2-9.2-10.3-17.3-17.8-24c-12.8-11.4-29.6-18.2-48-18.2H640.6 c-18.4,0-35.3,6.9-48.1,18.2C577.6,394.4,568.1,413.8,568.1,435.4z"></path> <path fill="#7D767A" d="M568.1,435.4h244.1c0-10.8-2.4-21-6.6-30.2c-4.3-9.2-10.4-17.3-17.8-24c-12.8-11.4-29.6-18.2-48-18.2 h-99.2c-18.4,0-35.3,6.9-48.1,18.2C577.6,394.4,568.1,413.8,568.1,435.4z"></path> <path fill="#958C86" d="M587,435.4h225.2c0-10.8-2.4-21-6.6-30.2c-4.3-9.2-10.4-17.3-17.8-24c-12.8-11.4-29.6-18.2-48-18.2h-80.3 c-18.4,0-35.3,6.9-48.1,18.2C596.4,394.4,587,413.8,587,435.4z"></path> <path fill="#958C86" d="M640.9,435.4h136.4c0-10.8-2.4-21-6.6-30.2c-4.3-9.2-10.4-17.3-17.8-24c-11.8-10.5-27-17.2-43.8-18.1 c-16.8,1-32,7.6-43.8,18.1C650.3,394.4,640.9,413.8,640.9,435.4z"></path> </g> </g> </g> <g> <g> <linearGradient id="SVGID_5_" gradientUnits="userSpaceOnUse" x1="-997.7339" y1="1128.77" x2="-670.1829" y2="1128.77" gradientTransform="matrix(-1 0 0 1 150.393 0)"> <stop offset="0" style="stop-color:#B8AC14"></stop> <stop offset="0.1819" style="stop-color:#C2B526"></stop> <stop offset="0.4939" style="stop-color:#D0C240"></stop> <stop offset="0.776" style="stop-color:#D8C950"></stop> <stop offset="1" style="stop-color:#DBCC55"></stop> </linearGradient> <path fill="url(#SVGID_5_)" d="M820.6,1006.4v244.8c0,20,16.2,36.1,36.1,36.1H1112c20,0,36.2-16.2,36.2-36.1v-244.8 c0-20-16.2-36.1-36.2-36.1H856.7C836.7,970.2,820.6,986.4,820.6,1006.4z"></path> <linearGradient id="SVGID_6_" gradientUnits="userSpaceOnUse" x1="-997.7339" y1="1134.2783" x2="-670.1829" y2="1134.2783" gradientTransform="matrix(-1 0 0 1 150.393 0)"> <stop offset="0" style="stop-color:#AFA413"></stop> <stop offset="6.403804e-002" style="stop-color:#B3A718"></stop> <stop offset="0.4211" style="stop-color:#C4B632"></stop> <stop offset="0.7438" style="stop-color:#CEBF42"></stop> <stop offset="1" style="stop-color:#D2C247"></stop> </linearGradient> <path fill="url(#SVGID_6_)" d="M820.6,1017.4v233.8c0,20,16.2,36.1,36.1,36.1H1112c20,0,36.2-16.2,36.2-36.1v-233.8 c0-20-16.2-36.2-36.2-36.2H856.7C836.7,981.2,820.6,997.4,820.6,1017.4z"></path> <linearGradient id="SVGID_7_" gradientUnits="userSpaceOnUse" x1="2145.2781" y1="1219.1194" x2="2472.8027" y2="1219.1194" gradientTransform="matrix(1 0 0 1 -1324.6932 0)"> <stop offset="0" style="stop-color:#AFA413"></stop> <stop offset="6.439787e-002" style="stop-color:#B8AC20"></stop> <stop offset="0.1836" style="stop-color:#C4B632"></stop> <stop offset="0.3288" style="stop-color:#CCBD3E"></stop> <stop offset="0.5255" style="stop-color:#D1C145"></stop> <stop offset="1" style="stop-color:#D2C247"></stop> </linearGradient> <rect x="820.6" y="1150.9" fill="url(#SVGID_7_)" width="327.5" height="136.4"></rect> <linearGradient id="SVGID_8_" gradientUnits="userSpaceOnUse" x1="2145.2781" y1="1225.8887" x2="2472.8027" y2="1225.8887" gradientTransform="matrix(1 0 0 1 -1324.6932 0)"> <stop offset="0" style="stop-color:#D2C247"></stop> <stop offset="0.2562" style="stop-color:#CEBF42"></stop> <stop offset="0.5789" style="stop-color:#C4B632"></stop> <stop offset="0.936" style="stop-color:#B3A718"></stop> <stop offset="1" style="stop-color:#AFA413"></stop> </linearGradient> <rect x="820.6" y="1164.5" fill="url(#SVGID_8_)" width="327.5" height="122.9"></rect> <linearGradient id="SVGID_9_" gradientUnits="userSpaceOnUse" x1="-997.7276" y1="1255.5399" x2="-669.3301" y2="1255.5399" gradientTransform="matrix(-1 0 0 1 150.393 0)"> <stop offset="0" style="stop-color:#AFA413"></stop> <stop offset="6.403804e-002" style="stop-color:#B3A718"></stop> <stop offset="0.4211" style="stop-color:#C4B632"></stop> <stop offset="0.7438" style="stop-color:#CEBF42"></stop> <stop offset="1" style="stop-color:#D2C247"></stop> </linearGradient> <rect x="819.7" y="1223.8" fill="url(#SVGID_9_)" width="328.4" height="63.6"></rect> <rect x="820.6" y="1273.2" fill="#CFCFCF" width="327.5" height="14.1"></rect> <linearGradient id="SVGID_10_" gradientUnits="userSpaceOnUse" x1="-721.6769" y1="1193.0911" x2="-617.9352" y2="1193.0911" gradientTransform="matrix(-1 0 0 1 150.393 0)"> <stop offset="0" style="stop-color:#B8AC14"></stop> <stop offset="0.1819" style="stop-color:#C2B526"></stop> <stop offset="0.4939" style="stop-color:#D0C240"></stop> <stop offset="0.776" style="stop-color:#D8C950"></stop> <stop offset="1" style="stop-color:#DBCC55"></stop> </linearGradient> <path fill="url(#SVGID_10_)" d="M768.3,1121.7v165.6h103.7v-165.6c0-12.6-10.2-22.9-22.9-22.9h-58.1 C778.5,1098.9,768.3,1109.1,768.3,1121.7z"></path> <linearGradient id="SVGID_11_" gradientUnits="userSpaceOnUse" x1="-1050.826" y1="1193.0911" x2="-947.0576" y2="1193.0911" gradientTransform="matrix(-1 0 0 1 150.393 0)"> <stop offset="0" style="stop-color:#B8AC14"></stop> <stop offset="0.1819" style="stop-color:#C2B526"></stop> <stop offset="0.4939" style="stop-color:#D0C240"></stop> <stop offset="0.776" style="stop-color:#D8C950"></stop> <stop offset="1" style="stop-color:#DBCC55"></stop> </linearGradient> <path fill="url(#SVGID_11_)" d="M1097.5,1121.7v165.6h103.8v-165.6c0-12.6-10.2-22.9-22.9-22.9h-58.1 C1107.7,1098.9,1097.5,1109.1,1097.5,1121.7z"></path> <linearGradient id="SVGID_12_" gradientUnits="userSpaceOnUse" x1="-721.6769" y1="1198.5861" x2="-617.9352" y2="1198.5861" gradientTransform="matrix(-1 0 0 1 150.393 0)"> <stop offset="0" style="stop-color:#AFA413"></stop> <stop offset="6.403804e-002" style="stop-color:#B3A718"></stop> <stop offset="0.4211" style="stop-color:#C4B632"></stop> <stop offset="0.7438" style="stop-color:#CEBF42"></stop> <stop offset="1" style="stop-color:#D2C247"></stop> </linearGradient> <path fill="url(#SVGID_12_)" d="M768.3,1132.7v154.6h103.7v-154.6c0-12.6-10.2-22.9-22.9-22.9h-58.1 C778.5,1109.9,768.3,1120.1,768.3,1132.7z"></path> <linearGradient id="SVGID_13_" gradientUnits="userSpaceOnUse" x1="-1050.826" y1="1198.5861" x2="-947.0576" y2="1198.5861" gradientTransform="matrix(-1 0 0 1 150.393 0)"> <stop offset="0" style="stop-color:#AFA413"></stop> <stop offset="6.403804e-002" style="stop-color:#B3A718"></stop> <stop offset="0.4211" style="stop-color:#C4B632"></stop> <stop offset="0.7438" style="stop-color:#CEBF42"></stop> <stop offset="1" style="stop-color:#D2C247"></stop> </linearGradient> <path fill="url(#SVGID_13_)" d="M1097.5,1132.7v154.6h103.8v-154.6c0-12.6-10.2-22.9-22.9-22.9h-58.1 C1107.7,1109.9,1097.5,1120.1,1097.5,1132.7z"></path> </g> </g> <g> <rect x="1268.5" y="1247.2" fill="#5E5C5C" width="94.6" height="13.7"></rect> <rect x="1268.5" y="1247.2" fill="#868282" width="94.6" height="5"></rect> <rect x="1308.9" y="715.1" fill="#5E5C5C" width="13.7" height="532.1"></rect> <rect x="1287.1" y="715.1" fill="#706D6D" width="4.3" height="54.6"></rect> <path fill="#F18B54" d="M1268.3,501h95.6c0.5,0,0.9,0.4,0.9,0.9v212.4c0,0.5-0.4,0.9-0.9,0.9h-95.6c-0.5,0-0.9-0.4-0.9-0.9V501.8 C1267.4,501.3,1267.8,501,1268.3,501z"></path> <path fill="#EB6E57" d="M1268.3,501h31.4v214.2h-31.4c-0.5,0-0.9-0.4-0.9-0.9V501.8C1267.4,501.3,1267.8,501,1268.3,501z"></path> </g> <g> <g> <linearGradient id="SVGID_14_" gradientUnits="userSpaceOnUse" x1="2277.123" y1="1128.6305" x2="2840.9656" y2="1128.6305" gradientTransform="matrix(1 0 0 1 -2187.0945 0)"> <stop offset="0" style="stop-color:#B8AC14"></stop> <stop offset="0.1819" style="stop-color:#C2B526"></stop> <stop offset="0.4939" style="stop-color:#D0C240"></stop> <stop offset="0.776" style="stop-color:#D8C950"></stop> <stop offset="1" style="stop-color:#DBCC55"></stop> </linearGradient> <path fill="url(#SVGID_14_)" d="M653.9,1007.1v243.1c0,19.8-27.8,35.9-62.2,35.9H152.3c-34.4,0-62.2-16-62.2-35.9v-243.1 c0-19.8,27.9-35.9,62.2-35.9h439.4C626,971.2,653.9,987.3,653.9,1007.1z"></path> <linearGradient id="SVGID_15_" gradientUnits="userSpaceOnUse" x1="2277.123" y1="1134.099" x2="2840.9656" y2="1134.099" gradientTransform="matrix(1 0 0 1 -2187.0945 0)"> <stop offset="0" style="stop-color:#AFA413"></stop> <stop offset="6.403804e-002" style="stop-color:#B3A718"></stop> <stop offset="0.4211" style="stop-color:#C4B632"></stop> <stop offset="0.7438" style="stop-color:#CEBF42"></stop> <stop offset="1" style="stop-color:#D2C247"></stop> </linearGradient> <path fill="url(#SVGID_15_)" d="M653.9,1018.1v232.1c0,19.8-27.8,35.9-62.2,35.9H152.3c-34.4,0-62.2-16-62.2-35.9v-232.1 c0-19.8,27.9-35.9,62.2-35.9h439.4C626,982.2,653.9,998.2,653.9,1018.1z"></path> <linearGradient id="SVGID_16_" gradientUnits="userSpaceOnUse" x1="-1365.8639" y1="1218.3271" x2="-802.0669" y2="1218.3271" gradientTransform="matrix(-1 0 0 1 -712.0083 0)"> <stop offset="0" style="stop-color:#AFA413"></stop> <stop offset="6.439787e-002" style="stop-color:#B8AC20"></stop> <stop offset="0.1836" style="stop-color:#C4B632"></stop> <stop offset="0.3288" style="stop-color:#CCBD3E"></stop> <stop offset="0.5255" style="stop-color:#D1C145"></stop> <stop offset="1" style="stop-color:#D2C247"></stop> </linearGradient> <rect x="90.1" y="1150.6" fill="url(#SVGID_16_)" width="563.8" height="135.4"></rect> <linearGradient id="SVGID_17_" gradientUnits="userSpaceOnUse" x1="-1365.8639" y1="1225.0476" x2="-802.0669" y2="1225.0476" gradientTransform="matrix(-1 0 0 1 -712.0083 0)"> <stop offset="0" style="stop-color:#D2C247"></stop> <stop offset="0.2562" style="stop-color:#CEBF42"></stop> <stop offset="0.5789" style="stop-color:#C4B632"></stop> <stop offset="0.936" style="stop-color:#B3A718"></stop> <stop offset="1" style="stop-color:#AFA413"></stop> </linearGradient> <rect x="90.1" y="1164.1" fill="url(#SVGID_17_)" width="563.8" height="122"></rect> <linearGradient id="SVGID_18_" gradientUnits="userSpaceOnUse" x1="2277.134" y1="1254.4846" x2="2842.4336" y2="1254.4846" gradientTransform="matrix(1 0 0 1 -2187.0945 0)"> <stop offset="0" style="stop-color:#AFA413"></stop> <stop offset="6.403804e-002" style="stop-color:#B3A718"></stop> <stop offset="0.4211" style="stop-color:#C4B632"></stop> <stop offset="0.7438" style="stop-color:#CEBF42"></stop> <stop offset="1" style="stop-color:#D2C247"></stop> </linearGradient> <rect x="90" y="1222.9" fill="url(#SVGID_18_)" width="565.3" height="63.1"></rect> <rect x="90" y="1272" fill="#CFCFCF" width="563.8" height="14"></rect> <path fill="#CE6880" d="M346.5,1080.3v59.1c0,6.2,5,11.2,11.2,11.2H417c1.4,0,2.7-0.3,4-0.8c4.1-1.6,7-5.7,7-10.4v-59.1 c0-6.2-5-11.2-11.2-11.2h-59.1c-4.7,0-8.7,2.9-10.4,7c-0.2,0.5-0.4,1-0.5,1.5v0.1l-0.1,0.6C346.5,1079,346.5,1079.6,346.5,1080.3z "></path> <linearGradient id="SVGID_19_" gradientUnits="userSpaceOnUse" x1="2812.8738" y1="1192.4869" x2="2915.8662" y2="1192.4869" gradientTransform="matrix(1 0 0 1 -2187.0945 0)"> <stop offset="0" style="stop-color:#B8AC14"></stop> <stop offset="0.1819" style="stop-color:#C2B526"></stop> <stop offset="0.4939" style="stop-color:#D0C240"></stop> <stop offset="0.776" style="stop-color:#D8C950"></stop> <stop offset="1" style="stop-color:#DBCC55"></stop> </linearGradient> <path fill="url(#SVGID_19_)" d="M728.8,1121.6V1286h-103v-164.4c0-12.5,10.1-22.7,22.7-22.7h57.6 C718.6,1098.9,728.8,1109.1,728.8,1121.6z"></path> <linearGradient id="SVGID_20_" gradientUnits="userSpaceOnUse" x1="2225.4485" y1="1192.4869" x2="2328.4675" y2="1192.4869" gradientTransform="matrix(1 0 0 1 -2187.0945 0)"> <stop offset="0" style="stop-color:#B8AC14"></stop> <stop offset="0.1819" style="stop-color:#C2B526"></stop> <stop offset="0.4939" style="stop-color:#D0C240"></stop> <stop offset="0.776" style="stop-color:#D8C950"></stop> <stop offset="1" style="stop-color:#DBCC55"></stop> </linearGradient> <path fill="url(#SVGID_20_)" d="M141.4,1121.6V1286h-103v-164.4c0-12.5,10.2-22.7,22.7-22.7h57.6 C131.2,1098.9,141.4,1109.1,141.4,1121.6z"></path> <linearGradient id="SVGID_21_" gradientUnits="userSpaceOnUse" x1="2812.8738" y1="1197.9423" x2="2915.8662" y2="1197.9423" gradientTransform="matrix(1 0 0 1 -2187.0945 0)"> <stop offset="0" style="stop-color:#AFA413"></stop> <stop offset="6.403804e-002" style="stop-color:#B3A718"></stop> <stop offset="0.4211" style="stop-color:#C4B632"></stop> <stop offset="0.7438" style="stop-color:#CEBF42"></stop> <stop offset="1" style="stop-color:#D2C247"></stop> </linearGradient> <path fill="url(#SVGID_21_)" d="M728.8,1132.5V1286h-103v-153.5c0-12.5,10.1-22.7,22.7-22.7h57.6 C718.6,1109.9,728.8,1120,728.8,1132.5z"></path> <linearGradient id="SVGID_22_" gradientUnits="userSpaceOnUse" x1="2225.4485" y1="1197.9423" x2="2328.4675" y2="1197.9423" gradientTransform="matrix(1 0 0 1 -2187.0945 0)"> <stop offset="0" style="stop-color:#AFA413"></stop> <stop offset="6.403804e-002" style="stop-color:#B3A718"></stop> <stop offset="0.4211" style="stop-color:#C4B632"></stop> <stop offset="0.7438" style="stop-color:#CEBF42"></stop> <stop offset="1" style="stop-color:#D2C247"></stop> </linearGradient> <path fill="url(#SVGID_22_)" d="M141.4,1132.5V1286h-103v-153.5c0-12.5,10.2-22.7,22.7-22.7h57.6 C131.2,1109.9,141.4,1120,141.4,1132.5z"></path> <path fill="#CE6880" d="M141.6,1080.1l-0.3,59.1c0,6.2,5,11.2,11.1,11.3l59.3,0.3c1.4,0,2.7-0.3,4-0.8c4.1-1.6,7.1-5.7,7.1-10.3 l0.3-59.1c0-6.2-4.9-11.2-11.1-11.3l-59.1-0.3c-4.7,0-8.8,2.9-10.4,7c-0.2,0.5-0.4,1-0.5,1.5l0,0.1l-0.1,0.6 C141.6,1078.7,141.6,1079.4,141.6,1080.1z"></path> </g> <path fill="#75B17C" d="M571.5,1061.9v89H456.2c-9.5,0-17.1-7.6-17.1-17.1v-71.9c0-9.5,7.6-17.1,17.1-17.1h98.2 C563.9,1044.8,571.5,1052.5,571.5,1061.9z"></path> </g> </svg> 