<?xml version="1.0" encoding="UTF-8"?> <svg xmlns="http://www.w3.org/2000/svg" viewBox="0 0 274.75 69.27"> <defs> <style>.cls-1{fill:#efa903;}.cls-2{fill:#7bba5c;}.cls-3{fill:#1d1d1b;}</style> </defs> <title>Ресурс 2</title> <g id="Слой_2" data-name="Слой 2"> <g id="Слой_1-2" data-name="Слой 1"> <g id="Слой_2-2" data-name="Слой 2"> <g id="Слой_1-2-2" data-name="Слой 1-2"> <path class="cls-1" d="M0,43V3.91A3.28,3.28,0,0,1,.8,1.84,2.88,2.88,0,0,1,2.87.92H26.79c12.64,0,19,5.86,19,17.47s-6.32,17.48-19,17.48H11.84v7a3,3,0,0,1-3,3H3A2.88,2.88,0,0,1,.92,45,2.44,2.44,0,0,1,0,43M11.84,27h11.5c3.56,0,6.2-.57,8-1.72s2.76-3.45,2.76-6.78-.92-5.63-2.76-6.9-4.48-1.72-8-1.72H11.84Z"></path> <path class="cls-2" d="M51.16,45a1.4,1.4,0,0,1-.12-.69A2.35,2.35,0,0,1,51.39,43L60,28.74c-6-2.53-8.85-6.9-8.85-13.11,0-4.71,1.61-8.27,4.82-10.8A19.26,19.26,0,0,1,68.17.92h24.6a2.73,2.73,0,0,1,2,.8,2.77,2.77,0,0,1,.81,2.07V43a2.88,2.88,0,0,1-.92,2.07,2.74,2.74,0,0,1-2.07.81h-6a3,3,0,0,1-3-3V30H72.31L64.84,43.11A4.93,4.93,0,0,1,60.24,46H52.42a1.34,1.34,0,0,1-1.26-1m17-35.18Q63,9.77,63,15.29t5.17,5.52H83.69v-11Z"></path> <path class="cls-1" d="M100,43V40a2.88,2.88,0,0,1,.92-2.07,2.41,2.41,0,0,1,2.07-.81h2.42l5.86-23.68c2.07-8.28,8.85-12.3,20.46-12.42h16.9a2.77,2.77,0,0,1,2.07.81,2.88,2.88,0,0,1,.92,2.07v39.2a2.92,2.92,0,0,1-.92,2.07,2.8,2.8,0,0,1-2.07.8H103a3.12,3.12,0,0,1-3-3h0m17.48-6h22.18V9.77h-9.42a7.3,7.3,0,0,0-4.83,1.73A7.86,7.86,0,0,0,122.77,16Z"></path> <path class="cls-1" d="M164.39,41.27C160.53,38,158,32.89,158,23.45c0-8.16,2.19-14,6.44-17.82S175,0,183.13,0,197.61,1.84,202,5.63s6.44,9.66,6.44,17.82-2.19,14-6.44,17.82S191.4,46.9,183.13,46.9,168.64,45,164.39,41.27M173,12.19,171.29,14c-1,1.27-1.61,4.37-1.61,9.32s1,8.73,3.22,11.15,5.51,3.79,10.23,3.79,8.16-1.26,10.23-3.79,3.22-6.21,3.22-11.15-1-8.74-3.22-11.15-5.52-3.8-10.23-3.8-8,1.38-10.12,3.8Z"></path> <path class="cls-1" d="M214.86,42.88V4a3.61,3.61,0,0,1,.8-2.18,2.84,2.84,0,0,1,2.07-.92h12.76a3.64,3.64,0,0,1,2.3.92,4.32,4.32,0,0,1,1.49,2.07l9.31,26.78,9.2-26.78a3.88,3.88,0,0,1,1.5-2.07,4.34,4.34,0,0,1,2.29-.92h12.77a2.84,2.84,0,0,1,2.06.92A3,3,0,0,1,272.22,4V43a3.18,3.18,0,0,1-.92,2.19,2.92,2.92,0,0,1-2.07.92H263.6a2.88,2.88,0,0,1-2.07-.92,3.13,3.13,0,0,1-.92-2.19V12.3L249.46,43.11a4.32,4.32,0,0,1-1.5,2,3.49,3.49,0,0,1-2.3.81h-4.48a4.3,4.3,0,0,1-2.3-.81,4.54,4.54,0,0,1-1.61-2l-11-30.81V42.88a3.15,3.15,0,0,1-.92,2.18,2.88,2.88,0,0,1-2.07.92h-5.64a2.87,2.87,0,0,1-2.75-3.1Z"></path> </g> </g> <path class="cls-3" d="M13.9,56.13v13H12.58V58.74L7.46,67.5H6.81L1.7,58.79V69.16H.38v-13H1.51l5.66,9.66,5.6-9.66Z"></path> <path class="cls-3" d="M26.63,65.68H19.37l-1.56,3.48H16.38l5.95-13h1.36l6,13H28.19Zm-.5-1.12-3.13-7-3.12,7Z"></path> <path class="cls-3" d="M34.16,68.41A6.25,6.25,0,0,1,31.72,66a7,7,0,0,1,0-6.79,6.27,6.27,0,0,1,2.45-2.37,7.6,7.6,0,0,1,6.17-.38,5.67,5.67,0,0,1,2.09,1.42l-.88.87a5.17,5.17,0,0,0-3.85-1.54,5.59,5.59,0,0,0-2.81.71,5.17,5.17,0,0,0-2,1.93,5.63,5.63,0,0,0,0,5.51,5.17,5.17,0,0,0,2,1.93A5.59,5.59,0,0,0,37.7,68a5.1,5.1,0,0,0,3.85-1.56l.88.87a5.69,5.69,0,0,1-2.09,1.43,7.43,7.43,0,0,1-2.69.49A7.11,7.11,0,0,1,34.16,68.41Z"></path> <path class="cls-3" d="M53.63,57.32H49.05V69.16H47.7V57.32H43.12V56.13H53.63Z"></path> <path class="cls-3" d="M65.26,68v1.19H56.05v-13H65v1.19H57.43V62h6.74v1.17H57.43V68Z"></path> <path class="cls-3" d="M77.1,57.32a4.08,4.08,0,0,1,1.41,3.28,4,4,0,0,1-1.41,3.26,5.93,5.93,0,0,1-3.91,1.19h-3.5v4.11H68.31v-13h4.88A5.93,5.93,0,0,1,77.1,57.32Zm-1,5.67a3.36,3.36,0,0,0,0-4.82,4.5,4.5,0,0,0-3-.85H69.69v6.52h3.46A4.56,4.56,0,0,0,76.11,63Z"></path> <path class="cls-3" d="M89,65.68H81.77L80.2,69.16H78.77l6-13h1.35l6,13H90.59Zm-.5-1.12-3.12-7-3.13,7Z"></path> <path class="cls-3" d="M110.29,56.13v13h-1.35v-6h-8.15v6H99.41v-13h1.38v5.81h8.15V56.13Z"></path> <path class="cls-3" d="M123,65.68h-7.25l-1.57,3.48h-1.43l6-13h1.36l6,13h-1.45Zm-.5-1.12-3.13-7-3.12,7Z"></path> <path class="cls-3" d="M144.5,56.13v13h-16v-13h1.36V68h6V56.13h1.36V68h5.94V56.13Z"></path> <path class="cls-3" d="M158.1,68v1.19h-9.21v-13h8.93v1.19h-7.55V62H157v1.17h-6.73V68Z"></path> <path class="cls-3" d="M169.43,57.32h-6.94l0,11.84h-1.36v-13h8.28Z"></path> <path class="cls-3" d="M172.23,68.4A6.14,6.14,0,0,1,169.78,66a6.88,6.88,0,0,1,0-6.77,6.23,6.23,0,0,1,2.45-2.38,7.24,7.24,0,0,1,3.51-.86,7.13,7.13,0,0,1,3.49.86,6.41,6.41,0,0,1,2.45,2.37,6.92,6.92,0,0,1,0,6.79,6.41,6.41,0,0,1-2.45,2.37,7.51,7.51,0,0,1-7,0Zm6.3-1.06a5,5,0,0,0,1.95-1.93,5.74,5.74,0,0,0,0-5.53A5,5,0,0,0,178.53,58a5.56,5.56,0,0,0-2.79-.7,5.62,5.62,0,0,0-2.8.7,5,5,0,0,0-2,1.93,5.67,5.67,0,0,0,0,5.53,5,5,0,0,0,2,1.93,5.62,5.62,0,0,0,2.8.7A5.56,5.56,0,0,0,178.53,67.34Z"></path> <path class="cls-3" d="M199.52,57.32a4.08,4.08,0,0,1,1.42,3.28,4,4,0,0,1-1.42,3.26,5.89,5.89,0,0,1-3.91,1.19h-3.49v4.11h-1.38v-13h4.87A5.89,5.89,0,0,1,199.52,57.32Zm-1,5.67a3.36,3.36,0,0,0,0-4.82,4.52,4.52,0,0,0-3-.85h-3.46v6.52h3.46A4.58,4.58,0,0,0,198.54,63Z"></path> <path class="cls-3" d="M211.45,65.68h-7.26l-1.56,3.48H201.2l6-13h1.36l6,13H213Zm-.5-1.12-3.13-7-3.13,7Z"></path> <path class="cls-3" d="M217,56.13h1.36V66.92l8.33-10.79h1.25v13h-1.36V58.38L218.2,69.16H217Zm3.23-1.58a2.16,2.16,0,0,1-.83-1.77h1a1.44,1.44,0,0,0,.56,1.17,2.64,2.64,0,0,0,2.89,0,1.42,1.42,0,0,0,.57-1.17h1a2.16,2.16,0,0,1-.83,1.77,3.53,3.53,0,0,1-2.2.63A3.49,3.49,0,0,1,220.19,54.55Z"></path> <path class="cls-3" d="M234.5,68.4A6.23,6.23,0,0,1,232,66a7,7,0,0,1,0-6.77,6.33,6.33,0,0,1,2.46-2.38,7.53,7.53,0,0,1,7,0,6.34,6.34,0,0,1,2.45,2.37,6.92,6.92,0,0,1,0,6.79,6.34,6.34,0,0,1-2.45,2.37,7.49,7.49,0,0,1-7,0Zm6.29-1.06a5,5,0,0,0,2-1.93,5.74,5.74,0,0,0,0-5.53,5,5,0,0,0-2-1.93,5.56,5.56,0,0,0-2.79-.7,5.62,5.62,0,0,0-2.8.7,5.14,5.14,0,0,0-2,1.93,5.67,5.67,0,0,0,0,5.53,5.14,5.14,0,0,0,2,1.93,5.62,5.62,0,0,0,2.8.7A5.56,5.56,0,0,0,240.79,67.34Z"></path> <path class="cls-3" d="M259,56.13v13h-1.36v-6H249.5v6h-1.37v-13h1.37v5.81h8.15V56.13Z"></path> <path class="cls-3" d="M271.74,65.68h-7.26l-1.56,3.48h-1.43l5.95-13h1.36l5.95,13H273.3Zm-.5-1.12-3.13-7-3.12,7Z"></path> </g> </g> </svg> 