<?xml version="1.0" encoding="UTF-8"?> <svg xmlns="http://www.w3.org/2000/svg" viewBox="0 0 642 239.49"> <defs> <style>.cls-1{fill:#ccf5ff;}.cls-2{fill:#29abe2;}.cls-3{fill:#1a1a1a;}</style> </defs> <title>Ресурс 1</title> <g id="Слой_2" data-name="Слой 2"> <g id="Слой_1-2" data-name="Слой 1"> <path class="cls-1" d="M81.82,236.49a.86.86,0,0,1-.58-.24.75.75,0,0,1-.24-.58V212a3,3,0,0,0-3-3H57.48A54.54,54.54,0,0,1,3,154.52v-97A54.54,54.54,0,0,1,57.48,3h527A54.54,54.54,0,0,1,639,57.48v97A54.54,54.54,0,0,1,584.52,209H122.18a3.05,3.05,0,0,0-1.73.54L82.28,236.33A.76.76,0,0,1,81.82,236.49Z"></path> <path class="cls-2" d="M584.52,6A51.53,51.53,0,0,1,636,57.48v97A51.53,51.53,0,0,1,584.52,206H122.18a6,6,0,0,0-3.45,1.09L84,231.46V212a6,6,0,0,0-6-6H57.48A51.53,51.53,0,0,1,6,154.52v-97A51.53,51.53,0,0,1,57.48,6h527m0-6h-527A57.47,57.47,0,0,0,0,57.48v97A57.47,57.47,0,0,0,57.48,212H78v23.67a3.82,3.82,0,0,0,3.82,3.82,3.76,3.76,0,0,0,2.18-.7L122.18,212H584.52A57.47,57.47,0,0,0,642,154.52v-97A57.47,57.47,0,0,0,584.52,0Z"></path> <path class="cls-3" d="M46,48.83a34.15,34.15,0,0,1,5.68-.44c2.92,0,5.06.68,6.42,1.9a6.15,6.15,0,0,1,2,4.79A6.73,6.73,0,0,1,58.37,60a9.5,9.5,0,0,1-7,2.51,10.17,10.17,0,0,1-2.38-.2v9.18H46Zm3,11.05a9.93,9.93,0,0,0,2.45.23c3.56,0,5.74-1.73,5.74-4.89S55,50.73,51.77,50.73A12.07,12.07,0,0,0,49,51Z"></path> <path class="cls-3" d="M64.73,63.79c.07,4,2.65,5.71,5.64,5.71a10.94,10.94,0,0,0,4.56-.85l.51,2.14a13.31,13.31,0,0,1-5.48,1c-5.06,0-8.09-3.33-8.09-8.3s2.93-8.87,7.72-8.87c5.37,0,6.8,4.73,6.8,7.75a12.49,12.49,0,0,1-.1,1.4Zm8.77-2.15c0-1.9-.78-4.86-4.15-4.86-3,0-4.35,2.79-4.59,4.86Z"></path> <path class="cls-3" d="M80.27,55h3.67l3,8.3c.41,1.22,1.12,3.23,1.5,4.52h.06c.38-1.22,1.3-3.84,1.94-5.64L93.08,55h3.71L98,71.47H95.09l-.37-7.85c-.11-1.77-.24-3.88-.31-5.89h-.1c-.44,1.5-.89,2.83-1.8,5.34l-3.17,8.3H87.17l-2.93-8.13c-.51-1.56-1.22-3.94-1.63-5.47h-.13c-.07,1.94-.17,4.11-.28,5.91l-.4,7.79H79Z"></path> <path class="cls-3" d="M116.71,63.11c0,6.08-4.21,8.73-8.19,8.73-4.45,0-7.89-3.26-7.89-8.46,0-5.51,3.61-8.74,8.16-8.74C113.52,54.64,116.71,58.07,116.71,63.11Zm-13,.17c0,3.6,2.07,6.32,5,6.32s5-2.69,5-6.39c0-2.79-1.39-6.33-4.93-6.33S103.66,60.15,103.66,63.28Z"></path> <path class="cls-3" d="M123.38,55v6.63h7.82V55h3V71.47h-3V64h-7.82v7.45h-3V55Z"></path> <path class="cls-3" d="M150.07,55v2.38h-5.14V71.47h-3V57.39h-5.14V55Z"></path> <path class="cls-3" d="M161.49,61.92h1.43c2.52,0,4.21-1.16,4.21-2.69s-1.32-2.38-3.19-2.38A7.89,7.89,0,0,0,160,58l-.75-1.84a10.47,10.47,0,0,1,5.48-1.5c2.51,0,5.57,1.13,5.57,4.32,0,2-1.87,3.37-3.7,3.74v.07C169,63,171,64.5,171,66.91c0,3.57-3.63,4.9-7.1,4.9a11.23,11.23,0,0,1-5.34-1.33l.78-2a9.58,9.58,0,0,0,4.36,1.12c2.48,0,4-1.19,4-2.82,0-2.21-2.31-2.82-4.79-2.82h-1.5Z"></path> <path class="cls-3" d="M183.9,71.47l-.24-2.07h-.1a6.14,6.14,0,0,1-5,2.44,4.69,4.69,0,0,1-5-4.72c0-4,3.54-6.16,9.9-6.12v-.34c0-1.36-.38-3.81-3.74-3.81a8.3,8.3,0,0,0-4.29,1.22l-.68-2a10.27,10.27,0,0,1,5.41-1.46c5,0,6.25,3.43,6.25,6.73v6.16a22.52,22.52,0,0,0,.28,3.94Zm-.44-8.4c-3.27-.07-7,.51-7,3.71a2.64,2.64,0,0,0,2.82,2.85,4.1,4.1,0,0,0,4-2.75,3.23,3.23,0,0,0,.17-.95Z"></path> <path class="cls-3" d="M194.13,55v7.14h.71L201,55h3.64l-7.17,7.45c2.65.27,4.25,2,5.54,5a34.22,34.22,0,0,0,1.77,4h-3.13a22,22,0,0,1-1.53-3.37c-1.12-2.65-2.65-3.87-5.44-3.87h-.58v7.24h-3V55Z"></path> <path class="cls-3" d="M222.15,63.11c0,6.08-4.22,8.73-8.2,8.73-4.45,0-7.88-3.26-7.88-8.46,0-5.51,3.6-8.74,8.15-8.74C219,54.64,222.15,58.07,222.15,63.11Zm-13.06.17c0,3.6,2.08,6.32,5,6.32s5-2.69,5-6.39c0-2.79-1.4-6.33-4.93-6.33S209.09,60.15,209.09,63.28Z"></path> <path class="cls-3" d="M228.81,55v6.63h7.82V55h3V71.47h-3V64h-7.82v7.45h-3V55Z"></path> <path class="cls-3" d="M246.83,55v5.41c0,2.07.78,3.5,3.4,3.5a6.21,6.21,0,0,0,3.54-1.15V55h3V71.47h-3v-6.6h-.07a8.63,8.63,0,0,1-4.46,1.26c-3.12,0-5.4-1.6-5.4-5.37V55Z"></path> <path class="cls-3" d="M264.37,55V62c0,2.62,0,4.25-.17,6.6l.11,0c1-2,1.56-3.16,2.65-5.07l5.13-8.5h3.5V71.47h-2.85v-7c0-2.69.06-4.08.2-6.73h-.1c-1,2.11-1.77,3.43-2.72,5.1-1.56,2.55-3.37,5.71-5.13,8.6h-3.44V55Z"></path> <path class="cls-3" d="M292.93,55V71.47h-3V57.36h-5.64v4.28c0,4.63-.44,7.72-2.58,9.12a4.86,4.86,0,0,1-3.27,1l-.3-2.35a3.67,3.67,0,0,0,1.63-.68c1.53-1.12,1.7-3.43,1.7-7.11V55Z"></path> <path class="cls-3" d="M300.58,55V62c0,2.62,0,4.25-.17,6.6l.11,0c1-2,1.56-3.16,2.65-5.07L308.3,55h3.5V71.47H309v-7c0-2.69.06-4.08.2-6.73h-.1c-1.05,2.11-1.77,3.43-2.72,5.1-1.56,2.55-3.37,5.71-5.13,8.6h-3.44V55Z"></path> <path class="cls-3" d="M322.92,71.47V69.63l2.35-2.27c5.64-5.38,8.19-8.23,8.22-11.56,0-2.25-1.08-4.32-4.38-4.32a7.51,7.51,0,0,0-4.69,1.87l-1-2.11A9.72,9.72,0,0,1,329.72,49c4.76,0,6.77,3.26,6.77,6.42,0,4.08-3,7.38-7.62,11.87l-1.77,1.63V69H337v2.48Z"></path> <path class="cls-3" d="M358.55,55v2.42h-7.14v14h-3V55Z"></path> <path class="cls-3" d="M375.82,63.11c0,6.08-4.21,8.73-8.19,8.73-4.45,0-7.89-3.26-7.89-8.46,0-5.51,3.61-8.74,8.16-8.74C372.63,54.64,375.82,58.07,375.82,63.11Zm-13.05.17c0,3.6,2.07,6.32,5,6.32s5-2.69,5-6.39c0-2.79-1.39-6.33-4.93-6.33S362.77,60.15,362.77,63.28Z"></path> <path class="cls-3" d="M392.11,55V69.23l1.7,0-.17,7.44h-2.35l-.13-5.23H379.77l-.14,5.23h-2.34l-.14-7.44,1.39,0a13,13,0,0,0,1.64-3.37,21.91,21.91,0,0,0,.95-6.56V55Zm-8.33,5a21.91,21.91,0,0,1-.85,6.12,15.78,15.78,0,0,1-1.33,3.06h7.59V57.29h-5.41Z"></path> <path class="cls-3" d="M406.49,71.47l-.24-2.07h-.1a6.12,6.12,0,0,1-5,2.44,4.68,4.68,0,0,1-5-4.72c0-4,3.53-6.16,9.89-6.12v-.34c0-1.36-.37-3.81-3.74-3.81A8.24,8.24,0,0,0,398,58.07l-.68-2a10.24,10.24,0,0,1,5.4-1.46c5,0,6.26,3.43,6.26,6.73v6.16a23.6,23.6,0,0,0,.27,3.94Zm-.44-8.4c-3.26-.07-7,.51-7,3.71a2.64,2.64,0,0,0,2.82,2.85,4.1,4.1,0,0,0,4-2.75,3.23,3.23,0,0,0,.17-.95Z"></path> <path class="cls-3" d="M423.87,55v6.63h7.81V55h3V71.47h-3V64h-7.81v7.45h-3V55Z"></path> <path class="cls-3" d="M448.65,71.47l-.24-2.07h-.1a6.14,6.14,0,0,1-5,2.44,4.68,4.68,0,0,1-5-4.72c0-4,3.53-6.16,9.89-6.12v-.34c0-1.36-.37-3.81-3.74-3.81a8.24,8.24,0,0,0-4.28,1.22l-.68-2a10.24,10.24,0,0,1,5.4-1.46c5,0,6.26,3.43,6.26,6.73v6.16a23.6,23.6,0,0,0,.27,3.94Zm-.44-8.4c-3.26-.07-7,.51-7,3.71a2.64,2.64,0,0,0,2.82,2.85,4.1,4.1,0,0,0,4-2.75,3.23,3.23,0,0,0,.17-.95Z"></path> <path class="cls-3" d="M457.29,61.92h1.42c2.52,0,4.22-1.16,4.22-2.69s-1.33-2.38-3.2-2.38a7.86,7.86,0,0,0-4,1.16L455,56.17a10.44,10.44,0,0,1,5.47-1.5c2.52,0,5.58,1.13,5.58,4.32,0,2-1.87,3.37-3.71,3.74v.07c2.45.2,4.49,1.7,4.49,4.11,0,3.57-3.64,4.9-7.11,4.9a11.22,11.22,0,0,1-5.33-1.33l.78-2a9.57,9.57,0,0,0,4.35,1.12c2.48,0,4.05-1.19,4.05-2.82,0-2.21-2.32-2.82-4.8-2.82h-1.49Z"></path> <path class="cls-3" d="M479.69,71.47l-.24-2.07h-.1a6.12,6.12,0,0,1-5,2.44,4.68,4.68,0,0,1-5-4.72c0-4,3.54-6.16,9.89-6.12v-.34c0-1.36-.37-3.81-3.74-3.81a8.27,8.27,0,0,0-4.28,1.22l-.68-2a10.24,10.24,0,0,1,5.4-1.46c5,0,6.26,3.43,6.26,6.73v6.16a23.6,23.6,0,0,0,.27,3.94Zm-.44-8.4c-3.26-.07-7,.51-7,3.71a2.64,2.64,0,0,0,2.82,2.85,4.1,4.1,0,0,0,4-2.75,3.23,3.23,0,0,0,.17-.95Z"></path> <path class="cls-3" d="M499.72,55V69.23l1.7,0-.17,7.44H498.9l-.13-5.23H487.38l-.14,5.23H484.9l-.14-7.44,1.39,0a13,13,0,0,0,1.64-3.37,21.91,21.91,0,0,0,.95-6.56V55Zm-8.33,5a21.91,21.91,0,0,1-.85,6.12,15.78,15.78,0,0,1-1.33,3.06h7.58V57.29h-5.4Z"></path> <path class="cls-3" d="M503.05,75.65a48.16,48.16,0,0,0,2-8.12l3.33-.34a41.48,41.48,0,0,1-3.23,8.26Z"></path> <path class="cls-3" d="M522.12,55v6.63h7.82V55h3V71.47h-3V64h-7.82v7.45h-3V55Z"></path> <path class="cls-3" d="M539.46,63.79c.07,4,2.66,5.71,5.65,5.71a10.88,10.88,0,0,0,4.55-.85l.51,2.14a13.22,13.22,0,0,1-5.47,1c-5.07,0-8.09-3.33-8.09-8.3s2.92-8.87,7.71-8.87c5.38,0,6.8,4.73,6.8,7.75a10.46,10.46,0,0,1-.1,1.4Zm8.77-2.15c0-1.9-.78-4.86-4.14-4.86-3,0-4.35,2.79-4.59,4.86Z"></path> <path class="cls-3" d="M47,95.82l3.6,9.72c.37,1.09.78,2.38,1.05,3.36h.07c.31-1,.65-2.24,1-3.43l3.27-9.65h3.16l-4.49,11.72c-2.14,5.65-3.6,8.54-5.64,10.3a8,8,0,0,1-3.67,1.94l-.75-2.51a8.14,8.14,0,0,0,2.62-1.46,9.2,9.2,0,0,0,2.51-3.34,2,2,0,0,0,.24-.71,2.72,2.72,0,0,0-.2-.78L43.75,95.82Z"></path> <path class="cls-3" d="M64.8,95.82v6.93h2.82c.51-4.35,3.36-7.31,7.31-7.31,4.28,0,7.21,3.4,7.21,8.47,0,5.33-3.27,8.73-7.42,8.73-3.94,0-6.83-2.92-7.17-7.61H64.8v7.24H61.87V95.82ZM79.14,104c0-3.09-1.39-6.28-4.31-6.28s-4.42,3.12-4.42,6.45,1.46,6.29,4.35,6.29S79.14,107.1,79.14,104Z"></path> <path class="cls-3" d="M96.76,95.82v2.37H91.62v14.08h-3V98.19H83.53V95.82Z"></path> <path class="cls-3" d="M102.27,95.82v6.62h7.81V95.82h3v16.45h-3v-7.45h-7.81v7.45h-3V95.82Z"></path> <path class="cls-3" d="M132.83,103.91c0,6.08-4.22,8.73-8.19,8.73-4.46,0-7.89-3.26-7.89-8.46,0-5.51,3.6-8.74,8.16-8.74C129.63,95.44,132.83,98.88,132.83,103.91Zm-13.06.17c0,3.6,2.08,6.32,5,6.32s5-2.69,5-6.39c0-2.79-1.39-6.32-4.93-6.32S119.77,101,119.77,104.08Z"></path> <path class="cls-3" d="M134.67,116.45a49.14,49.14,0,0,0,2-8.12L140,108a41.48,41.48,0,0,1-3.23,8.26Z"></path> <path class="cls-3" d="M153.74,95.82v6.62h7.82V95.82h3v16.45h-3v-7.45h-7.82v7.45h-3V95.82Z"></path> <path class="cls-3" d="M184.3,103.91c0,6.08-4.21,8.73-8.19,8.73-4.45,0-7.89-3.26-7.89-8.46,0-5.51,3.61-8.74,8.16-8.74C181.11,95.44,184.3,98.88,184.3,103.91Zm-13.05.17c0,3.6,2.07,6.32,5,6.32s5-2.69,5-6.39c0-2.79-1.39-6.32-4.93-6.32S171.25,101,171.25,104.08Z"></path> <path class="cls-3" d="M198,95.82v6.93c0,2.62,0,4.25-.17,6.6l.1,0c1-2,1.57-3.16,2.65-5.07l5.14-8.49h3.5v16.45H206.4v-7c0-2.69.07-4.08.21-6.73h-.1c-1.06,2.11-1.77,3.43-2.72,5.1-1.57,2.55-3.37,5.71-5.14,8.6h-3.43V95.82Z"></path> <path class="cls-3" d="M232.45,95.82v2.37h-5.14v14.08h-2.95V98.19h-5.14V95.82Z"></path> <path class="cls-3" d="M243.94,112.27l-.24-2.07h-.1a6.14,6.14,0,0,1-5,2.44,4.68,4.68,0,0,1-5-4.72c0-4,3.53-6.16,9.89-6.12v-.34c0-1.36-.38-3.81-3.74-3.81a8.15,8.15,0,0,0-4.28,1.23l-.68-2a10.24,10.24,0,0,1,5.4-1.46c5,0,6.26,3.44,6.26,6.73v6.16a22.58,22.58,0,0,0,.27,3.94Zm-.44-8.4c-3.27-.07-7,.51-7,3.71a2.64,2.64,0,0,0,2.82,2.85,4.1,4.1,0,0,0,4-2.75,3.23,3.23,0,0,0,.17-1Z"></path> <path class="cls-3" d="M254.17,95.82V103h.72l6.18-7.13h3.64l-7.17,7.44c2.65.27,4.25,2,5.54,5a34.22,34.22,0,0,0,1.77,4h-3.13a22,22,0,0,1-1.53-3.37c-1.12-2.65-2.65-3.87-5.44-3.87h-.58v7.24h-3V95.82Z"></path> <path class="cls-3" d="M286.44,111.66a11,11,0,0,1-4.73,1c-5,0-8.19-3.37-8.19-8.4s3.47-8.73,8.84-8.73a9.93,9.93,0,0,1,4.14.85l-.67,2.31a6.94,6.94,0,0,0-3.47-.79c-3.78,0-5.82,2.79-5.82,6.23,0,3.8,2.45,6.15,5.72,6.15a8.4,8.4,0,0,0,3.67-.82Z"></path> <path class="cls-3" d="M304.63,103.91c0,6.08-4.22,8.73-8.2,8.73-4.45,0-7.88-3.26-7.88-8.46,0-5.51,3.6-8.74,8.16-8.74C301.43,95.44,304.63,98.88,304.63,103.91Zm-13.06.17c0,3.6,2.08,6.32,5,6.32s5-2.69,5-6.39c0-2.79-1.4-6.32-4.93-6.32S291.57,101,291.57,104.08Z"></path> <path class="cls-3" d="M311.16,95.82v6.93c0,2.62,0,4.25-.17,6.6l.1,0c1-2,1.56-3.16,2.65-5.07l5.13-8.49h3.51v16.45h-2.86v-7c0-2.69.07-4.08.2-6.73h-.1c-1.05,2.11-1.77,3.43-2.72,5.1-1.56,2.55-3.36,5.71-5.13,8.6h-3.44V95.82Zm1.93-6.7c.11,1.46.82,2.58,2.18,2.58s2.14-1.09,2.31-2.58h2.14c-.13,2.79-1.9,4.21-4.52,4.21-3,0-4.15-1.87-4.28-4.21Z"></path> <path class="cls-3" d="M340,95.82V110l1.7,0-.17,7.44h-2.35l-.13-5.23H327.65l-.14,5.23h-2.35l-.13-7.44,1.39,0a12.64,12.64,0,0,0,1.63-3.37,21.6,21.6,0,0,0,1-6.56V95.82Zm-8.33,5a21.91,21.91,0,0,1-.85,6.12,15.78,15.78,0,0,1-1.33,3.06h7.58V98.09h-5.4Z"></path> <path class="cls-3" d="M346.79,104.59c.07,4,2.65,5.71,5.64,5.71a10.94,10.94,0,0,0,4.56-.85l.51,2.14a13.31,13.31,0,0,1-5.48,1c-5.06,0-8.09-3.33-8.09-8.3s2.93-8.87,7.72-8.87c5.37,0,6.8,4.73,6.8,7.75a12.49,12.49,0,0,1-.1,1.4Zm8.77-2.15c0-1.9-.78-4.86-4.15-4.86-3,0-4.35,2.79-4.59,4.86Z"></path> <path class="cls-3" d="M373.14,95.82v2.37H368v14.08h-3V98.19h-5.13V95.82Z"></path> <path class="cls-3" d="M371.47,116.45a48.16,48.16,0,0,0,2-8.12l3.33-.34a40.88,40.88,0,0,1-3.23,8.26Z"></path> <path class="cls-3" d="M388.33,102.89h8.3A5.28,5.28,0,0,0,391,97.75a9.15,9.15,0,0,0-3.94.92l-.65-1.94a10.75,10.75,0,0,1,5.07-1.29,8.14,8.14,0,0,1,6,2.35,8.94,8.94,0,0,1,2.25,6.32c0,4.79-3.17,8.53-8.74,8.53a10.75,10.75,0,0,1-4.8-1.12l.58-2.14a10,10,0,0,0,4.12.88,5.48,5.48,0,0,0,5.78-5.33h-8.27Z"></path> <path class="cls-3" d="M414.28,95.82v2.37h-5.14v14.08h-3V98.19h-5.13V95.82Z"></path> <path class="cls-3" d="M431.34,103.91c0,6.08-4.21,8.73-8.19,8.73-4.45,0-7.89-3.26-7.89-8.46,0-5.51,3.61-8.74,8.16-8.74C428.15,95.44,431.34,98.88,431.34,103.91Zm-13,.17c0,3.6,2.07,6.32,5,6.32s5-2.69,5-6.39c0-2.79-1.39-6.32-4.93-6.32S418.29,101,418.29,104.08Z"></path> <path class="cls-3" d="M453.44,95.82v2.37h-5.13v14.08h-3V98.19h-5.13V95.82Z"></path> <path class="cls-3" d="M457.29,104.59c.06,4,2.65,5.71,5.64,5.71a11,11,0,0,0,4.56-.85l.51,2.14a13.31,13.31,0,0,1-5.48,1c-5.06,0-8.09-3.33-8.09-8.3s2.92-8.87,7.72-8.87c5.37,0,6.8,4.73,6.8,7.75a10.13,10.13,0,0,1-.11,1.4Zm8.77-2.15c0-1.9-.78-4.86-4.15-4.86-3,0-4.35,2.79-4.59,4.86Z"></path> <path class="cls-3" d="M486.19,95.82v16.45h-3V98.19h-7.65v14.08h-3V95.82Z"></path> <path class="cls-3" d="M492.71,104.59c.07,4,2.66,5.71,5.65,5.71a10.88,10.88,0,0,0,4.55-.85l.51,2.14a13.22,13.22,0,0,1-5.47,1c-5.07,0-8.09-3.33-8.09-8.3s2.92-8.87,7.72-8.87c5.37,0,6.8,4.73,6.8,7.75a10.13,10.13,0,0,1-.11,1.4Zm8.78-2.15c0-1.9-.79-4.86-4.15-4.86-3,0-4.35,2.79-4.59,4.86Z"></path> <path class="cls-3" d="M508.08,101.19c0-2.11-.07-3.81-.13-5.37h2.68l.14,2.82h.07a6.45,6.45,0,0,1,5.84-3.2c4,0,7,3.37,7,8.36,0,5.92-3.6,8.84-7.48,8.84a5.76,5.76,0,0,1-5.06-2.58H511V119h-3Zm3,4.38a6.7,6.7,0,0,0,.14,1.23,4.61,4.61,0,0,0,4.48,3.5c3.17,0,5-2.59,5-6.36,0-3.3-1.73-6.12-4.89-6.12a4.78,4.78,0,0,0-4.53,3.71,4.86,4.86,0,0,0-.2,1.22Z"></path> <path class="cls-3" d="M530.32,95.82v5.57a16.18,16.18,0,0,1,2.72-.17c3.7,0,7.61,1.16,7.61,5.54a4.69,4.69,0,0,1-1.73,3.78c-1.8,1.53-4.73,1.9-7.14,1.9a39.59,39.59,0,0,1-4.42-.24V95.82Zm0,14.38a19.1,19.1,0,0,0,2.21.13c2.24,0,5.13-.75,5.13-3.5s-3-3.47-5.2-3.47a14.28,14.28,0,0,0-2.14.17Z"></path> <path class="cls-3" d="M57.66,152.46a11,11,0,0,1-4.73.95c-5,0-8.19-3.37-8.19-8.4s3.47-8.74,8.84-8.74a10.1,10.1,0,0,1,4.14.85L57,139.44a6.86,6.86,0,0,0-3.46-.79c-3.78,0-5.82,2.79-5.82,6.23,0,3.8,2.45,6.15,5.71,6.15a8.45,8.45,0,0,0,3.68-.82Z"></path> <path class="cls-3" d="M74.21,136.62v16.45H71.26V139H65.61v4.28c0,4.63-.44,7.72-2.58,9.12a4.83,4.83,0,0,1-3.26,1L59.46,151a3.67,3.67,0,0,0,1.63-.68c1.53-1.12,1.7-3.43,1.7-7.11v-6.62Z"></path> <path class="cls-3" d="M94,144.71c0,6.08-4.21,8.73-8.19,8.73-4.46,0-7.89-3.26-7.89-8.46,0-5.51,3.6-8.74,8.16-8.74C90.81,136.24,94,139.67,94,144.71Zm-13,.17c0,3.6,2.07,6.32,5,6.32s5-2.69,5-6.39c0-2.79-1.39-6.33-4.93-6.33S81,141.75,81,144.88Z"></path> <path class="cls-3" d="M98.9,136.62l5.44,7.17H105v-7.17h2.86v7.17h.57l5.44-7.17h3.44l-6.5,7.47c2.49.28,3.95,1.74,4.93,4.36a40.5,40.5,0,0,0,1.81,4.62h-3A24.47,24.47,0,0,1,113,149.3c-1-2.69-2.55-3.51-4.69-3.51h-.51v7.28H105v-7.28h-.54c-2.32,0-3.71.85-4.73,3.54a28,28,0,0,1-1.56,3.74H95.23a48.78,48.78,0,0,0,1.8-4.59c1-2.65,2.48-4.11,5-4.39l-6.52-7.47Z"></path> <path class="cls-3" d="M123.07,136.62v6.62h7.82v-6.62h3v16.45h-3v-7.45h-7.82v7.45h-3V136.62Z"></path> <path class="cls-3" d="M153.64,144.71c0,6.08-4.22,8.73-8.2,8.73-4.45,0-7.88-3.26-7.88-8.46,0-5.51,3.6-8.74,8.16-8.74C150.44,136.24,153.64,139.67,153.64,144.71Zm-13.06.17c0,3.6,2.08,6.32,5,6.32s5-2.69,5-6.39c0-2.79-1.4-6.33-4.93-6.33S140.58,141.75,140.58,144.88Z"></path> <path class="cls-3" d="M167.37,136.62v6.93c0,2.62,0,4.25-.17,6.6l.11,0c1-2,1.56-3.16,2.65-5.07l5.13-8.49h3.5v16.45h-2.85v-7c0-2.69.06-4.08.2-6.73h-.1c-1.05,2.11-1.77,3.43-2.72,5.1-1.57,2.55-3.37,5.71-5.13,8.6h-3.44V136.62Z"></path> <path class="cls-3" d="M203.41,136.62v14.21l1.7,0-.17,7.44H202.6l-.14-5.23H191.07l-.13,5.23h-2.35l-.14-7.44,1.4,0a13,13,0,0,0,1.63-3.37,21.91,21.91,0,0,0,1-6.56v-4.28Zm-8.33,5a21.55,21.55,0,0,1-.85,6.12,15.77,15.77,0,0,1-1.32,3.06h7.58v-11.9h-5.41Z"></path> <path class="cls-3" d="M223.44,144.71c0,6.08-4.22,8.73-8.2,8.73-4.45,0-7.88-3.26-7.88-8.46,0-5.51,3.6-8.74,8.16-8.74C220.24,136.24,223.44,139.67,223.44,144.71Zm-13.06.17c0,3.6,2.08,6.32,5,6.32s5-2.69,5-6.39c0-2.79-1.4-6.33-4.93-6.33S210.38,141.75,210.38,144.88Z"></path> <path class="cls-3" d="M227.21,142c0-2.11-.07-3.81-.13-5.37h2.68l.14,2.82H230a6.45,6.45,0,0,1,5.84-3.2c4,0,7,3.37,7,8.36,0,5.92-3.6,8.84-7.48,8.84a5.76,5.76,0,0,1-5.06-2.58h-.07v8.94h-3Zm3,4.38a6.7,6.7,0,0,0,.14,1.23,4.61,4.61,0,0,0,4.48,3.5c3.17,0,5-2.59,5-6.36,0-3.3-1.73-6.12-4.89-6.12a4.76,4.76,0,0,0-4.52,3.71,4.46,4.46,0,0,0-.21,1.22Z"></path> <path class="cls-3" d="M261.45,144.71c0,6.08-4.22,8.73-8.19,8.73-4.46,0-7.89-3.26-7.89-8.46,0-5.51,3.6-8.74,8.16-8.74C258.25,136.24,261.45,139.67,261.45,144.71Zm-13.06.17c0,3.6,2.08,6.32,5,6.32s5-2.69,5-6.39c0-2.79-1.39-6.33-4.93-6.33S248.39,141.75,248.39,144.88Z"></path> <path class="cls-3" d="M275.25,136.62V139h-7.13v14h-3V136.62Z"></path> <path class="cls-3" d="M292.53,144.71c0,6.08-4.22,8.73-8.2,8.73-4.45,0-7.88-3.26-7.88-8.46,0-5.51,3.6-8.74,8.15-8.74C289.33,136.24,292.53,139.67,292.53,144.71Zm-13.06.17c0,3.6,2.07,6.32,5,6.32s5-2.69,5-6.39c0-2.79-1.4-6.33-4.93-6.33S279.47,141.75,279.47,144.88Z"></path> <path class="cls-3" d="M316.26,136.62v14.21l1.7,0-.17,7.44h-2.35l-.13-5.23H303.92l-.14,5.23h-2.35l-.13-7.44,1.39,0a12.64,12.64,0,0,0,1.63-3.37,21.6,21.6,0,0,0,1-6.56v-4.28Zm-8.33,5a21.91,21.91,0,0,1-.85,6.12,15.78,15.78,0,0,1-1.33,3.06h7.58v-11.9h-5.4Z"></path> <path class="cls-3" d="M336.28,144.71c0,6.08-4.21,8.73-8.19,8.73-4.45,0-7.89-3.26-7.89-8.46,0-5.51,3.61-8.74,8.16-8.74C333.09,136.24,336.28,139.67,336.28,144.71Zm-13,.17c0,3.6,2.07,6.32,5,6.32s5-2.69,5-6.39c0-2.79-1.39-6.33-4.93-6.33S323.23,141.75,323.23,144.88Z"></path> <path class="cls-3" d="M352.57,136.62v14.21l1.7,0-.17,7.44h-2.35l-.13-5.23H340.23l-.14,5.23h-2.34l-.14-7.44,1.4,0a13.27,13.27,0,0,0,1.63-3.37,21.91,21.91,0,0,0,.95-6.56v-4.28Zm-8.33,5a21.91,21.91,0,0,1-.85,6.12,15.78,15.78,0,0,1-1.33,3.06h7.59v-11.9h-5.41Z"></path> <path class="cls-3" d="M359.37,145.39c.07,4,2.65,5.71,5.64,5.71a10.9,10.9,0,0,0,4.56-.85l.51,2.14a13.25,13.25,0,0,1-5.47,1c-5.07,0-8.09-3.33-8.09-8.3s2.92-8.87,7.71-8.87c5.37,0,6.8,4.73,6.8,7.75a12.49,12.49,0,0,1-.1,1.4Zm8.77-2.15c0-1.9-.78-4.86-4.15-4.86-3,0-4.35,2.79-4.58,4.86Z"></path> <path class="cls-3" d="M387.25,136.62v16.45h-3V139h-5.64v4.28c0,4.63-.44,7.72-2.59,9.12a4.81,4.81,0,0,1-3.26,1l-.31-2.35a3.71,3.71,0,0,0,1.64-.68c1.53-1.12,1.7-3.43,1.7-7.11v-6.62Z"></path> <path class="cls-3" d="M401.26,153.07,401,151h-.1a6.14,6.14,0,0,1-5,2.44,4.69,4.69,0,0,1-5-4.72c0-4,3.54-6.16,9.9-6.12v-.34c0-1.36-.38-3.81-3.74-3.81a8.3,8.3,0,0,0-4.29,1.22l-.68-2a10.27,10.27,0,0,1,5.41-1.46c5,0,6.26,3.43,6.26,6.73v6.16a22.58,22.58,0,0,0,.27,3.94Zm-.44-8.4c-3.27-.07-7,.51-7,3.71a2.64,2.64,0,0,0,2.82,2.85,4.1,4.1,0,0,0,4-2.75,3.23,3.23,0,0,0,.17-.95Z"></path> <path class="cls-3" d="M419.41,136.62V139h-5.13v14.08h-3V139h-5.13v-2.37Z"></path> <path class="cls-3" d="M424.92,136.62v5.57a16.25,16.25,0,0,1,2.72-.17c3.71,0,7.62,1.16,7.62,5.54a4.67,4.67,0,0,1-1.74,3.78c-1.8,1.53-4.72,1.9-7.14,1.9A39.87,39.87,0,0,1,422,153V136.62Zm0,14.38a19.26,19.26,0,0,0,2.21.13c2.25,0,5.14-.75,5.14-3.5s-3-3.47-5.21-3.47a14.28,14.28,0,0,0-2.14.17Z"></path> </g> </g> </svg> 