<?xml version="1.0" encoding="UTF-8"?> <svg xmlns="http://www.w3.org/2000/svg" viewBox="0 0 642 302.49"> <defs> <style>.cls-1{fill:#ccf5ff;}.cls-2{fill:#29abe2;}.cls-3{fill:#1a1a1a;}</style> </defs> <title>Ресурс 2</title> <g id="Слой_2" data-name="Слой 2"> <g id="Слой_1-2" data-name="Слой 1"> <path class="cls-1" d="M57.48,299.49A54.54,54.54,0,0,1,3,245V85A54.54,54.54,0,0,1,57.48,30.49H78a3,3,0,0,0,3-3V3.82A.82.82,0,0,1,81.82,3a.81.81,0,0,1,.46.15l38.17,26.79a3,3,0,0,0,1.73.55H584.52A54.54,54.54,0,0,1,639,85V245a54.54,54.54,0,0,1-54.48,54.48Z"></path> <path class="cls-2" d="M84,8,118.73,32.4a6,6,0,0,0,3.45,1.09H584.52A51.53,51.53,0,0,1,636,85V245a51.53,51.53,0,0,1-51.48,51.48h-527A51.53,51.53,0,0,1,6,245V85A51.53,51.53,0,0,1,57.48,33.49H78a6,6,0,0,0,6-6V8M81.82,0A3.82,3.82,0,0,0,78,3.82V27.49H57.48A57.47,57.47,0,0,0,0,85V245a57.48,57.48,0,0,0,57.48,57.48h527A57.48,57.48,0,0,0,642,245V85a57.47,57.47,0,0,0-57.48-57.47H122.18L84,.7A3.78,3.78,0,0,0,81.82,0Z"></path> <path class="cls-3" d="M47.63,80H58.3c-.37-4.42-3.13-7.92-7.85-7.92a12.05,12.05,0,0,0-4.9,1.15L44.84,71a14.34,14.34,0,0,1,5.78-1.33c7.21,0,10.88,5.2,10.88,11.86,0,7.52-5,11.8-11,11.8a14.48,14.48,0,0,1-6-1.19l.64-2.34a12.68,12.68,0,0,0,4.93,1c5.07,0,8.09-3.67,8.3-8.43H47.63Z"></path> <path class="cls-3" d="M76.8,76.5v2.38H71.66V93h-3V78.88H63.57V76.5Z"></path> <path class="cls-3" d="M93.87,84.59c0,6.09-4.22,8.74-8.2,8.74-4.45,0-7.88-3.26-7.88-8.46,0-5.51,3.6-8.74,8.15-8.74C90.67,76.13,93.87,79.56,93.87,84.59Zm-13.06.17c0,3.61,2.07,6.33,5,6.33s5-2.69,5-6.39c0-2.79-1.4-6.33-4.93-6.33S80.81,81.64,80.81,84.76Z"></path> <path class="cls-3" d="M121.51,70V93h-3V72.53H107.91V93h-3V70Z"></path> <path class="cls-3" d="M128.24,85.27c.07,4,2.65,5.72,5.64,5.72a10.94,10.94,0,0,0,4.56-.85l.51,2.14a13.42,13.42,0,0,1-5.47,1c-5.07,0-8.1-3.33-8.1-8.3s2.93-8.87,7.72-8.87c5.37,0,6.8,4.72,6.8,7.75a12.08,12.08,0,0,1-.1,1.39ZM137,83.13c0-1.9-.78-4.86-4.15-4.86-3,0-4.35,2.79-4.59,4.86Zm-8.67-11.28a1.74,1.74,0,0,1,1.74-1.74,1.66,1.66,0,0,1,1.66,1.74,1.68,1.68,0,0,1-1.66,1.73A1.73,1.73,0,0,1,128.34,71.85Zm6.33,0a1.71,1.71,0,0,1,1.7-1.74A1.66,1.66,0,0,1,138,71.85a1.68,1.68,0,1,1-3.36,0Z"></path> <path class="cls-3" d="M154.59,76.5v2.38h-5.13V93h-3V78.88h-5.14V76.5Z"></path> <path class="cls-3" d="M157.21,81.87c0-2.1-.07-3.8-.14-5.37h2.69l.13,2.82H160a6.48,6.48,0,0,1,5.85-3.19c4,0,7,3.36,7,8.36,0,5.92-3.61,8.84-7.48,8.84a5.78,5.78,0,0,1-5.07-2.58h-.06v8.94h-3Zm3,4.39a6.52,6.52,0,0,0,.13,1.22A4.63,4.63,0,0,0,164.79,91c3.16,0,5-2.59,5-6.36,0-3.3-1.74-6.12-4.9-6.12a4.77,4.77,0,0,0-4.52,3.7,5,5,0,0,0-.2,1.23Z"></path> <path class="cls-3" d="M181.82,97.14a48.29,48.29,0,0,0,2-8.13l3.33-.34A40.64,40.64,0,0,1,184,96.93Z"></path> <path class="cls-3" d="M212.9,84.59c0,6.09-4.22,8.74-8.2,8.74-4.45,0-7.88-3.26-7.88-8.46,0-5.51,3.6-8.74,8.16-8.74C209.7,76.13,212.9,79.56,212.9,84.59Zm-13.06.17c0,3.61,2.08,6.33,5,6.33s5-2.69,5-6.39c0-2.79-1.4-6.33-4.93-6.33S199.84,81.64,199.84,84.76Z"></path> <path class="cls-3" d="M219.56,76.5v6.63h7.82V76.5h3V93h-3V85.51h-7.82V93h-3V76.5Z"></path> <path class="cls-3" d="M254.17,92.35a11.11,11.11,0,0,1-4.72,1c-5,0-8.2-3.37-8.2-8.4s3.47-8.74,8.84-8.74a10,10,0,0,1,4.15.85l-.68,2.31a7,7,0,0,0-3.47-.78c-3.77,0-5.81,2.79-5.81,6.22,0,3.81,2.45,6.16,5.71,6.16a8.4,8.4,0,0,0,3.67-.82Z"></path> <path class="cls-3" d="M266.89,93l-.24-2.08h-.1a6.12,6.12,0,0,1-5,2.45,4.68,4.68,0,0,1-5-4.72c0-4,3.53-6.16,9.89-6.12v-.34c0-1.36-.38-3.81-3.74-3.81a8.21,8.21,0,0,0-4.29,1.22l-.67-2a10.24,10.24,0,0,1,5.4-1.46c5,0,6.26,3.43,6.26,6.73V89a22.63,22.63,0,0,0,.27,3.95Zm-.44-8.4c-3.27-.07-7,.51-7,3.71a2.65,2.65,0,0,0,2.82,2.85,4.1,4.1,0,0,0,4-2.75,3.23,3.23,0,0,0,.17-1Z"></path> <path class="cls-3" d="M274.33,76.5H278l3,8.3c.41,1.22,1.12,3.23,1.49,4.52h.07c.38-1.22,1.29-3.84,1.94-5.64l2.65-7.18h3.71L292,93h-2.85l-.38-7.86c-.1-1.76-.23-3.87-.3-5.88h-.1c-.45,1.5-.89,2.82-1.81,5.34l-3.16,8.3h-2.17l-2.93-8.13c-.51-1.56-1.22-3.94-1.63-5.47h-.14c-.06,1.93-.17,4.11-.27,5.91L275.86,93h-2.75Z"></path> <path class="cls-3" d="M303.1,81.87c0-2.1-.07-3.8-.14-5.37h2.69l.13,2.82h.07a6.48,6.48,0,0,1,5.85-3.19c4,0,7,3.36,7,8.36,0,5.92-3.61,8.84-7.48,8.84a5.78,5.78,0,0,1-5.07-2.58h-.06v8.94h-3Zm3,4.39a6.52,6.52,0,0,0,.13,1.22A4.63,4.63,0,0,0,310.68,91c3.16,0,5-2.59,5-6.36,0-3.3-1.74-6.12-4.9-6.12a4.77,4.77,0,0,0-4.52,3.7,5,5,0,0,0-.2,1.23Z"></path> <path class="cls-3" d="M324.11,85.27c.07,4,2.65,5.72,5.64,5.72a10.94,10.94,0,0,0,4.56-.85l.51,2.14a13.48,13.48,0,0,1-5.48,1c-5.06,0-8.09-3.33-8.09-8.3s2.93-8.87,7.72-8.87c5.37,0,6.8,4.72,6.8,7.75a12.08,12.08,0,0,1-.1,1.39Zm8.77-2.14c0-1.9-.78-4.86-4.15-4.86-3,0-4.35,2.79-4.59,4.86Z"></path> <path class="cls-3" d="M342.33,76.5V90.61h5.75V76.5H351V90.61h5.75V76.5h3V93h-20.3V76.5Z"></path> <path class="cls-3" d="M367.32,76.5v6.94c0,2.62,0,4.25-.17,6.59l.1,0c1-2,1.57-3.16,2.66-5.07L375,76.5h3.5V93h-2.85V86c0-2.69.06-4.08.2-6.73h-.1c-1.06,2.1-1.77,3.43-2.72,5.1-1.57,2.55-3.37,5.71-5.14,8.6H364.5V76.5Z"></path> <path class="cls-3" d="M395.88,76.5V93h-3V78.85h-5.64v4.28c0,4.63-.44,7.72-2.58,9.11a4.81,4.81,0,0,1-3.27,1l-.3-2.34a3.72,3.72,0,0,0,1.63-.68c1.53-1.12,1.7-3.44,1.7-7.11V76.5Z"></path> <path class="cls-3" d="M409.07,76.5l3.61,9.73c.37,1.08.78,2.38,1.05,3.36h.07c.31-1,.65-2.24,1.05-3.43l3.27-9.66h3.16l-4.49,11.73c-2.14,5.65-3.6,8.54-5.64,10.3a8.2,8.2,0,0,1-3.67,1.94L406.73,98a7.77,7.77,0,0,0,2.62-1.46,9.07,9.07,0,0,0,2.51-3.33,2,2,0,0,0,.24-.71,2.72,2.72,0,0,0-.2-.78L405.81,76.5Z"></path> <path class="cls-3" d="M435.42,92.35a11.11,11.11,0,0,1-4.72,1c-5,0-8.2-3.37-8.2-8.4s3.47-8.74,8.84-8.74a10,10,0,0,1,4.15.85l-.68,2.31a7,7,0,0,0-3.47-.78c-3.77,0-5.81,2.79-5.81,6.22,0,3.81,2.45,6.16,5.71,6.16a8.4,8.4,0,0,0,3.67-.82Z"></path> <path class="cls-3" d="M450.59,76.5v2.38h-5.14V93H442.5V78.88h-5.14V76.5Z"></path> <path class="cls-3" d="M453.2,81.87c0-2.1-.06-3.8-.13-5.37h2.68l.14,2.82H456a6.47,6.47,0,0,1,5.85-3.19c4,0,7,3.36,7,8.36,0,5.92-3.6,8.84-7.47,8.84a5.78,5.78,0,0,1-5.07-2.58h-.07v8.94h-3Zm3,4.39a6.49,6.49,0,0,0,.14,1.22A4.61,4.61,0,0,0,460.79,91c3.16,0,5-2.59,5-6.36,0-3.3-1.73-6.12-4.89-6.12a4.76,4.76,0,0,0-4.52,3.7,4.59,4.59,0,0,0-.21,1.23Z"></path> <path class="cls-3" d="M481.66,93l-.24-2.08h-.1a6.1,6.1,0,0,1-5,2.45,4.68,4.68,0,0,1-5-4.72c0-4,3.53-6.16,9.89-6.12v-.34c0-1.36-.37-3.81-3.74-3.81a8.15,8.15,0,0,0-4.28,1.22l-.68-2a10.24,10.24,0,0,1,5.4-1.46c5,0,6.26,3.43,6.26,6.73V89a23.65,23.65,0,0,0,.27,3.95Zm-.44-8.4c-3.26-.07-7,.51-7,3.71a2.65,2.65,0,0,0,2.82,2.85,4.1,4.1,0,0,0,4-2.75,3.23,3.23,0,0,0,.17-1Z"></path> <path class="cls-3" d="M491.83,76.5v6.63h7.82V76.5h3V93h-3V85.51h-7.82V93h-3V76.5Z"></path> <path class="cls-3" d="M510.25,76.5v6.94c0,2.62,0,4.25-.17,6.59l.11,0c1-2,1.56-3.16,2.65-5.07L518,76.5h3.5V93h-2.85V86c0-2.69.07-4.08.2-6.73h-.1c-1.05,2.1-1.77,3.43-2.72,5.1-1.56,2.55-3.37,5.71-5.13,8.6h-3.44V76.5Z"></path> <path class="cls-3" d="M537.35,76.5v2.38h-5.13V93h-3V78.88h-5.13V76.5Z"></path> <path class="cls-3" d="M542.86,76.5v5.58a16.25,16.25,0,0,1,2.72-.17c3.71,0,7.62,1.15,7.62,5.54a4.63,4.63,0,0,1-1.74,3.77c-1.8,1.53-4.72,1.91-7.14,1.91a39.87,39.87,0,0,1-4.42-.24V76.5Zm0,14.38a16.89,16.89,0,0,0,2.21.14c2.25,0,5.14-.75,5.14-3.5s-3-3.47-5.21-3.47a14.28,14.28,0,0,0-2.14.17Z"></path> <path class="cls-3" d="M47.29,124.2h1.43c2.51,0,4.21-1.15,4.21-2.68s-1.33-2.38-3.19-2.38a7.86,7.86,0,0,0-4,1.16L45,118.46a10.46,10.46,0,0,1,5.47-1.5c2.52,0,5.58,1.13,5.58,4.32,0,2-1.87,3.37-3.71,3.74v.07c2.45.2,4.49,1.7,4.49,4.11,0,3.57-3.64,4.9-7.1,4.9a11.23,11.23,0,0,1-5.34-1.33l.78-2a9.57,9.57,0,0,0,4.35,1.12c2.48,0,4-1.19,4-2.82,0-2.21-2.31-2.83-4.8-2.83H47.29Z"></path> <path class="cls-3" d="M69.69,133.76l-.24-2.08h-.1a6.1,6.1,0,0,1-5,2.45,4.68,4.68,0,0,1-5-4.72c0-4,3.54-6.16,9.89-6.12V123c0-1.36-.37-3.81-3.74-3.81a8.27,8.27,0,0,0-4.28,1.22l-.68-2a10.24,10.24,0,0,1,5.4-1.46c5,0,6.26,3.43,6.26,6.73v6.15a23.65,23.65,0,0,0,.27,3.95Zm-.44-8.4c-3.26-.07-7,.51-7,3.71a2.65,2.65,0,0,0,2.82,2.85,4.1,4.1,0,0,0,4-2.75,3.23,3.23,0,0,0,.17-.95Z"></path> <path class="cls-3" d="M88.7,133.15a11.17,11.17,0,0,1-4.73.95c-5,0-8.19-3.37-8.19-8.4S79.25,117,84.62,117a10.15,10.15,0,0,1,4.15.85l-.68,2.31a7.06,7.06,0,0,0-3.47-.78c-3.78,0-5.82,2.79-5.82,6.22,0,3.81,2.45,6.16,5.72,6.16a8.4,8.4,0,0,0,3.67-.82Z"></path> <path class="cls-3" d="M106.89,125.39c0,6.09-4.22,8.74-8.2,8.74-4.45,0-7.88-3.26-7.88-8.46,0-5.51,3.6-8.74,8.16-8.74C103.69,116.93,106.89,120.36,106.89,125.39Zm-13.06.17c0,3.61,2.08,6.33,5,6.33s5-2.69,5-6.39c0-2.79-1.4-6.33-4.93-6.33S93.83,122.44,93.83,125.56Z"></path> <path class="cls-3" d="M110.66,122.67c0-2.1-.07-3.8-.13-5.37h2.68l.14,2.82h.07a6.47,6.47,0,0,1,5.84-3.19c4,0,7,3.37,7,8.36,0,5.92-3.6,8.84-7.48,8.84a5.76,5.76,0,0,1-5.06-2.58h-.07v8.94h-3Zm3,4.39a6.49,6.49,0,0,0,.14,1.22,4.61,4.61,0,0,0,4.48,3.51c3.17,0,5-2.59,5-6.36,0-3.3-1.73-6.12-4.89-6.12a4.78,4.78,0,0,0-4.53,3.71,4.86,4.86,0,0,0-.2,1.22Z"></path> <path class="cls-3" d="M135.28,137.94a49.27,49.27,0,0,0,2-8.13l3.33-.34a41.59,41.59,0,0,1-3.23,8.27Z"></path> <path class="cls-3" d="M165,117.3v16.46h-3V119.68h-7.65v14.08h-3V117.3Z"></path> <path class="cls-3" d="M184.75,125.39c0,6.09-4.22,8.74-8.2,8.74-4.45,0-7.88-3.26-7.88-8.46,0-5.51,3.6-8.74,8.15-8.74C181.55,116.93,184.75,120.36,184.75,125.39Zm-13.06.17c0,3.61,2.07,6.33,5,6.33s5-2.69,5-6.39c0-2.79-1.4-6.33-4.93-6.33S171.69,122.44,171.69,125.56Z"></path> <path class="cls-3" d="M199.37,117.3v2.38h-5.14v14.08h-3V119.68h-5.13V117.3Z"></path> <path class="cls-3" d="M202,122.67c0-2.1-.07-3.8-.14-5.37h2.69l.13,2.82h.07a6.47,6.47,0,0,1,5.85-3.19c4,0,7,3.37,7,8.36,0,5.92-3.61,8.84-7.48,8.84a5.78,5.78,0,0,1-5.07-2.58h-.07v8.94H202Zm2.95,4.39a6.49,6.49,0,0,0,.14,1.22,4.61,4.61,0,0,0,4.49,3.51c3.16,0,5-2.59,5-6.36,0-3.3-1.73-6.12-4.89-6.12a4.76,4.76,0,0,0-4.52,3.71,4.46,4.46,0,0,0-.21,1.22Z"></path> <path class="cls-3" d="M230.44,133.76l-.24-2.08h-.1a6.1,6.1,0,0,1-5,2.45,4.68,4.68,0,0,1-5-4.72c0-4,3.53-6.16,9.89-6.12V123c0-1.36-.37-3.81-3.74-3.81a8.24,8.24,0,0,0-4.28,1.22l-.68-2a10.24,10.24,0,0,1,5.4-1.46c5,0,6.26,3.43,6.26,6.73v6.15a23.65,23.65,0,0,0,.27,3.95Zm-.44-8.4c-3.26-.07-7,.51-7,3.71a2.65,2.65,0,0,0,2.82,2.85,4.1,4.1,0,0,0,4-2.75,3.23,3.23,0,0,0,.17-.95Z"></path> <path class="cls-3" d="M248.6,117.3v2.38h-5.14v14.08h-3V119.68h-5.14V117.3Z"></path> <path class="cls-3" d="M254,117.3v6.94c0,2.62,0,4.25-.17,6.59l.1,0c1-2,1.57-3.16,2.65-5.07l5.14-8.5h3.5v16.46h-2.86v-7c0-2.69.07-4.08.21-6.73h-.1c-1.06,2.1-1.77,3.43-2.72,5.1-1.57,2.55-3.37,5.71-5.14,8.6h-3.43V117.3Z"></path> <path class="cls-3" d="M282.53,117.3v16.46h-3V119.65h-5.64v4.28c0,4.63-.44,7.72-2.59,9.11a4.76,4.76,0,0,1-3.26,1l-.31-2.34a3.71,3.71,0,0,0,1.64-.68c1.53-1.12,1.7-3.44,1.7-7.11V117.3Z"></path> <path class="cls-3" d="M297.52,117.3v6.63h7.82V117.3h3v16.46h-3v-7.45h-7.82v7.45h-2.95V117.3Z"></path> <path class="cls-3" d="M322.31,133.76l-.24-2.08H322a6.12,6.12,0,0,1-5,2.45,4.68,4.68,0,0,1-5-4.72c0-4,3.53-6.16,9.89-6.12V123c0-1.36-.38-3.81-3.74-3.81a8.3,8.3,0,0,0-4.29,1.22l-.67-2a10.24,10.24,0,0,1,5.4-1.46c5,0,6.26,3.43,6.26,6.73v6.15a22.63,22.63,0,0,0,.27,3.95Zm-.44-8.4c-3.27-.07-7,.51-7,3.71a2.65,2.65,0,0,0,2.82,2.85,4.1,4.1,0,0,0,4-2.75,3.23,3.23,0,0,0,.17-.95Z"></path> <path class="cls-3" d="M337.47,124.37h8.3a5.27,5.27,0,0,0-5.68-5.13,9.15,9.15,0,0,0-3.94.92l-.65-1.94a10.75,10.75,0,0,1,5.07-1.29,8.14,8.14,0,0,1,6,2.35,9,9,0,0,1,2.24,6.32c0,4.79-3.16,8.53-8.73,8.53a10.75,10.75,0,0,1-4.8-1.12l.58-2.14a10,10,0,0,0,4.11.88,5.47,5.47,0,0,0,5.78-5.34h-8.26Z"></path> <path class="cls-3" d="M363.41,117.3v2.38h-5.13v14.08h-3V119.68h-5.13V117.3Z"></path> <path class="cls-3" d="M380.48,125.39c0,6.09-4.21,8.74-8.19,8.74-4.46,0-7.89-3.26-7.89-8.46,0-5.51,3.6-8.74,8.16-8.74C377.29,116.93,380.48,120.36,380.48,125.39Zm-13.05.17c0,3.61,2.07,6.33,5,6.33s5-2.69,5-6.39c0-2.79-1.39-6.33-4.93-6.33S367.43,122.44,367.43,125.56Z"></path> <path class="cls-3" d="M399.76,133.76v-6H389.49v-2l9.86-14.11h3.23v13.73h3.09v2.35h-3.09v6Zm0-8.37V118c0-1.16,0-2.31.1-3.47h-.1c-.68,1.29-1.22,2.24-1.84,3.26l-5.4,7.52v.06Z"></path> <path class="cls-3" d="M418.83,117.3v5.41c0,2.07.79,3.5,3.4,3.5a6.21,6.21,0,0,0,3.54-1.16V117.3h3v16.46h-3v-6.6h-.07a8.62,8.62,0,0,1-4.45,1.26c-3.13,0-5.41-1.6-5.41-5.37V117.3Z"></path> <path class="cls-3" d="M442.73,133.76l-.23-2.08h-.11a6.09,6.09,0,0,1-5,2.45,4.68,4.68,0,0,1-5-4.72c0-4,3.54-6.16,9.89-6.12V123c0-1.36-.37-3.81-3.74-3.81a8.29,8.29,0,0,0-4.28,1.22l-.68-2a10.25,10.25,0,0,1,5.41-1.46c5,0,6.25,3.43,6.25,6.73v6.15a23.65,23.65,0,0,0,.27,3.95Zm-.44-8.4c-3.26-.07-7,.51-7,3.71a2.65,2.65,0,0,0,2.82,2.85,4.09,4.09,0,0,0,4-2.75,3.23,3.23,0,0,0,.17-.95Z"></path> <path class="cls-3" d="M461.74,133.15a11.17,11.17,0,0,1-4.73.95c-5,0-8.19-3.37-8.19-8.4s3.47-8.74,8.84-8.74a10.15,10.15,0,0,1,4.15.85l-.68,2.31a7.06,7.06,0,0,0-3.47-.78c-3.77,0-5.81,2.79-5.81,6.22,0,3.81,2.44,6.16,5.71,6.16a8.4,8.4,0,0,0,3.67-.82Z"></path> <path class="cls-3" d="M474.46,133.76l-.24-2.08h-.1a6.12,6.12,0,0,1-5,2.45,4.68,4.68,0,0,1-5-4.72c0-4,3.54-6.16,9.9-6.12V123c0-1.36-.38-3.81-3.74-3.81a8.3,8.3,0,0,0-4.29,1.22l-.68-2a10.25,10.25,0,0,1,5.41-1.46c5,0,6.25,3.43,6.25,6.73v6.15a22.56,22.56,0,0,0,.28,3.95Zm-.45-8.4c-3.26-.07-7,.51-7,3.71a2.65,2.65,0,0,0,2.83,2.85,4.08,4.08,0,0,0,4-2.75,2.93,2.93,0,0,0,.17-.95Z"></path> <path class="cls-3" d="M479.79,137.94a48.29,48.29,0,0,0,2-8.13l3.34-.34a42.21,42.21,0,0,1-3.23,8.27Z"></path> <path class="cls-3" d="M48.68,158.1V165c0,2.62,0,4.25-.17,6.59l.1,0c1-2,1.57-3.16,2.66-5.07l5.13-8.5h3.5v16.46H57v-7c0-2.69.07-4.08.21-6.73h-.1c-1.06,2.1-1.77,3.43-2.72,5.1-1.57,2.55-3.37,5.71-5.14,8.6H45.86V158.1Z"></path> <path class="cls-3" d="M76.49,174a11.11,11.11,0,0,1-4.72,1c-5,0-8.2-3.37-8.2-8.4s3.47-8.74,8.84-8.74a10,10,0,0,1,4.15.85l-.68,2.31a7,7,0,0,0-3.47-.78c-3.77,0-5.81,2.79-5.81,6.22,0,3.81,2.45,6.16,5.71,6.16A8.4,8.4,0,0,0,76,171.7Z"></path> <path class="cls-3" d="M93.53,158.1v16.46h-3V160.48H82.88v14.08H79.93V158.1Z"></path> <path class="cls-3" d="M107.5,174.56l-.24-2.08h-.1a6.12,6.12,0,0,1-5,2.45,4.68,4.68,0,0,1-5-4.72c0-4,3.53-6.16,9.89-6.12v-.34c0-1.36-.37-3.81-3.74-3.81A8.15,8.15,0,0,0,99,161.16l-.68-2a10.24,10.24,0,0,1,5.4-1.46c5,0,6.26,3.43,6.26,6.73v6.15a23.65,23.65,0,0,0,.27,3.95Zm-.44-8.4c-3.27-.07-7,.51-7,3.71a2.65,2.65,0,0,0,2.82,2.85,4.1,4.1,0,0,0,4-2.75,3.23,3.23,0,0,0,.17-.95Z"></path> <path class="cls-3" d="M117,158.1v5.41c0,2.07.78,3.5,3.4,3.5a6.21,6.21,0,0,0,3.54-1.16V158.1h3v16.46h-3V168h-.07a8.63,8.63,0,0,1-4.46,1.26c-3.12,0-5.4-1.6-5.4-5.37V158.1Z"></path> <path class="cls-3" d="M134.77,158.1v7.14h.71l6.19-7.14h3.64l-7.18,7.45c2.66.27,4.25,2,5.55,5a36.59,36.59,0,0,0,1.76,4h-3.12a21.46,21.46,0,0,1-1.53-3.37c-1.13-2.65-2.66-3.87-5.44-3.87h-.58v7.24h-3V158.1Z"></path> <path class="cls-3" d="M157.55,174.56l-.24-2.08h-.1a6.12,6.12,0,0,1-5,2.45,4.69,4.69,0,0,1-5-4.72c0-4,3.54-6.16,9.9-6.12v-.34c0-1.36-.38-3.81-3.74-3.81a8.21,8.21,0,0,0-4.29,1.22l-.68-2a10.27,10.27,0,0,1,5.41-1.46c5,0,6.25,3.43,6.25,6.73v6.15a22.56,22.56,0,0,0,.28,3.95Zm-.45-8.4c-3.26-.07-7,.51-7,3.71a2.65,2.65,0,0,0,2.82,2.85,4.1,4.1,0,0,0,4-2.75,3.21,3.21,0,0,0,.16-.95Z"></path> <path class="cls-3" d="M177.37,158.1v16.46h-3V160.45h-5.64v4.28c0,4.63-.45,7.72-2.59,9.11a4.76,4.76,0,0,1-3.26,1l-.31-2.34a3.71,3.71,0,0,0,1.64-.68c1.52-1.12,1.7-3.44,1.7-7.11V158.1Z"></path> <path class="cls-3" d="M188.52,174.56v-1.84l2.35-2.28c5.64-5.37,8.19-8.22,8.22-11.55,0-2.25-1.08-4.32-4.38-4.32a7.51,7.51,0,0,0-4.69,1.87l-1-2.11a9.72,9.72,0,0,1,6.26-2.24c4.76,0,6.76,3.26,6.76,6.42,0,4.08-3,7.38-7.61,11.87L192.7,172v.07h9.93v2.48Z"></path> <path class="cls-3" d="M217.08,158.1v7.14h.71L224,158.1h3.64l-7.18,7.45c2.66.27,4.25,2,5.55,5a36.59,36.59,0,0,0,1.76,4h-3.12a21.46,21.46,0,0,1-1.53-3.37c-1.13-2.65-2.66-3.87-5.44-3.87h-.58v7.24h-3V158.1Z"></path> <path class="cls-3" d="M245.09,166.19c0,6.09-4.21,8.74-8.19,8.74-4.45,0-7.89-3.26-7.89-8.46,0-5.51,3.61-8.74,8.16-8.74C241.9,157.73,245.09,161.16,245.09,166.19Zm-13.05.17c0,3.61,2.07,6.33,5,6.33s5-2.69,5-6.39c0-2.79-1.39-6.33-4.93-6.33S232,163.24,232,166.36Z"></path> <path class="cls-3" d="M249,158.1h3.67l3,8.3c.41,1.22,1.12,3.23,1.5,4.52h.07c.37-1.22,1.29-3.84,1.93-5.64l2.66-7.18h3.7l1.16,16.46h-2.86l-.37-7.86c-.1-1.76-.24-3.87-.31-5.88h-.1c-.44,1.5-.88,2.82-1.8,5.34l-3.16,8.3h-2.18L253,166.33c-.51-1.56-1.23-3.94-1.63-5.47h-.14c-.07,1.93-.17,4.11-.27,5.91l-.41,7.79h-2.75Z"></path> <path class="cls-3" d="M284.13,158.1v16.46h-3V160.48h-7.65v14.08h-3V158.1Z"></path> <path class="cls-3" d="M301.46,158.1v16.46h-2.95V160.45h-5.65v4.28c0,4.63-.44,7.72-2.58,9.11a4.78,4.78,0,0,1-3.26,1l-.31-2.34a3.67,3.67,0,0,0,1.63-.68c1.53-1.12,1.7-3.44,1.7-7.11V158.1Z"></path> <path class="cls-3" d="M308,166.87c.07,4,2.65,5.72,5.64,5.72a11,11,0,0,0,4.56-.85l.51,2.14a13.48,13.48,0,0,1-5.48,1c-5.06,0-8.09-3.33-8.09-8.3s2.93-8.87,7.72-8.87c5.37,0,6.8,4.72,6.8,7.75a12.08,12.08,0,0,1-.1,1.39Zm8.77-2.14c0-1.9-.78-4.86-4.15-4.86-3,0-4.35,2.79-4.59,4.86Z"></path> <path class="cls-3" d="M326.35,158.1v7.14h.72l6.18-7.14h3.64l-7.17,7.45c2.65.27,4.25,2,5.54,5a35,35,0,0,0,1.77,4H333.9a22.42,22.42,0,0,1-1.53-3.37c-1.12-2.65-2.65-3.87-5.44-3.87h-.58v7.24h-3V158.1Z"></path> <path class="cls-3" d="M351.38,158.1v2.38h-5.14v14.08h-2.95V160.48h-5.14V158.1Z"></path> <path class="cls-3" d="M362.87,174.56l-.24-2.08h-.1a6.12,6.12,0,0,1-5,2.45,4.68,4.68,0,0,1-5-4.72c0-4,3.53-6.16,9.89-6.12v-.34c0-1.36-.38-3.81-3.74-3.81a8.21,8.21,0,0,0-4.29,1.22l-.67-2a10.24,10.24,0,0,1,5.4-1.46c5,0,6.26,3.43,6.26,6.73v6.15a22.63,22.63,0,0,0,.27,3.95Zm-.44-8.4c-3.27-.07-7,.51-7,3.71a2.65,2.65,0,0,0,2.82,2.85,4.1,4.1,0,0,0,4-2.75,3.23,3.23,0,0,0,.17-.95Z"></path> <path class="cls-3" d="M392.24,166.19c0,6.09-4.21,8.74-8.19,8.74-4.45,0-7.89-3.26-7.89-8.46,0-5.51,3.61-8.74,8.16-8.74C389.05,157.73,392.24,161.16,392.24,166.19Zm-13.05.17c0,3.61,2.07,6.33,5,6.33s5-2.69,5-6.39c0-2.79-1.39-6.33-4.93-6.33S379.19,163.24,379.19,166.36Z"></path> <path class="cls-3" d="M408.53,158.1v14.21l1.7,0-.17,7.44h-2.35l-.13-5.23H396.19l-.14,5.23h-2.34l-.14-7.44,1.39,0A12.77,12.77,0,0,0,396.6,169a21.91,21.91,0,0,0,.95-6.56V158.1Zm-8.33,5a22,22,0,0,1-.85,6.12,15.78,15.78,0,0,1-1.33,3.06h7.59v-11.9H400.2Z"></path> <path class="cls-3" d="M415.33,166.87c.07,4,2.65,5.72,5.64,5.72a10.9,10.9,0,0,0,4.56-.85l.51,2.14a13.42,13.42,0,0,1-5.47,1c-5.07,0-8.1-3.33-8.1-8.3s2.93-8.87,7.72-8.87c5.37,0,6.8,4.72,6.8,7.75a12.08,12.08,0,0,1-.1,1.39Zm8.77-2.14c0-1.9-.78-4.86-4.15-4.86-3,0-4.35,2.79-4.59,4.86Z"></path> <path class="cls-3" d="M432.09,158.1l5.44,7.18h.61V158.1H441v7.18h.58L447,158.1h3.43L444,165.58c2.48.27,3.94,1.74,4.93,4.35a38.27,38.27,0,0,0,1.8,4.63h-3a24.17,24.17,0,0,1-1.5-3.78c-1-2.68-2.55-3.5-4.69-3.5H441v7.28h-2.86v-7.28h-.54c-2.31,0-3.71.85-4.73,3.54a28,28,0,0,1-1.56,3.74h-2.89a48.78,48.78,0,0,0,1.8-4.59c1-2.65,2.48-4.12,5-4.39l-6.53-7.48Z"></path> <path class="cls-3" d="M467,158.1v14.21l1.7,0-.17,7.44h-2.34l-.14-5.23H454.63l-.13,5.23h-2.35l-.13-7.44,1.39,0A12.74,12.74,0,0,0,455,169a21.59,21.59,0,0,0,.95-6.56V158.1Zm-8.32,5a22,22,0,0,1-.85,6.12,15.78,15.78,0,0,1-1.33,3.06h7.58v-11.9h-5.4Z"></path> <path class="cls-3" d="M475.13,158.1v5.61a14.77,14.77,0,0,1,2.69-.2c3.54,0,7.11,1.46,7.11,5.51a4.65,4.65,0,0,1-1.7,3.8c-1.81,1.53-4.46,1.91-6.63,1.91a39.59,39.59,0,0,1-4.42-.24V158.1Zm0,14.38a16.33,16.33,0,0,0,2.08.14c2.28,0,4.76-1,4.76-3.5s-2.38-3.47-4.63-3.47a14,14,0,0,0-2.21.17ZM490,158.1v16.46h-3V158.1Z"></path> <path class="cls-3" d="M500.12,178.74a49.25,49.25,0,0,0,2.05-8.13l3.33-.34a42.21,42.21,0,0,1-3.23,8.27Z"></path> <path class="cls-3" d="M516.07,171.12a9.93,9.93,0,0,0,4.9,1.4c3.84,0,5-2.45,5-4.29,0-3.09-2.82-4.42-5.71-4.42h-1.66v-2.24h1.66c2.18,0,4.93-1.12,4.93-3.74,0-1.77-1.12-3.33-3.87-3.33a8.11,8.11,0,0,0-4.42,1.46l-.79-2.17a10.52,10.52,0,0,1,5.78-1.7c4.36,0,6.33,2.58,6.33,5.27,0,2.27-1.36,4.21-4.08,5.2v.06a5.77,5.77,0,0,1,4.93,5.68c0,3.54-2.76,6.63-8.06,6.63a11.31,11.31,0,0,1-5.75-1.49Z"></path> <path class="cls-3" d="M45.93,204.27c0-2.1-.07-3.8-.14-5.37h2.69l.13,2.82h.07a6.48,6.48,0,0,1,5.85-3.19c4,0,7,3.36,7,8.36,0,5.92-3.61,8.84-7.48,8.84A5.78,5.78,0,0,1,49,213.15h-.06v8.94h-3Zm3,4.39a6.52,6.52,0,0,0,.13,1.22,4.63,4.63,0,0,0,4.49,3.51c3.16,0,5-2.59,5-6.36,0-3.3-1.74-6.12-4.9-6.12a4.77,4.77,0,0,0-4.52,3.7,5,5,0,0,0-.2,1.23Z"></path> <path class="cls-3" d="M74.38,215.36l-.23-2.08H74a6.09,6.09,0,0,1-5,2.45A4.68,4.68,0,0,1,64,211c0-4,3.54-6.16,9.89-6.12v-.34c0-1.36-.37-3.81-3.74-3.81A8.27,8.27,0,0,0,65.85,202l-.68-2a10.25,10.25,0,0,1,5.41-1.46c5,0,6.25,3.43,6.25,6.73v6.15a23.65,23.65,0,0,0,.27,4Zm-.44-8.4c-3.26-.07-7,.51-7,3.71a2.65,2.65,0,0,0,2.82,2.85,4.09,4.09,0,0,0,4-2.75,3.23,3.23,0,0,0,.17-1Z"></path> <path class="cls-3" d="M83,205.8h1.43c2.51,0,4.21-1.15,4.21-2.68s-1.32-2.38-3.19-2.38a8,8,0,0,0-4,1.15l-.75-1.83a10.47,10.47,0,0,1,5.48-1.5c2.51,0,5.57,1.13,5.57,4.32,0,2-1.87,3.37-3.7,3.74v.07c2.44.2,4.48,1.7,4.48,4.11,0,3.57-3.63,4.9-7.1,4.9a11.23,11.23,0,0,1-5.34-1.33l.78-2a9.57,9.57,0,0,0,4.35,1.12c2.49,0,4-1.19,4-2.82,0-2.21-2.31-2.83-4.79-2.83H83Z"></path> <path class="cls-3" d="M105.43,215.36l-.24-2.08h-.1a6.12,6.12,0,0,1-5,2.45A4.68,4.68,0,0,1,95,211c0-4,3.54-6.16,9.9-6.12v-.34c0-1.36-.38-3.81-3.74-3.81A8.3,8.3,0,0,0,96.89,202l-.68-2a10.25,10.25,0,0,1,5.41-1.46c5,0,6.25,3.43,6.25,6.73v6.15a22.56,22.56,0,0,0,.28,4ZM105,207c-3.26-.07-7,.51-7,3.71a2.65,2.65,0,0,0,2.83,2.85,4.08,4.08,0,0,0,4-2.75,2.93,2.93,0,0,0,.17-1Z"></path> <path class="cls-3" d="M121.3,198.9l2.35,3.54c.61.92,1.12,1.77,1.67,2.68h.1c.54-1,1.09-1.83,1.63-2.71l2.31-3.51h3.23l-5.61,8,5.78,8.5h-3.4L127,211.65c-.65-1-1.19-1.87-1.77-2.85h-.07c-.54,1-1.12,1.87-1.73,2.85L121,215.36h-3.3l5.85-8.4L118,198.9Z"></path> <path class="cls-3" d="M150.07,207c0,6.09-4.22,8.74-8.2,8.74-4.45,0-7.88-3.26-7.88-8.46,0-5.51,3.6-8.74,8.16-8.74C146.87,198.53,150.07,202,150.07,207Zm-13.06.17c0,3.61,2.08,6.33,5,6.33s5-2.69,5-6.39c0-2.79-1.4-6.33-4.93-6.33S137,204,137,207.16Z"></path> <path class="cls-3" d="M166.35,198.9v14.21l1.7,0-.17,7.44h-2.34l-.14-5.23H154l-.13,5.23h-2.35l-.14-7.44,1.4,0a12.74,12.74,0,0,0,1.63-3.36,21.59,21.59,0,0,0,1-6.56V198.9Zm-8.33,5a21.6,21.6,0,0,1-.85,6.12,15.77,15.77,0,0,1-1.32,3.06h7.58v-11.9H158Z"></path> <path class="cls-3" d="M174.38,198.9v6.94c0,2.62,0,4.25-.17,6.59l.1,0c1-2,1.56-3.16,2.65-5.07l5.14-8.5h3.5v16.46h-2.86v-7c0-2.69.07-4.08.21-6.73h-.11c-1.05,2.11-1.76,3.43-2.72,5.1-1.56,2.55-3.36,5.71-5.13,8.6h-3.43V198.9Z"></path> <path class="cls-3" d="M202.94,198.9v16.46h-3V201.25h-5.65v4.28c0,4.63-.44,7.72-2.58,9.11a4.76,4.76,0,0,1-3.26,1l-.31-2.34a3.63,3.63,0,0,0,1.63-.68c1.53-1.12,1.7-3.44,1.7-7.11V198.9Z"></path> <path class="cls-3" d="M215,199.11a34.25,34.25,0,0,1,5.24-.38c2.75,0,7.31.45,7.31,4.12,0,2-1.57,3.29-3.44,3.7v.07c2.42.34,4.19,1.7,4.19,4.08,0,4.32-5.44,4.86-8.67,4.86-1.84,0-3.74-.13-4.63-.2Zm2.82,14.28a18.61,18.61,0,0,0,2.42.13c2,0,5-.47,5-2.85s-2.38-2.89-5.24-2.89h-2.18Zm0-7.59h2.24c2.21,0,4.49-.64,4.49-2.58,0-1.63-1.43-2.41-4.42-2.41-1,0-1.6.07-2.31.13Z"></path> <path class="cls-3" d="M239.42,198.9h3.67l3,8.3c.41,1.22,1.12,3.23,1.5,4.52h.07c.37-1.22,1.29-3.84,1.93-5.64l2.65-7.18h3.71l1.16,16.46h-2.86l-.37-7.86c-.11-1.76-.24-3.87-.31-5.88h-.1c-.44,1.5-.88,2.82-1.8,5.34l-3.16,8.3h-2.18l-2.92-8.13c-.51-1.56-1.23-3.94-1.64-5.47h-.13c-.07,1.94-.17,4.11-.27,5.91l-.41,7.79h-2.76Z"></path> <path class="cls-3" d="M270.08,215.36l-.23-2.08h-.1a6.12,6.12,0,0,1-5,2.45,4.68,4.68,0,0,1-5-4.72c0-4,3.54-6.16,9.9-6.12v-.34c0-1.36-.38-3.81-3.74-3.81a8.3,8.3,0,0,0-4.29,1.22l-.68-2a10.25,10.25,0,0,1,5.41-1.46c5,0,6.25,3.43,6.25,6.73v6.15a23.65,23.65,0,0,0,.27,4Zm-.44-8.4c-3.26-.07-7,.51-7,3.71a2.65,2.65,0,0,0,2.83,2.85,4.08,4.08,0,0,0,4-2.75,2.93,2.93,0,0,0,.17-1Z"></path> <path class="cls-3" d="M287.39,198.9v2.42h-7.14v14h-3V198.9Z"></path> <path class="cls-3" d="M299.09,215.36l-.24-2.08h-.1a6.12,6.12,0,0,1-5,2.45,4.69,4.69,0,0,1-5-4.72c0-4,3.54-6.16,9.9-6.12v-.34c0-1.36-.38-3.81-3.74-3.81a8.3,8.3,0,0,0-4.29,1.22l-.68-2a10.27,10.27,0,0,1,5.41-1.46c5,0,6.25,3.43,6.25,6.73v6.15a22.56,22.56,0,0,0,.28,4Zm-.44-8.4c-3.27-.07-7,.51-7,3.71a2.65,2.65,0,0,0,2.82,2.85,4.1,4.1,0,0,0,4-2.75,3.23,3.23,0,0,0,.17-1Z"></path> <path class="cls-3" d="M307.72,205.8h1.43c2.52,0,4.22-1.15,4.22-2.68s-1.33-2.38-3.2-2.38a8,8,0,0,0-4,1.15l-.74-1.83a10.44,10.44,0,0,1,5.47-1.5c2.52,0,5.57,1.13,5.57,4.32,0,2-1.87,3.37-3.7,3.74v.07c2.45.2,4.49,1.7,4.49,4.11,0,3.57-3.64,4.9-7.11,4.9a11.26,11.26,0,0,1-5.34-1.33l.79-2a9.54,9.54,0,0,0,4.35,1.12c2.48,0,4-1.19,4-2.82,0-2.21-2.31-2.83-4.79-2.83h-1.5Z"></path> <path class="cls-3" d="M323.77,198.9v6.94c0,2.62,0,4.25-.17,6.59l.1,0c1-2,1.57-3.16,2.65-5.07l5.14-8.5H335v16.46h-2.86v-7c0-2.69.07-4.08.21-6.73h-.1c-1.06,2.11-1.77,3.43-2.72,5.1-1.57,2.55-3.37,5.71-5.14,8.6H321V198.9Z"></path> <path class="cls-3" d="M342.74,198.9v6.63h7.82V198.9h3v16.46h-3v-7.45h-7.82v7.45h-3V198.9Z"></path> <path class="cls-3" d="M367,205.8h1.43c2.52,0,4.22-1.15,4.22-2.68s-1.33-2.38-3.2-2.38a8,8,0,0,0-4,1.15l-.74-1.83a10.44,10.44,0,0,1,5.47-1.5c2.52,0,5.57,1.13,5.57,4.32,0,2-1.87,3.37-3.7,3.74v.07c2.45.2,4.49,1.7,4.49,4.11,0,3.57-3.64,4.9-7.11,4.9a11.26,11.26,0,0,1-5.34-1.33l.79-2a9.54,9.54,0,0,0,4.35,1.12c2.48,0,4-1.19,4-2.82,0-2.21-2.31-2.83-4.79-2.83H367Z"></path> <path class="cls-3" d="M389.39,215.36l-.24-2.08h-.1a6.12,6.12,0,0,1-5,2.45,4.68,4.68,0,0,1-5-4.72c0-4,3.53-6.16,9.89-6.12v-.34c0-1.36-.38-3.81-3.74-3.81a8.24,8.24,0,0,0-4.28,1.22l-.68-2a10.24,10.24,0,0,1,5.4-1.46c5,0,6.26,3.43,6.26,6.73v6.15a23.65,23.65,0,0,0,.27,4ZM389,207c-3.27-.07-7,.51-7,3.71a2.65,2.65,0,0,0,2.82,2.85,4.1,4.1,0,0,0,4-2.75,3.23,3.23,0,0,0,.17-1Z"></path> <path class="cls-3" d="M415.6,214.75a11.11,11.11,0,0,1-4.72.95c-5,0-8.2-3.37-8.2-8.4s3.47-8.74,8.84-8.74a10.11,10.11,0,0,1,4.15.85l-.68,2.31a7,7,0,0,0-3.47-.78c-3.77,0-5.81,2.79-5.81,6.22,0,3.81,2.45,6.16,5.71,6.16a8.4,8.4,0,0,0,3.67-.82Z"></path> <path class="cls-3" d="M419.11,204.27c0-2.1-.07-3.8-.14-5.37h2.69l.13,2.82h.07a6.47,6.47,0,0,1,5.85-3.19c4,0,7,3.36,7,8.36,0,5.92-3.61,8.84-7.48,8.84a5.78,5.78,0,0,1-5.07-2.58h-.07v8.94h-2.95Zm2.95,4.39a6.49,6.49,0,0,0,.14,1.22,4.62,4.62,0,0,0,4.49,3.51c3.16,0,5-2.59,5-6.36,0-3.3-1.74-6.12-4.9-6.12a4.77,4.77,0,0,0-4.52,3.7,5,5,0,0,0-.21,1.23Z"></path> <path class="cls-3" d="M440.12,207.67c.07,4.05,2.65,5.72,5.64,5.72a10.94,10.94,0,0,0,4.56-.85l.51,2.14a13.48,13.48,0,0,1-5.48,1c-5.06,0-8.09-3.33-8.09-8.3s2.93-8.87,7.72-8.87c5.37,0,6.8,4.73,6.8,7.75a12.08,12.08,0,0,1-.1,1.39Zm8.77-2.14c0-1.9-.78-4.86-4.15-4.86-3,0-4.35,2.79-4.59,4.86Z"></path> <path class="cls-3" d="M468.34,198.9v14.21l1.7,0-.17,7.44h-2.35l-.14-5.23H456l-.14,5.23h-2.35l-.13-7.44,1.39,0a12.43,12.43,0,0,0,1.63-3.36,21.6,21.6,0,0,0,1-6.56V198.9Zm-8.33,5a22,22,0,0,1-.85,6.12,15.78,15.78,0,0,1-1.33,3.06h7.58v-11.9H460Z"></path> <path class="cls-3" d="M485.2,214.75a11.11,11.11,0,0,1-4.72.95c-5,0-8.2-3.37-8.2-8.4s3.47-8.74,8.84-8.74a10.15,10.15,0,0,1,4.15.85l-.68,2.31a7,7,0,0,0-3.47-.78c-3.77,0-5.81,2.79-5.81,6.22,0,3.81,2.45,6.16,5.71,6.16a8.4,8.4,0,0,0,3.67-.82Z"></path> <path class="cls-3" d="M500.36,198.9v2.38h-5.13v14.08h-3V201.28h-5.13V198.9Z"></path> <path class="cls-3" d="M502.92,199.11a34,34,0,0,1,5.23-.38c2.75,0,7.31.45,7.31,4.12,0,2-1.56,3.29-3.43,3.7v.07c2.41.34,4.18,1.7,4.18,4.08,0,4.32-5.44,4.86-8.67,4.86-1.84,0-3.74-.13-4.62-.2Zm2.82,14.28a18.45,18.45,0,0,0,2.41.13c2,0,5-.47,5-2.85s-2.38-2.89-5.24-2.89h-2.17Zm0-7.59H508c2.21,0,4.49-.64,4.49-2.58,0-1.63-1.43-2.41-4.42-2.41-1,0-1.6.07-2.31.13Z"></path> <path class="cls-3" d="M529.09,215.36l-.23-2.08h-.11a6.09,6.09,0,0,1-5,2.45,4.68,4.68,0,0,1-5-4.72c0-4,3.54-6.16,9.89-6.12v-.34c0-1.36-.37-3.81-3.74-3.81a8.27,8.27,0,0,0-4.28,1.22l-.68-2a10.25,10.25,0,0,1,5.41-1.46c5,0,6.25,3.43,6.25,6.73v6.15a23.65,23.65,0,0,0,.27,4Zm-.44-8.4c-3.26-.07-7,.51-7,3.71a2.65,2.65,0,0,0,2.82,2.85,4.09,4.09,0,0,0,4-2.75,3.23,3.23,0,0,0,.17-1Z"></path> <path class="cls-3" d="M536.54,198.9h3.67l3,8.3c.41,1.22,1.13,3.23,1.5,4.52h.07c.37-1.22,1.29-3.84,1.94-5.64l2.65-7.18h3.7l1.16,16.46h-2.86L551,207.5c-.1-1.76-.24-3.87-.31-5.88h-.1c-.44,1.5-.88,2.82-1.8,5.34l-3.16,8.3h-2.18l-2.92-8.13c-.51-1.56-1.23-3.94-1.63-5.47h-.14c-.07,1.94-.17,4.11-.27,5.91l-.41,7.79h-2.75Z"></path> <path class="cls-3" d="M560.85,198.9v6.94c0,2.62,0,4.25-.17,6.59l.1,0c1-2,1.57-3.16,2.65-5.07l5.14-8.5h3.5v16.46h-2.86v-7c0-2.69.07-4.08.21-6.73h-.11c-1,2.11-1.76,3.43-2.72,5.1-1.56,2.55-3.36,5.71-5.13,8.6H558V198.9Z"></path> <path class="cls-3" d="M58.68,239.7v14.21l1.7,0-.17,7.44H57.86l-.14-5.23H46.34l-.14,5.23H43.85L43.72,254l1.39,0a12.43,12.43,0,0,0,1.63-3.36,21.6,21.6,0,0,0,1-6.56V239.7Zm-8.33,5a22,22,0,0,1-.85,6.12,15.78,15.78,0,0,1-1.33,3.06h7.58V242h-5.4Z"></path> <path class="cls-3" d="M76.59,239.7v16.46h-3V242.05H68v4.28c0,4.63-.44,7.72-2.58,9.11a4.78,4.78,0,0,1-3.26,1l-.31-2.34a3.67,3.67,0,0,0,1.63-.68c1.53-1.12,1.7-3.44,1.7-7.11V239.7Z"></path> <path class="cls-3" d="M93.63,256.16h-3v-6.9H88.46a3.9,3.9,0,0,0-2.75.91c-1.23,1-1.67,3-2.32,4.63a9.58,9.58,0,0,1-.68,1.36H79.52a11.7,11.7,0,0,0,1-1.87c.71-1.6,1.12-3.74,2.58-5a4,4,0,0,1,1.87-.95v-.1c-2.14-.24-4.35-1.56-4.35-4.08a4,4,0,0,1,2.18-3.57,11.51,11.51,0,0,1,5.5-1.12,45.85,45.85,0,0,1,5.31.34Zm-3-14.48a15.72,15.72,0,0,0-2.48-.17c-2,0-4.46.57-4.46,2.85,0,2.11,2.62,2.86,4.39,2.86h2.55Z"></path> <path class="cls-3" d="M106.79,239.7l3.6,9.73c.37,1.08.78,2.38,1,3.36h.07c.31-1,.65-2.24,1.06-3.43l3.26-9.66H119l-4.49,11.73c-2.14,5.65-3.6,8.54-5.64,10.3a8.05,8.05,0,0,1-3.67,1.94l-.75-2.51a8,8,0,0,0,2.62-1.47,9.07,9.07,0,0,0,2.51-3.33,2,2,0,0,0,.24-.71,2.72,2.72,0,0,0-.2-.78l-6.09-15.17Z"></path> <path class="cls-3" d="M133.13,255.55a11.11,11.11,0,0,1-4.72.95c-5,0-8.19-3.37-8.19-8.4s3.46-8.74,8.84-8.74a10.1,10.1,0,0,1,4.14.85l-.68,2.31a7,7,0,0,0-3.46-.78c-3.78,0-5.82,2.79-5.82,6.22,0,3.81,2.45,6.16,5.71,6.16a8.4,8.4,0,0,0,3.67-.82Z"></path> <path class="cls-3" d="M148.3,239.7v2.38h-5.13v14.08h-3V242.08h-5.14V239.7Z"></path> <path class="cls-3" d="M150.92,245.07c0-2.1-.07-3.8-.14-5.37h2.69l.13,2.82h.07a6.48,6.48,0,0,1,5.85-3.19c4,0,7,3.36,7,8.36,0,5.92-3.61,8.84-7.48,8.84a5.78,5.78,0,0,1-5.07-2.58h-.06v8.94h-3Zm3,4.39a6.52,6.52,0,0,0,.13,1.22,4.63,4.63,0,0,0,4.49,3.51c3.16,0,5-2.59,5-6.36,0-3.3-1.74-6.12-4.9-6.12a4.77,4.77,0,0,0-4.52,3.7,5,5,0,0,0-.2,1.23Z"></path> <path class="cls-3" d="M179.37,256.16l-.23-2.08H179a6.09,6.09,0,0,1-5,2.45,4.68,4.68,0,0,1-5-4.72c0-4,3.54-6.16,9.89-6.12v-.34c0-1.36-.37-3.81-3.74-3.81a8.29,8.29,0,0,0-4.28,1.22l-.68-2a10.25,10.25,0,0,1,5.41-1.46c5,0,6.25,3.43,6.25,6.73v6.15a23.65,23.65,0,0,0,.27,4Zm-.44-8.4c-3.26-.07-7,.51-7,3.71a2.65,2.65,0,0,0,2.83,2.85,4.08,4.08,0,0,0,4-2.75,3.23,3.23,0,0,0,.17-.95Z"></path> <path class="cls-3" d="M189.54,239.7v6.63h7.82V239.7h3v16.46h-3v-7.45h-7.82v7.45h-3V239.7Z"></path> <path class="cls-3" d="M206.88,248.47c.07,4.05,2.65,5.72,5.64,5.72a10.9,10.9,0,0,0,4.56-.85l.51,2.14a13.42,13.42,0,0,1-5.47,1c-5.07,0-8.1-3.33-8.1-8.3s2.93-8.87,7.72-8.87c5.37,0,6.8,4.73,6.8,7.75a12.08,12.08,0,0,1-.1,1.39Zm8.77-2.14c0-1.9-.78-4.86-4.15-4.86-3,0-4.35,2.79-4.59,4.86Z"></path> <path class="cls-3" d="M225.14,239.7v6.63H233V239.7h3v16.46h-3v-7.45h-7.82v7.45h-3V239.7Z"></path> <path class="cls-3" d="M243.57,239.7v6.94c0,2.62,0,4.25-.17,6.59l.1,0c1-2,1.56-3.16,2.65-5.07l5.13-8.5h3.5v16.46h-2.85v-7c0-2.69.07-4.08.2-6.73H252c-1.05,2.1-1.77,3.43-2.72,5.1-1.56,2.55-3.36,5.71-5.13,8.6h-3.44V239.7Z"></path> <path class="cls-3" d="M271.78,256.16h-2.95v-6.9h-2.21a3.94,3.94,0,0,0-2.76.91c-1.22,1-1.66,3-2.31,4.63a9.58,9.58,0,0,1-.68,1.36h-3.19a11.7,11.7,0,0,0,1-1.87c.71-1.6,1.12-3.74,2.58-5a4,4,0,0,1,1.87-.95v-.1c-2.14-.24-4.35-1.56-4.35-4.08a4,4,0,0,1,2.17-3.57,11.56,11.56,0,0,1,5.51-1.12,45.67,45.67,0,0,1,5.3.34Zm-2.95-14.48a15.76,15.76,0,0,0-2.49-.17c-2,0-4.45.57-4.45,2.85,0,2.11,2.62,2.86,4.39,2.86h2.55Z"></path> <path class="cls-3" d="M285.21,246.6h1.43c2.52,0,4.22-1.15,4.22-2.68s-1.33-2.38-3.2-2.38a8,8,0,0,0-4,1.15l-.74-1.83a10.44,10.44,0,0,1,5.47-1.5c2.52,0,5.58,1.13,5.58,4.32,0,2-1.87,3.37-3.71,3.74v.07c2.45.2,4.49,1.7,4.49,4.11,0,3.57-3.64,4.9-7.11,4.9a11.19,11.19,0,0,1-5.33-1.33l.78-2a9.54,9.54,0,0,0,4.35,1.12c2.48,0,4-1.19,4-2.82,0-2.21-2.31-2.83-4.79-2.83h-1.5Z"></path> <path class="cls-3" d="M307.62,256.16l-.24-2.08h-.1a6.12,6.12,0,0,1-5,2.45,4.68,4.68,0,0,1-5-4.72c0-4,3.53-6.16,9.89-6.12v-.34c0-1.36-.37-3.81-3.74-3.81a8.24,8.24,0,0,0-4.28,1.22l-.68-2a10.24,10.24,0,0,1,5.4-1.46c5,0,6.26,3.43,6.26,6.73v6.15a23.65,23.65,0,0,0,.27,4Zm-.44-8.4c-3.27-.07-7,.51-7,3.71a2.65,2.65,0,0,0,2.82,2.85,4.1,4.1,0,0,0,4-2.75,3.23,3.23,0,0,0,.17-.95Z"></path> <path class="cls-3" d="M326.62,255.55a11.11,11.11,0,0,1-4.72.95c-5,0-8.19-3.37-8.19-8.4s3.46-8.74,8.84-8.74a10.1,10.1,0,0,1,4.14.85l-.68,2.31a7,7,0,0,0-3.46-.78c-3.78,0-5.82,2.79-5.82,6.22,0,3.81,2.45,6.16,5.71,6.16a8.45,8.45,0,0,0,3.68-.82Z"></path> <path class="cls-3" d="M344.81,247.79c0,6.09-4.21,8.74-8.19,8.74-4.45,0-7.89-3.26-7.89-8.46,0-5.51,3.61-8.74,8.16-8.74C341.62,239.33,344.81,242.76,344.81,247.79Zm-13.05.17c0,3.61,2.07,6.33,5,6.33s5-2.69,5-6.39c0-2.79-1.39-6.33-4.92-6.33S331.76,244.84,331.76,248Z"></path> <path class="cls-3" d="M348.59,245.07c0-2.1-.07-3.8-.14-5.37h2.69l.14,2.82h.06a6.49,6.49,0,0,1,5.85-3.19c4,0,7,3.36,7,8.36,0,5.92-3.6,8.84-7.48,8.84a5.76,5.76,0,0,1-5.06-2.58h-.07v8.94h-3Zm3,4.39a7.48,7.48,0,0,0,.13,1.22,4.63,4.63,0,0,0,4.49,3.51c3.16,0,5-2.59,5-6.36,0-3.3-1.73-6.12-4.9-6.12a4.77,4.77,0,0,0-4.52,3.7,5,5,0,0,0-.2,1.23Z"></path> <path class="cls-3" d="M377.05,256.16l-.24-2.08h-.1a6.12,6.12,0,0,1-5,2.45,4.69,4.69,0,0,1-5-4.72c0-4,3.54-6.16,9.9-6.12v-.34c0-1.36-.38-3.81-3.74-3.81a8.3,8.3,0,0,0-4.29,1.22l-.68-2a10.27,10.27,0,0,1,5.41-1.46c5,0,6.26,3.43,6.26,6.73v6.15a22.63,22.63,0,0,0,.27,4Zm-.45-8.4c-3.26-.07-7,.51-7,3.71a2.65,2.65,0,0,0,2.82,2.85,4.1,4.1,0,0,0,4-2.75,3.21,3.21,0,0,0,.16-.95Z"></path> </g> </g> </svg> 