<?xml version="1.0" encoding="UTF-8"?> <svg xmlns="http://www.w3.org/2000/svg" viewBox="0 0 642 302.49"> <defs> <style>.cls-1{fill:#ccf5ff;}.cls-2{fill:#29abe2;}.cls-3{fill:#1a1a1a;}</style> </defs> <title>Ресурс 3</title> <g id="Слой_2" data-name="Слой 2"> <g id="Слой_1-2" data-name="Слой 1"> <path class="cls-1" d="M560.18,299.49a.76.76,0,0,1-.46-.16l-38.17-26.79a3.05,3.05,0,0,0-1.73-.54H57.48A54.54,54.54,0,0,1,3,217.52v-160A54.54,54.54,0,0,1,57.48,3h527A54.54,54.54,0,0,1,639,57.48v160A54.54,54.54,0,0,1,584.52,272H564a3,3,0,0,0-3,3v23.67a.75.75,0,0,1-.24.58A.86.86,0,0,1,560.18,299.49Z"></path> <path class="cls-2" d="M584.52,6A51.53,51.53,0,0,1,636,57.48v160A51.53,51.53,0,0,1,584.52,269H564a6,6,0,0,0-6,6v19.46l-34.73-24.37a6,6,0,0,0-3.45-1.09H57.48A51.53,51.53,0,0,1,6,217.52v-160A51.53,51.53,0,0,1,57.48,6h527m0-6h-527A57.47,57.47,0,0,0,0,57.48v160A57.47,57.47,0,0,0,57.48,275H519.82L558,301.79a3.76,3.76,0,0,0,2.18.7,3.82,3.82,0,0,0,3.82-3.82V275h20.52A57.47,57.47,0,0,0,642,217.52v-160A57.47,57.47,0,0,0,584.52,0Z"></path> <path class="cls-3" d="M49.74,64.89,47.36,72.1H44.3l7.78-22.92h3.57L63.47,72.1H60.31l-2.45-7.21Zm7.51-2.31L55,56c-.51-1.49-.85-2.85-1.19-4.18h-.06c-.34,1.36-.72,2.76-1.16,4.15l-2.24,6.63Z"></path> <path class="cls-3" d="M74.62,62.71h8.3a5.27,5.27,0,0,0-5.68-5.13,9.15,9.15,0,0,0-3.94.92l-.65-1.94a10.75,10.75,0,0,1,5.07-1.29,8.14,8.14,0,0,1,6,2.35,9,9,0,0,1,2.24,6.32c0,4.79-3.16,8.53-8.73,8.53a10.75,10.75,0,0,1-4.8-1.12L73,69.21a10,10,0,0,0,4.11.88,5.47,5.47,0,0,0,5.78-5.34H74.62Z"></path> <path class="cls-3" d="M100.56,55.64V58H95.43V72.1h-3V58H87.34V55.64Z"></path> <path class="cls-3" d="M117.63,63.73c0,6.09-4.21,8.74-8.19,8.74-4.46,0-7.89-3.26-7.89-8.46,0-5.51,3.6-8.74,8.16-8.74C114.44,55.27,117.63,58.7,117.63,63.73Zm-13,.17c0,3.61,2.07,6.33,5,6.33s5-2.69,5-6.39c0-2.79-1.39-6.33-4.93-6.33S104.58,60.78,104.58,63.9Z"></path> <path class="cls-3" d="M131.5,49.18v9.66c0,3.64-.06,6.63-.27,9.69l.07,0c1.16-2.38,2.58-4.86,4.25-7.58L143,49.18h3V72.1h-2.79V62.34c0-3.71,0-6.42.27-9.31l-.1,0a68.21,68.21,0,0,1-4.25,7.72L131.88,72.1h-3.16V49.18Z"></path> <path class="cls-3" d="M150.92,55.85a34.1,34.1,0,0,1,5.23-.38c2.76,0,7.31.45,7.31,4.12,0,2-1.56,3.29-3.43,3.7v.07c2.41.34,4.18,1.7,4.18,4.08,0,4.32-5.44,4.86-8.67,4.86-1.83,0-3.74-.13-4.62-.2Zm2.82,14.28a18.45,18.45,0,0,0,2.41.13c2,0,5-.47,5-2.85s-2.38-2.89-5.23-2.89h-2.18Zm0-7.59H156c2.21,0,4.49-.64,4.49-2.58,0-1.63-1.43-2.41-4.42-2.41-1,0-1.6.07-2.32.13Z"></path> <path class="cls-3" d="M177.1,72.1,176.86,70h-.1a6.12,6.12,0,0,1-5,2.45,4.69,4.69,0,0,1-5-4.72c0-4,3.54-6.16,9.9-6.12v-.34c0-1.36-.38-3.81-3.74-3.81a8.3,8.3,0,0,0-4.29,1.22l-.68-2a10.27,10.27,0,0,1,5.41-1.46c5,0,6.25,3.43,6.25,6.73v6.15a22.56,22.56,0,0,0,.28,3.95Zm-.44-8.4c-3.27-.07-7,.51-7,3.71a2.65,2.65,0,0,0,2.82,2.85,4.1,4.1,0,0,0,4-2.75,3.23,3.23,0,0,0,.17-1Z"></path> <path class="cls-3" d="M187.26,55.64v6.63h7.82V55.64h3V72.1h-3V64.65h-7.82V72.1h-2.95V55.64Z"></path> <path class="cls-3" d="M201,76.28a48.29,48.29,0,0,0,2-8.13l3.33-.34a41.59,41.59,0,0,1-3.23,8.27Z"></path> <path class="cls-3" d="M220.07,49.18v9.66c0,3.64-.07,6.63-.27,9.69l.07,0c1.15-2.38,2.58-4.86,4.25-7.58l7.41-11.8h3V72.1H231.7V62.34c0-3.71,0-6.42.27-9.31l-.1,0a69.82,69.82,0,0,1-4.25,7.72L220.45,72.1h-3.17V49.18Z"></path> <path class="cls-3" d="M239.49,55.85a34,34,0,0,1,5.23-.38c2.76,0,7.31.45,7.31,4.12,0,2-1.56,3.29-3.43,3.7v.07c2.41.34,4.18,1.7,4.18,4.08,0,4.32-5.44,4.86-8.67,4.86-1.84,0-3.74-.13-4.62-.2Zm2.82,14.28a18.45,18.45,0,0,0,2.41.13c2,0,5-.47,5-2.85s-2.38-2.89-5.24-2.89h-2.17Zm0-7.59h2.25c2.21,0,4.48-.64,4.48-2.58,0-1.63-1.42-2.41-4.42-2.41-1,0-1.59.07-2.31.13Z"></path> <path class="cls-3" d="M265.67,72.1,265.43,70h-.1a6.12,6.12,0,0,1-5,2.45,4.68,4.68,0,0,1-5-4.72c0-4,3.54-6.16,9.9-6.12v-.34c0-1.36-.38-3.81-3.74-3.81a8.3,8.3,0,0,0-4.29,1.22l-.68-2a10.25,10.25,0,0,1,5.41-1.46c5,0,6.25,3.43,6.25,6.73v6.15a23.65,23.65,0,0,0,.27,3.95Zm-.45-8.4c-3.26-.07-7,.51-7,3.71a2.65,2.65,0,0,0,2.83,2.85,4.08,4.08,0,0,0,4-2.75,2.93,2.93,0,0,0,.17-1Z"></path> <path class="cls-3" d="M275.83,55.64v6.63h7.82V55.64h3V72.1h-3V64.65h-7.82V72.1h-3V55.64Z"></path> <path class="cls-3" d="M298.6,72.1v-18h7.29a10.08,10.08,0,0,1,5.61,1.29,4.17,4.17,0,0,1,1.93,3.7,3.55,3.55,0,0,1-.77,2.23,4.93,4.93,0,0,1-2.28,1.52,5,5,0,0,1,2.78,1.47,3.74,3.74,0,0,1,1,2.63,4.38,4.38,0,0,1-1.85,3.82A9.16,9.16,0,0,1,307,72.1Zm4-10.54H306c2.29,0,3.44-.68,3.44-2s-1.09-2.15-3.26-2.19h-3.5Zm0,2.88v4.47h4.42c2.06,0,3.1-.74,3.1-2.22s-1.05-2.25-3.15-2.25Z"></path> <path class="cls-3" d="M322,59.85H326a9.07,9.07,0,0,1,3.86.76,5.65,5.65,0,0,1,2.49,2.14,6,6,0,0,1,.86,3.21,5.54,5.54,0,0,1-2,4.44A7.79,7.79,0,0,1,326,72.1h-8v-18h4Zm0,3.23v5.8H326a3.46,3.46,0,0,0,2.33-.74,2.62,2.62,0,0,0,.86-2.1,2.79,2.79,0,0,0-.84-2.15,3.22,3.22,0,0,0-2.27-.81Zm18.18,9h-4v-18h4Z"></path> <path class="cls-3" d="M358.62,59.05a3.69,3.69,0,0,1-.72,2.2,5,5,0,0,1-2,1.6A4.12,4.12,0,0,1,359,67a4.63,4.63,0,0,1-2,3.94,8.91,8.91,0,0,1-5.38,1.47,9.86,9.86,0,0,1-3.75-.69,6,6,0,0,1-2.64-2,4.88,4.88,0,0,1-.94-3h4a2.22,2.22,0,0,0,1,1.83,4,4,0,0,0,2.48.74,3.71,3.71,0,0,0,2.35-.69,2.19,2.19,0,0,0,.87-1.8,2.23,2.23,0,0,0-.77-1.89,3.85,3.85,0,0,0-2.35-.58h-2.89V61.47h3q2.7,0,2.7-2.22a2.06,2.06,0,0,0-.78-1.71,3.36,3.36,0,0,0-2.14-.62,3.71,3.71,0,0,0-2.24.66,2,2,0,0,0-.91,1.65h-4a4.68,4.68,0,0,1,2-3.89,8.14,8.14,0,0,1,5.06-1.52,8.64,8.64,0,0,1,5.2,1.36A4.52,4.52,0,0,1,358.62,59.05Z"></path> <path class="cls-3" d="M362.69,72.1v-18H370a10.12,10.12,0,0,1,5.61,1.29,4.19,4.19,0,0,1,1.92,3.7,3.55,3.55,0,0,1-.77,2.23,4.88,4.88,0,0,1-2.28,1.52,5.09,5.09,0,0,1,2.79,1.47,3.79,3.79,0,0,1,1,2.63,4.39,4.39,0,0,1-1.86,3.82,9.14,9.14,0,0,1-5.32,1.31Zm4-10.54H370c2.29,0,3.44-.68,3.44-2s-1.09-2.15-3.26-2.19h-3.5Zm0,2.88v4.47h4.42c2.07,0,3.1-.74,3.1-2.22s-1.05-2.25-3.15-2.25Z"></path> <path class="cls-3" d="M392.49,72.1a6.4,6.4,0,0,1-.47-1.68,6.26,6.26,0,0,1-4.71,2,6.33,6.33,0,0,1-4.42-1.54,5,5,0,0,1-1.71-3.82,5.1,5.1,0,0,1,2.13-4.41,10.4,10.4,0,0,1,6.11-1.54h2.47V60a3.17,3.17,0,0,0-.78-2.24,3.08,3.08,0,0,0-2.37-.84,3.54,3.54,0,0,0-2.26.69,2.13,2.13,0,0,0-.88,1.75h-4a4.5,4.5,0,0,1,1-2.76,6.56,6.56,0,0,1,2.67-2A9.44,9.44,0,0,1,389,53.8a7.53,7.53,0,0,1,5,1.59,5.64,5.64,0,0,1,1.92,4.46V68a9.29,9.29,0,0,0,.68,3.87v.28Zm-4.44-2.91a4.55,4.55,0,0,0,2.25-.58,3.86,3.86,0,0,0,1.59-1.56V63.66h-2.18a6,6,0,0,0-3.37.78,2.53,2.53,0,0,0-1.12,2.21A2.33,2.33,0,0,0,386,68.5,3,3,0,0,0,388.05,69.19Z"></path> <path class="cls-3" d="M415.41,54.13v18h-4V57.39H406.3L406,63.65q-.32,4.51-1.74,6.48a5,5,0,0,1-4.34,2h-1.24l0-3.39.83-.08A2.38,2.38,0,0,0,401.39,67a16.81,16.81,0,0,0,.78-5.22l.33-7.66Z"></path> <path class="cls-3" d="M438.84,67.13l5.31-13h5.05v18h-4V60.21L440.22,72.1h-2.74l-5-12v12h-4v-18h5.08Z"></path> <path class="cls-3" d="M464.46,72.1a6,6,0,0,1-.47-1.68,6.79,6.79,0,0,1-9.13.47,5,5,0,0,1-1.71-3.82,5.1,5.1,0,0,1,2.13-4.41,10.39,10.39,0,0,1,6.1-1.54h2.48V60a3.17,3.17,0,0,0-.78-2.24,3.09,3.09,0,0,0-2.38-.84,3.51,3.51,0,0,0-2.25.69,2.13,2.13,0,0,0-.88,1.75h-4a4.5,4.5,0,0,1,1-2.76,6.52,6.52,0,0,1,2.66-2,9.53,9.53,0,0,1,3.77-.73,7.54,7.54,0,0,1,5,1.59,5.64,5.64,0,0,1,1.92,4.46V68a9.29,9.29,0,0,0,.68,3.87v.28ZM460,69.19a4.55,4.55,0,0,0,2.25-.58,4,4,0,0,0,1.59-1.56V63.66h-2.18a6,6,0,0,0-3.37.78,2.54,2.54,0,0,0-1.13,2.21A2.34,2.34,0,0,0,458,68.5,3,3,0,0,0,460,69.19Z"></path> <path class="cls-3" d="M479.5,69.21a3.62,3.62,0,0,0,2.5-.88,3,3,0,0,0,1.07-2.18h3.8a6,6,0,0,1-1.05,3.13,6.83,6.83,0,0,1-2.65,2.3,7.87,7.87,0,0,1-3.62.85,7.64,7.64,0,0,1-6-2.44,9.69,9.69,0,0,1-2.21-6.74v-.42a9.51,9.51,0,0,1,2.19-6.56,7.58,7.58,0,0,1,6-2.47,7.39,7.39,0,0,1,5.22,1.87,6.73,6.73,0,0,1,2.12,4.91h-3.8A3.71,3.71,0,0,0,482,58a3.38,3.38,0,0,0-2.51-1,3.55,3.55,0,0,0-3,1.42,7.31,7.31,0,0,0-1.07,4.31v.65a7.36,7.36,0,0,0,1.05,4.35A3.54,3.54,0,0,0,479.5,69.21Z"></path> <path class="cls-3" d="M504.05,57.34h-5.83V72.1h-4V57.34h-5.76V54.13h15.62Z"></path> <path class="cls-3" d="M513.58,72.43A8.35,8.35,0,0,1,507.36,70,8.74,8.74,0,0,1,505,63.58v-.5a10.78,10.78,0,0,1,1-4.8,7.93,7.93,0,0,1,2.91-3.3,7.76,7.76,0,0,1,4.18-1.18,7,7,0,0,1,5.67,2.34c1.34,1.56,2,3.77,2,6.63v1.62H509.05a5.35,5.35,0,0,0,1.48,3.52,4.44,4.44,0,0,0,3.28,1.3A5.48,5.48,0,0,0,518.33,67L520.5,69a7.21,7.21,0,0,1-2.88,2.5A9,9,0,0,1,513.58,72.43ZM513.1,57a3.4,3.4,0,0,0-2.68,1.16,6.08,6.08,0,0,0-1.31,3.24h7.69v-.3a4.9,4.9,0,0,0-1.08-3.06A3.37,3.37,0,0,0,513.1,57Z"></path> <path class="cls-3" d="M539.64,63.3A10.72,10.72,0,0,1,537.75,70a6.58,6.58,0,0,1-9.81.54V79h-4V54.13h3.71l.17,1.83a5.91,5.91,0,0,1,4.83-2.16,6.15,6.15,0,0,1,5.16,2.45,11,11,0,0,1,1.86,6.8Zm-4-.35a7.56,7.56,0,0,0-1.07-4.27,3.5,3.5,0,0,0-3.07-1.57,3.71,3.71,0,0,0-3.55,2v8a3.76,3.76,0,0,0,3.59,2.09,3.49,3.49,0,0,0,3-1.55A8.32,8.32,0,0,0,535.63,63Z"></path> <path class="cls-3" d="M553.79,72.1a6.4,6.4,0,0,1-.47-1.68,6.26,6.26,0,0,1-4.71,2,6.33,6.33,0,0,1-4.42-1.54,5,5,0,0,1-1.71-3.82,5.08,5.08,0,0,1,2.14-4.41,10.35,10.35,0,0,1,6.1-1.54h2.47V60a3.17,3.17,0,0,0-.78-2.24,3.08,3.08,0,0,0-2.37-.84,3.56,3.56,0,0,0-2.26.69,2.13,2.13,0,0,0-.88,1.75h-4a4.5,4.5,0,0,1,1-2.76,6.56,6.56,0,0,1,2.67-2,9.44,9.44,0,0,1,3.76-.73,7.53,7.53,0,0,1,5,1.59,5.64,5.64,0,0,1,1.92,4.46V68a9.12,9.12,0,0,0,.69,3.87v.28Zm-4.43-2.91a4.6,4.6,0,0,0,2.25-.58,3.89,3.89,0,0,0,1.58-1.56V63.66H551a5.93,5.93,0,0,0-3.37.78,2.52,2.52,0,0,0-1.13,2.21,2.33,2.33,0,0,0,.77,1.85A3,3,0,0,0,549.36,69.19Z"></path> <path class="cls-3" d="M50.1,103.93v9H45.9V88.73h9.25a9.33,9.33,0,0,1,6.43,2.11A7.09,7.09,0,0,1,64,96.42,6.87,6.87,0,0,1,61.63,102a9.83,9.83,0,0,1-6.53,2Zm0-3.38h5a5,5,0,0,0,3.42-1.06,3.85,3.85,0,0,0,1.18-3,4.17,4.17,0,0,0-1.2-3.13,4.58,4.58,0,0,0-3.28-1.21H50.1Z"></path> <path class="cls-3" d="M81.63,94.93v18h-4v-6.59H73.84L70,112.9H65.82l4.24-7.26a5.6,5.6,0,0,1-2.55-2,5.35,5.35,0,0,1,1-7.08,8.08,8.08,0,0,1,5.22-1.64Zm-11,5.85a2.3,2.3,0,0,0,.83,1.83,3.24,3.24,0,0,0,2.15.71h4V98.14H73.89a3.49,3.49,0,0,0-2.35.75A2.34,2.34,0,0,0,70.66,100.78Z"></path> <path class="cls-3" d="M86.18,109.68a10.65,10.65,0,0,0,2.25-3.56,16,16,0,0,0,.69-4.31l.23-6.88h12.47v14.75h2.49v8.56h-4V112.9H88.77v5.34H84.68l0-8.56Zm4.73,0H97.8V98.4H93.27l-.12,3.44A14.74,14.74,0,0,1,90.91,109.68Z"></path> <path class="cls-3" d="M106.43,103.75a10.57,10.57,0,0,1,1-4.76,7.61,7.61,0,0,1,2.94-3.25,8.26,8.26,0,0,1,4.35-1.14,7.85,7.85,0,0,1,5.9,2.34,9.25,9.25,0,0,1,2.45,6.21v.95a10.72,10.72,0,0,1-1,4.75,7.51,7.51,0,0,1-2.92,3.23,8.29,8.29,0,0,1-4.39,1.15,7.8,7.8,0,0,1-6.09-2.53,9.71,9.71,0,0,1-2.28-6.75Zm4,.35a7.26,7.26,0,0,0,1.14,4.34A3.73,3.73,0,0,0,114.8,110a3.69,3.69,0,0,0,3.18-1.59,8,8,0,0,0,1.14-4.67A7.18,7.18,0,0,0,118,99.43a3.75,3.75,0,0,0-3.18-1.59,3.69,3.69,0,0,0-3.14,1.57A7.8,7.8,0,0,0,110.47,104.1Z"></path> <path class="cls-3" d="M137.21,107.93l5.31-13h5v18h-4V101l-4.95,11.89h-2.74l-5-12v12h-4v-18h5.08Z"></path> <path class="cls-3" d="M174.17,99.85a3.63,3.63,0,0,1-.73,2.2,5,5,0,0,1-2,1.6,4.12,4.12,0,0,1,3.09,4.17,4.63,4.63,0,0,1-2,3.94,8.91,8.91,0,0,1-5.38,1.47,9.86,9.86,0,0,1-3.75-.69,6,6,0,0,1-2.64-2,4.91,4.91,0,0,1-.95-3h4a2.22,2.22,0,0,0,1,1.83,3.94,3.94,0,0,0,2.47.74,3.67,3.67,0,0,0,2.35-.69,2.19,2.19,0,0,0,.87-1.8,2.23,2.23,0,0,0-.76-1.89,3.87,3.87,0,0,0-2.36-.58h-2.89v-2.91h3c1.81,0,2.71-.76,2.71-2.22a2.06,2.06,0,0,0-.78-1.71,3.38,3.38,0,0,0-2.14-.62,3.69,3.69,0,0,0-2.24.66,2,2,0,0,0-.92,1.65h-4a4.68,4.68,0,0,1,2-3.89,8.12,8.12,0,0,1,5.06-1.52,8.64,8.64,0,0,1,5.2,1.36A4.52,4.52,0,0,1,174.17,99.85Z"></path> <path class="cls-3" d="M188.66,112.9a6.4,6.4,0,0,1-.47-1.68,6.26,6.26,0,0,1-4.71,2,6.4,6.4,0,0,1-4.42-1.54,5,5,0,0,1-1.71-3.82,5.08,5.08,0,0,1,2.14-4.41,10.35,10.35,0,0,1,6.1-1.54h2.47v-1.17a3.17,3.17,0,0,0-.78-2.24,3.08,3.08,0,0,0-2.37-.84,3.56,3.56,0,0,0-2.26.69,2.13,2.13,0,0,0-.88,1.75h-4a4.44,4.44,0,0,1,1-2.76,6.52,6.52,0,0,1,2.66-2,9.48,9.48,0,0,1,3.76-.73,7.53,7.53,0,0,1,5,1.59,5.68,5.68,0,0,1,1.93,4.46v8.1a9.14,9.14,0,0,0,.68,3.87v.28ZM184.23,110a4.6,4.6,0,0,0,2.25-.58,3.89,3.89,0,0,0,1.58-1.56v-3.39h-2.17a5.93,5.93,0,0,0-3.37.78,2.52,2.52,0,0,0-1.13,2.21,2.36,2.36,0,0,0,.77,1.85A3,3,0,0,0,184.23,110Z"></path> <path class="cls-3" d="M205.61,100.91l1.31-12.18h13v3.48h-9.63L209.61,98a7.49,7.49,0,0,1,3.79-1,6.74,6.74,0,0,1,5.37,2.2,8.82,8.82,0,0,1,1.91,6,8.06,8.06,0,0,1-2.12,5.87,7.78,7.78,0,0,1-5.83,2.18,8.14,8.14,0,0,1-5.5-1.88,6.81,6.81,0,0,1-2.37-5h3.9a4.25,4.25,0,0,0,1.27,2.7,3.8,3.8,0,0,0,2.69.94,3.45,3.45,0,0,0,2.89-1.33,5.73,5.73,0,0,0,1-3.62,5,5,0,0,0-1.15-3.49,4,4,0,0,0-3.15-1.29,5.34,5.34,0,0,0-1.86.29,5.14,5.14,0,0,0-1.66,1.14Z"></path> <path class="cls-3" d="M239.61,102.72q0,5.22-2,7.86a6.88,6.88,0,0,1-5.94,2.65,7,7,0,0,1-5.9-2.58q-2-2.58-2-7.65V98.82c0-3.48.65-6.08,2-7.82a8.13,8.13,0,0,1,11.87-.07c1.3,1.7,2,4.23,2,7.61Zm-4-4.51a10.21,10.21,0,0,0-.93-5,3.55,3.55,0,0,0-5.86-.09,9.45,9.45,0,0,0-1,4.69v5.48a10.53,10.53,0,0,0,.94,5,3.17,3.17,0,0,0,3,1.66,3.12,3.12,0,0,0,2.88-1.54,9.91,9.91,0,0,0,1-4.8Z"></path> <path class="cls-3" d="M258.93,102.72q0,5.22-1.95,7.86a6.88,6.88,0,0,1-5.93,2.65,7,7,0,0,1-5.9-2.58c-1.33-1.72-2-4.27-2-7.65V98.82c0-3.48.65-6.08,1.95-7.82a8.13,8.13,0,0,1,11.87-.07c1.3,1.7,2,4.23,2,7.61Zm-4-4.51a10.21,10.21,0,0,0-.93-5,3.55,3.55,0,0,0-5.86-.09,9.45,9.45,0,0,0-1,4.69v5.48a10.51,10.51,0,0,0,1,5,3.17,3.17,0,0,0,3,1.66,3.12,3.12,0,0,0,2.87-1.54,9.79,9.79,0,0,0,1-4.8Z"></path> <path class="cls-3" d="M287,104.1a10.65,10.65,0,0,1-1.9,6.65,6.58,6.58,0,0,1-9.81.54v8.51h-4V94.93h3.72l.16,1.83a5.94,5.94,0,0,1,4.84-2.16,6.13,6.13,0,0,1,5.15,2.45,11,11,0,0,1,1.87,6.8Zm-4-.35a7.56,7.56,0,0,0-1.07-4.27,3.48,3.48,0,0,0-3.06-1.57,3.72,3.72,0,0,0-3.56,2v8a3.76,3.76,0,0,0,3.59,2.09,3.48,3.48,0,0,0,3-1.55A8.23,8.23,0,0,0,282.94,103.75Z"></path> <path class="cls-3" d="M296.47,107.12l3.65-12.19h4.3l-7.14,20.69q-1.63,4.53-5.57,4.53a7.24,7.24,0,0,1-1.95-.3v-3.13l.77,0a4,4,0,0,0,2.3-.56,3.7,3.7,0,0,0,1.22-1.87l.58-1.54-6.31-17.87h4.35Z"></path> <path class="cls-3" d="M315.2,95.93a7,7,0,0,1,5.43,2.27,8.85,8.85,0,0,1,2,6.15v.2a8.92,8.92,0,0,1-2.22,6.29,8.6,8.6,0,0,1-12,0,9.47,9.47,0,0,1-2.28-6.71v-1.16q0-5.81,2.06-9.2a9,9,0,0,1,6.14-4.23,8.18,8.18,0,0,0,3-1,1.72,1.72,0,0,0,.67-1.42h3.25a5.9,5.9,0,0,1-.54,2.72,4.31,4.31,0,0,1-1.68,1.71,14.3,14.3,0,0,1-3.89,1.23,7.33,7.33,0,0,0-3.84,1.9,7.12,7.12,0,0,0-1.77,3.76A7.68,7.68,0,0,1,315.2,95.93Zm-.8,3.24a3.79,3.79,0,0,0-3.07,1.32,6.21,6.21,0,0,0-1.11,4.06,6.54,6.54,0,0,0,1.09,4,4.07,4.07,0,0,0,6.24,0,7.21,7.21,0,0,0,1.1-4.37,5.68,5.68,0,0,0-1.1-3.68A3.85,3.85,0,0,0,314.4,99.17Z"></path> <path class="cls-3" d="M341.08,94.93v18h-4V98.19H332l-.33,6.26q-.31,4.51-1.73,6.48a5,5,0,0,1-4.34,2h-1.25l0-3.39.83-.08a2.41,2.41,0,0,0,1.94-1.62,17.2,17.2,0,0,0,.77-5.22l.33-7.66Z"></path> <path class="cls-3" d="M353.28,113.23a8.35,8.35,0,0,1-6.22-2.42,8.78,8.78,0,0,1-2.38-6.43v-.5a10.78,10.78,0,0,1,1-4.8,7.93,7.93,0,0,1,2.91-3.3,7.77,7.77,0,0,1,4.19-1.18,7.07,7.07,0,0,1,5.67,2.34,9.93,9.93,0,0,1,2,6.63v1.62H348.75a5.4,5.4,0,0,0,1.48,3.52,4.45,4.45,0,0,0,3.28,1.3,5.48,5.48,0,0,0,4.52-2.24l2.17,2.07a7.21,7.21,0,0,1-2.88,2.5A9,9,0,0,1,353.28,113.23Zm-.48-15.39A3.4,3.4,0,0,0,350.12,99a6.08,6.08,0,0,0-1.31,3.24h7.69v-.3a4.9,4.9,0,0,0-1.08-3.06A3.37,3.37,0,0,0,352.8,97.84Z"></path> <path class="cls-3" d="M374.83,94.93h4v18h-4v-12l-7,12h-4v-18h4v12ZM376.72,88a4.32,4.32,0,0,1-1.46,3.39,6.5,6.5,0,0,1-7.8,0A4.28,4.28,0,0,1,366,88h3a2.23,2.23,0,0,0,.62,1.68,2.39,2.39,0,0,0,1.72.6,2.34,2.34,0,0,0,1.71-.6,2.22,2.22,0,0,0,.61-1.68Z"></path> <path class="cls-3" d="M381.62,117.08a50.29,50.29,0,0,0,2-8.13l3.33-.34a41.59,41.59,0,0,1-3.23,8.27Z"></path> <path class="cls-3" d="M400.69,90v7.28c0,3.13,1.63,4.89,4.86,4.89a9,9,0,0,0,4.52-1.29V90h3V112.9h-3v-9.73H410a11,11,0,0,1-5.5,1.43c-3,0-6.77-1.29-6.77-6.9V90Z"></path> <path class="cls-3" d="M419.76,105.21c.07,4.05,2.65,5.72,5.65,5.72a10.88,10.88,0,0,0,4.55-.85l.51,2.14a13.38,13.38,0,0,1-5.47,1c-5.07,0-8.09-3.33-8.09-8.3s2.92-8.87,7.71-8.87c5.38,0,6.8,4.72,6.8,7.75a12.08,12.08,0,0,1-.1,1.39Zm8.77-2.14c0-1.9-.78-4.86-4.14-4.86-3,0-4.36,2.79-4.59,4.86Z"></path> <path class="cls-3" d="M435.13,101.81c0-2.1-.07-3.8-.14-5.37h2.69l.14,2.82h.06a6.49,6.49,0,0,1,5.85-3.19c4,0,7,3.36,7,8.36,0,5.92-3.6,8.84-7.48,8.84a5.76,5.76,0,0,1-5.06-2.58h-.07v8.94h-3Zm3,4.39a7.48,7.48,0,0,0,.13,1.22,4.63,4.63,0,0,0,4.49,3.51c3.16,0,5-2.59,5-6.36,0-3.3-1.74-6.12-4.9-6.12a4.77,4.77,0,0,0-4.52,3.7,5,5,0,0,0-.2,1.23Z"></path> <path class="cls-3" d="M456.14,105.21c.07,4.05,2.65,5.72,5.65,5.72a10.88,10.88,0,0,0,4.55-.85l.51,2.14a13.38,13.38,0,0,1-5.47,1c-5.07,0-8.09-3.33-8.09-8.3s2.92-8.87,7.71-8.87c5.38,0,6.8,4.72,6.8,7.75a12.08,12.08,0,0,1-.1,1.39Zm8.77-2.14c0-1.9-.78-4.86-4.14-4.86-3,0-4.36,2.79-4.59,4.86Z"></path> <path class="cls-3" d="M473,103.34h1.43c2.52,0,4.22-1.15,4.22-2.68s-1.33-2.38-3.2-2.38a8,8,0,0,0-4,1.15l-.75-1.83a10.47,10.47,0,0,1,5.48-1.5c2.51,0,5.57,1.13,5.57,4.32,0,2-1.87,3.37-3.7,3.74v.07c2.44.2,4.48,1.7,4.48,4.11,0,3.57-3.63,4.9-7.1,4.9a11.23,11.23,0,0,1-5.34-1.33l.78-2a9.57,9.57,0,0,0,4.35,1.12c2.49,0,4.05-1.19,4.05-2.82,0-2.21-2.31-2.83-4.79-2.83H473Z"></path> <path class="cls-3" d="M493.24,109.46a9.92,9.92,0,0,0,4.89,1.4c3.84,0,5-2.45,5-4.29,0-3.09-2.82-4.42-5.71-4.42h-1.67V99.91h1.67c2.17,0,4.93-1.12,4.93-3.74,0-1.77-1.12-3.33-3.88-3.33a8.11,8.11,0,0,0-4.42,1.46l-.78-2.17a10.52,10.52,0,0,1,5.78-1.7c4.35,0,6.32,2.58,6.32,5.27,0,2.27-1.36,4.21-4.08,5.2V101a5.77,5.77,0,0,1,4.93,5.68c0,3.54-2.75,6.63-8.05,6.63a11.28,11.28,0,0,1-5.75-1.49Z"></path> <path class="cls-3" d="M524.65,101.61c0,7.51-2.79,11.66-7.68,11.66-4.32,0-7.24-4-7.31-11.35s3.19-11.49,7.68-11.49C522,90.43,524.65,94.57,524.65,101.61Zm-12,.34c0,5.75,1.77,9,4.49,9,3.06,0,4.52-3.57,4.52-9.21,0-5.44-1.4-9-4.49-9C514.55,92.74,512.65,95.93,512.65,102Z"></path> <path class="cls-3" d="M46.1,137.24h3.67l3,8.3c.41,1.22,1.12,3.23,1.5,4.52h.06c.38-1.22,1.3-3.84,1.94-5.64l2.65-7.18h3.71l1.16,16.46H60.92l-.37-7.86c-.11-1.76-.24-3.87-.31-5.88h-.1c-.44,1.5-.89,2.82-1.8,5.34l-3.17,8.3H53l-2.92-8.13c-.51-1.56-1.23-3.94-1.64-5.47h-.13c-.07,1.94-.17,4.11-.27,5.91l-.41,7.79H44.87Z"></path> <path class="cls-3" d="M70.41,137.24v6.94c0,2.62,0,4.25-.17,6.59l.1,0c1-2,1.56-3.16,2.65-5.07l5.13-8.5h3.51V153.7H78.77v-7c0-2.69.07-4.08.2-6.73h-.1c-1.05,2.11-1.77,3.43-2.72,5.1-1.56,2.55-3.36,5.71-5.13,8.6H67.58V137.24Z"></path> <path class="cls-3" d="M89.38,137.24v6.63H97.2v-6.63h3V153.7h-3v-7.45H89.38v7.45h-3V137.24Z"></path> <path class="cls-3" d="M106,137.24l3.61,9.73c.37,1.08.78,2.38,1,3.36h.07c.31-1,.65-2.24,1-3.43l3.27-9.66h3.16L113.72,149c-2.14,5.65-3.6,8.54-5.64,10.3a8.1,8.1,0,0,1-3.67,1.94l-.75-2.51a8,8,0,0,0,2.62-1.47,9.07,9.07,0,0,0,2.51-3.33,2,2,0,0,0,.24-.71,2.72,2.72,0,0,0-.2-.78l-6.09-15.17Z"></path> <path class="cls-3" d="M132.79,137.24v2.38h-5.13V153.7h-3V139.62h-5.13v-2.38Z"></path> <path class="cls-3" d="M143,137.24h3.67l3,8.3c.41,1.22,1.12,3.23,1.5,4.52h.07c.37-1.22,1.29-3.84,1.93-5.64l2.66-7.18h3.7l1.16,16.46h-2.86l-.37-7.86c-.1-1.76-.24-3.87-.31-5.88h-.1c-.44,1.5-.88,2.82-1.8,5.34l-3.16,8.3h-2.18L147,145.47c-.51-1.56-1.23-3.94-1.64-5.47h-.13c-.07,1.94-.17,4.11-.27,5.91l-.41,7.79H141.8Z"></path> <path class="cls-3" d="M173.7,153.7l-.24-2.08h-.1a6.12,6.12,0,0,1-5,2.45,4.68,4.68,0,0,1-5-4.72c0-4,3.54-6.16,9.9-6.12v-.34c0-1.36-.38-3.81-3.74-3.81a8.3,8.3,0,0,0-4.29,1.22l-.68-2a10.25,10.25,0,0,1,5.41-1.46c5,0,6.25,3.43,6.25,6.73v6.15a22.56,22.56,0,0,0,.28,3.95Zm-.45-8.4c-3.26-.07-7,.51-7,3.71a2.65,2.65,0,0,0,2.83,2.85,4.08,4.08,0,0,0,4-2.75,2.93,2.93,0,0,0,.17-1Z"></path> <path class="cls-3" d="M192.7,153.09A11.11,11.11,0,0,1,188,154c-5,0-8.2-3.37-8.2-8.4s3.47-8.74,8.84-8.74a10.15,10.15,0,0,1,4.15.85l-.68,2.31a7,7,0,0,0-3.47-.78c-3.77,0-5.81,2.79-5.81,6.22,0,3.81,2.45,6.16,5.71,6.16a8.4,8.4,0,0,0,3.67-.82Z"></path> <path class="cls-3" d="M207.86,137.24v2.38h-5.13V153.7h-3V139.62h-5.13v-2.38Z"></path> <path class="cls-3" d="M211.71,146c.07,4.05,2.65,5.72,5.64,5.72a11,11,0,0,0,4.56-.85l.51,2.14a13.48,13.48,0,0,1-5.48,1c-5.06,0-8.09-3.33-8.09-8.3s2.93-8.87,7.72-8.87c5.37,0,6.8,4.72,6.8,7.75a12.08,12.08,0,0,1-.1,1.39Zm8.77-2.14c0-1.9-.78-4.86-4.15-4.86-3,0-4.35,2.79-4.59,4.86Z"></path> <path class="cls-3" d="M227.08,142.61c0-2.1-.07-3.8-.14-5.37h2.68l.14,2.82h.07a6.47,6.47,0,0,1,5.85-3.19c4,0,7,3.37,7,8.36,0,5.92-3.61,8.84-7.48,8.84a5.78,5.78,0,0,1-5.07-2.58H230v8.94h-2.95ZM230,147a6.49,6.49,0,0,0,.14,1.22,4.61,4.61,0,0,0,4.49,3.51c3.16,0,5-2.59,5-6.36,0-3.3-1.73-6.12-4.89-6.12a4.76,4.76,0,0,0-4.52,3.71,4.46,4.46,0,0,0-.21,1.22Z"></path> <path class="cls-3" d="M254.72,137.24l3.6,9.73c.37,1.08.78,2.38,1.05,3.36h.07c.31-1,.65-2.24,1.06-3.43l3.26-9.66h3.16L262.43,149c-2.14,5.65-3.6,8.54-5.64,10.3a8.05,8.05,0,0,1-3.67,1.94l-.75-2.51a8,8,0,0,0,2.62-1.47,9.07,9.07,0,0,0,2.51-3.33,2,2,0,0,0,.24-.71,2.72,2.72,0,0,0-.2-.78l-6.09-15.17Z"></path> <path class="cls-3" d="M271.38,137.24l5.43,7.18h.62v-7.18h2.85v7.18h.58l5.44-7.18h3.43l-6.49,7.48c2.48.27,3.94,1.74,4.93,4.35a40,40,0,0,0,1.8,4.63h-3a25.19,25.19,0,0,1-1.5-3.78c-1-2.68-2.55-3.5-4.69-3.5h-.51v7.28h-2.85v-7.28h-.55c-2.31,0-3.7.85-4.72,3.54a29.33,29.33,0,0,1-1.57,3.74H267.7a48.77,48.77,0,0,0,1.81-4.59c1-2.65,2.48-4.12,5-4.39l-6.53-7.48Z"></path> <path class="cls-3" d="M294.12,146c.07,4.05,2.65,5.72,5.65,5.72a10.88,10.88,0,0,0,4.55-.85l.51,2.14a13.38,13.38,0,0,1-5.47,1c-5.07,0-8.09-3.33-8.09-8.3s2.92-8.87,7.71-8.87c5.37,0,6.8,4.72,6.8,7.75a12.08,12.08,0,0,1-.1,1.39Zm8.77-2.14c0-1.9-.78-4.86-4.14-4.86-3,0-4.36,2.79-4.59,4.86Z"></path> <path class="cls-3" d="M319.59,137.24v6.63h7.82v-6.63h2.95V153.7h-2.95v-7.45h-7.82v7.45h-3V137.24Z"></path> <path class="cls-3" d="M344.37,153.7l-.24-2.08H344a6.1,6.1,0,0,1-5,2.45,4.68,4.68,0,0,1-5-4.72c0-4,3.53-6.16,9.89-6.12v-.34c0-1.36-.37-3.81-3.74-3.81a8.24,8.24,0,0,0-4.28,1.22l-.68-2a10.24,10.24,0,0,1,5.4-1.46c5,0,6.26,3.43,6.26,6.73v6.15a23.65,23.65,0,0,0,.27,3.95Zm-.44-8.4c-3.26-.07-7,.51-7,3.71a2.65,2.65,0,0,0,2.82,2.85,4.1,4.1,0,0,0,4-2.75,3.23,3.23,0,0,0,.17-1Z"></path> <path class="cls-3" d="M353.89,137.24v5.41c0,2.07.78,3.5,3.4,3.5a6.21,6.21,0,0,0,3.54-1.16v-7.75h3V153.7h-3v-6.6h-.07a8.62,8.62,0,0,1-4.45,1.26c-3.13,0-5.41-1.6-5.41-5.37v-5.75Z"></path> <path class="cls-3" d="M377.79,153.7l-.23-2.08h-.11a6.09,6.09,0,0,1-5,2.45,4.68,4.68,0,0,1-5-4.72c0-4,3.54-6.16,9.89-6.12v-.34c0-1.36-.37-3.81-3.74-3.81a8.27,8.27,0,0,0-4.28,1.22l-.68-2a10.25,10.25,0,0,1,5.41-1.46c5,0,6.25,3.43,6.25,6.73v6.15a23.65,23.65,0,0,0,.27,3.95Zm-.44-8.4c-3.26-.07-7,.51-7,3.71a2.65,2.65,0,0,0,2.82,2.85,4.09,4.09,0,0,0,4-2.75,3.23,3.23,0,0,0,.17-1Z"></path> <path class="cls-3" d="M397.61,137.24V153.7h-2.95V139.59H389v4.28c0,4.63-.44,7.72-2.58,9.11a4.78,4.78,0,0,1-3.26,1l-.31-2.34a3.67,3.67,0,0,0,1.63-.68c1.53-1.12,1.7-3.44,1.7-7.11v-6.63Z"></path> <path class="cls-3" d="M410.81,137.24l3.6,9.73c.37,1.08.78,2.38,1,3.36h.07c.31-1,.65-2.24,1.06-3.43l3.26-9.66H423L418.52,149c-2.14,5.65-3.6,8.54-5.64,10.3a8.05,8.05,0,0,1-3.67,1.94l-.75-2.51a7.9,7.9,0,0,0,2.62-1.47,9,9,0,0,0,2.51-3.33,2,2,0,0,0,.24-.71,2.72,2.72,0,0,0-.2-.78l-6.09-15.17Z"></path> <path class="cls-3" d="M437.16,153.09a11.2,11.2,0,0,1-4.73.95c-5,0-8.19-3.37-8.19-8.4s3.47-8.74,8.84-8.74a10.1,10.1,0,0,1,4.14.85l-.68,2.31a7,7,0,0,0-3.46-.78c-3.78,0-5.82,2.79-5.82,6.22,0,3.81,2.45,6.16,5.71,6.16a8.45,8.45,0,0,0,3.68-.82Z"></path> <path class="cls-3" d="M452.32,137.24v2.38h-5.13V153.7h-3V139.62h-5.14v-2.38Z"></path> <path class="cls-3" d="M454.94,142.61c0-2.1-.07-3.8-.14-5.37h2.69l.13,2.82h.07a6.48,6.48,0,0,1,5.85-3.19c4,0,7,3.37,7,8.36,0,5.92-3.6,8.84-7.48,8.84a5.78,5.78,0,0,1-5.07-2.58h-.06v8.94h-3Zm3,4.39a6.52,6.52,0,0,0,.13,1.22,4.63,4.63,0,0,0,4.49,3.51c3.16,0,5-2.59,5-6.36,0-3.3-1.74-6.12-4.9-6.12A4.77,4.77,0,0,0,458.1,143a4.86,4.86,0,0,0-.2,1.22Z"></path> <path class="cls-3" d="M483.4,153.7l-.24-2.08h-.1a6.12,6.12,0,0,1-5,2.45,4.68,4.68,0,0,1-5-4.72c0-4,3.54-6.16,9.9-6.12v-.34c0-1.36-.38-3.81-3.74-3.81a8.3,8.3,0,0,0-4.29,1.22l-.68-2a10.25,10.25,0,0,1,5.41-1.46c5,0,6.25,3.43,6.25,6.73v6.15a22.56,22.56,0,0,0,.28,3.95Zm-.45-8.4c-3.26-.07-7,.51-7,3.71a2.65,2.65,0,0,0,2.83,2.85,4.08,4.08,0,0,0,4-2.75,2.93,2.93,0,0,0,.17-1Z"></path> <path class="cls-3" d="M493.56,137.24v6.63h7.82v-6.63h3V153.7h-3v-7.45h-7.82v7.45h-3V137.24Z"></path> <path class="cls-3" d="M521.37,153.7h-3v-6.9h-2.2a3.94,3.94,0,0,0-2.76.91c-1.22,1-1.66,3-2.31,4.63a9.58,9.58,0,0,1-.68,1.36h-3.2a10.31,10.31,0,0,0,1-1.87c.72-1.6,1.13-3.74,2.59-5a4,4,0,0,1,1.87-1v-.1c-2.14-.24-4.35-1.56-4.35-4.08a4,4,0,0,1,2.17-3.57,11.56,11.56,0,0,1,5.51-1.12,45.82,45.82,0,0,1,5.3.34Zm-3-14.48a15.54,15.54,0,0,0-2.48-.17c-2,0-4.45.57-4.45,2.85,0,2.11,2.62,2.86,4.39,2.86h2.54Z"></path> <path class="cls-3" d="M537.25,137.24v2.38h-5.13V153.7h-3V139.62H524v-2.38Z"></path> <path class="cls-3" d="M542.76,137.24v5.58a16.18,16.18,0,0,1,2.72-.17c3.7,0,7.61,1.15,7.61,5.54a4.66,4.66,0,0,1-1.73,3.77c-1.8,1.53-4.73,1.91-7.14,1.91a39.59,39.59,0,0,1-4.42-.24V137.24Zm0,14.38a16.76,16.76,0,0,0,2.21.14c2.24,0,5.13-.75,5.13-3.5s-3-3.47-5.2-3.47a14.28,14.28,0,0,0-2.14.17Z"></path> <path class="cls-3" d="M47.29,184.94h1.43c2.51,0,4.21-1.15,4.21-2.68s-1.33-2.38-3.19-2.38a7.86,7.86,0,0,0-4,1.16L45,179.2a10.46,10.46,0,0,1,5.47-1.5c2.52,0,5.58,1.13,5.58,4.32,0,2-1.87,3.37-3.71,3.74v.07c2.45.2,4.49,1.7,4.49,4.11,0,3.57-3.64,4.9-7.1,4.9a11.23,11.23,0,0,1-5.34-1.33l.78-2a9.57,9.57,0,0,0,4.35,1.12c2.48,0,4-1.19,4-2.82,0-2.21-2.31-2.83-4.8-2.83H47.29Z"></path> <path class="cls-3" d="M69.69,194.5l-.24-2.08h-.1a6.1,6.1,0,0,1-5,2.45,4.68,4.68,0,0,1-5-4.72c0-4,3.54-6.16,9.89-6.12v-.34c0-1.36-.37-3.81-3.74-3.81a8.27,8.27,0,0,0-4.28,1.22l-.68-2a10.24,10.24,0,0,1,5.4-1.46c5,0,6.26,3.43,6.26,6.73v6.15a23.65,23.65,0,0,0,.27,3.95Zm-.44-8.4c-3.26-.07-7,.51-7,3.71a2.65,2.65,0,0,0,2.82,2.85,4.1,4.1,0,0,0,4-2.75,3.23,3.23,0,0,0,.17-.95Z"></path> <path class="cls-3" d="M88.7,193.89a11.17,11.17,0,0,1-4.73,1c-5,0-8.19-3.37-8.19-8.4s3.47-8.74,8.84-8.74a10.15,10.15,0,0,1,4.15.85l-.68,2.31a7.06,7.06,0,0,0-3.47-.78c-3.78,0-5.82,2.79-5.82,6.22,0,3.81,2.45,6.16,5.72,6.16a8.4,8.4,0,0,0,3.67-.82Z"></path> <path class="cls-3" d="M106.89,186.13c0,6.09-4.22,8.74-8.2,8.74-4.45,0-7.88-3.26-7.88-8.46,0-5.51,3.6-8.74,8.16-8.74C103.69,177.67,106.89,181.1,106.89,186.13Zm-13.06.17c0,3.61,2.08,6.33,5,6.33s5-2.69,5-6.39c0-2.79-1.4-6.33-4.93-6.33S93.83,183.18,93.83,186.3Z"></path> <path class="cls-3" d="M110.66,183.41c0-2.1-.07-3.8-.13-5.37h2.68l.14,2.82h.07a6.47,6.47,0,0,1,5.84-3.19c4,0,7,3.37,7,8.36,0,5.92-3.6,8.84-7.48,8.84a5.76,5.76,0,0,1-5.06-2.58h-.07v8.94h-3Zm3,4.39a6.49,6.49,0,0,0,.14,1.22,4.61,4.61,0,0,0,4.48,3.51c3.17,0,5-2.59,5-6.36,0-3.3-1.73-6.12-4.89-6.12a4.78,4.78,0,0,0-4.53,3.7,5,5,0,0,0-.2,1.23Z"></path> <path class="cls-3" d="M128.07,198.68a48.29,48.29,0,0,0,2-8.13l3.33-.34a41.59,41.59,0,0,1-3.23,8.27Z"></path> <path class="cls-3" d="M157.78,178V194.5h-3V180.42h-7.65V194.5h-2.95V178Z"></path> <path class="cls-3" d="M177.54,186.13c0,6.09-4.22,8.74-8.2,8.74-4.45,0-7.88-3.26-7.88-8.46,0-5.51,3.6-8.74,8.16-8.74C174.34,177.67,177.54,181.1,177.54,186.13Zm-13.06.17c0,3.61,2.08,6.33,5,6.33s5-2.69,5-6.39c0-2.79-1.4-6.33-4.93-6.33S164.48,183.18,164.48,186.3Z"></path> <path class="cls-3" d="M184.27,178v7.14H185l6.19-7.14h3.64l-7.17,7.45c2.65.27,4.25,2,5.54,5a35,35,0,0,0,1.77,4h-3.13a22.42,22.42,0,0,1-1.53-3.37c-1.12-2.65-2.65-3.87-5.44-3.87h-.58v7.24h-3V178Z"></path> <path class="cls-3" d="M207.05,194.5l-.24-2.08h-.1a6.12,6.12,0,0,1-5,2.45,4.68,4.68,0,0,1-5-4.72c0-4,3.53-6.16,9.89-6.12v-.34c0-1.36-.37-3.81-3.74-3.81a8.24,8.24,0,0,0-4.28,1.22l-.68-2a10.24,10.24,0,0,1,5.4-1.46c5,0,6.26,3.43,6.26,6.73v6.15a23.65,23.65,0,0,0,.27,3.95Zm-.44-8.4c-3.27-.07-7,.51-7,3.71a2.65,2.65,0,0,0,2.82,2.85,4.1,4.1,0,0,0,4-2.75,3.23,3.23,0,0,0,.17-.95Z"></path> <path class="cls-3" d="M224.42,171.58v9.66c0,3.64-.06,6.63-.27,9.69l.07,0c1.16-2.38,2.58-4.86,4.25-7.58l7.41-11.8h3V194.5h-2.79v-9.76c0-3.7,0-6.42.27-9.31l-.1,0a69.82,69.82,0,0,1-4.25,7.72L224.8,194.5h-3.16V171.58Z"></path> <path class="cls-3" d="M243.84,178.25a34.1,34.1,0,0,1,5.23-.38c2.76,0,7.31.45,7.31,4.12,0,2-1.56,3.29-3.43,3.7v.07c2.41.34,4.18,1.7,4.18,4.08,0,4.32-5.44,4.86-8.67,4.86-1.83,0-3.74-.13-4.62-.2Zm2.82,14.28a18.45,18.45,0,0,0,2.41.13c2,0,5-.47,5-2.85s-2.38-2.89-5.24-2.89h-2.17Zm0-7.59h2.25c2.21,0,4.48-.64,4.48-2.58,0-1.63-1.42-2.41-4.42-2.41-1,0-1.59.07-2.31.13Z"></path> <path class="cls-3" d="M270,194.5l-.24-2.08h-.1a6.12,6.12,0,0,1-5,2.45,4.69,4.69,0,0,1-5-4.72c0-4,3.54-6.16,9.9-6.12v-.34c0-1.36-.38-3.81-3.74-3.81a8.3,8.3,0,0,0-4.29,1.22l-.68-2a10.27,10.27,0,0,1,5.41-1.46c5,0,6.25,3.43,6.25,6.73v6.15a22.56,22.56,0,0,0,.28,3.95Zm-.45-8.4c-3.26-.07-7,.51-7,3.71a2.65,2.65,0,0,0,2.82,2.85,4.08,4.08,0,0,0,4-2.75,2.93,2.93,0,0,0,.17-.95Z"></path> <path class="cls-3" d="M280.18,178v6.63H288V178h3V194.5h-3v-7.45h-7.82v7.45h-2.95V178Z"></path> <path class="cls-3" d="M319.18,193.75a14.73,14.73,0,0,1-6.05,1.09c-6.46,0-11.32-4.08-11.32-11.6,0-7.17,4.86-12,12-12a12.23,12.23,0,0,1,5.44,1l-.71,2.41a10.82,10.82,0,0,0-4.62-.95c-5.38,0-8.95,3.44-8.95,9.45,0,5.61,3.23,9.22,8.81,9.22a11.82,11.82,0,0,0,4.83-1Z"></path> <path class="cls-3" d="M323,178h3.68l3,8.3c.41,1.22,1.12,3.23,1.49,4.52h.07c.38-1.22,1.29-3.84,1.94-5.64l2.65-7.18h3.71l1.15,16.46h-2.85l-.38-7.86c-.1-1.76-.24-3.87-.3-5.88H337c-.44,1.5-.88,2.82-1.8,5.34L332,194.4h-2.17l-2.93-8.13c-.51-1.56-1.22-3.94-1.63-5.47h-.14c-.06,1.93-.17,4.11-.27,5.91l-.41,7.79h-2.75Z"></path> <path class="cls-3" d="M359.4,186.13c0,6.09-4.22,8.74-8.19,8.74-4.46,0-7.89-3.26-7.89-8.46,0-5.51,3.6-8.74,8.16-8.74C356.2,177.67,359.4,181.1,359.4,186.13Zm-13,.17c0,3.61,2.07,6.33,5,6.33s5-2.69,5-6.39c0-2.79-1.39-6.33-4.93-6.33S346.35,183.18,346.35,186.3Z"></path> <path class="cls-3" d="M374,178v2.38h-5.13V194.5h-3V180.42H360.8V178Z"></path> <path class="cls-3" d="M376.64,183.41c0-2.1-.07-3.8-.14-5.37h2.69l.14,2.82h.06a6.49,6.49,0,0,1,5.85-3.19c4,0,7,3.37,7,8.36,0,5.92-3.6,8.84-7.48,8.84a5.76,5.76,0,0,1-5.06-2.58h-.07v8.94h-3Zm3,4.39a7.48,7.48,0,0,0,.13,1.22,4.63,4.63,0,0,0,4.49,3.51c3.16,0,5-2.59,5-6.36,0-3.3-1.74-6.12-4.9-6.12a4.77,4.77,0,0,0-4.52,3.7,5,5,0,0,0-.2,1.23Z"></path> <path class="cls-3" d="M397.65,186.81c.07,4.05,2.65,5.72,5.64,5.72a10.9,10.9,0,0,0,4.56-.85l.51,2.14a13.42,13.42,0,0,1-5.47,1c-5.07,0-8.09-3.33-8.09-8.3s2.92-8.87,7.71-8.87c5.37,0,6.8,4.72,6.8,7.75a12.08,12.08,0,0,1-.1,1.39Zm8.77-2.14c0-1.9-.78-4.86-4.14-4.86-3,0-4.36,2.79-4.59,4.86Z"></path> <path class="cls-3" d="M425.53,178V194.5h-3V180.39h-5.64v4.28c0,4.63-.44,7.72-2.59,9.11a4.76,4.76,0,0,1-3.26,1l-.3-2.34a3.72,3.72,0,0,0,1.63-.68c1.53-1.12,1.7-3.44,1.7-7.11V178Z"></path> <path class="cls-3" d="M450,178V194.5h-3V180.39h-5.65v4.28c0,4.63-.44,7.72-2.58,9.11a4.78,4.78,0,0,1-3.26,1l-.31-2.34a3.67,3.67,0,0,0,1.63-.68c1.53-1.12,1.7-3.44,1.7-7.11V178Z"></path> <path class="cls-3" d="M457.73,178V185h2.82c.51-4.35,3.36-7.31,7.31-7.31,4.28,0,7.21,3.4,7.21,8.46,0,5.34-3.27,8.74-7.42,8.74-3.94,0-6.83-2.92-7.17-7.61h-2.75v7.24H454.8V178Zm14.34,8.16c0-3.09-1.39-6.29-4.31-6.29s-4.42,3.13-4.42,6.46,1.46,6.29,4.35,6.29S472.07,189.33,472.07,186.2Z"></path> <path class="cls-3" d="M491.28,172.47a23,23,0,0,1-3.43.75c-2.65.4-4.59,1.29-5.85,3.09a11.87,11.87,0,0,0-1.8,5.44h.1A6.24,6.24,0,0,1,486,178c4.05,0,7,2.89,7,8.13s-2.79,8.7-7.62,8.7c-5.78,0-7.68-5.54-7.68-11,0-3.74.78-6.8,2.55-9.11,1.6-2.28,3.87-3.34,7.07-3.88a24.24,24.24,0,0,0,4.08-.88Zm-5.88,7.78a4,4,0,0,0-3.7,2.25,7.1,7.1,0,0,0-.82,3.5c0,2.72,1.33,6.63,4.59,6.63s4.52-3.2,4.52-6.22C490,183.72,488.94,180.25,485.4,180.25Z"></path> <path class="cls-3" d="M499.55,178V185c0,2.62,0,4.25-.17,6.59l.1,0c1-2,1.56-3.16,2.65-5.07l5.13-8.5h3.51V194.5h-2.86v-7c0-2.69.07-4.08.2-6.73H508c-1.05,2.1-1.77,3.43-2.72,5.1-1.56,2.55-3.36,5.71-5.13,8.6h-3.43V178Z"></path> <path class="cls-3" d="M515.8,178h3.67l3,8.3c.41,1.22,1.12,3.23,1.5,4.52H524c.37-1.22,1.29-3.84,1.93-5.64l2.66-7.18h3.7l1.16,16.46h-2.86l-.37-7.86c-.1-1.76-.24-3.87-.31-5.88h-.1c-.44,1.5-.88,2.82-1.8,5.34l-3.16,8.3H522.7l-2.92-8.13c-.51-1.56-1.23-3.94-1.64-5.47H518c-.07,1.93-.17,4.11-.27,5.91l-.41,7.79h-2.75Z"></path> <path class="cls-3" d="M540.24,178v5.61a14.77,14.77,0,0,1,2.69-.2c3.54,0,7.11,1.46,7.11,5.51a4.65,4.65,0,0,1-1.7,3.8c-1.81,1.53-4.46,1.91-6.63,1.91a39.59,39.59,0,0,1-4.42-.24V178Zm0,14.38a16.33,16.33,0,0,0,2.08.14c2.28,0,4.76-.95,4.76-3.5s-2.38-3.47-4.63-3.47a13.9,13.9,0,0,0-2.21.17ZM555.07,178V194.5h-3V178Z"></path> <path class="cls-3" d="M562.72,178V185c0,2.62,0,4.25-.17,6.59l.1,0c1-2,1.56-3.16,2.65-5.07l5.14-8.5h3.5V194.5h-2.86v-7c0-2.69.07-4.08.21-6.73h-.11c-1,2.1-1.76,3.43-2.72,5.1-1.56,2.55-3.36,5.71-5.13,8.6H559.9V178Zm1.94-6.69c.1,1.46.81,2.58,2.17,2.58s2.14-1.09,2.31-2.58h2.15c-.14,2.78-1.91,4.21-4.53,4.21-3,0-4.14-1.87-4.28-4.21Z"></path> <path class="cls-3" d="M57.66,234.69a11.2,11.2,0,0,1-4.73.95c-5,0-8.19-3.37-8.19-8.4s3.47-8.74,8.84-8.74a10.1,10.1,0,0,1,4.14.85L57,221.67a6.86,6.86,0,0,0-3.46-.79c-3.78,0-5.82,2.79-5.82,6.22,0,3.81,2.45,6.16,5.71,6.16a8.45,8.45,0,0,0,3.68-.82Z"></path> <path class="cls-3" d="M62.62,227.61c.07,4,2.65,5.72,5.64,5.72a10.9,10.9,0,0,0,4.56-.85l.51,2.14a13.42,13.42,0,0,1-5.47,1c-5.07,0-8.09-3.33-8.09-8.3s2.92-8.87,7.71-8.87c5.37,0,6.8,4.73,6.8,7.75a12.08,12.08,0,0,1-.1,1.39Zm8.77-2.14c0-1.9-.78-4.86-4.15-4.86-3,0-4.35,2.79-4.58,4.86Z"></path> <path class="cls-3" d="M78,224.21c0-2.1-.07-3.8-.14-5.37h2.69l.13,2.83h.07a6.47,6.47,0,0,1,5.85-3.2c4,0,7,3.36,7,8.36,0,5.92-3.6,8.84-7.48,8.84A5.78,5.78,0,0,1,81,233.09H81V242H78Zm3,4.39a6.52,6.52,0,0,0,.13,1.22,4.63,4.63,0,0,0,4.49,3.51c3.16,0,5-2.59,5-6.36,0-3.3-1.74-6.12-4.9-6.12a4.77,4.77,0,0,0-4.52,3.7,5,5,0,0,0-.2,1.23Z"></path> <path class="cls-3" d="M100.09,218.84v6.94c0,2.62,0,4.25-.17,6.59l.1,0c1-2,1.56-3.16,2.65-5.07l5.14-8.5h3.5V235.3h-2.86v-7c0-2.69.07-4.08.21-6.73h-.11c-1,2.11-1.76,3.43-2.72,5.1-1.56,2.55-3.36,5.71-5.13,8.6H97.27V218.84Z"></path> <path class="cls-3" d="M125.28,235.3l-.24-2.08h-.1a6.1,6.1,0,0,1-5,2.45,4.68,4.68,0,0,1-5-4.72c0-4,3.53-6.16,9.89-6.12v-.34c0-1.36-.37-3.81-3.74-3.81a8.24,8.24,0,0,0-4.28,1.22l-.68-2a10.24,10.24,0,0,1,5.4-1.46c5,0,6.26,3.43,6.26,6.73v6.15a23.65,23.65,0,0,0,.27,4Zm-.44-8.4c-3.26-.07-7,.51-7,3.71a2.65,2.65,0,0,0,2.82,2.85,4.1,4.1,0,0,0,4-2.75,3.23,3.23,0,0,0,.17-1Z"></path> <path class="cls-3" d="M145.1,218.84V235.3h-2.95V221.19H136.5v4.28c0,4.63-.44,7.72-2.58,9.11a4.81,4.81,0,0,1-3.27,1l-.3-2.34a3.67,3.67,0,0,0,1.63-.68c1.53-1.12,1.7-3.44,1.7-7.11v-6.63Z"></path> </g> </g> </svg> 