<?xml version="1.0" encoding="UTF-8"?> <svg xmlns="http://www.w3.org/2000/svg" viewBox="0 0 671.5 387.51"> <defs> <style>.cls-1{fill:#ccf5ff;}.cls-2{fill:#29abe2;}.cls-3{fill:#1a1a1a;}</style> </defs> <title>Ресурс 4</title> <g id="Слой_2" data-name="Слой 2"> <g id="Слой_1-2" data-name="Слой 1"> <path class="cls-1" d="M60.12,384.37a57,57,0,0,1-57-57V88.87a57,57,0,0,1,57-57h53.59a3.1,3.1,0,0,0,1.8-.57l39.93-28a.81.81,0,0,1,.48-.16.86.86,0,0,1,.86.85V28.75a3.14,3.14,0,0,0,3.14,3.14H611.38a57,57,0,0,1,57,57V327.39a57,57,0,0,1-57,57Z"></path> <path class="cls-2" d="M157.25,5.87h0M153.64,8.4V28.75A6.28,6.28,0,0,0,159.92,35H611.38a53.91,53.91,0,0,1,53.85,53.84V327.39a53.91,53.91,0,0,1-53.85,53.85H60.12A53.91,53.91,0,0,1,6.28,327.39V88.87A53.9,53.9,0,0,1,60.12,35h53.59a6.31,6.31,0,0,0,3.61-1.14L153.64,8.4M155.92,0a4,4,0,0,0-2.28.73l-39.93,28H60.12A60.12,60.12,0,0,0,0,88.87V327.39a60.12,60.12,0,0,0,60.12,60.12H611.38a60.11,60.11,0,0,0,60.12-60.12V88.87a60.12,60.12,0,0,0-60.12-60.12H159.92V4a4,4,0,0,0-4-4Z"></path> <path class="cls-3" d="M61.36,81.6h8.29A5.27,5.27,0,0,0,64,76.47a9.37,9.37,0,0,0-3.95.91l-.64-1.93a10.6,10.6,0,0,1,5.06-1.3,8.18,8.18,0,0,1,6,2.35,9,9,0,0,1,2.24,6.32c0,4.8-3.16,8.54-8.74,8.54a10.68,10.68,0,0,1-4.79-1.13l.58-2.14a10,10,0,0,0,4.11.89,5.47,5.47,0,0,0,5.78-5.34H61.36Z"></path> <path class="cls-3" d="M87.3,74.53v2.38H82.17V91h-3V76.91H74.07V74.53Z"></path> <path class="cls-3" d="M104.37,82.62c0,6.08-4.22,8.74-8.2,8.74-4.45,0-7.88-3.27-7.88-8.47,0-5.51,3.6-8.74,8.16-8.74C101.17,74.15,104.37,77.59,104.37,82.62Zm-13.06.17c0,3.6,2.08,6.32,5,6.32s5-2.68,5-6.39c0-2.79-1.4-6.32-4.93-6.32S91.31,79.66,91.31,82.79Z"></path> <path class="cls-3" d="M135,79.29c0,7.88-4.79,12.07-10.64,12.07-6,0-10.3-4.7-10.3-11.63,0-7.28,4.52-12,10.64-12S135,72.49,135,79.29Zm-17.78.37c0,4.9,2.65,9.28,7.31,9.28s7.35-4.32,7.35-9.52c0-4.55-2.38-9.31-7.31-9.31S117.25,74.63,117.25,79.66Z"></path> <path class="cls-3" d="M151.12,74.53V91h-3V76.87h-5.65v4.29c0,4.62-.44,7.71-2.58,9.11a4.81,4.81,0,0,1-3.26,1l-.31-2.35a3.63,3.63,0,0,0,1.63-.68c1.53-1.12,1.7-3.43,1.7-7.1V74.53Z"></path> <path class="cls-3" d="M158.9,74.53V80.1a17.39,17.39,0,0,1,2.72-.17c3.71,0,7.62,1.16,7.62,5.55a4.66,4.66,0,0,1-1.74,3.77c-1.8,1.53-4.72,1.9-7.14,1.9a39.87,39.87,0,0,1-4.42-.24V74.53Zm0,14.38a17.2,17.2,0,0,0,2.21.13c2.25,0,5.14-.74,5.14-3.5s-3-3.47-5.21-3.47a14.28,14.28,0,0,0-2.14.17Z"></path> <path class="cls-3" d="M183,74.53v2.41h-7.14V91h-3V74.53Z"></path> <path class="cls-3" d="M194.67,91l-.24-2.07h-.1a6.14,6.14,0,0,1-5,2.45,4.69,4.69,0,0,1-5-4.73c0-4,3.53-6.15,9.89-6.12v-.34c0-1.36-.37-3.81-3.74-3.81a8.15,8.15,0,0,0-4.28,1.23l-.68-2a10.15,10.15,0,0,1,5.4-1.47c5,0,6.26,3.44,6.26,6.74V87a23.52,23.52,0,0,0,.27,3.94Zm-.44-8.4c-3.27-.06-7,.51-7,3.71a2.65,2.65,0,0,0,2.82,2.86,4.1,4.1,0,0,0,4-2.76,3.12,3.12,0,0,0,.17-1Z"></path> <path class="cls-3" d="M200,95.16a49.14,49.14,0,0,0,2-8.12l3.33-.34A41.48,41.48,0,0,1,202.15,95Z"></path> <path class="cls-3" d="M235.88,79.29c0,7.88-4.8,12.07-10.65,12.07-6,0-10.3-4.7-10.3-11.63,0-7.28,4.53-12,10.64-12C231.83,67.69,235.88,72.49,235.88,79.29Zm-17.78.37c0,4.9,2.65,9.28,7.3,9.28s7.35-4.32,7.35-9.52c0-4.55-2.38-9.31-7.31-9.31S218.1,74.63,218.1,79.66Z"></path> <path class="cls-3" d="M252,74.53V91h-3V76.87h-5.64v4.29c0,4.62-.44,7.71-2.59,9.11a4.81,4.81,0,0,1-3.26,1l-.31-2.35a3.71,3.71,0,0,0,1.64-.68c1.53-1.12,1.7-3.43,1.7-7.1V74.53Z"></path> <path class="cls-3" d="M259.75,74.53V80.1a17.17,17.17,0,0,1,2.71-.17c3.71,0,7.62,1.16,7.62,5.55a4.68,4.68,0,0,1-1.73,3.77c-1.81,1.53-4.73,1.9-7.14,1.9a39.59,39.59,0,0,1-4.42-.24V74.53Zm0,14.38A16.9,16.9,0,0,0,262,89c2.25,0,5.14-.74,5.14-3.5s-3-3.47-5.2-3.47a14.07,14.07,0,0,0-2.14.17Z"></path> <path class="cls-3" d="M283.82,74.53v2.41h-7.14V91h-3V74.53Z"></path> <path class="cls-3" d="M287.86,83.3c.07,4,2.65,5.71,5.65,5.71a10.73,10.73,0,0,0,4.55-.85l.51,2.14a13.22,13.22,0,0,1-5.47,1C288,91.32,285,88,285,83s2.92-8.88,7.71-8.88c5.38,0,6.8,4.73,6.8,7.76a10.28,10.28,0,0,1-.1,1.39Zm8.77-2.14c0-1.91-.78-4.86-4.14-4.86-3,0-4.36,2.78-4.59,4.86Z"></path> <path class="cls-3" d="M313.33,74.53v6.63h7.82V74.53h3V91h-3V83.54h-7.82V91h-3V74.53Z"></path> <path class="cls-3" d="M330,74.53l3.61,9.72c.37,1.09.78,2.38,1.05,3.37h.07c.31-1,.65-2.25,1.05-3.44L339,74.53h3.16l-4.49,11.73c-2.14,5.64-3.6,8.53-5.64,10.3a8.05,8.05,0,0,1-3.67,1.93L327.61,96a8,8,0,0,0,2.62-1.46,9.16,9.16,0,0,0,2.51-3.33,2.12,2.12,0,0,0,.24-.72,2.72,2.72,0,0,0-.2-.78l-6.09-15.16Z"></path> <path class="cls-3" d="M346.61,74.53l5.44,7.17h.61V74.53h2.86V81.7h.58l5.44-7.17H365L358.48,82c2.48.27,3.94,1.73,4.93,4.35a39.82,39.82,0,0,0,1.8,4.62h-3a23.63,23.63,0,0,1-1.5-3.77c-1-2.69-2.55-3.5-4.69-3.5h-.51V91h-2.86V83.71h-.54c-2.31,0-3.7.85-4.72,3.53A29.33,29.33,0,0,1,345.83,91h-2.89a45.26,45.26,0,0,0,1.8-4.59c1-2.65,2.49-4.11,5-4.38l-6.53-7.48Z"></path> <path class="cls-3" d="M370.79,74.53v6.63h7.82V74.53h2.95V91h-2.95V83.54h-7.82V91h-3V74.53Z"></path> <path class="cls-3" d="M401.35,82.62c0,6.08-4.21,8.74-8.19,8.74-4.46,0-7.89-3.27-7.89-8.47,0-5.51,3.6-8.74,8.16-8.74C398.16,74.15,401.35,77.59,401.35,82.62Zm-13.05.17c0,3.6,2.07,6.32,5,6.32s5-2.68,5-6.39c0-2.79-1.39-6.32-4.93-6.32S388.3,79.66,388.3,82.79Z"></path> <path class="cls-3" d="M413.42,74.53l3.6,9.72c.38,1.09.79,2.38,1.06,3.37h.07c.3-1,.64-2.25,1.05-3.44l3.26-9.65h3.17l-4.49,11.73c-2.14,5.64-3.6,8.53-5.64,10.3a8.07,8.07,0,0,1-3.68,1.93L411.08,96a7.92,7.92,0,0,0,2.61-1.46,9.06,9.06,0,0,0,2.52-3.33,2.12,2.12,0,0,0,.24-.72,2.51,2.51,0,0,0-.21-.78l-6.08-15.16Z"></path> <path class="cls-3" d="M439.77,90.37a11,11,0,0,1-4.72.95c-5,0-8.2-3.36-8.2-8.4s3.47-8.73,8.84-8.73a10,10,0,0,1,4.15.85l-.68,2.31a7,7,0,0,0-3.47-.78c-3.77,0-5.81,2.79-5.81,6.22,0,3.81,2.45,6.15,5.71,6.15a8.56,8.56,0,0,0,3.67-.81Z"></path> <path class="cls-3" d="M454.93,74.53v2.38H449.8V91h-3V76.91h-5.13V74.53Z"></path> <path class="cls-3" d="M466.43,91l-.24-2.07h-.1a6.14,6.14,0,0,1-5,2.45,4.69,4.69,0,0,1-5-4.73c0-4,3.54-6.15,9.9-6.12v-.34c0-1.36-.38-3.81-3.74-3.81a8.22,8.22,0,0,0-4.29,1.23l-.68-2a10.19,10.19,0,0,1,5.41-1.47c5,0,6.25,3.44,6.25,6.74V87a22.44,22.44,0,0,0,.28,3.94Zm-.45-8.4c-3.26-.06-7,.51-7,3.71a2.65,2.65,0,0,0,2.82,2.86,4.08,4.08,0,0,0,4-2.76,2.84,2.84,0,0,0,.17-1Z"></path> <path class="cls-3" d="M476.59,74.53v6.63h7.82V74.53h3V91h-3V83.54h-7.82V91h-2.95V74.53Z"></path> <path class="cls-3" d="M507.16,82.62c0,6.08-4.22,8.74-8.2,8.74-4.45,0-7.88-3.27-7.88-8.47,0-5.51,3.6-8.74,8.16-8.74C504,74.15,507.16,77.59,507.16,82.62Zm-13.06.17c0,3.6,2.08,6.32,5,6.32s5-2.68,5-6.39c0-2.79-1.4-6.32-4.93-6.32S494.1,79.66,494.1,82.79Z"></path> <path class="cls-3" d="M510.86,74.73a35.77,35.77,0,0,1,5.24-.37c2.75,0,7.31.44,7.31,4.11,0,2-1.56,3.3-3.43,3.71v.06c2.41.34,4.18,1.71,4.18,4.08,0,4.32-5.44,4.87-8.67,4.87-1.84,0-3.74-.14-4.63-.21ZM513.69,89a18.39,18.39,0,0,0,2.41.14c2,0,5-.48,5-2.86s-2.38-2.89-5.24-2.89h-2.17Zm0-7.58H516c2.21,0,4.49-.65,4.49-2.58,0-1.64-1.43-2.42-4.42-2.42a20.57,20.57,0,0,0-2.31.14Z"></path> <path class="cls-3" d="M530.69,74.53v6.93c0,2.62,0,4.25-.17,6.6l.1,0c1-2,1.56-3.16,2.65-5.06l5.13-8.5h3.5V91h-2.85V84c0-2.68.07-4.08.2-6.73h-.1c-1,2.11-1.77,3.44-2.72,5.1-1.56,2.55-3.36,5.71-5.13,8.6h-3.44V74.53Z"></path> <path class="cls-3" d="M557.78,74.53v2.38h-5.13V91h-3V76.91h-5.13V74.53Z"></path> <path class="cls-3" d="M563.29,74.53V80.1a17.39,17.39,0,0,1,2.72-.17c3.71,0,7.62,1.16,7.62,5.55a4.66,4.66,0,0,1-1.74,3.77c-1.8,1.53-4.72,1.9-7.14,1.9a39.54,39.54,0,0,1-4.41-.24V74.53Zm0,14.38a17.2,17.2,0,0,0,2.21.13c2.25,0,5.14-.74,5.14-3.5s-3-3.47-5.2-3.47a14.31,14.31,0,0,0-2.15.17Z"></path> <path class="cls-3" d="M72.41,131.17a11,11,0,0,1-4.73,1c-5,0-8.19-3.36-8.19-8.39S63,115,68.33,115a10,10,0,0,1,4.15.85l-.69,2.31a6.88,6.88,0,0,0-3.46-.78c-3.78,0-5.82,2.79-5.82,6.22,0,3.81,2.45,6.15,5.72,6.15a8.56,8.56,0,0,0,3.67-.81Z"></path> <path class="cls-3" d="M76.08,115.33h3.67l3,8.29c.41,1.23,1.13,3.23,1.5,4.53h.07c.37-1.23,1.29-3.85,1.94-5.65l2.65-7.17h3.7l1.16,16.45H90.9l-.37-7.85c-.1-1.77-.24-3.88-.31-5.88h-.1c-.44,1.49-.88,2.82-1.8,5.34l-3.16,8.29H83l-2.92-8.12c-.51-1.57-1.23-4-1.63-5.48h-.14c-.07,1.94-.17,4.12-.27,5.92l-.41,7.78H74.86Z"></path> <path class="cls-3" d="M99.3,124.1c.07,4.05,2.65,5.71,5.64,5.71a10.74,10.74,0,0,0,4.56-.85l.51,2.14a13.25,13.25,0,0,1-5.47,1c-5.07,0-8.09-3.33-8.09-8.29s2.92-8.88,7.71-8.88c5.37,0,6.8,4.73,6.8,7.76a12.27,12.27,0,0,1-.1,1.39Zm8.77-2.14c0-1.91-.78-4.86-4.15-4.86-3,0-4.35,2.78-4.58,4.86Z"></path> <path class="cls-3" d="M126.4,131.17a11,11,0,0,1-4.73,1c-5,0-8.19-3.36-8.19-8.39S117,115,122.32,115a10,10,0,0,1,4.15.85l-.68,2.31a7,7,0,0,0-3.47-.78c-3.78,0-5.82,2.79-5.82,6.22,0,3.81,2.45,6.15,5.72,6.15a8.56,8.56,0,0,0,3.67-.81Z"></path> <path class="cls-3" d="M132.65,115.33v6.93c0,2.62,0,4.25-.17,6.6l.11,0c1-2,1.56-3.16,2.65-5.06l5.13-8.5h3.5v16.45H141v-7c0-2.68.07-4.08.2-6.73h-.1c-1.05,2.11-1.77,3.44-2.72,5.1-1.56,2.55-3.37,5.71-5.13,8.6h-3.44V115.33Z"></path> <path class="cls-3" d="M159.75,115.33v2.38h-5.13v14.07h-3V117.71h-5.13v-2.38Z"></path> <path class="cls-3" d="M163.59,124.1c.07,4.05,2.66,5.71,5.65,5.71a10.73,10.73,0,0,0,4.55-.85l.51,2.14a13.22,13.22,0,0,1-5.47,1c-5.07,0-8.09-3.33-8.09-8.29s2.92-8.88,7.72-8.88c5.37,0,6.8,4.73,6.8,7.76a10,10,0,0,1-.11,1.39Zm8.78-2.14c0-1.91-.79-4.86-4.15-4.86-3,0-4.35,2.78-4.59,4.86Z"></path> <path class="cls-3" d="M191.47,115.33v16.45h-2.95V117.67h-5.65V122c0,4.62-.44,7.71-2.58,9.11a4.86,4.86,0,0,1-3.27,1l-.3-2.35a3.67,3.67,0,0,0,1.63-.68c1.53-1.12,1.7-3.43,1.7-7.1v-6.63Z"></path> <path class="cls-3" d="M199.26,115.33v5.57a17.39,17.39,0,0,1,2.72-.17c3.71,0,7.61,1.16,7.61,5.55a4.67,4.67,0,0,1-1.73,3.77c-1.8,1.53-4.72,1.9-7.14,1.9a39.87,39.87,0,0,1-4.42-.24V115.33Zm0,14.38a17.08,17.08,0,0,0,2.21.13c2.24,0,5.13-.74,5.13-3.5s-3-3.46-5.2-3.46a13.07,13.07,0,0,0-2.14.17Z"></path> <path class="cls-3" d="M223.26,115.33v6.93c0,2.62,0,4.25-.17,6.6l.1,0c1-2,1.57-3.16,2.66-5.06l5.13-8.5h3.5v16.45h-2.85v-7c0-2.68.06-4.08.2-6.73h-.1c-1.06,2.11-1.77,3.44-2.72,5.1-1.57,2.55-3.37,5.71-5.14,8.6h-3.43V115.33Z"></path> <path class="cls-3" d="M260.08,115.33v16.45h-3V117.71h-7.65v14.07h-3V115.33Z"></path> <path class="cls-3" d="M265,120.7c0-2.11-.07-3.81-.14-5.37h2.69l.13,2.82h.07a6.46,6.46,0,0,1,5.85-3.2c4,0,7,3.37,7,8.37,0,5.91-3.61,8.84-7.48,8.84a5.79,5.79,0,0,1-5.07-2.59h-.07v8.94H265Zm2.95,4.38a6.5,6.5,0,0,0,.14,1.23,4.62,4.62,0,0,0,4.49,3.5c3.16,0,5-2.58,5-6.36,0-3.29-1.73-6.12-4.89-6.12a4.78,4.78,0,0,0-4.52,3.71,5,5,0,0,0-.21,1.22Z"></path> <path class="cls-3" d="M287,115.33v6.93c0,2.62,0,4.25-.16,6.6l.1,0c1-2,1.56-3.16,2.65-5.06l5.13-8.5h3.5v16.45h-2.85v-7c0-2.68.07-4.08.2-6.73h-.1c-1.05,2.11-1.77,3.44-2.72,5.1-1.56,2.55-3.37,5.71-5.13,8.6h-3.44V115.33Z"></path> <path class="cls-3" d="M315.57,109.75a22.1,22.1,0,0,1-3.43.75c-2.66.41-4.59,1.29-5.85,3.09a11.64,11.64,0,0,0-1.8,5.44h.1a6.21,6.21,0,0,1,5.71-3.7c4.05,0,7,2.89,7,8.12s-2.78,8.71-7.61,8.71c-5.78,0-7.69-5.55-7.69-11,0-3.74.79-6.8,2.55-9.11,1.6-2.28,3.88-3.33,7.08-3.87a24.67,24.67,0,0,0,4.08-.89Zm-5.88,7.79a4,4,0,0,0-3.71,2.24,7.26,7.26,0,0,0-.81,3.5c0,2.72,1.32,6.63,4.59,6.63s4.52-3.19,4.52-6.22C314.28,121,313.22,117.54,309.69,117.54Z"></path> <path class="cls-3" d="M323.83,115.33v6.93c0,2.62,0,4.25-.17,6.6l.1,0c1-2,1.57-3.16,2.66-5.06l5.13-8.5h3.5v16.45H332.2v-7c0-2.68.06-4.08.2-6.73h-.1c-1.06,2.11-1.77,3.44-2.72,5.1-1.57,2.55-3.37,5.71-5.14,8.6H321V115.33Z"></path> <path class="cls-3" d="M350.93,115.33v2.38H345.8v14.07h-3V117.71h-5.13v-2.38Z"></path> <path class="cls-3" d="M356.44,115.33v5.57a17.31,17.31,0,0,1,2.72-.17c3.7,0,7.61,1.16,7.61,5.55a4.67,4.67,0,0,1-1.73,3.77c-1.8,1.53-4.73,1.9-7.14,1.9a39.59,39.59,0,0,1-4.42-.24V115.33Zm0,14.38a17.08,17.08,0,0,0,2.21.13c2.24,0,5.13-.74,5.13-3.5s-3-3.46-5.2-3.46a13.07,13.07,0,0,0-2.14.17Z"></path> <path class="cls-3" d="M376.74,131.78V130l2.34-2.28c5.65-5.37,8.19-8.23,8.23-11.56,0-2.24-1.09-4.32-4.39-4.32a7.53,7.53,0,0,0-4.69,1.87l-1-2.11a9.72,9.72,0,0,1,6.26-2.24c4.75,0,6.76,3.26,6.76,6.43,0,4.08-3,7.37-7.61,11.86l-1.77,1.63v.07h9.92v2.48Z"></path> <path class="cls-3" d="M415.87,115.33v16.45h-3V117.71h-7.65v14.07h-3V115.33Z"></path> <path class="cls-3" d="M435.62,123.42c0,6.08-4.21,8.74-8.19,8.74-4.45,0-7.89-3.27-7.89-8.47,0-5.51,3.61-8.74,8.16-8.74C432.43,115,435.62,118.39,435.62,123.42Zm-13.05.17c0,3.6,2.07,6.32,5,6.32s5-2.68,5-6.39c0-2.79-1.39-6.32-4.93-6.32S422.57,120.46,422.57,123.59Z"></path> <path class="cls-3" d="M451.87,115.33v16.45h-2.95V117.67h-5.65V122c0,4.62-.44,7.71-2.58,9.11a4.83,4.83,0,0,1-3.26,1l-.31-2.35a3.67,3.67,0,0,0,1.63-.68c1.53-1.12,1.7-3.43,1.7-7.1v-6.63Z"></path> <path class="cls-3" d="M459.73,115.33v7.14h.71l6.19-7.14h3.64l-7.18,7.44c2.66.28,4.25,2,5.55,5a33.32,33.32,0,0,0,1.76,4h-3.13a21.89,21.89,0,0,1-1.52-3.36c-1.13-2.66-2.66-3.88-5.44-3.88h-.58v7.24h-3V115.33Z"></path> <path class="cls-3" d="M475.81,115.33v6.93c0,2.62,0,4.25-.17,6.6l.1,0c1-2,1.57-3.16,2.65-5.06l5.14-8.5H487v16.45h-2.86v-7c0-2.68.07-4.08.21-6.73h-.11c-1,2.11-1.76,3.44-2.72,5.1-1.56,2.55-3.36,5.71-5.13,8.6H473V115.33Z"></path> <path class="cls-3" d="M499,115.53a35.77,35.77,0,0,1,5.24-.37c2.75,0,7.31.44,7.31,4.11,0,2-1.57,3.3-3.44,3.71v.07c2.42.34,4.18,1.69,4.18,4.07,0,4.32-5.44,4.87-8.67,4.87-1.83,0-3.73-.14-4.62-.21Zm2.82,14.28a18.45,18.45,0,0,0,2.42.14c2,0,5-.48,5-2.86s-2.38-2.89-5.23-2.89h-2.18Zm0-7.58h2.24c2.21,0,4.49-.65,4.49-2.58,0-1.64-1.43-2.42-4.42-2.42a20.42,20.42,0,0,0-2.31.14Z"></path> <path class="cls-3" d="M60.61,156.33a35.77,35.77,0,0,1,5.24-.37c2.75,0,7.3.44,7.3,4.11,0,2-1.56,3.3-3.43,3.71v.06c2.41.35,4.18,1.71,4.18,4.08,0,4.32-5.44,4.87-8.67,4.87-1.83,0-3.74-.14-4.62-.21Zm2.82,14.28a18.45,18.45,0,0,0,2.42.14c2,0,5-.48,5-2.86S68.46,165,65.61,165H63.43Zm0-7.58h2.24c2.21,0,4.49-.65,4.49-2.58,0-1.64-1.43-2.42-4.42-2.42a20.42,20.42,0,0,0-2.31.14Z"></path> <path class="cls-3" d="M86.79,172.58l-.24-2.07h-.1a6.14,6.14,0,0,1-5,2.45,4.69,4.69,0,0,1-5-4.73c0-4,3.53-6.15,9.89-6.12v-.34c0-1.36-.37-3.81-3.74-3.81a8.15,8.15,0,0,0-4.28,1.23l-.68-2a10.15,10.15,0,0,1,5.4-1.47c5,0,6.26,3.44,6.26,6.74v6.15a22.51,22.51,0,0,0,.27,3.94Zm-.44-8.39c-3.27-.07-7,.51-7,3.7a2.65,2.65,0,0,0,2.82,2.86,4.1,4.1,0,0,0,4-2.76,3.12,3.12,0,0,0,.17-1Z"></path> <path class="cls-3" d="M97,156.13v6.63h7.81v-6.63h3v16.45h-3v-7.44H97v7.44H94V156.13Z"></path> <path class="cls-3" d="M115.52,156.13v6.63h7.82v-6.63h3v16.45h-3v-7.44h-7.82v7.44h-3V156.13Z"></path> <path class="cls-3" d="M146.08,164.22c0,6.08-4.21,8.74-8.19,8.74-4.45,0-7.89-3.27-7.89-8.47,0-5.51,3.61-8.74,8.16-8.74C142.89,155.75,146.08,159.19,146.08,164.22Zm-13.05.17c0,3.6,2.07,6.32,5,6.32s5-2.68,5-6.39c0-2.79-1.39-6.32-4.93-6.32S133,161.26,133,164.39Z"></path> <path class="cls-3" d="M152.61,156.13v6.93c0,2.62,0,4.25-.17,6.6l.1,0c1-2,1.57-3.16,2.66-5.06l5.13-8.5h3.5v16.45H161v-7c0-2.68.06-4.08.2-6.73h-.1c-1.06,2.11-1.77,3.44-2.72,5.1-1.57,2.55-3.37,5.71-5.14,8.6h-3.43V156.13Zm1.94-6.7c.1,1.46.82,2.58,2.18,2.58s2.14-1.08,2.31-2.58h2.14c-.14,2.79-1.9,4.22-4.52,4.22-3,0-4.15-1.87-4.29-4.22Z"></path> <path class="cls-3" d="M178.86,156.13v7.14h.71l6.19-7.14h3.64l-7.17,7.44c2.65.27,4.24,2,5.54,5a35,35,0,0,0,1.76,4h-3.12a20.87,20.87,0,0,1-1.53-3.36c-1.13-2.65-2.65-3.88-5.44-3.88h-.58v7.24h-3V156.13Z"></path> <path class="cls-3" d="M206.87,164.22c0,6.08-4.21,8.74-8.19,8.74-4.45,0-7.89-3.27-7.89-8.47,0-5.51,3.61-8.74,8.16-8.74C203.68,155.75,206.87,159.19,206.87,164.22Zm-13.05.17c0,3.6,2.07,6.32,5,6.32s5-2.68,5-6.39c0-2.79-1.39-6.32-4.93-6.32S193.82,161.26,193.82,164.39Z"></path> <path class="cls-3" d="M210.82,156.13h3.67l3,8.29c.41,1.23,1.12,3.23,1.5,4.52h.07c.37-1.22,1.29-3.84,1.93-5.64l2.66-7.17h3.7l1.16,16.45h-2.86l-.37-7.85c-.1-1.77-.24-3.88-.31-5.88h-.1c-.44,1.49-.88,2.82-1.8,5.34l-3.16,8.29h-2.18l-2.92-8.12c-.51-1.57-1.23-4-1.63-5.48H213c-.07,1.94-.17,4.11-.27,5.92l-.41,7.78H209.6Z"></path> <path class="cls-3" d="M235.26,156.13v6.63h7.82v-6.63h3v16.45h-3v-7.44h-7.82v7.44h-2.95V156.13Z"></path> <path class="cls-3" d="M260.05,172.58l-.24-2.07h-.1a6.14,6.14,0,0,1-5,2.45,4.69,4.69,0,0,1-5-4.73c0-4,3.53-6.15,9.89-6.12v-.34c0-1.36-.37-3.81-3.74-3.81a8.15,8.15,0,0,0-4.28,1.23l-.68-2a10.15,10.15,0,0,1,5.4-1.47c5,0,6.26,3.44,6.26,6.74v6.15a22.51,22.51,0,0,0,.27,3.94Zm-.44-8.39c-3.27-.07-7,.51-7,3.7a2.65,2.65,0,0,0,2.82,2.86,4.1,4.1,0,0,0,4-2.76,3.12,3.12,0,0,0,.17-1Z"></path> <path class="cls-3" d="M278.21,156.13v2.38h-5.14v14.07h-3V158.51H265v-2.38Z"></path> <path class="cls-3" d="M282.05,164.9c.07,4,2.65,5.71,5.64,5.71a10.78,10.78,0,0,0,4.56-.85l.51,2.14a13.31,13.31,0,0,1-5.48,1c-5.06,0-8.09-3.33-8.09-8.29s2.93-8.88,7.72-8.88c5.37,0,6.8,4.73,6.8,7.75a12.3,12.3,0,0,1-.1,1.4Zm8.77-2.14c0-1.91-.78-4.86-4.15-4.86-3,0-4.35,2.78-4.59,4.86Z"></path> <path class="cls-3" d="M295.48,176.76a49.14,49.14,0,0,0,2-8.12l3.33-.34a41.48,41.48,0,0,1-3.23,8.26Z"></path> <path class="cls-3" d="M331.35,160.89c0,7.88-4.8,12.07-10.65,12.07-6.05,0-10.3-4.7-10.3-11.63,0-7.28,4.53-12,10.64-12S331.35,154.09,331.35,160.89Zm-17.78.37c0,4.9,2.65,9.28,7.3,9.28s7.35-4.31,7.35-9.52c0-4.55-2.38-9.31-7.31-9.31S313.57,156.23,313.57,161.26Z"></path> <path class="cls-3" d="M347.43,156.13v16.45h-3V158.47h-5.64v4.29c0,4.62-.45,7.71-2.59,9.11a4.81,4.81,0,0,1-3.26,1l-.31-2.35a3.71,3.71,0,0,0,1.64-.68c1.52-1.12,1.7-3.43,1.7-7.1v-6.63Z"></path> <path class="cls-3" d="M355.21,156.13v5.57a17.39,17.39,0,0,1,2.72-.17c3.71,0,7.62,1.16,7.62,5.54a4.69,4.69,0,0,1-1.73,3.78c-1.81,1.53-4.73,1.9-7.14,1.9a39.59,39.59,0,0,1-4.42-.24V156.13Zm0,14.38a17.2,17.2,0,0,0,2.21.13c2.25,0,5.14-.74,5.14-3.5s-3-3.47-5.2-3.47a14.31,14.31,0,0,0-2.15.17Z"></path> <path class="cls-3" d="M379.29,156.13v2.41h-7.14v14h-3V156.13Z"></path> <path class="cls-3" d="M391,172.58l-.24-2.07h-.1a6.13,6.13,0,0,1-5,2.45,4.69,4.69,0,0,1-5-4.73c0-4,3.53-6.15,9.89-6.12v-.34c0-1.36-.37-3.81-3.74-3.81a8.15,8.15,0,0,0-4.28,1.23l-.68-2a10.15,10.15,0,0,1,5.4-1.47c5,0,6.26,3.44,6.26,6.74v6.15a23.52,23.52,0,0,0,.27,3.94Zm-.44-8.39c-3.26-.07-7,.51-7,3.7a2.65,2.65,0,0,0,2.82,2.86,4.1,4.1,0,0,0,4-2.76,3.12,3.12,0,0,0,.17-1Z"></path> <path class="cls-3" d="M404.52,172.58v-1.83l2.34-2.28c5.64-5.37,8.19-8.23,8.23-11.56,0-2.24-1.09-4.32-4.39-4.32a7.53,7.53,0,0,0-4.69,1.87l-.95-2.11a9.69,9.69,0,0,1,6.25-2.24c4.76,0,6.77,3.26,6.77,6.43,0,4.08-3,7.37-7.62,11.86L408.7,170v.07h9.92v2.48Z"></path> <path class="cls-3" d="M442.86,156.13v14.21l1.7,0-.16,7.45h-2.35l-.14-5.24H430.52l-.13,5.24H428l-.13-7.45,1.39,0a13,13,0,0,0,1.63-3.37,21.59,21.59,0,0,0,.95-6.56v-4.28Zm-8.32,5a21.89,21.89,0,0,1-.85,6.11,15.26,15.26,0,0,1-1.33,3.06h7.58V158.41h-5.4Z"></path> <path class="cls-3" d="M451,156.13v6.63h7.82v-6.63h3v16.45h-3v-7.44H451v7.44h-2.95V156.13Z"></path> <path class="cls-3" d="M478.84,172.58h-3v-6.9h-2.21a3.9,3.9,0,0,0-2.76.92c-1.22,1-1.66,3-2.31,4.62a9.58,9.58,0,0,1-.68,1.36h-3.19a10.89,10.89,0,0,0,1-1.87c.71-1.6,1.12-3.74,2.58-5a3.88,3.88,0,0,1,1.87-.95v-.1c-2.14-.24-4.35-1.57-4.35-4.08a4,4,0,0,1,2.17-3.57,11.44,11.44,0,0,1,5.51-1.13,46,46,0,0,1,5.31.34Zm-3-14.48a17,17,0,0,0-2.48-.17c-2,0-4.46.58-4.46,2.86,0,2.1,2.62,2.85,4.39,2.85h2.55Z"></path> <path class="cls-3" d="M60.61,197.13a35.77,35.77,0,0,1,5.24-.37c2.75,0,7.3.44,7.3,4.11,0,2-1.56,3.3-3.43,3.71v.07c2.41.34,4.18,1.7,4.18,4.08,0,4.31-5.44,4.86-8.67,4.86-1.83,0-3.74-.14-4.62-.21Zm2.82,14.28a18.45,18.45,0,0,0,2.42.14c2,0,5-.48,5-2.86s-2.38-2.89-5.23-2.89H63.43Zm0-7.58h2.24c2.21,0,4.49-.65,4.49-2.58,0-1.64-1.43-2.42-4.42-2.42a20.42,20.42,0,0,0-2.31.14Z"></path> <path class="cls-3" d="M80.57,196.93v5.61a13.68,13.68,0,0,1,2.68-.21c3.54,0,7.11,1.47,7.11,5.51a4.69,4.69,0,0,1-1.7,3.81c-1.8,1.53-4.45,1.9-6.63,1.9a42.41,42.41,0,0,1-4.42-.23V196.93Zm0,14.38a16.39,16.39,0,0,0,2.07.13c2.28,0,4.76-.95,4.76-3.5s-2.38-3.46-4.62-3.46a12.73,12.73,0,0,0-2.21.17Zm14.82-14.38v16.45h-3V196.93Z"></path> <path class="cls-3" d="M112.73,191.35a22.1,22.1,0,0,1-3.43.75c-2.65.41-4.59,1.29-5.85,3.09a11.75,11.75,0,0,0-1.8,5.44h.1a6.22,6.22,0,0,1,5.71-3.7c4.05,0,7,2.89,7,8.12s-2.78,8.71-7.61,8.71c-5.78,0-7.68-5.54-7.68-11,0-3.74.78-6.8,2.55-9.11,1.59-2.28,3.87-3.33,7.07-3.88a23.7,23.7,0,0,0,4.08-.88Zm-5.88,7.79a4,4,0,0,0-3.71,2.24,7.26,7.26,0,0,0-.81,3.5c0,2.72,1.32,6.63,4.59,6.63s4.52-3.19,4.52-6.22C111.44,202.61,110.38,199.14,106.85,199.14Z"></path> <path class="cls-3" d="M121,196.93v6.93c0,2.62,0,4.25-.17,6.6l.11,0c1-2,1.56-3.16,2.65-5.06l5.13-8.5h3.5v16.45h-2.85v-7c0-2.68.06-4.08.2-6.73h-.1c-1.06,2.11-1.77,3.44-2.72,5.1-1.56,2.55-3.37,5.71-5.13,8.6h-3.44V196.93Z"></path> <path class="cls-3" d="M137.08,202.3c0-2.11-.07-3.81-.14-5.37h2.69l.13,2.82h.07a6.46,6.46,0,0,1,5.85-3.2c4,0,7,3.37,7,8.37,0,5.91-3.61,8.84-7.48,8.84a5.79,5.79,0,0,1-5.07-2.59H140v8.94h-2.95Zm2.95,4.39a6.59,6.59,0,0,0,.14,1.22,4.62,4.62,0,0,0,4.49,3.5c3.16,0,5-2.58,5-6.36,0-3.29-1.73-6.12-4.89-6.12a4.77,4.77,0,0,0-4.52,3.71,5,5,0,0,0-.21,1.22Z"></path> <path class="cls-3" d="M165.53,213.38l-.24-2.07h-.1a6.13,6.13,0,0,1-5,2.45,4.69,4.69,0,0,1-5-4.73c0-4,3.54-6.15,9.89-6.12v-.34c0-1.36-.37-3.81-3.74-3.81A8.15,8.15,0,0,0,157,200l-.68-2a10.15,10.15,0,0,1,5.4-1.47c5,0,6.26,3.44,6.26,6.74v6.15a23.52,23.52,0,0,0,.27,3.94Zm-.44-8.39c-3.26-.07-7,.5-7,3.7a2.65,2.65,0,0,0,2.82,2.86,4.1,4.1,0,0,0,4-2.76,3.12,3.12,0,0,0,.17-.95Z"></path> <path class="cls-3" d="M185.35,196.93v16.45H182.4V199.27h-5.65v4.29c0,4.62-.44,7.71-2.58,9.11a4.78,4.78,0,0,1-3.26,1l-.31-2.35a3.67,3.67,0,0,0,1.63-.68c1.53-1.12,1.7-3.43,1.7-7.1v-6.63Z"></path> <path class="cls-3" d="M199.36,213.38l-.24-2.07H199a6.13,6.13,0,0,1-5,2.45,4.69,4.69,0,0,1-5-4.73c0-4,3.53-6.15,9.89-6.12v-.34c0-1.36-.37-3.81-3.74-3.81a8.15,8.15,0,0,0-4.28,1.23l-.68-2a10.15,10.15,0,0,1,5.4-1.47c5,0,6.26,3.44,6.26,6.74v6.15a23.52,23.52,0,0,0,.27,3.94Zm-.44-8.39c-3.26-.07-7,.5-7,3.7a2.65,2.65,0,0,0,2.82,2.86,4.1,4.1,0,0,0,4-2.76,3.12,3.12,0,0,0,.17-.95Z"></path> <path class="cls-3" d="M216.8,196.93v7.14h.72l6.19-7.14h3.63l-7.17,7.44c2.65.28,4.25,2,5.54,5a33.5,33.5,0,0,0,1.77,4h-3.13a21.78,21.78,0,0,1-1.53-3.36c-1.12-2.66-2.65-3.88-5.44-3.88h-.58v7.24h-3V196.93Z"></path> <path class="cls-3" d="M244.82,205c0,6.08-4.22,8.74-8.2,8.74-4.45,0-7.88-3.27-7.88-8.47,0-5.51,3.6-8.74,8.16-8.74C241.62,196.55,244.82,200,244.82,205Zm-13.06.17c0,3.6,2.08,6.32,5,6.32s5-2.68,5-6.39c0-2.79-1.4-6.32-4.93-6.32S231.76,202.06,231.76,205.19Z"></path> <path class="cls-3" d="M248.76,196.93h3.68l3,8.29c.4,1.23,1.12,3.23,1.49,4.52H257c.37-1.22,1.29-3.84,1.94-5.64l2.65-7.17h3.71l1.15,16.45h-2.85l-.38-7.85c-.1-1.77-.24-3.88-.3-5.88h-.11c-.44,1.49-.88,2.82-1.8,5.34l-3.16,8.29h-2.17l-2.93-8.12c-.51-1.57-1.22-3.95-1.63-5.48H251c-.06,1.94-.17,4.12-.27,5.92l-.41,7.78h-2.75Z"></path> <path class="cls-3" d="M283.85,196.93v16.45h-3V199.31h-7.65v14.07h-3V196.93Z"></path> <path class="cls-3" d="M297.82,213.38l-.23-2.07h-.11a6.11,6.11,0,0,1-5,2.45,4.69,4.69,0,0,1-5-4.73c0-4,3.54-6.15,9.89-6.12v-.34c0-1.36-.37-3.81-3.74-3.81a8.18,8.18,0,0,0-4.28,1.23l-.68-2a10.16,10.16,0,0,1,5.41-1.47c5,0,6.25,3.44,6.25,6.74v6.15a23.52,23.52,0,0,0,.27,3.94Zm-.44-8.39c-3.26-.07-7,.5-7,3.7a2.65,2.65,0,0,0,2.82,2.86,4.08,4.08,0,0,0,4-2.76,3.12,3.12,0,0,0,.17-.95Z"></path> <path class="cls-3" d="M308,196.93v6.63h7.82v-6.63h3v16.45h-3v-7.44H308v7.44h-3V196.93Z"></path> <path class="cls-3" d="M326.42,196.93v6.93c0,2.62,0,4.25-.17,6.6l.1,0c1-2,1.56-3.16,2.65-5.06l5.13-8.5h3.51v16.45h-2.86v-7c0-2.68.07-4.08.2-6.73h-.1c-1.05,2.11-1.77,3.44-2.72,5.1-1.56,2.55-3.36,5.71-5.13,8.6H323.6V196.93Z"></path> <path class="cls-3" d="M345.25,196.93v6.93c0,2.62,0,4.25-.17,6.6l.11,0c1-2,1.56-3.16,2.65-5.06l5.13-8.5h3.5v16.45h-2.85v-7c0-2.68.06-4.08.2-6.73h-.1c-1.06,2.11-1.77,3.44-2.72,5.1-1.57,2.55-3.37,5.71-5.14,8.6h-3.43V196.93Z"></path> <path class="cls-3" d="M366.6,217.56a48.16,48.16,0,0,0,2-8.12l3.34-.34a42.09,42.09,0,0,1-3.23,8.26Z"></path> <path class="cls-3" d="M384.45,205.7c.07,4,2.65,5.71,5.65,5.71a10.73,10.73,0,0,0,4.55-.85l.51,2.14a13.22,13.22,0,0,1-5.47,1c-5.07,0-8.09-3.33-8.09-8.29s2.92-8.88,7.71-8.88c5.38,0,6.8,4.73,6.8,7.76a10.28,10.28,0,0,1-.1,1.39Zm8.77-2.14c0-1.91-.78-4.86-4.14-4.86-3,0-4.35,2.78-4.59,4.86Z"></path> <path class="cls-3" d="M402.57,196.93v6.93c0,2.62,0,4.25-.17,6.6l.11,0c1-2,1.56-3.16,2.65-5.06l5.13-8.5h3.5v16.45h-2.85v-7c0-2.68.07-4.08.2-6.73H411c-1.05,2.11-1.77,3.44-2.72,5.1-1.56,2.55-3.37,5.71-5.13,8.6h-3.44V196.93Zm1.94-6.7c.1,1.46.82,2.59,2.18,2.59s2.14-1.09,2.31-2.59h2.14c-.13,2.79-1.9,4.22-4.52,4.22-3,0-4.15-1.87-4.28-4.22Z"></path> <path class="cls-3" d="M437.59,212.77a11,11,0,0,1-4.72.95c-5,0-8.19-3.36-8.19-8.4s3.46-8.73,8.83-8.73a10,10,0,0,1,4.15.85l-.68,2.31a6.89,6.89,0,0,0-3.47-.78c-3.77,0-5.81,2.79-5.81,6.22,0,3.81,2.45,6.15,5.71,6.15a8.56,8.56,0,0,0,3.67-.81Z"></path> <path class="cls-3" d="M444.06,196.93v7.14h.71l6.19-7.14h3.63l-7.17,7.44c2.65.28,4.25,2,5.54,5a33.5,33.5,0,0,0,1.77,4H451.6a21.78,21.78,0,0,1-1.53-3.36c-1.12-2.66-2.65-3.88-5.44-3.88h-.57v7.24h-3V196.93Z"></path> <path class="cls-3" d="M466.83,213.38l-.23-2.07h-.11a6.11,6.11,0,0,1-5,2.45,4.69,4.69,0,0,1-5-4.73c0-4,3.54-6.15,9.89-6.12v-.34c0-1.36-.37-3.81-3.74-3.81A8.18,8.18,0,0,0,458.3,200l-.68-2a10.16,10.16,0,0,1,5.41-1.47c5,0,6.25,3.44,6.25,6.74v6.15a23.52,23.52,0,0,0,.27,3.94Zm-.44-8.39c-3.26-.07-7,.5-7,3.7a2.65,2.65,0,0,0,2.82,2.86,4.08,4.08,0,0,0,4-2.76,3.12,3.12,0,0,0,.17-.95Z"></path> <path class="cls-3" d="M475.47,203.83h1.43c2.51,0,4.21-1.16,4.21-2.69s-1.32-2.38-3.19-2.38a8,8,0,0,0-4,1.16l-.75-1.84a10.46,10.46,0,0,1,5.48-1.49c2.51,0,5.57,1.12,5.57,4.32,0,2-1.87,3.36-3.7,3.74v.06c2.44.21,4.48,1.7,4.48,4.12,0,3.57-3.63,4.89-7.1,4.89a11.34,11.34,0,0,1-5.34-1.32l.78-2a9.44,9.44,0,0,0,4.35,1.12c2.49,0,4.05-1.19,4.05-2.82,0-2.21-2.31-2.82-4.79-2.82h-1.5Z"></path> <path class="cls-3" d="M497.88,213.38l-.24-2.07h-.1a6.15,6.15,0,0,1-5,2.45,4.69,4.69,0,0,1-5-4.73c0-4,3.54-6.15,9.9-6.12v-.34c0-1.36-.38-3.81-3.74-3.81a8.22,8.22,0,0,0-4.29,1.23l-.68-2a10.16,10.16,0,0,1,5.41-1.47c5,0,6.25,3.44,6.25,6.74v6.15a22.44,22.44,0,0,0,.28,3.94Zm-.45-8.39c-3.26-.07-7,.5-7,3.7a2.66,2.66,0,0,0,2.83,2.86,4.08,4.08,0,0,0,4-2.76,2.84,2.84,0,0,0,.17-.95Z"></path> <path class="cls-3" d="M517.7,196.93v16.45h-3V199.27H509.1v4.29c0,4.62-.45,7.71-2.59,9.11a4.76,4.76,0,0,1-3.26,1l-.31-2.35a3.63,3.63,0,0,0,1.63-.68c1.53-1.12,1.7-3.43,1.7-7.1v-6.63Z"></path> <path class="cls-3" d="M525.35,196.93v6.93c0,2.62,0,4.25-.17,6.6l.1,0c1-2,1.56-3.16,2.65-5.06l5.13-8.5h3.51v16.45h-2.86v-7c0-2.68.07-4.08.2-6.73h-.1c-1,2.11-1.77,3.44-2.72,5.1-1.56,2.55-3.36,5.71-5.13,8.6h-3.43V196.93Z"></path> <path class="cls-3" d="M74.21,237.73v16.45h-3V240.11H63.57v14.07h-3V237.73Z"></path> <path class="cls-3" d="M79.07,243.1c0-2.11-.07-3.81-.13-5.37h2.68l.14,2.82h.07a6.45,6.45,0,0,1,5.84-3.2c4,0,7,3.37,7,8.37,0,5.91-3.6,8.84-7.48,8.84A5.77,5.77,0,0,1,82.1,252H82v8.94h-3Zm3,4.39a6.59,6.59,0,0,0,.14,1.22,4.61,4.61,0,0,0,4.48,3.5c3.16,0,5-2.58,5-6.36,0-3.29-1.73-6.12-4.9-6.12a4.78,4.78,0,0,0-4.52,3.71,4.94,4.94,0,0,0-.2,1.22Z"></path> <path class="cls-3" d="M101.17,237.73v6.93c0,2.62,0,4.25-.17,6.6l.1,0c1-2,1.57-3.16,2.65-5.06l5.14-8.5h3.5v16.45h-2.86v-7c0-2.68.07-4.08.21-6.73h-.1c-1.06,2.11-1.77,3.43-2.72,5.1-1.57,2.55-3.37,5.71-5.14,8.6H98.35V237.73Z"></path> <path class="cls-3" d="M129.7,232.15a22,22,0,0,1-3.44.75c-2.65.41-4.59,1.29-5.85,3.09a11.87,11.87,0,0,0-1.8,5.44h.1a6.24,6.24,0,0,1,5.72-3.7c4,0,7,2.89,7,8.12,0,5.38-2.79,8.71-7.62,8.71-5.78,0-7.68-5.55-7.68-11,0-3.74.78-6.8,2.55-9.11,1.6-2.28,3.88-3.33,7.07-3.87a24.23,24.23,0,0,0,4.08-.89Zm-5.89,7.79a4,4,0,0,0-3.7,2.24,7.16,7.16,0,0,0-.82,3.5c0,2.72,1.33,6.63,4.59,6.63s4.52-3.19,4.52-6.22C128.4,243.41,127.35,239.94,123.81,239.94Z"></path> <path class="cls-3" d="M147.68,237.73v16.45h-3V240.07h-5.64v4.29c0,4.62-.44,7.71-2.58,9.11a4.86,4.86,0,0,1-3.27,1l-.3-2.35a3.72,3.72,0,0,0,1.63-.68c1.53-1.12,1.7-3.43,1.7-7.1v-6.63Z"></path> <path class="cls-3" d="M155.33,237.73v6.93c0,2.62,0,4.25-.17,6.6l.1,0c1-2,1.57-3.16,2.66-5.06l5.13-8.5h3.5v16.45H163.7v-7c0-2.68.06-4.08.2-6.73h-.1c-1.06,2.11-1.77,3.43-2.72,5.1-1.57,2.55-3.37,5.71-5.14,8.6h-3.43V237.73Z"></path> <path class="cls-3" d="M172.77,244.63h1.43c2.52,0,4.22-1.16,4.22-2.69s-1.33-2.38-3.2-2.38a8,8,0,0,0-4,1.16l-.74-1.84a10.43,10.43,0,0,1,5.47-1.49c2.52,0,5.57,1.12,5.57,4.32,0,2-1.86,3.36-3.7,3.74v.06c2.45.21,4.49,1.7,4.49,4.12,0,3.57-3.64,4.89-7.11,4.89a11.37,11.37,0,0,1-5.34-1.32l.79-2a9.41,9.41,0,0,0,4.35,1.12c2.48,0,4-1.19,4-2.82,0-2.21-2.31-2.82-4.79-2.82h-1.5Z"></path> <path class="cls-3" d="M188.82,237.73v6.93c0,2.62,0,4.25-.17,6.6l.1,0c1-2,1.57-3.16,2.66-5.06l5.13-8.5H200v16.45h-2.86v-7c0-2.68.07-4.08.21-6.73h-.1c-1.06,2.11-1.77,3.43-2.72,5.1-1.57,2.55-3.37,5.71-5.14,8.6H186V237.73Z"></path> <path class="cls-3" d="M215.92,237.73v2.38h-5.13v14.07h-3V240.11h-5.14v-2.38Z"></path> <path class="cls-3" d="M219.76,246.5c.07,4,2.65,5.71,5.64,5.71a10.74,10.74,0,0,0,4.56-.85l.51,2.14a13.25,13.25,0,0,1-5.47,1c-5.07,0-8.09-3.33-8.09-8.29s2.92-8.88,7.71-8.88c5.37,0,6.8,4.73,6.8,7.76a12.27,12.27,0,0,1-.1,1.39Zm8.77-2.14c0-1.91-.78-4.86-4.15-4.86-3,0-4.35,2.78-4.58,4.86Z"></path> <path class="cls-3" d="M247.64,237.73v16.45h-3V240.07H239v4.29c0,4.62-.44,7.71-2.58,9.11a4.86,4.86,0,0,1-3.27,1l-.3-2.35a3.72,3.72,0,0,0,1.63-.68c1.53-1.12,1.7-3.43,1.7-7.1v-6.63Z"></path> <path class="cls-3" d="M255.43,237.73v5.57a17.31,17.31,0,0,1,2.72-.17c3.7,0,7.61,1.16,7.61,5.54a4.68,4.68,0,0,1-1.73,3.78c-1.8,1.53-4.73,1.9-7.14,1.9a39.59,39.59,0,0,1-4.42-.24V237.73Zm0,14.38a17,17,0,0,0,2.21.13c2.24,0,5.13-.74,5.13-3.5s-3-3.46-5.2-3.46a13.07,13.07,0,0,0-2.14.17Z"></path> <path class="cls-3" d="M272.36,237.73v6.63h7.82v-6.63h3v16.45h-3v-7.44h-7.82v7.44h-3V237.73Z"></path> <path class="cls-3" d="M290.92,237.73v5.61a13.8,13.8,0,0,1,2.69-.21c3.53,0,7.1,1.47,7.1,5.51a4.65,4.65,0,0,1-1.7,3.81c-1.8,1.53-4.45,1.9-6.63,1.9a39.87,39.87,0,0,1-4.42-.24V237.73Zm0,14.38a16.56,16.56,0,0,0,2.08.13c2.27,0,4.75-1,4.75-3.5s-2.37-3.46-4.62-3.46a12.73,12.73,0,0,0-2.21.17Zm14.82-14.38v16.45h-2.95V237.73Z"></path> <path class="cls-3" d="M312.31,246.5c.07,4,2.65,5.71,5.64,5.71a10.81,10.81,0,0,0,4.56-.85l.51,2.14a13.31,13.31,0,0,1-5.48,1c-5.06,0-8.09-3.33-8.09-8.29s2.93-8.88,7.72-8.88c5.37,0,6.8,4.73,6.8,7.76a12.27,12.27,0,0,1-.1,1.39Zm8.77-2.14c0-1.91-.78-4.86-4.15-4.86-3,0-4.35,2.78-4.59,4.86Z"></path> <path class="cls-3" d="M337.77,237.73v14.11h7.58V237.73h3v14.21l1.7,0-.17,7.45h-2.31l-.14-5.24H334.81V237.73Z"></path> <path class="cls-3" d="M355.11,246.5c.07,4,2.65,5.71,5.65,5.71a10.73,10.73,0,0,0,4.55-.85l.51,2.14a13.22,13.22,0,0,1-5.47,1c-5.07,0-8.09-3.33-8.09-8.29s2.92-8.88,7.71-8.88c5.38,0,6.8,4.73,6.8,7.76a10.28,10.28,0,0,1-.1,1.39Zm8.77-2.14c0-1.91-.78-4.86-4.14-4.86-3,0-4.36,2.78-4.59,4.86Z"></path> <path class="cls-3" d="M373.37,237.73v6.63h7.82v-6.63h3v16.45h-3v-7.44h-7.82v7.44h-3V237.73Z"></path> <path class="cls-3" d="M391.93,237.73v5.61a13.8,13.8,0,0,1,2.69-.21c3.53,0,7.1,1.47,7.1,5.51a4.65,4.65,0,0,1-1.7,3.81c-1.8,1.53-4.45,1.9-6.62,1.9a39.59,39.59,0,0,1-4.42-.24V237.73Zm0,14.38a16.56,16.56,0,0,0,2.08.13c2.27,0,4.76-1,4.76-3.5s-2.38-3.46-4.63-3.46a12.82,12.82,0,0,0-2.21.17Zm14.83-14.38v16.45h-3V237.73Z"></path> <path class="cls-3" d="M409.72,258.36a50.16,50.16,0,0,0,2-8.12l3.33-.34a41.48,41.48,0,0,1-3.23,8.26Z"></path> <path class="cls-3" d="M428.65,237.73v6.93c0,2.62,0,4.25-.17,6.6l.1,0c1-2,1.57-3.16,2.66-5.06l5.13-8.5h3.5v16.45H437v-7c0-2.68.06-4.08.2-6.73h-.1c-1.06,2.11-1.77,3.43-2.72,5.1-1.57,2.55-3.37,5.71-5.13,8.6h-3.44V237.73Z"></path> <path class="cls-3" d="M471.63,242.49c0,7.88-4.8,12.07-10.64,12.07-6.05,0-10.3-4.7-10.3-11.63,0-7.28,4.52-12,10.64-12S471.63,235.69,471.63,242.49Zm-17.78.37c0,4.9,2.65,9.28,7.31,9.28s7.34-4.32,7.34-9.52c0-4.55-2.38-9.31-7.31-9.31S453.85,237.83,453.85,242.86Z"></path> <path class="cls-3" d="M487.71,237.73v16.45h-3V240.07h-5.64v4.29c0,4.62-.44,7.71-2.59,9.11a4.81,4.81,0,0,1-3.26,1l-.3-2.35a3.72,3.72,0,0,0,1.63-.68c1.53-1.12,1.7-3.43,1.7-7.1v-6.63Z"></path> <path class="cls-3" d="M495.5,237.73v5.57a17.31,17.31,0,0,1,2.72-.17c3.7,0,7.61,1.16,7.61,5.54a4.68,4.68,0,0,1-1.73,3.78c-1.8,1.53-4.73,1.9-7.14,1.9a39.59,39.59,0,0,1-4.42-.24V237.73Zm0,14.38a17,17,0,0,0,2.21.13c2.24,0,5.13-.74,5.13-3.5s-3-3.46-5.2-3.46a13.07,13.07,0,0,0-2.14.17Z"></path> <path class="cls-3" d="M519.57,237.73v2.41h-7.14v14h-3V237.73Z"></path> <path class="cls-3" d="M523.61,246.5c.07,4,2.66,5.71,5.65,5.71a10.73,10.73,0,0,0,4.55-.85l.51,2.14a13.22,13.22,0,0,1-5.47,1c-5.07,0-8.09-3.33-8.09-8.29s2.92-8.88,7.72-8.88c5.37,0,6.79,4.73,6.79,7.76a10.28,10.28,0,0,1-.1,1.39Zm8.78-2.14c0-1.91-.79-4.86-4.15-4.86-3,0-4.35,2.78-4.59,4.86Z"></path> <path class="cls-3" d="M74.21,278.53V295h-3V280.91H63.57V295h-3V278.53Z"></path> <path class="cls-3" d="M79.07,283.9c0-2.11-.07-3.81-.13-5.37h2.68l.14,2.82h.07a6.45,6.45,0,0,1,5.84-3.2c4,0,7,3.37,7,8.37,0,5.91-3.6,8.84-7.48,8.84a5.77,5.77,0,0,1-5.06-2.59H82v8.94h-3Zm3,4.38a6.6,6.6,0,0,0,.14,1.23,4.61,4.61,0,0,0,4.48,3.5c3.16,0,5-2.58,5-6.36,0-3.29-1.73-6.12-4.9-6.12a4.77,4.77,0,0,0-4.52,3.71,4.94,4.94,0,0,0-.2,1.22Z"></path> <path class="cls-3" d="M101.17,278.53v6.93c0,2.62,0,4.25-.17,6.6l.1,0c1-2,1.57-3.16,2.65-5.06l5.14-8.5h3.5V295h-2.86v-7c0-2.68.07-4.08.21-6.73h-.1c-1.06,2.11-1.77,3.44-2.72,5.1-1.57,2.55-3.37,5.71-5.14,8.6H98.35V278.53Z"></path> <path class="cls-3" d="M120.11,278.53v14.11h5.74V278.53h2.93v14.11h5.74V278.53h3V295h-20.3V278.53Z"></path> <path class="cls-3" d="M154.82,278.53V295h-3V280.87h-5.64v4.29c0,4.62-.44,7.71-2.58,9.11a4.86,4.86,0,0,1-3.27,1l-.3-2.35a3.72,3.72,0,0,0,1.63-.68c1.53-1.12,1.7-3.43,1.7-7.1v-6.63Z"></path> <path class="cls-3" d="M174.61,286.62c0,6.08-4.22,8.74-8.19,8.74-4.46,0-7.89-3.27-7.89-8.47,0-5.51,3.6-8.74,8.16-8.74C171.41,278.15,174.61,281.59,174.61,286.62Zm-13.06.17c0,3.6,2.08,6.32,5,6.32s5-2.68,5-6.39c0-2.79-1.4-6.32-4.93-6.32S161.55,283.66,161.55,286.79Z"></path> <path class="cls-3" d="M190.11,294.37a11,11,0,0,1-4.72.95c-5,0-8.2-3.36-8.2-8.4s3.47-8.73,8.84-8.73a10,10,0,0,1,4.15.85l-.68,2.31a6.89,6.89,0,0,0-3.47-.78c-3.77,0-5.81,2.79-5.81,6.22,0,3.81,2.45,6.15,5.71,6.15a8.56,8.56,0,0,0,3.67-.81Z"></path> <path class="cls-3" d="M196.51,278.53v5.57a17.31,17.31,0,0,1,2.72-.17c3.7,0,7.61,1.16,7.61,5.55a4.68,4.68,0,0,1-1.73,3.77c-1.8,1.53-4.73,1.9-7.14,1.9a39.59,39.59,0,0,1-4.42-.24V278.53Zm0,14.38a17,17,0,0,0,2.21.13c2.24,0,5.13-.74,5.13-3.5s-3-3.47-5.2-3.47a14.28,14.28,0,0,0-2.14.17Z"></path> <path class="cls-3" d="M230.2,273a22,22,0,0,1-3.44.75c-2.65.41-4.59,1.29-5.84,3.09a11.64,11.64,0,0,0-1.8,5.44h.1a6.21,6.21,0,0,1,5.71-3.7c4,0,7,2.89,7,8.12s-2.79,8.71-7.61,8.71c-5.78,0-7.69-5.54-7.69-11,0-3.74.79-6.8,2.55-9.11,1.6-2.28,3.88-3.33,7.07-3.88a23.3,23.3,0,0,0,4.08-.88Zm-5.88,7.79a4,4,0,0,0-3.71,2.24,7.27,7.27,0,0,0-.82,3.5c0,2.72,1.33,6.63,4.59,6.63s4.53-3.19,4.53-6.22C228.91,284.21,227.85,280.74,224.32,280.74Z"></path> <path class="cls-3" d="M235.71,283.9c0-2.11-.07-3.81-.14-5.37h2.69l.13,2.82h.07a6.47,6.47,0,0,1,5.85-3.2c4,0,7,3.37,7,8.37,0,5.91-3.61,8.84-7.48,8.84a5.79,5.79,0,0,1-5.07-2.59h-.06v8.94h-3Zm3,4.38a6.63,6.63,0,0,0,.13,1.23,4.63,4.63,0,0,0,4.49,3.5c3.16,0,5-2.58,5-6.36,0-3.29-1.74-6.12-4.9-6.12a4.77,4.77,0,0,0-4.52,3.71,4.94,4.94,0,0,0-.2,1.22Z"></path> <path class="cls-3" d="M264.16,295l-.23-2.07h-.11a6.11,6.11,0,0,1-5,2.45,4.69,4.69,0,0,1-5-4.73c0-4,3.54-6.15,9.89-6.12v-.34c0-1.36-.37-3.81-3.74-3.81a8.18,8.18,0,0,0-4.28,1.23l-.68-2a10.16,10.16,0,0,1,5.41-1.47c5,0,6.25,3.44,6.25,6.74V291a23.52,23.52,0,0,0,.27,3.94Zm-.44-8.4c-3.26-.06-7,.51-7,3.71a2.65,2.65,0,0,0,2.82,2.86,4.08,4.08,0,0,0,4-2.76,3.12,3.12,0,0,0,.17-.95Z"></path> <path class="cls-3" d="M282.32,278.53v2.38h-5.13V295h-3V280.91H269.1v-2.38Z"></path> <path class="cls-3" d="M287.83,278.53v5.57a17.31,17.31,0,0,1,2.72-.17c3.7,0,7.61,1.16,7.61,5.55a4.68,4.68,0,0,1-1.73,3.77c-1.8,1.53-4.73,1.9-7.14,1.9a39.73,39.73,0,0,1-4.42-.24V278.53Zm0,14.38A17.08,17.08,0,0,0,290,293c2.24,0,5.13-.74,5.13-3.5s-3-3.47-5.2-3.47a14.28,14.28,0,0,0-2.14.17Z"></path> <path class="cls-3" d="M309,278.73a35.77,35.77,0,0,1,5.24-.37c2.75,0,7.31.44,7.31,4.11,0,2-1.57,3.3-3.44,3.71v.06c2.42.34,4.18,1.71,4.18,4.08,0,4.32-5.44,4.87-8.67,4.87-1.83,0-3.74-.14-4.62-.21ZM311.83,293a18.45,18.45,0,0,0,2.42.14c2,0,5-.48,5-2.86s-2.38-2.89-5.23-2.89h-2.18Zm0-7.58h2.24c2.21,0,4.49-.65,4.49-2.58,0-1.64-1.43-2.42-4.42-2.42a20.42,20.42,0,0,0-2.31.14Z"></path> <path class="cls-3" d="M329,278.53v5.61a13.68,13.68,0,0,1,2.68-.21c3.54,0,7.11,1.47,7.11,5.51a4.69,4.69,0,0,1-1.7,3.81c-1.8,1.53-4.45,1.9-6.63,1.9a39.59,39.59,0,0,1-4.42-.24V278.53Zm0,14.38A16.39,16.39,0,0,0,331,293c2.28,0,4.76-1,4.76-3.5s-2.38-3.47-4.62-3.47a13.8,13.8,0,0,0-2.21.17Zm14.82-14.38V295h-3V278.53Z"></path> <path class="cls-3" d="M350.08,278.53l2.35,3.53c.61.92,1.12,1.77,1.66,2.69h.11c.54-1,1.08-1.84,1.63-2.72l2.31-3.5h3.23l-5.61,8,5.78,8.5h-3.4l-2.41-3.7c-.65-1-1.19-1.87-1.77-2.86h-.07c-.54,1-1.12,1.87-1.73,2.86l-2.38,3.7h-3.3l5.85-8.4-5.58-8.05Z"></path> <path class="cls-3" d="M378.84,286.62c0,6.08-4.21,8.74-8.19,8.74-4.45,0-7.89-3.27-7.89-8.47,0-5.51,3.61-8.74,8.16-8.74C375.65,278.15,378.84,281.59,378.84,286.62Zm-13,.17c0,3.6,2.07,6.32,5,6.32s5-2.68,5-6.39c0-2.79-1.4-6.32-4.93-6.32S365.79,283.66,365.79,286.79Z"></path> <path class="cls-3" d="M395.13,278.53v14.21l1.7,0-.17,7.45h-2.35l-.13-5.24H382.79l-.14,5.24h-2.34l-.14-7.45,1.4,0a13.27,13.27,0,0,0,1.63-3.37,21.91,21.91,0,0,0,.95-6.56v-4.28Zm-8.33,5a21.65,21.65,0,0,1-.85,6.12,15.41,15.41,0,0,1-1.32,3.05h7.58V280.81H386.8Z"></path> <path class="cls-3" d="M403.29,278.53v6.63h7.82v-6.63h3V295h-3v-7.44h-7.82V295h-3V278.53Z"></path> <path class="cls-3" d="M433.86,286.62c0,6.08-4.22,8.74-8.2,8.74-4.45,0-7.88-3.27-7.88-8.47,0-5.51,3.6-8.74,8.16-8.74C430.66,278.15,433.86,281.59,433.86,286.62Zm-13.06.17c0,3.6,2.08,6.32,5,6.32s5-2.68,5-6.39c0-2.79-1.4-6.32-4.93-6.32S420.8,283.66,420.8,286.79Z"></path> <path class="cls-3" d="M440.39,278.53v6.93c0,2.62,0,4.25-.17,6.6l.1,0c1-2,1.56-3.16,2.65-5.06l5.13-8.5h3.5V295h-2.85v-7c0-2.68.07-4.08.2-6.73h-.1c-1.05,2.11-1.77,3.44-2.72,5.1-1.56,2.55-3.36,5.71-5.13,8.6h-3.44V278.53Zm1.93-6.7c.11,1.46.82,2.58,2.18,2.58s2.14-1.08,2.31-2.58H449c-.13,2.79-1.9,4.22-4.52,4.22-3,0-4.15-1.87-4.28-4.22Z"></path> <path class="cls-3" d="M466.43,278.53v6.93c0,2.62,0,4.25-.17,6.6l.1,0c1-2,1.57-3.16,2.65-5.06l5.14-8.5h3.5V295h-2.86v-7c0-2.68.07-4.08.21-6.73h-.11c-1.05,2.11-1.76,3.44-2.72,5.1-1.56,2.55-3.36,5.71-5.13,8.6h-3.43V278.53Z"></path> <path class="cls-3" d="M491.11,278.53l5.44,7.17h.61v-7.17H500v7.17h.58l5.44-7.17h3.43L503,286c2.48.27,3.94,1.73,4.93,4.35a39.82,39.82,0,0,0,1.8,4.62h-3a23.63,23.63,0,0,1-1.5-3.77c-1-2.69-2.55-3.5-4.69-3.5H500V295h-2.86v-7.27h-.54c-2.31,0-3.7.85-4.72,3.53a29.33,29.33,0,0,1-1.57,3.74h-2.89a45.26,45.26,0,0,0,1.8-4.59c1-2.65,2.49-4.11,5-4.38l-6.53-7.48Z"></path> <path class="cls-3" d="M526,278.53v14.21l1.7,0-.17,7.45h-2.35L525,295H513.65l-.13,5.24h-2.35l-.13-7.45,1.39,0a12.64,12.64,0,0,0,1.63-3.37,21.6,21.6,0,0,0,1-6.56v-4.28Zm-8.33,5a22,22,0,0,1-.85,6.12,15.42,15.42,0,0,1-1.33,3.05h7.58V280.81h-5.4Z"></path> <path class="cls-3" d="M540.38,295l-.24-2.07H540a6.14,6.14,0,0,1-5,2.45,4.69,4.69,0,0,1-5-4.73c0-4,3.54-6.15,9.9-6.12v-.34c0-1.36-.38-3.81-3.74-3.81a8.22,8.22,0,0,0-4.29,1.23l-.68-2a10.19,10.19,0,0,1,5.41-1.47c5,0,6.26,3.44,6.26,6.74V291a22.51,22.51,0,0,0,.27,3.94Zm-.44-8.4c-3.27-.06-7,.51-7,3.71a2.65,2.65,0,0,0,2.82,2.86,4.1,4.1,0,0,0,4-2.76,3.12,3.12,0,0,0,.17-.95Z"></path> <path class="cls-3" d="M558.53,278.53v2.38H553.4V295h-3V280.91h-5.13v-2.38Z"></path> <path class="cls-3" d="M564,278.53v5.57a17.39,17.39,0,0,1,2.72-.17c3.71,0,7.62,1.16,7.62,5.55a4.66,4.66,0,0,1-1.74,3.77c-1.8,1.53-4.72,1.9-7.14,1.9a39.54,39.54,0,0,1-4.41-.24V278.53Zm0,14.38a17.2,17.2,0,0,0,2.21.13c2.25,0,5.14-.74,5.14-3.5s-3-3.47-5.2-3.47a14.31,14.31,0,0,0-2.15.17Z"></path> <path class="cls-3" d="M60.85,319.33h3.67l3,8.29c.41,1.23,1.12,3.23,1.5,4.53h.07c.37-1.23,1.29-3.85,1.93-5.65l2.65-7.17h3.71l1.16,16.45H75.67l-.37-7.85c-.11-1.77-.24-3.88-.31-5.88h-.1c-.44,1.49-.89,2.82-1.8,5.34l-3.16,8.29H67.75l-2.92-8.12c-.51-1.57-1.23-3.95-1.64-5.48h-.13c-.07,1.94-.17,4.12-.27,5.92l-.41,7.78H59.62Z"></path> <path class="cls-3" d="M91.51,335.78l-.23-2.07h-.11a6.11,6.11,0,0,1-5,2.45,4.69,4.69,0,0,1-5-4.73c0-4,3.54-6.15,9.89-6.12V325c0-1.36-.37-3.81-3.73-3.81A8.22,8.22,0,0,0,83,322.39l-.68-2A10.16,10.16,0,0,1,87.71,319c5,0,6.25,3.44,6.25,6.74v6.15a23.52,23.52,0,0,0,.27,3.94Zm-.44-8.39c-3.26-.07-7,.51-7,3.7A2.66,2.66,0,0,0,86.93,334a4.08,4.08,0,0,0,4-2.76,3.12,3.12,0,0,0,.17-.95Z"></path> <path class="cls-3" d="M110.52,335.17a11,11,0,0,1-4.73.95c-5,0-8.19-3.36-8.19-8.39s3.47-8.74,8.84-8.74a10,10,0,0,1,4.15.85l-.68,2.31a7,7,0,0,0-3.47-.78c-3.77,0-5.81,2.79-5.81,6.22,0,3.81,2.44,6.15,5.71,6.15a8.56,8.56,0,0,0,3.67-.81Z"></path> <path class="cls-3" d="M125.68,319.33v2.38h-5.13v14.07h-3V321.71h-5.13v-2.38Z"></path> <path class="cls-3" d="M129.53,328.1c.07,4,2.65,5.71,5.64,5.71a10.81,10.81,0,0,0,4.56-.85l.51,2.14a13.31,13.31,0,0,1-5.48,1c-5.06,0-8.09-3.33-8.09-8.29s2.93-8.88,7.72-8.88c5.37,0,6.8,4.73,6.8,7.76a12.27,12.27,0,0,1-.1,1.39ZM138.3,326c0-1.91-.78-4.86-4.15-4.86-3,0-4.35,2.78-4.59,4.86Z"></path> <path class="cls-3" d="M144.9,324.7c0-2.11-.07-3.81-.14-5.37h2.68l.14,2.82h.07a6.46,6.46,0,0,1,5.85-3.2c4,0,7,3.37,7,8.37,0,5.91-3.61,8.84-7.48,8.84a5.79,5.79,0,0,1-5.07-2.59h-.07v8.94H144.9Zm2.95,4.38a6.5,6.5,0,0,0,.14,1.23,4.61,4.61,0,0,0,4.49,3.5c3.16,0,5-2.58,5-6.36,0-3.29-1.73-6.12-4.89-6.12a4.77,4.77,0,0,0-4.52,3.71,4.52,4.52,0,0,0-.21,1.22Z"></path> <path class="cls-3" d="M173.35,335.78l-.24-2.07H173a6.13,6.13,0,0,1-5,2.45,4.69,4.69,0,0,1-5-4.73c0-4,3.53-6.15,9.89-6.12V325c0-1.36-.37-3.81-3.74-3.81a8.15,8.15,0,0,0-4.28,1.23l-.68-2a10.15,10.15,0,0,1,5.4-1.47c5,0,6.26,3.44,6.26,6.74v6.15a23.52,23.52,0,0,0,.27,3.94Zm-.44-8.39c-3.26-.07-7,.51-7,3.7a2.65,2.65,0,0,0,2.82,2.86,4.1,4.1,0,0,0,4-2.76,3.12,3.12,0,0,0,.17-.95Z"></path> <path class="cls-3" d="M201.37,319.33v16.45h-3V321.71h-7.64v14.07h-3V319.33Z"></path> <path class="cls-3" d="M221.12,327.42c0,6.08-4.22,8.74-8.19,8.74-4.46,0-7.89-3.27-7.89-8.47,0-5.51,3.6-8.74,8.16-8.74C217.92,319,221.12,322.39,221.12,327.42Zm-13.06.17c0,3.6,2.08,6.32,5,6.32s5-2.68,5-6.39c0-2.79-1.39-6.32-4.93-6.32S208.06,324.46,208.06,327.59Z"></path> <path class="cls-3" d="M237.37,319.33v16.45h-3V321.67h-5.64V326c0,4.62-.44,7.71-2.58,9.11a4.86,4.86,0,0,1-3.27,1l-.3-2.35a3.67,3.67,0,0,0,1.63-.68c1.53-1.12,1.7-3.43,1.7-7.1v-6.63Z"></path> <path class="cls-3" d="M262.23,319.33v14.21l1.69,0-.17,7.45h-2.34l-.14-5.24H249.88l-.13,5.24H247.4l-.13-7.45,1.39,0a12.8,12.8,0,0,0,1.63-3.37,21.59,21.59,0,0,0,1-6.56v-4.28Zm-8.33,5a22,22,0,0,1-.85,6.13,15.42,15.42,0,0,1-1.33,3.05h7.58V321.61h-5.4Z"></path> <path class="cls-3" d="M270.39,319.33V326h7.82v-6.63h3v16.45h-3v-7.44h-7.82v7.44h-3V319.33Z"></path> <path class="cls-3" d="M298.2,335.78h-3v-6.9H293a3.86,3.86,0,0,0-2.75.92c-1.23,1-1.67,3-2.32,4.62a9.58,9.58,0,0,1-.68,1.36h-3.19a10.89,10.89,0,0,0,1-1.87c.71-1.59,1.12-3.74,2.58-5a3.88,3.88,0,0,1,1.87-.95v-.1c-2.14-.24-4.35-1.57-4.35-4.08a4,4,0,0,1,2.18-3.57,11.39,11.39,0,0,1,5.5-1.13,46,46,0,0,1,5.31.34Zm-3-14.48a17,17,0,0,0-2.48-.17c-2,0-4.46.58-4.46,2.86,0,2.1,2.62,2.85,4.39,2.85h2.55Z"></path> <path class="cls-3" d="M323,319.33v14.21l1.7,0-.17,7.45H322.2l-.14-5.24H310.67l-.13,5.24h-2.35l-.13-7.45,1.39,0a12.49,12.49,0,0,0,1.63-3.37,21.59,21.59,0,0,0,.95-6.56v-4.28Zm-8.33,5a22,22,0,0,1-.85,6.13,15.42,15.42,0,0,1-1.33,3.05h7.58V321.61h-5.4Z"></path> <path class="cls-3" d="M343,327.42c0,6.08-4.21,8.74-8.19,8.74-4.45,0-7.89-3.27-7.89-8.47,0-5.51,3.6-8.74,8.16-8.74C339.85,319,343,322.39,343,327.42Zm-13.05.17c0,3.6,2.07,6.32,5,6.32s5-2.68,5-6.39c0-2.79-1.39-6.32-4.93-6.32S330,324.46,330,327.59Z"></path> <path class="cls-3" d="M347,319.33h3.67l3,8.29c.41,1.23,1.12,3.23,1.5,4.53h.06c.38-1.23,1.3-3.85,1.94-5.65l2.65-7.17h3.71l1.16,16.45h-2.86l-.37-7.85c-.11-1.77-.24-3.88-.31-5.88H361c-.44,1.49-.89,2.82-1.8,5.34l-3.17,8.29h-2.17L351,327.56c-.51-1.57-1.22-3.95-1.63-5.48h-.13c-.07,1.94-.17,4.12-.28,5.92l-.4,7.78h-2.76Z"></path> <path class="cls-3" d="M377.65,335.78l-.23-2.07h-.11a6.11,6.11,0,0,1-5,2.45,4.69,4.69,0,0,1-5-4.73c0-4,3.54-6.15,9.89-6.12V325c0-1.36-.37-3.81-3.74-3.81a8.18,8.18,0,0,0-4.28,1.23l-.68-2a10.16,10.16,0,0,1,5.41-1.47c5,0,6.25,3.44,6.25,6.74v6.15a23.52,23.52,0,0,0,.27,3.94Zm-.44-8.39c-3.26-.07-7,.51-7,3.7a2.65,2.65,0,0,0,2.82,2.86,4.08,4.08,0,0,0,4-2.76,3.12,3.12,0,0,0,.17-.95Z"></path> <path class="cls-3" d="M384.35,334.05a2,2,0,0,1,2-2.11,2,2,0,0,1,2,2.11,2,2,0,0,1-2,2.11A2,2,0,0,1,384.35,334.05Zm.85-4.86-.47-16.32H388l-.48,16.32Z"></path> </g> </g> </svg> 