<?xml version="1.0" encoding="UTF-8"?> <svg xmlns="http://www.w3.org/2000/svg" viewBox="0 0 642 302.49"> <defs> <style>.cls-1{fill:#ccf5ff;}.cls-2{fill:#29abe2;}.cls-3{fill:#1a1a1a;}</style> </defs> <title>Ресурс 5</title> <g id="Слой_2" data-name="Слой 2"> <g id="Слой_1-2" data-name="Слой 1"> <path class="cls-1" d="M57.48,299.49A54.54,54.54,0,0,1,3,245V85A54.54,54.54,0,0,1,57.48,30.49H78a3,3,0,0,0,3-3V3.82A.82.82,0,0,1,81.82,3a.81.81,0,0,1,.46.15l38.17,26.79a3,3,0,0,0,1.73.55H584.52A54.54,54.54,0,0,1,639,85V245a54.54,54.54,0,0,1-54.48,54.48Z"></path> <path class="cls-2" d="M84,8,118.73,32.4a6,6,0,0,0,3.45,1.09H584.52A51.53,51.53,0,0,1,636,85V245a51.53,51.53,0,0,1-51.48,51.48h-527A51.53,51.53,0,0,1,6,245V85A51.53,51.53,0,0,1,57.48,33.49H78a6,6,0,0,0,6-6V8M81.82,0A3.82,3.82,0,0,0,78,3.82V27.49H57.48A57.47,57.47,0,0,0,0,85V245a57.48,57.48,0,0,0,57.48,57.48h527A57.48,57.48,0,0,0,642,245V85a57.47,57.47,0,0,0-57.48-57.47H122.18L84,.7A3.76,3.76,0,0,0,81.82,0Z"></path> <path class="cls-3" d="M60.74,86.75,58.36,94H55.3L63.08,71h3.57L74.47,94H71.31l-2.45-7.21Zm7.51-2.31L66,77.84c-.51-1.49-.85-2.85-1.19-4.18h-.06c-.34,1.36-.72,2.76-1.16,4.15l-2.24,6.63Z"></path> <path class="cls-3" d="M85.62,84.57h8.3a5.27,5.27,0,0,0-5.68-5.13,9.15,9.15,0,0,0-3.94.92l-.65-1.94a10.63,10.63,0,0,1,5.07-1.29,8.13,8.13,0,0,1,6,2.34,9,9,0,0,1,2.24,6.33c0,4.79-3.16,8.53-8.73,8.53a10.75,10.75,0,0,1-4.8-1.12L84,91.07A10,10,0,0,0,88.1,92a5.47,5.47,0,0,0,5.78-5.34H85.62Z"></path> <path class="cls-3" d="M111.56,77.5v2.38h-5.13V94h-3V79.88H98.34V77.5Z"></path> <path class="cls-3" d="M128.63,85.59c0,6.09-4.21,8.74-8.19,8.74-4.46,0-7.89-3.26-7.89-8.46,0-5.51,3.6-8.74,8.16-8.74C125.44,77.13,128.63,80.56,128.63,85.59Zm-13,.17c0,3.61,2.07,6.33,5,6.33s5-2.69,5-6.39c0-2.79-1.39-6.33-4.93-6.33S115.58,82.64,115.58,85.76Z"></path> <path class="cls-3" d="M142.5,71V80.7c0,3.64-.06,6.63-.27,9.69l.07,0c1.16-2.38,2.58-4.86,4.25-7.58L154,71h3V94h-2.79V84.2c0-3.71,0-6.43.27-9.31l-.1,0a68.21,68.21,0,0,1-4.25,7.72L142.88,94h-3.16V71Z"></path> <path class="cls-3" d="M164.88,77.5v6.63h7.82V77.5h3V94h-3V86.51h-7.82V94h-3V77.5Z"></path> <path class="cls-3" d="M183.44,77.5v6.63h7.82V77.5h3V94h-3V86.51h-7.82V94h-3V77.5Z"></path> <path class="cls-3" d="M208.22,94,208,91.88h-.11a6.09,6.09,0,0,1-5,2.45,4.68,4.68,0,0,1-5-4.72c0-4,3.54-6.16,9.89-6.12v-.34c0-1.36-.37-3.81-3.74-3.81a8.2,8.2,0,0,0-4.28,1.22l-.68-2a10.25,10.25,0,0,1,5.41-1.46c5,0,6.25,3.43,6.25,6.73V90a23.65,23.65,0,0,0,.27,3.95Zm-.44-8.4c-3.26-.07-7,.51-7,3.71a2.65,2.65,0,0,0,2.82,2.85,4.09,4.09,0,0,0,4-2.75,3.23,3.23,0,0,0,.17-1Z"></path> <path class="cls-3" d="M213.56,98.14a48.29,48.29,0,0,0,2-8.13l3.33-.34a41.28,41.28,0,0,1-3.22,8.26Z"></path> <path class="cls-3" d="M232.64,71V80.7c0,3.64-.07,6.63-.28,9.69l.07,0c1.16-2.38,2.59-4.86,4.25-7.58L244.09,71h3V94h-2.79V84.2c0-3.71,0-6.43.27-9.31l-.1,0a68.21,68.21,0,0,1-4.25,7.72L233,94h-3.16V71Z"></path> <path class="cls-3" d="M255,77.5v6.63h7.82V77.5h2.95V94h-2.95V86.51H255V94h-3V77.5Z"></path> <path class="cls-3" d="M273.57,77.5v6.63h7.82V77.5h3V94h-3V86.51h-7.82V94h-3V77.5Z"></path> <path class="cls-3" d="M298.36,94l-.24-2.08H298a6.12,6.12,0,0,1-5,2.45,4.68,4.68,0,0,1-5-4.72c0-4,3.54-6.16,9.9-6.12v-.34c0-1.36-.38-3.81-3.74-3.81a8.21,8.21,0,0,0-4.29,1.22l-.68-2a10.25,10.25,0,0,1,5.41-1.46c5,0,6.25,3.43,6.25,6.73V90a22.56,22.56,0,0,0,.28,3.95Zm-.45-8.4c-3.26-.07-7,.51-7,3.71a2.65,2.65,0,0,0,2.83,2.85,4.08,4.08,0,0,0,4-2.75,2.93,2.93,0,0,0,.17-1Z"></path> <path class="cls-3" d="M327.73,85.59c0,6.09-4.22,8.74-8.19,8.74-4.46,0-7.89-3.26-7.89-8.46,0-5.51,3.6-8.74,8.16-8.74C324.54,77.13,327.73,80.56,327.73,85.59Zm-13.05.17c0,3.61,2.07,6.33,5,6.33s5-2.69,5-6.39c0-2.79-1.39-6.33-4.93-6.33S314.68,82.64,314.68,85.76Z"></path> <path class="cls-3" d="M341.3,69.82V77.2c4.79.34,8.26,3.36,8.26,8.5,0,5.4-3.67,8.26-8.26,8.56v6.43h-2.72V94.3c-4.76-.31-8.26-3.3-8.26-8.43,0-5.44,3.63-8.3,8.26-8.67V69.82Zm-2.72,9.42c-3.33.44-5.31,3.16-5.31,6.52s2,6.06,5.31,6.46Zm2.72,13c3.29-.44,5.3-3.16,5.3-6.52s-2-6-5.3-6.46Z"></path> <path class="cls-3" d="M368.19,85.59c0,6.09-4.22,8.74-8.19,8.74-4.46,0-7.89-3.26-7.89-8.46,0-5.51,3.6-8.74,8.16-8.74C365,77.13,368.19,80.56,368.19,85.59Zm-13.06.17c0,3.61,2.08,6.33,5,6.33s5-2.69,5-6.39c0-2.79-1.39-6.33-4.93-6.33S355.13,82.64,355.13,85.76Z"></path> <path class="cls-3" d="M372,82.87c0-2.1-.07-3.8-.14-5.37h2.69l.13,2.82h.07a6.47,6.47,0,0,1,5.85-3.19c4,0,7,3.36,7,8.36,0,5.92-3.61,8.84-7.48,8.84A5.78,5.78,0,0,1,375,91.75h-.07v8.94H372Zm2.95,4.39a6.49,6.49,0,0,0,.14,1.22A4.62,4.62,0,0,0,379.55,92c3.16,0,5-2.59,5-6.36,0-3.3-1.73-6.12-4.89-6.12a4.77,4.77,0,0,0-4.52,3.7,5,5,0,0,0-.21,1.23Z"></path> <path class="cls-3" d="M391.48,77.5h3.67l3,8.3c.41,1.22,1.13,3.23,1.5,4.52h.07c.37-1.22,1.29-3.84,1.94-5.64l2.65-7.18H408L409.16,94H406.3l-.37-7.86c-.1-1.76-.24-3.87-.31-5.88h-.1c-.44,1.5-.88,2.82-1.8,5.34l-3.16,8.29h-2.18l-2.92-8.12c-.51-1.56-1.22-3.94-1.63-5.47h-.14c-.07,1.93-.17,4.11-.27,5.91L393,94h-2.75Z"></path> <path class="cls-3" d="M415.79,77.5v6.94c0,2.62,0,4.25-.17,6.59l.1,0c1-2,1.57-3.16,2.66-5.07l5.13-8.5H427V94h-2.86V87c0-2.69.07-4.08.21-6.73h-.1c-1.06,2.1-1.77,3.43-2.72,5.1-1.57,2.55-3.37,5.71-5.14,8.6H413V77.5Z"></path> <path class="cls-3" d="M444.35,77.5V94h-3V79.85h-5.64v4.28c0,4.63-.44,7.72-2.58,9.11a4.81,4.81,0,0,1-3.27,1l-.3-2.34a3.72,3.72,0,0,0,1.63-.68c1.53-1.12,1.7-3.44,1.7-7.11V77.5Z"></path> <path class="cls-3" d="M458.36,94l-.24-2.08H458a6.12,6.12,0,0,1-5,2.45,4.69,4.69,0,0,1-5-4.72c0-4,3.54-6.16,9.9-6.12v-.34c0-1.36-.38-3.81-3.74-3.81a8.21,8.21,0,0,0-4.29,1.22l-.68-2a10.27,10.27,0,0,1,5.41-1.46c5,0,6.26,3.43,6.26,6.73V90a22.63,22.63,0,0,0,.27,3.95Zm-.44-8.4c-3.27-.07-7,.51-7,3.71a2.65,2.65,0,0,0,2.82,2.85,4.1,4.1,0,0,0,4-2.75,3.23,3.23,0,0,0,.17-1Z"></path> <path class="cls-3" d="M474.2,84.4h1.43c2.52,0,4.22-1.15,4.22-2.68s-1.33-2.38-3.2-2.38a8,8,0,0,0-4,1.15l-.75-1.83a10.47,10.47,0,0,1,5.48-1.5c2.51,0,5.57,1.12,5.57,4.32,0,2-1.87,3.37-3.7,3.74v.07c2.44.2,4.48,1.7,4.48,4.11,0,3.57-3.63,4.9-7.1,4.9A11.23,11.23,0,0,1,471.31,93l.78-2a9.58,9.58,0,0,0,4.36,1.12c2.48,0,4-1.19,4-2.82,0-2.21-2.31-2.83-4.79-2.83h-1.5Z"></path> <path class="cls-3" d="M496.61,94l-.24-2.08h-.1a6.12,6.12,0,0,1-5,2.45,4.69,4.69,0,0,1-5-4.72c0-4,3.54-6.16,9.9-6.12v-.34c0-1.36-.38-3.81-3.74-3.81a8.21,8.21,0,0,0-4.29,1.22l-.68-2a10.27,10.27,0,0,1,5.41-1.46c5,0,6.26,3.43,6.26,6.73V90a22.63,22.63,0,0,0,.27,3.95Zm-.44-8.4c-3.27-.07-7,.51-7,3.71A2.65,2.65,0,0,0,492,92.12a4.1,4.1,0,0,0,4-2.75,3.23,3.23,0,0,0,.17-1Z"></path> <path class="cls-3" d="M506.84,77.5v7.14h.72l6.18-7.14h3.64L510.21,85c2.65.27,4.25,2,5.54,5a35,35,0,0,0,1.77,4h-3.13a22.42,22.42,0,0,1-1.53-3.37c-1.12-2.65-2.65-3.87-5.44-3.87h-.58V94h-3V77.5Z"></path> <path class="cls-3" d="M529.62,94l-.24-2.08h-.1a6.12,6.12,0,0,1-5,2.45,4.68,4.68,0,0,1-5-4.72c0-4,3.53-6.16,9.89-6.12v-.34c0-1.36-.37-3.81-3.74-3.81a8.15,8.15,0,0,0-4.28,1.22l-.68-2a10.24,10.24,0,0,1,5.4-1.46c5,0,6.26,3.43,6.26,6.73V90a23.65,23.65,0,0,0,.27,3.95Zm-.44-8.4c-3.27-.07-7,.51-7,3.71A2.65,2.65,0,0,0,525,92.12a4.1,4.1,0,0,0,4-2.75,3.23,3.23,0,0,0,.17-1Z"></path> <path class="cls-3" d="M538.26,84.4h1.42c2.52,0,4.22-1.15,4.22-2.68s-1.33-2.38-3.2-2.38a7.94,7.94,0,0,0-4,1.15L536,78.66a10.44,10.44,0,0,1,5.47-1.5c2.52,0,5.58,1.12,5.58,4.32,0,2-1.87,3.37-3.71,3.74v.07c2.45.2,4.49,1.7,4.49,4.11,0,3.57-3.64,4.9-7.11,4.9A11.22,11.22,0,0,1,535.37,93l.78-2a9.57,9.57,0,0,0,4.35,1.12c2.48,0,4-1.19,4-2.82,0-2.21-2.32-2.83-4.8-2.83h-1.49Z"></path> <path class="cls-3" d="M57.1,118.3h3.67l3,8.3c.41,1.22,1.12,3.23,1.5,4.52h.06c.38-1.22,1.3-3.84,1.94-5.64l2.65-7.18h3.71l1.16,16.46H71.92l-.37-7.86c-.11-1.76-.24-3.87-.31-5.88h-.1c-.44,1.5-.89,2.83-1.8,5.34l-3.17,8.3H64l-2.92-8.13c-.51-1.56-1.23-3.94-1.64-5.47h-.13c-.07,1.94-.17,4.11-.27,5.91l-.41,7.79H55.87Z"></path> <path class="cls-3" d="M87.76,134.76l-.23-2.08h-.11a6.09,6.09,0,0,1-5,2.45,4.68,4.68,0,0,1-5-4.72c0-4,3.54-6.16,9.89-6.12V124c0-1.36-.37-3.81-3.74-3.81a8.17,8.17,0,0,0-4.28,1.22l-.68-2A10.25,10.25,0,0,1,84,117.93c5,0,6.25,3.43,6.25,6.73v6.15a23.65,23.65,0,0,0,.27,3.95Zm-.44-8.4c-3.26-.07-7,.51-7,3.71a2.65,2.65,0,0,0,2.82,2.85,4.09,4.09,0,0,0,4-2.75,3.23,3.23,0,0,0,.17-.95Z"></path> <path class="cls-3" d="M106.77,134.15a11.17,11.17,0,0,1-4.73.95c-5,0-8.19-3.37-8.19-8.4s3.47-8.74,8.84-8.74a10.15,10.15,0,0,1,4.15.85l-.68,2.31a7.06,7.06,0,0,0-3.47-.78c-3.77,0-5.81,2.79-5.81,6.22,0,3.81,2.44,6.16,5.71,6.16a8.4,8.4,0,0,0,3.67-.82Z"></path> <path class="cls-3" d="M121.93,118.3v2.38H116.8v14.08h-3V120.68h-5.13V118.3Z"></path> <path class="cls-3" d="M125.78,127.07c.06,4.05,2.65,5.72,5.64,5.72a11,11,0,0,0,4.56-.85l.51,2.14a13.48,13.48,0,0,1-5.48,1c-5.06,0-8.09-3.33-8.09-8.3s2.92-8.87,7.72-8.87c5.37,0,6.8,4.72,6.8,7.75a12.08,12.08,0,0,1-.1,1.39Zm8.77-2.14c0-1.9-.78-4.86-4.15-4.86-3,0-4.35,2.79-4.59,4.86Z"></path> <path class="cls-3" d="M141.14,123.68c0-2.11-.06-3.81-.13-5.38h2.68l.14,2.82h.07a6.47,6.47,0,0,1,5.85-3.19c4,0,7,3.37,7,8.36,0,5.92-3.6,8.84-7.47,8.84a5.78,5.78,0,0,1-5.07-2.58h-.07v8.94h-3Zm3,4.38a6.49,6.49,0,0,0,.14,1.22,4.61,4.61,0,0,0,4.49,3.51c3.16,0,5-2.59,5-6.36,0-3.3-1.73-6.12-4.89-6.12a4.76,4.76,0,0,0-4.52,3.71,4.46,4.46,0,0,0-.21,1.22Z"></path> <path class="cls-3" d="M169.6,134.76l-.24-2.08h-.1a6.1,6.1,0,0,1-5,2.45,4.68,4.68,0,0,1-5-4.72c0-4,3.53-6.16,9.89-6.12V124c0-1.36-.37-3.81-3.74-3.81a8.15,8.15,0,0,0-4.28,1.22l-.68-2a10.24,10.24,0,0,1,5.4-1.46c5,0,6.26,3.43,6.26,6.73v6.15a23.65,23.65,0,0,0,.27,3.95Zm-.44-8.4c-3.26-.07-7,.51-7,3.71a2.65,2.65,0,0,0,2.82,2.85,4.1,4.1,0,0,0,4-2.75,3.23,3.23,0,0,0,.17-.95Z"></path> <path class="cls-3" d="M184.09,123.68c0-2.11-.07-3.81-.14-5.38h2.68l.14,2.82h.07a6.47,6.47,0,0,1,5.85-3.19c4,0,7,3.37,7,8.36,0,5.92-3.61,8.84-7.48,8.84a5.78,5.78,0,0,1-5.07-2.58H187v8.94h-2.95Zm2.95,4.38a6.49,6.49,0,0,0,.14,1.22,4.62,4.62,0,0,0,4.49,3.51c3.16,0,5-2.59,5-6.36,0-3.3-1.73-6.12-4.89-6.12a4.76,4.76,0,0,0-4.52,3.71,4.46,4.46,0,0,0-.21,1.22Z"></path> <path class="cls-3" d="M215.43,134.76h-3v-6.9h-2.21a3.93,3.93,0,0,0-2.75.91c-1.22,1-1.67,3-2.31,4.63a10.77,10.77,0,0,1-.68,1.36h-3.2a10.31,10.31,0,0,0,1-1.87c.72-1.6,1.12-3.74,2.59-5a4,4,0,0,1,1.87-1v-.1c-2.15-.24-4.35-1.56-4.35-4.08a4,4,0,0,1,2.17-3.57,11.56,11.56,0,0,1,5.51-1.12,45.82,45.82,0,0,1,5.3.34Zm-3-14.49a16.8,16.8,0,0,0-2.48-.17c-2,0-4.45.58-4.45,2.86,0,2.11,2.62,2.86,4.38,2.86h2.55Z"></path> <path class="cls-3" d="M233,118.3v14.21l1.7,0-.17,7.44h-2.34l-.14-5.23H220.7l-.13,5.23h-2.35l-.14-7.44,1.4,0a12.74,12.74,0,0,0,1.63-3.36,21.59,21.59,0,0,0,.95-6.56V118.3Zm-8.33,5a21.6,21.6,0,0,1-.85,6.12,15.77,15.77,0,0,1-1.32,3.06h7.58v-11.9h-5.41Z"></path> <path class="cls-3" d="M253.07,126.39c0,6.09-4.22,8.74-8.19,8.74-4.46,0-7.89-3.26-7.89-8.46,0-5.51,3.6-8.74,8.16-8.74C249.87,117.93,253.07,121.36,253.07,126.39Zm-13.06.17c0,3.61,2.08,6.33,5,6.33s5-2.69,5-6.39c0-2.79-1.39-6.33-4.93-6.33S240,123.44,240,126.56Z"></path> <path class="cls-3" d="M257,118.3h3.68l3,8.3c.41,1.22,1.12,3.23,1.49,4.52h.07c.38-1.22,1.29-3.84,1.94-5.64l2.65-7.18h3.71l1.15,16.46h-2.85l-.38-7.86c-.1-1.76-.24-3.87-.3-5.88h-.11c-.44,1.5-.88,2.83-1.8,5.34l-3.16,8.3h-2.17L261,126.53c-.51-1.56-1.22-3.94-1.63-5.47h-.14c-.06,1.94-.17,4.11-.27,5.91l-.41,7.79h-2.75Z"></path> <path class="cls-3" d="M283.84,138.94a48.29,48.29,0,0,0,2-8.13l3.33-.34a41.59,41.59,0,0,1-3.23,8.27Z"></path> <path class="cls-3" d="M301.69,127.07c.07,4.05,2.65,5.72,5.64,5.72a10.94,10.94,0,0,0,4.56-.85l.51,2.14a13.48,13.48,0,0,1-5.48,1c-5.06,0-8.09-3.33-8.09-8.3s2.93-8.87,7.72-8.87c5.37,0,6.8,4.72,6.8,7.75a12.08,12.08,0,0,1-.1,1.39Zm8.77-2.14c0-1.9-.78-4.86-4.15-4.86-3,0-4.35,2.79-4.59,4.86Z"></path> <path class="cls-3" d="M319.81,118.3v6.94c0,2.62,0,4.25-.17,6.59l.1,0c1-2,1.57-3.16,2.65-5.07l5.14-8.5H331v16.46h-2.86v-7c0-2.69.07-4.08.21-6.73h-.1c-1.06,2.11-1.77,3.43-2.72,5.1-1.57,2.55-3.37,5.71-5.14,8.6H317V118.3Zm1.94-6.69c.1,1.46.81,2.58,2.17,2.58s2.15-1.09,2.32-2.58h2.14c-.14,2.78-1.91,4.21-4.52,4.21-3,0-4.15-1.87-4.29-4.21Z"></path> <path class="cls-3" d="M346,118.3v6.63h7.82V118.3h3v16.46h-3v-7.45H346v7.45h-3V118.3Z"></path> <path class="cls-3" d="M370.77,134.76l-.23-2.08h-.11a6.09,6.09,0,0,1-5,2.45,4.68,4.68,0,0,1-5-4.72c0-4,3.54-6.16,9.89-6.12V124c0-1.36-.37-3.81-3.74-3.81a8.17,8.17,0,0,0-4.28,1.22l-.68-2a10.25,10.25,0,0,1,5.41-1.46c5,0,6.25,3.43,6.25,6.73v6.15a23.65,23.65,0,0,0,.27,3.95Zm-.44-8.4c-3.26-.07-7,.51-7,3.71a2.65,2.65,0,0,0,2.82,2.85,4.09,4.09,0,0,0,4-2.75,3.23,3.23,0,0,0,.17-.95Z"></path> <path class="cls-3" d="M379.41,125.2h1.43c2.51,0,4.21-1.15,4.21-2.68s-1.32-2.38-3.19-2.38a7.89,7.89,0,0,0-4,1.16l-.75-1.84a10.47,10.47,0,0,1,5.48-1.5c2.51,0,5.57,1.13,5.57,4.32,0,2-1.87,3.37-3.7,3.74v.07c2.44.2,4.48,1.7,4.48,4.11,0,3.57-3.63,4.9-7.1,4.9a11.23,11.23,0,0,1-5.34-1.33l.78-2a9.57,9.57,0,0,0,4.35,1.12c2.49,0,4.05-1.19,4.05-2.82,0-2.21-2.31-2.83-4.79-2.83h-1.5Z"></path> <path class="cls-3" d="M392.64,118.51a34.1,34.1,0,0,1,5.23-.38c2.76,0,7.31.45,7.31,4.12,0,2-1.56,3.29-3.43,3.7V126c2.41.34,4.18,1.7,4.18,4.08,0,4.32-5.44,4.86-8.67,4.86-1.84,0-3.74-.13-4.62-.2Zm2.82,14.28a18.45,18.45,0,0,0,2.41.13c2,0,5-.47,5-2.85s-2.38-2.89-5.24-2.89h-2.17Zm0-7.59h2.25c2.21,0,4.48-.64,4.48-2.58,0-1.63-1.42-2.41-4.42-2.41a21,21,0,0,0-2.31.13Z"></path> <path class="cls-3" d="M418.82,134.76l-.24-2.08h-.1a6.12,6.12,0,0,1-5,2.45,4.69,4.69,0,0,1-5-4.72c0-4,3.54-6.16,9.9-6.12V124c0-1.36-.38-3.81-3.74-3.81a8.21,8.21,0,0,0-4.29,1.22l-.68-2a10.27,10.27,0,0,1,5.41-1.46c5,0,6.25,3.43,6.25,6.73v6.15a22.56,22.56,0,0,0,.28,3.95Zm-.44-8.4c-3.27-.07-7,.51-7,3.71a2.65,2.65,0,0,0,2.82,2.85,4.08,4.08,0,0,0,4-2.75,3,3,0,0,0,.18-.95Z"></path> <path class="cls-3" d="M438.64,118.3v16.46h-3V120.65H430v4.28c0,4.63-.45,7.72-2.59,9.11a4.76,4.76,0,0,1-3.26,1l-.31-2.34a3.63,3.63,0,0,0,1.63-.68c1.53-1.12,1.7-3.44,1.7-7.11V118.3Z"></path> <path class="cls-3" d="M446.29,118.3v6.94c0,2.62,0,4.25-.17,6.59l.1,0c1-2,1.56-3.16,2.65-5.07l5.13-8.5h3.51v16.46h-2.86v-7c0-2.69.07-4.08.2-6.73h-.1c-1.05,2.11-1.77,3.43-2.72,5.1-1.56,2.55-3.36,5.71-5.13,8.6h-3.43V118.3Z"></path> <path class="cls-3" d="M66.72,151.42v7.38c4.79.34,8.26,3.36,8.26,8.5,0,5.4-3.67,8.26-8.26,8.56v6.43H64V175.9c-4.76-.31-8.26-3.3-8.26-8.43,0-5.44,3.64-8.3,8.26-8.67v-7.38ZM64,160.84c-3.33.44-5.3,3.16-5.3,6.52s2,6.06,5.3,6.46Zm2.72,13c3.3-.44,5.3-3.16,5.3-6.52s-2-6-5.3-6.46Z"></path> <path class="cls-3" d="M81.47,159.1V166c0,2.62,0,4.25-.17,6.59l.11,0c1-2,1.56-3.16,2.65-5.07l5.13-8.5h3.5v16.46H89.84v-7c0-2.69.07-4.08.2-6.73h-.1c-1,2.1-1.77,3.43-2.72,5.1-1.56,2.55-3.37,5.71-5.13,8.6H78.65V159.1Z"></path> <path class="cls-3" d="M100.51,159.1v7.14h.72l6.19-7.14h3.63l-7.17,7.45c2.65.27,4.25,2,5.54,5a35,35,0,0,0,1.77,4h-3.13a22.42,22.42,0,0,1-1.53-3.37c-1.12-2.65-2.65-3.87-5.44-3.87h-.58v7.24h-3V159.1Z"></path> <path class="cls-3" d="M125.37,175a11.2,11.2,0,0,1-4.73,1c-5,0-8.19-3.37-8.19-8.4s3.47-8.74,8.84-8.74a9.9,9.9,0,0,1,4.14.85l-.68,2.32a6.86,6.86,0,0,0-3.46-.79c-3.78,0-5.82,2.79-5.82,6.22,0,3.81,2.45,6.16,5.72,6.16a8.4,8.4,0,0,0,3.67-.82Z"></path> <path class="cls-3" d="M131.62,159.1V166c0,2.62,0,4.25-.17,6.59l.11,0c1-2,1.56-3.16,2.65-5.07l5.13-8.5h3.5v16.46H140v-7c0-2.69.06-4.08.2-6.73h-.1c-1.05,2.1-1.77,3.43-2.72,5.1-1.56,2.55-3.37,5.71-5.13,8.6H128.8V159.1Z"></path> <path class="cls-3" d="M147.71,164.47c0-2.1-.07-3.8-.14-5.37h2.68l.14,2.83h.07a6.46,6.46,0,0,1,5.85-3.2c4,0,7,3.37,7,8.36,0,5.92-3.61,8.84-7.48,8.84a5.78,5.78,0,0,1-5.07-2.58h-.07v8.94h-2.95Zm2.95,4.39a6.49,6.49,0,0,0,.14,1.22,4.61,4.61,0,0,0,4.49,3.51c3.16,0,5-2.59,5-6.36,0-3.3-1.73-6.12-4.89-6.12a4.77,4.77,0,0,0-4.52,3.7,5,5,0,0,0-.21,1.23Z"></path> <path class="cls-3" d="M181.94,167.19c0,6.09-4.21,8.74-8.19,8.74-4.46,0-7.89-3.26-7.89-8.46,0-5.51,3.6-8.74,8.16-8.74C178.75,158.73,181.94,162.16,181.94,167.19Zm-13.05.17c0,3.61,2.07,6.33,5,6.33s5-2.69,5-6.39c0-2.79-1.39-6.33-4.93-6.33S168.89,164.24,168.89,167.36Z"></path> <path class="cls-3" d="M185.65,159.31a34.1,34.1,0,0,1,5.23-.38c2.76,0,7.31.45,7.31,4.12,0,2-1.56,3.3-3.43,3.7v.07c2.41.34,4.18,1.7,4.18,4.08,0,4.32-5.44,4.86-8.67,4.86-1.83,0-3.74-.13-4.62-.2Zm2.82,14.28a18.45,18.45,0,0,0,2.41.13c2,0,5-.47,5-2.85S193.5,168,190.65,168h-2.18Zm0-7.59h2.25c2.21,0,4.49-.64,4.49-2.58,0-1.63-1.43-2.41-4.42-2.41-1,0-1.6.07-2.32.13Z"></path> <path class="cls-3" d="M211.83,175.56l-.24-2.08h-.1a6.12,6.12,0,0,1-5,2.45,4.68,4.68,0,0,1-5-4.72c0-4,3.53-6.16,9.89-6.12v-.34c0-1.36-.38-3.81-3.74-3.81a8.3,8.3,0,0,0-4.29,1.22l-.67-2a10.21,10.21,0,0,1,5.4-1.46c5,0,6.26,3.43,6.26,6.73v6.15a22.7,22.7,0,0,0,.27,3.95Zm-.44-8.4c-3.27-.07-7,.51-7,3.71a2.65,2.65,0,0,0,2.82,2.85,4.1,4.1,0,0,0,4-2.75,3.23,3.23,0,0,0,.17-.95Z"></path> <path class="cls-3" d="M222,159.1v6.63h7.82V159.1h3v16.46h-3v-7.45H222v7.45h-3V159.1Z"></path> <path class="cls-3" d="M240.56,159.1v6.63h7.82V159.1h3v16.46h-3v-7.45h-7.82v7.45h-3V159.1Z"></path> <path class="cls-3" d="M257.18,159.1l3.61,9.73c.37,1.08.78,2.38,1,3.36h.07c.3-1,.64-2.24,1-3.43l3.27-9.66h3.16l-4.49,11.73c-2.14,5.65-3.6,8.53-5.64,10.3a8.1,8.1,0,0,1-3.67,1.94l-.75-2.51a8,8,0,0,0,2.62-1.47,9.07,9.07,0,0,0,2.51-3.33,2,2,0,0,0,.24-.71,2.72,2.72,0,0,0-.2-.78l-6.09-15.17Z"></path> <path class="cls-3" d="M275,159.1V166h2.83c.51-4.35,3.36-7.31,7.31-7.31,4.28,0,7.2,3.4,7.2,8.46,0,5.34-3.26,8.74-7.41,8.74-3.94,0-6.83-2.92-7.17-7.61H275v7.24H272V159.1Zm14.35,8.16c0-3.09-1.39-6.29-4.32-6.29s-4.42,3.13-4.42,6.46,1.47,6.29,4.36,6.29S289.31,170.39,289.31,167.26Z"></path> <path class="cls-3" d="M306.18,159.1v14.11h7.58V159.1h3v14.21l1.7,0-.17,7.44h-2.32l-.13-5.23H303.22V159.1Z"></path> <path class="cls-3" d="M323.52,167.87c.06,4,2.65,5.72,5.64,5.72a11,11,0,0,0,4.56-.85l.51,2.14a13.48,13.48,0,0,1-5.48,1c-5.06,0-8.09-3.33-8.09-8.3s2.92-8.87,7.72-8.87c5.37,0,6.8,4.72,6.8,7.75a12.08,12.08,0,0,1-.1,1.39Zm8.77-2.14c0-1.9-.78-4.86-4.15-4.86-3,0-4.35,2.79-4.59,4.86Z"></path> <path class="cls-3" d="M341.77,159.1v6.63h7.82V159.1h3v16.46h-3v-7.45h-7.82v7.45h-2.95V159.1Z"></path> <path class="cls-3" d="M358.4,159.1l3.6,9.73c.38,1.08.79,2.38,1.06,3.36h.06c.31-1,.65-2.24,1.06-3.43l3.26-9.66h3.16l-4.48,11.73c-2.15,5.65-3.61,8.53-5.65,10.3a8.05,8.05,0,0,1-3.67,1.94l-.75-2.51a7.9,7.9,0,0,0,2.62-1.47,9,9,0,0,0,2.52-3.33,2.25,2.25,0,0,0,.24-.71,2.51,2.51,0,0,0-.21-.78l-6.08-15.17Z"></path> <path class="cls-3" d="M381.89,166h1.43c2.52,0,4.22-1.15,4.22-2.68s-1.33-2.38-3.2-2.38a7.89,7.89,0,0,0-4,1.16l-.74-1.84a10.41,10.41,0,0,1,5.47-1.5c2.51,0,5.57,1.13,5.57,4.32,0,2-1.87,3.37-3.7,3.74v.07c2.45.2,4.49,1.7,4.49,4.11,0,3.57-3.64,4.9-7.11,4.9a11.23,11.23,0,0,1-5.34-1.33l.79-2a9.5,9.5,0,0,0,4.35,1.12c2.48,0,4-1.19,4-2.82,0-2.21-2.31-2.83-4.79-2.83h-1.5Z"></path> <path class="cls-3" d="M404.3,175.56l-.24-2.08H404a6.12,6.12,0,0,1-5,2.45,4.68,4.68,0,0,1-5-4.72c0-4,3.53-6.16,9.89-6.12v-.34c0-1.36-.37-3.81-3.74-3.81a8.24,8.24,0,0,0-4.28,1.22l-.68-2a10.24,10.24,0,0,1,5.4-1.46c5,0,6.26,3.43,6.26,6.73v6.15a22.7,22.7,0,0,0,.27,3.95Zm-.44-8.4c-3.27-.07-7,.51-7,3.71a2.65,2.65,0,0,0,2.82,2.85,4.1,4.1,0,0,0,4-2.75,3.23,3.23,0,0,0,.17-.95Z"></path> <path class="cls-3" d="M431,156h-8.43l-.85,5.67a13.14,13.14,0,0,1,1.8-.13,9.3,9.3,0,0,1,4.76,1.19,6.28,6.28,0,0,1,3.16,5.67c0,4.32-3.43,7.55-8.22,7.55a10.8,10.8,0,0,1-5.51-1.36l.75-2.28a9.82,9.82,0,0,0,4.72,1.23c2.82,0,5.24-1.84,5.24-4.8s-1.94-4.89-6.36-4.89a21.59,21.59,0,0,0-3.06.24l1.43-10.61H431Z"></path> <path class="cls-3" d="M443.6,159.1h3.67l3,8.3c.4,1.22,1.12,3.23,1.49,4.52h.07c.37-1.22,1.29-3.84,1.94-5.64l2.65-7.18h3.7l1.16,16.46h-2.85l-.38-7.86c-.1-1.76-.24-3.87-.3-5.88h-.11c-.44,1.5-.88,2.82-1.8,5.34l-3.16,8.3H450.5l-2.92-8.13c-.51-1.56-1.22-3.94-1.63-5.47h-.14c-.06,1.93-.17,4.11-.27,5.91l-.41,7.79h-2.75Z"></path> <path class="cls-3" d="M467.91,159.1V166c0,2.62,0,4.25-.17,6.59l.1,0c1-2,1.57-3.16,2.66-5.07l5.13-8.5h3.5v16.46h-2.85v-7c0-2.69.06-4.08.2-6.73h-.1c-1.06,2.1-1.77,3.43-2.72,5.1-1.57,2.55-3.37,5.71-5.14,8.6h-3.43V159.1Z"></path> <path class="cls-3" d="M486.88,159.1v6.63h7.82V159.1h3v16.46h-3v-7.45h-7.82v7.45h-2.95V159.1Z"></path> <path class="cls-3" d="M503.51,159.1l3.6,9.73c.38,1.08.78,2.38,1.06,3.36h.06c.31-1,.65-2.24,1.06-3.43l3.26-9.66h3.16l-4.48,11.73c-2.15,5.65-3.61,8.53-5.65,10.3a8.05,8.05,0,0,1-3.67,1.94l-.75-2.51a7.9,7.9,0,0,0,2.62-1.47,9,9,0,0,0,2.52-3.33,2.25,2.25,0,0,0,.24-.71,2.51,2.51,0,0,0-.21-.78l-6.08-15.17Z"></path> <path class="cls-3" d="M530.3,159.1v2.38h-5.13v14.08h-3V161.48h-5.13V159.1Z"></path> <path class="cls-3" d="M543.12,159.1V166c0,2.62,0,4.25-.17,6.59l.1,0c1-2,1.56-3.16,2.65-5.07l5.14-8.5h3.5v16.46h-2.86v-7c0-2.69.07-4.08.21-6.73h-.11c-1.05,2.1-1.76,3.43-2.72,5.1-1.56,2.55-3.36,5.71-5.13,8.6H540.3V159.1Z"></path> <path class="cls-3" d="M59.65,199.9v5.41c0,2.07.78,3.5,3.4,3.5a6.18,6.18,0,0,0,3.53-1.16V199.9h3v16.46h-3v-6.6h-.07A8.62,8.62,0,0,1,62.06,211c-3.13,0-5.4-1.6-5.4-5.37V199.9Z"></path> <path class="cls-3" d="M76.1,208.68c.07,4,2.65,5.71,5.65,5.71a10.88,10.88,0,0,0,4.55-.85l.51,2.14a13.38,13.38,0,0,1-5.47,1c-5.07,0-8.09-3.33-8.09-8.3s2.92-8.87,7.71-8.87c5.38,0,6.8,4.73,6.8,7.75a10.46,10.46,0,0,1-.1,1.4Zm8.77-2.15c0-1.9-.78-4.86-4.14-4.86-3,0-4.35,2.79-4.59,4.86Z"></path> <path class="cls-3" d="M91.47,205.27c0-2.1-.07-3.8-.14-5.37H94l.14,2.82h.06a6.49,6.49,0,0,1,5.85-3.19c4,0,7,3.36,7,8.36,0,5.92-3.6,8.84-7.48,8.84a5.76,5.76,0,0,1-5.06-2.58h-.07v8.94h-3Zm3,4.39a7.48,7.48,0,0,0,.13,1.22,4.63,4.63,0,0,0,4.49,3.51c3.16,0,5-2.59,5-6.36,0-3.3-1.73-6.12-4.9-6.12a4.77,4.77,0,0,0-4.52,3.7,5,5,0,0,0-.2,1.23Z"></path> <path class="cls-3" d="M112.48,208.68c.07,4,2.65,5.71,5.65,5.71a10.88,10.88,0,0,0,4.55-.85l.51,2.14a13.38,13.38,0,0,1-5.47,1c-5.07,0-8.09-3.33-8.09-8.3s2.92-8.87,7.71-8.87c5.38,0,6.8,4.73,6.8,7.75a10.46,10.46,0,0,1-.1,1.4Zm8.77-2.15c0-1.9-.78-4.86-4.14-4.86-3,0-4.36,2.79-4.59,4.86Z"></path> <path class="cls-3" d="M129.31,206.8h1.43c2.52,0,4.22-1.15,4.22-2.68s-1.33-2.38-3.2-2.38a8,8,0,0,0-4,1.15l-.75-1.83a10.47,10.47,0,0,1,5.48-1.5c2.51,0,5.57,1.12,5.57,4.32,0,2-1.87,3.37-3.7,3.74v.07c2.45.2,4.48,1.7,4.48,4.11,0,3.57-3.63,4.9-7.1,4.9a11.23,11.23,0,0,1-5.34-1.33l.78-2a9.58,9.58,0,0,0,4.36,1.12c2.48,0,4-1.19,4-2.82,0-2.21-2.31-2.82-4.79-2.82h-1.5Z"></path> <path class="cls-3" d="M163.34,199.9v16.46h-3V202.28H152.7v14.08h-2.95V199.9Z"></path> <path class="cls-3" d="M183.1,208c0,6.09-4.22,8.74-8.2,8.74-4.45,0-7.88-3.26-7.88-8.46,0-5.51,3.6-8.74,8.16-8.74C179.9,199.53,183.1,203,183.1,208Zm-13.06.17c0,3.61,2.08,6.33,5,6.33s5-2.69,5-6.39c0-2.79-1.4-6.33-4.93-6.33S170,205,170,208.16Z"></path> <path class="cls-3" d="M199.35,199.9v16.46h-3V202.25h-5.64v4.28c0,4.63-.44,7.72-2.58,9.11a4.81,4.81,0,0,1-3.27,1l-.3-2.34a3.72,3.72,0,0,0,1.63-.68c1.53-1.12,1.7-3.44,1.7-7.11V199.9Z"></path> <path class="cls-3" d="M214.17,199.9v5.41c0,2.07.79,3.5,3.4,3.5a6.19,6.19,0,0,0,3.54-1.16V199.9h3v16.46h-3v-6.6H221a8.62,8.62,0,0,1-4.45,1.26c-3.13,0-5.41-1.6-5.41-5.37V199.9Z"></path> <path class="cls-3" d="M238.08,216.36l-.24-2.08h-.1a6.12,6.12,0,0,1-5,2.45,4.68,4.68,0,0,1-5-4.72c0-4,3.54-6.16,9.9-6.12v-.34c0-1.36-.38-3.81-3.74-3.81a8.3,8.3,0,0,0-4.29,1.22l-.68-2a10.25,10.25,0,0,1,5.41-1.46c5,0,6.25,3.43,6.25,6.73v6.15a23.65,23.65,0,0,0,.27,4Zm-.45-8.4c-3.26-.07-7,.51-7,3.71a2.65,2.65,0,0,0,2.83,2.85,4.08,4.08,0,0,0,4-2.75,2.93,2.93,0,0,0,.17-1Z"></path> <path class="cls-3" d="M257.08,215.75a11.15,11.15,0,0,1-4.72.95c-5,0-8.2-3.37-8.2-8.4s3.47-8.74,8.84-8.74a10.15,10.15,0,0,1,4.15.85l-.68,2.31a7.06,7.06,0,0,0-3.47-.78c-3.77,0-5.81,2.79-5.81,6.22,0,3.81,2.44,6.16,5.71,6.16a8.4,8.4,0,0,0,3.67-.82Z"></path> <path class="cls-3" d="M269.8,216.36l-.24-2.08h-.1a6.12,6.12,0,0,1-5,2.45,4.68,4.68,0,0,1-5-4.72c0-4,3.54-6.16,9.9-6.12v-.34c0-1.36-.38-3.81-3.74-3.81a8.3,8.3,0,0,0-4.29,1.22l-.68-2a10.27,10.27,0,0,1,5.41-1.46c5,0,6.25,3.43,6.25,6.73v6.15a22.56,22.56,0,0,0,.28,4Zm-.45-8.4c-3.26-.07-7,.51-7,3.71a2.65,2.65,0,0,0,2.83,2.85,4.08,4.08,0,0,0,4-2.75,2.93,2.93,0,0,0,.17-1Z"></path> <path class="cls-3" d="M284.45,199.9h3.67l3,8.3c.41,1.22,1.13,3.23,1.5,4.52h.07c.37-1.22,1.29-3.84,1.94-5.64l2.65-7.18H301l1.16,16.46h-2.86l-.37-7.85c-.1-1.77-.24-3.88-.31-5.89h-.1c-.44,1.5-.88,2.82-1.8,5.34l-3.16,8.3h-2.18l-2.92-8.13c-.51-1.56-1.23-3.94-1.63-5.47h-.14c-.07,1.94-.17,4.11-.27,5.91l-.41,7.79h-2.75Z"></path> <path class="cls-3" d="M315.12,216.36l-.24-2.08h-.1a6.12,6.12,0,0,1-5,2.45,4.69,4.69,0,0,1-5-4.72c0-4,3.54-6.16,9.9-6.12v-.34c0-1.36-.38-3.81-3.74-3.81a8.3,8.3,0,0,0-4.29,1.22l-.68-2a10.27,10.27,0,0,1,5.41-1.46c5,0,6.25,3.43,6.25,6.73v6.15a22.56,22.56,0,0,0,.28,4Zm-.44-8.4c-3.27-.07-7,.51-7,3.71a2.65,2.65,0,0,0,2.82,2.85,4.1,4.1,0,0,0,4-2.75,3.23,3.23,0,0,0,.17-1Z"></path> <path class="cls-3" d="M334.12,215.75a11.11,11.11,0,0,1-4.72.95c-5,0-8.2-3.37-8.2-8.4s3.47-8.74,8.84-8.74a10.11,10.11,0,0,1,4.15.85l-.68,2.31a7,7,0,0,0-3.47-.78c-3.77,0-5.81,2.79-5.81,6.22,0,3.81,2.45,6.16,5.71,6.16a8.4,8.4,0,0,0,3.67-.82Z"></path> <path class="cls-3" d="M349.29,199.9v2.38h-5.14v14.08H341.2V202.28h-5.14V199.9Z"></path> <path class="cls-3" d="M353.13,208.68c.07,4,2.65,5.71,5.64,5.71a10.94,10.94,0,0,0,4.56-.85l.51,2.14a13.48,13.48,0,0,1-5.48,1c-5.06,0-8.09-3.33-8.09-8.3s2.93-8.87,7.72-8.87c5.37,0,6.8,4.73,6.8,7.75a12.49,12.49,0,0,1-.1,1.4Zm8.77-2.15c0-1.9-.78-4.86-4.15-4.86-3,0-4.35,2.79-4.59,4.86Z"></path> <path class="cls-3" d="M368.5,205.27c0-2.1-.07-3.8-.14-5.37h2.69l.13,2.82h.07a6.47,6.47,0,0,1,5.85-3.19c4,0,7,3.36,7,8.36,0,5.92-3.61,8.84-7.48,8.84a5.78,5.78,0,0,1-5.07-2.58h-.06v8.94h-3Zm3,4.39a6.52,6.52,0,0,0,.13,1.22,4.62,4.62,0,0,0,4.49,3.51c3.16,0,5-2.59,5-6.36,0-3.3-1.74-6.12-4.9-6.12a4.77,4.77,0,0,0-4.52,3.7,5,5,0,0,0-.2,1.23Z"></path> <path class="cls-3" d="M396.14,199.9l3.6,9.73c.38,1.08.78,2.38,1.06,3.36h.06c.31-1,.65-2.24,1.06-3.43l3.26-9.66h3.16l-4.48,11.73c-2.15,5.65-3.61,8.54-5.65,10.3a8.05,8.05,0,0,1-3.67,1.94l-.75-2.52a7.68,7.68,0,0,0,2.62-1.46,9,9,0,0,0,2.52-3.33,2.18,2.18,0,0,0,.23-.71,2.42,2.42,0,0,0-.2-.78l-6.09-15.17Z"></path> <path class="cls-3" d="M412.8,199.9l5.44,7.18h.61V199.9h2.86v7.18h.57l5.44-7.18h3.44l-6.5,7.48c2.48.27,3.95,1.74,4.93,4.35a40,40,0,0,0,1.8,4.63h-3a24.22,24.22,0,0,1-1.49-3.78c-1-2.68-2.55-3.5-4.7-3.5h-.5v7.28h-2.86v-7.28h-.55c-2.31,0-3.7.85-4.72,3.54a29.4,29.4,0,0,1-1.56,3.74h-2.89a48.78,48.78,0,0,0,1.8-4.59c1-2.65,2.48-4.12,5-4.39l-6.53-7.48Z"></path> <path class="cls-3" d="M435.54,208.68c.07,4,2.66,5.71,5.65,5.71a10.88,10.88,0,0,0,4.55-.85l.51,2.14a13.38,13.38,0,0,1-5.47,1c-5.07,0-8.09-3.33-8.09-8.3s2.92-8.87,7.71-8.87c5.38,0,6.8,4.73,6.8,7.75a10.46,10.46,0,0,1-.1,1.4Zm8.77-2.15c0-1.9-.78-4.86-4.14-4.86-3,0-4.35,2.79-4.59,4.86Z"></path> <path class="cls-3" d="M58,240.7l3.6,9.73c.37,1.08.78,2.38,1.05,3.36h.07c.31-1,.65-2.24,1-3.43l3.27-9.66h3.16l-4.49,11.73c-2.14,5.65-3.6,8.54-5.64,10.3a8.16,8.16,0,0,1-3.67,1.94l-.75-2.51a8,8,0,0,0,2.62-1.47,9.07,9.07,0,0,0,2.51-3.33,2,2,0,0,0,.24-.71,2.72,2.72,0,0,0-.2-.78L54.75,240.7Z"></path> <path class="cls-3" d="M84.36,256.55a11.11,11.11,0,0,1-4.72.95c-5,0-8.19-3.37-8.19-8.4s3.46-8.74,8.83-8.74a10.11,10.11,0,0,1,4.15.85l-.68,2.31a7,7,0,0,0-3.47-.78c-3.77,0-5.81,2.79-5.81,6.22,0,3.81,2.45,6.16,5.71,6.16a8.4,8.4,0,0,0,3.67-.82Z"></path> <path class="cls-3" d="M99.53,240.7v2.38H94.4v14.08h-3V243.08H86.3V240.7Z"></path> <path class="cls-3" d="M111,257.16l-.24-2.08h-.1a6.12,6.12,0,0,1-5,2.45,4.68,4.68,0,0,1-5-4.72c0-4,3.53-6.16,9.89-6.12v-.34c0-1.36-.37-3.81-3.74-3.81a8.24,8.24,0,0,0-4.28,1.22l-.68-2a10.24,10.24,0,0,1,5.4-1.46c5,0,6.26,3.43,6.26,6.73v6.15a23.65,23.65,0,0,0,.27,4Zm-.44-8.4c-3.27-.07-7,.51-7,3.71a2.65,2.65,0,0,0,2.82,2.85,4.1,4.1,0,0,0,4-2.75,3.23,3.23,0,0,0,.17-.95Z"></path> <path class="cls-3" d="M121.19,240.7v6.63H129V240.7h3v16.46h-3v-7.45h-7.82v7.45h-3V240.7Z"></path> <path class="cls-3" d="M146,257.16l-.24-2.08h-.1a6.1,6.1,0,0,1-5,2.45,4.68,4.68,0,0,1-5-4.72c0-4,3.53-6.16,9.89-6.12v-.34c0-1.36-.37-3.81-3.74-3.81a8.24,8.24,0,0,0-4.28,1.22l-.68-2a10.24,10.24,0,0,1,5.4-1.46c5,0,6.26,3.43,6.26,6.73v6.15a23.65,23.65,0,0,0,.27,4Zm-.44-8.4c-3.26-.07-7,.51-7,3.71a2.65,2.65,0,0,0,2.82,2.85,4.1,4.1,0,0,0,4-2.75,3.23,3.23,0,0,0,.17-.95Z"></path> <path class="cls-3" d="M153.18,240.91a34.25,34.25,0,0,1,5.24-.38c2.75,0,7.3.44,7.3,4.12,0,2-1.56,3.29-3.43,3.7v.07c2.42.34,4.18,1.7,4.18,4.08,0,4.32-5.44,4.86-8.67,4.86-1.83,0-3.74-.13-4.62-.2ZM156,255.19a18.51,18.51,0,0,0,2.42.13c2,0,5-.47,5-2.85s-2.38-2.89-5.23-2.89H156Zm0-7.59h2.24c2.21,0,4.49-.64,4.49-2.58,0-1.63-1.43-2.41-4.42-2.41-1,0-1.6.07-2.31.13Z"></path> <path class="cls-3" d="M182.83,240.7v16.46h-3V243.05h-5.65v4.28c0,4.63-.44,7.72-2.58,9.11a4.76,4.76,0,0,1-3.26,1l-.31-2.34a3.63,3.63,0,0,0,1.63-.68c1.53-1.12,1.7-3.44,1.7-7.11V240.7Z"></path> <path class="cls-3" d="M190.48,240.7v6.94c0,2.62,0,4.25-.17,6.59l.1,0c1-2,1.56-3.16,2.65-5.07l5.13-8.5h3.51v16.46h-2.86v-7c0-2.69.07-4.08.2-6.73h-.1c-1.05,2.1-1.77,3.43-2.72,5.1-1.56,2.55-3.36,5.71-5.13,8.6h-3.43V240.7Z"></path> <path class="cls-3" d="M206.49,240.91a34.25,34.25,0,0,1,5.24-.38c2.75,0,7.31.44,7.31,4.12,0,2-1.57,3.29-3.44,3.7v.07c2.42.34,4.18,1.7,4.18,4.08,0,4.32-5.44,4.86-8.67,4.86-1.83,0-3.73-.13-4.62-.2Zm2.82,14.28a18.51,18.51,0,0,0,2.42.13c2,0,5-.47,5-2.85s-2.38-2.89-5.23-2.89h-2.18Zm0-7.59h2.24c2.21,0,4.49-.64,4.49-2.58,0-1.63-1.43-2.41-4.42-2.41-1,0-1.6.07-2.31.13Z"></path> <path class="cls-3" d="M232.67,257.16l-.24-2.08h-.1a6.12,6.12,0,0,1-5,2.45,4.68,4.68,0,0,1-5-4.72c0-4,3.53-6.16,9.89-6.12v-.34c0-1.36-.37-3.81-3.74-3.81a8.24,8.24,0,0,0-4.28,1.22l-.68-2a10.24,10.24,0,0,1,5.4-1.46c5,0,6.26,3.43,6.26,6.73v6.15a23.65,23.65,0,0,0,.27,4Zm-.44-8.4c-3.27-.07-7,.51-7,3.71a2.65,2.65,0,0,0,2.82,2.85,4.1,4.1,0,0,0,4-2.75,3.23,3.23,0,0,0,.17-.95Z"></path> <path class="cls-3" d="M252.49,240.7v16.46h-3V243.05h-5.64v4.28c0,4.63-.44,7.72-2.58,9.11a4.81,4.81,0,0,1-3.27,1l-.3-2.34a3.72,3.72,0,0,0,1.63-.68c1.53-1.12,1.7-3.44,1.7-7.11V240.7Z"></path> <path class="cls-3" d="M276.32,256.55a11.11,11.11,0,0,1-4.72.95c-5,0-8.19-3.37-8.19-8.4s3.46-8.74,8.84-8.74a10.1,10.1,0,0,1,4.14.85l-.68,2.31a7,7,0,0,0-3.46-.78c-3.78,0-5.82,2.79-5.82,6.22,0,3.81,2.45,6.16,5.71,6.16a8.4,8.4,0,0,0,3.67-.82Z"></path> <path class="cls-3" d="M280,240.7h3.67l3,8.3c.41,1.22,1.12,3.23,1.5,4.52h.06c.38-1.22,1.3-3.84,1.94-5.64l2.65-7.18h3.71l1.16,16.46h-2.86l-.37-7.86c-.11-1.76-.24-3.87-.31-5.88H294c-.44,1.5-.89,2.82-1.8,5.34l-3.16,8.3H286.9L284,248.93c-.51-1.56-1.23-3.94-1.64-5.47h-.13c-.07,1.93-.17,4.11-.27,5.91l-.41,7.79h-2.76Z"></path> <path class="cls-3" d="M303.22,249.47c.07,4.05,2.65,5.72,5.64,5.72a10.94,10.94,0,0,0,4.56-.85l.51,2.14a13.42,13.42,0,0,1-5.47,1c-5.07,0-8.1-3.33-8.1-8.3s2.93-8.87,7.72-8.87c5.37,0,6.8,4.73,6.8,7.75a12.08,12.08,0,0,1-.1,1.39Zm8.77-2.14c0-1.9-.78-4.86-4.15-4.86-3,0-4.35,2.79-4.59,4.86Z"></path> <path class="cls-3" d="M330.32,256.55a11.2,11.2,0,0,1-4.73.95c-5,0-8.19-3.37-8.19-8.4s3.47-8.74,8.84-8.74a10.1,10.1,0,0,1,4.14.85l-.68,2.31a7,7,0,0,0-3.46-.78c-3.78,0-5.82,2.79-5.82,6.22,0,3.81,2.45,6.16,5.71,6.16a8.45,8.45,0,0,0,3.68-.82Z"></path> <path class="cls-3" d="M336.57,240.7v6.94c0,2.62,0,4.25-.17,6.59l.1,0c1-2,1.57-3.16,2.66-5.07l5.13-8.5h3.5v16.46h-2.85v-7c0-2.69.06-4.08.2-6.73H345c-1.06,2.1-1.77,3.43-2.72,5.1-1.57,2.55-3.37,5.71-5.14,8.6h-3.43V240.7Z"></path> <path class="cls-3" d="M363.67,240.7v2.38h-5.13v14.08h-3V243.08h-5.13V240.7Z"></path> <path class="cls-3" d="M367.51,249.47c.07,4.05,2.65,5.72,5.65,5.72a10.88,10.88,0,0,0,4.55-.85l.51,2.14a13.38,13.38,0,0,1-5.47,1c-5.07,0-8.09-3.33-8.09-8.3s2.92-8.87,7.71-8.87c5.38,0,6.8,4.73,6.8,7.75a10.15,10.15,0,0,1-.1,1.39Zm8.77-2.14c0-1.9-.78-4.86-4.14-4.86-3,0-4.36,2.79-4.59,4.86Z"></path> <path class="cls-3" d="M395.39,240.7v16.46h-3V243.05h-5.64v4.28c0,4.63-.44,7.72-2.58,9.11a4.81,4.81,0,0,1-3.27,1l-.3-2.34a3.72,3.72,0,0,0,1.63-.68c1.53-1.12,1.7-3.44,1.7-7.11V240.7Z"></path> <path class="cls-3" d="M403.18,240.7v5.58a16.18,16.18,0,0,1,2.72-.17c3.7,0,7.61,1.16,7.61,5.54a4.66,4.66,0,0,1-1.73,3.77c-1.8,1.53-4.73,1.91-7.14,1.91a39.59,39.59,0,0,1-4.42-.24V240.7Zm0,14.38a16.64,16.64,0,0,0,2.21.14c2.24,0,5.13-.75,5.13-3.5s-3-3.47-5.2-3.47a14.28,14.28,0,0,0-2.14.17Z"></path> <path class="cls-3" d="M418.41,255.39a2,2,0,1,1,2,2.14A2,2,0,0,1,418.41,255.39Zm11.32,0a2,2,0,1,1,2,2.14A2,2,0,0,1,429.73,255.39Zm11.32,0a2,2,0,0,1,2-2.14,2.14,2.14,0,0,1,0,4.28A2,2,0,0,1,441.05,255.39Z"></path> </g> </g> </svg> 