<?xml version="1.0" encoding="UTF-8"?> <!-- Generator: Adobe Illustrator 17.1.0, SVG Export Plug-In . SVG Version: 6.00 Build 0) --> <svg xmlns="http://www.w3.org/2000/svg" xmlns:xlink="http://www.w3.org/1999/xlink" id="Layer_1" x="0px" y="0px" viewBox="0 0 1000 1000" xml:space="preserve"> <g> <g> <g> <ellipse fill="#9C3834" cx="529.4" cy="759.6" rx="104.1" ry="8.7"></ellipse> <g> <g> <g> <path fill="#525F51" d="M730.9,148.7c1,43.1-7.1,81.8-20.1,115.9l-25.9-13.1l20.1,27.2c-17,38.6-40,70.6-62.4,95.7l-8.1-31.8 v40.6c-35,37.1-66.2,56.5-66.2,56.5C600.3,239.5,730.9,148.7,730.9,148.7z"></path> <path fill="none" stroke="#525F51" stroke-width="5" stroke-miterlimit="10" d="M583.7,397.9c0,0-86.5,218.7-48.5,509.2"></path> </g> <g> <path fill="none" stroke="#657A60" stroke-width="5" stroke-miterlimit="10" d="M527.1,820c0,0,26.4-375.9-143.8-530.8"></path> <path fill="#5E6E5D" d="M124.9,231.9c0,0,306.5-66.3,347.2,191.8C472.1,423.6,316.2,255.2,124.9,231.9z"></path> <path fill="#657A60" d="M352.7,334l-7.6,33.4c12.3,7.7,25,15.3,38.1,22.4l6.4-7.8v11.2c25.9,13.5,53.4,24.8,82.5,30.5 c0,0-42.7-215.1-347.2-191.8c0,0,27.5,49.3,85.3,65.5l18.4-15l-12.2,16.5c1.3,0.3,2.6,0.6,4,0.9 c33.3,6.5,71.4,33.6,114.6,61.2L352.7,334z"></path> </g> <g> <path fill="none" stroke="#657A60" stroke-width="5" stroke-miterlimit="10" d="M522.4,890.1c0,0-26.4-375.9,143.8-530.8"></path> <path fill="#5E6E5D" d="M924.6,302c0,0-306.5-66.3-347.2,191.8C577.4,493.8,733.3,325.3,924.6,302z"></path> <path fill="#657A60" d="M696.8,404.1l7.6,33.4c-12.3,7.7-25,15.3-38.1,22.4l-6.4-7.8v11.2c-25.9,13.5-53.4,24.8-82.5,30.5 c0,0,42.7-215.1,347.2-191.8c0,0-27.5,49.3-85.3,65.5l-18.4-15l12.2,16.5c-1.3,0.3-2.7,0.6-4,0.9 c-33.3,6.5-71.4,33.6-114.6,61.2L696.8,404.1z"></path> </g> <g> <path fill="none" stroke="#657A60" stroke-width="5" stroke-miterlimit="10" d="M539.3,289.9c0,0-21.8,374.6-3.1,501.6"></path> <g> <path fill="#5E6E5D" d="M570.1,330.6l21.2,5.3c5.4-16.2,8.9-35,11.6-54.5l-27.6-16l28.4,9.5c4.3-33.7,6.8-69.1,13.6-97.3 c2-8.1,3-16.2,3.3-24.1l-27.2,14.6l27-28.7C616,77.8,570.3,28.2,570.3,28.2c-27.6,53.9-43.8,360.8-39.8,360.7 c28.7-0.4,45.7-16.8,56.4-41.4L570.1,330.6z"></path> <path fill="#657A60" d="M499.1,160.7l25.3-0.6l-25.4,7.2c0,3.8,0.2,7.7,0.4,11.6c1.7,25.3,1.7,49.9,1.4,72.9l19.5-0.5 l-19.7,14.1c-1.2,64.2-2.6,113.2,29.8,123.5l39.8-360.7C570.3,28.2,501.6,70.1,499.1,160.7z"></path> </g> </g> <g> <path fill="#657A60" d="M324.9,84.7c-1,43.1,7.1,81.8,20.1,115.9l25.9-13.1l-20.1,27.2c17,38.6,40,70.6,62.4,95.7l8.1-31.8 v40.6c35,37.1,66.2,56.5,66.2,56.5C455.5,175.5,324.9,84.7,324.9,84.7z"></path> <path fill="none" stroke="#657A60" stroke-width="5" stroke-miterlimit="10" d="M472.1,333.9c0,0,86.5,218.7,48.5,509.2"></path> </g> </g> </g> </g> <path fill="#EA5546" d="M529.4,768.3c-57.5,0-104.1-3.9-104.1-8.7l38,153.6c0,0,22,9.8,67.6,9.8c45.6,0,67.6-9.8,67.6-9.8 l35.1-153.6C633.5,764.4,586.9,768.3,529.4,768.3z"></path> </g> </g> </svg> 