<?xml version="1.0" encoding="UTF-8"?> <!-- Generator: Adobe Illustrator 24.0.1, SVG Export Plug-In . SVG Version: 6.00 Build 0) --> <svg xmlns="http://www.w3.org/2000/svg" xmlns:xlink="http://www.w3.org/1999/xlink" id="Слой_1" x="0px" y="0px" viewBox="0 0 800 600" style="enable-background:new 0 0 800 600;" xml:space="preserve"> <style type="text/css"> .st0{fill:url(#SVGID_1_);} .st1{fill:none;stroke:#EA3939;stroke-width:1.1056;stroke-miterlimit:10;} .st2{fill:#EA3939;} .st3{fill:#FFFFFF;} .st4{fill:#787878;} .st5{fill:#CFF9FF;} .st6{opacity:0.1;} .st7{fill:#131312;} .st8{fill:#8E331B;} .st9{fill:#711F0A;} .st10{fill:#2E2E2D;} .st11{opacity:0.1;fill:#131312;enable-background:new ;} .st12{fill:#1FACEC;} .st13{fill:#EAB077;} .st14{fill:#FFC081;} .st15{opacity:0.1;fill:#090909;enable-background:new ;} .st16{fill:#2FB5F2;} .st17{opacity:0.2;fill:#131312;enable-background:new ;} .st18{opacity:0.15;fill:#131312;enable-background:new ;} .st19{fill:#F9BA7F;} .st20{fill:#FFC791;} .st21{fill:#FFBC6C;} .st22{fill:#474746;} .st23{opacity:0.2;} .st24{fill:#F0B179;} .st25{fill:#FFC085;} .st26{fill:#0C0C0C;} .st27{opacity:0.1;fill:#020202;enable-background:new ;} .st28{opacity:0.15;fill:#0C0C0C;enable-background:new ;} .st29{fill:#F3B67D;} .st30{fill:#FE8D0C;} .st31{fill:#8F8F8E;} .st32{fill:#605F5F;} .st33{fill:#BDBDBD;} .st34{fill:#D4D4D4;} .st35{fill:#EAEAEA;} .st36{fill:#E2261E;} .st37{opacity:0.3;fill:#131312;enable-background:new ;} </style> <linearGradient id="SVGID_1_" gradientUnits="userSpaceOnUse" x1="404.2217" y1="589.7686" x2="395.2898" y2="-179.8675" gradientTransform="matrix(1 0 0 -1 0 526)"> <stop offset="0" style="stop-color:#FFBF3E"></stop> <stop offset="0.5284" style="stop-color:#FFE8BA"></stop> <stop offset="0.8416" style="stop-color:#FFFFFF"></stop> </linearGradient> <rect class="st0" width="800" height="600"></rect> <path class="st1" d="M576.7,291.4H212.1c-12.5,0-22.7-10.2-22.7-22.7v0c0-12.5,10.2-22.7,22.7-22.7h364.6 c12.5,0,22.7,10.2,22.7,22.7v0C599.4,281.2,589.2,291.4,576.7,291.4z"></path> <g> <path d="M207,119.6l5-13h6.1l-9.7,22.7l-0.8,1.5c-1.4,2.5-3.6,3.8-6.6,3.8l-2-0.1l-0.1-4.6c0.3,0.1,0.8,0.1,1.5,0.1 c0.8,0,1.4-0.1,1.9-0.4c0.5-0.3,0.9-0.8,1.3-1.5l0.7-1.8l-9.7-19.6h6.1L207,119.6z"></path> <path d="M230.9,114.9c2.7,0,4.7,0.9,6.3,2.6c1.5,1.8,2.4,4.1,2.4,7.1v0.3c0,2.9-0.9,5.3-2.6,7.1c-1.8,1.8-4.1,2.7-7,2.7 c-2.9,0-5.3-1-7.1-2.9s-2.7-4.6-2.7-7.8V123c0-4.6,0.8-8.2,2.4-10.8c1.5-2.6,3.8-4.3,6.9-4.9c1.6-0.4,2.7-0.7,3.1-1 c0.4-0.4,0.7-0.8,0.7-1.5h4.4c0,2-0.5,3.5-1.6,4.5c-1,1-2.9,1.8-5.7,2.3c-1.6,0.3-2.9,1-3.8,1.9c-1,1-1.5,2.3-1.9,4 C226.5,115.7,228.6,114.9,230.9,114.9z M229.9,119.3c-1.3,0-2.3,0.4-3,1.3c-0.7,0.9-1.1,2.3-1.1,4.3c0,1.8,0.4,3.1,1.1,4 s1.8,1.4,3.1,1.4s2.4-0.4,3.1-1.3c0.7-0.9,1.1-2.2,1.1-4v-0.5c0-1.7-0.4-2.9-1.1-3.8C232.2,119.7,231.2,119.3,229.9,119.3z"></path> <path d="M252.3,134.5c-3,0-5.5-0.9-7.4-2.8c-1.9-1.8-2.8-4.3-2.8-7.4v-0.5c0-2.1,0.4-3.9,1.2-5.5s1.9-2.9,3.4-3.8s3.1-1.3,5-1.3 c2.8,0,5,0.9,6.6,2.7c1.6,1.8,2.4,4.3,2.4,7.5v2.2h-13c0.1,1.3,0.7,2.4,1.6,3.2c0.9,0.8,2,1.2,3.4,1.2c2.1,0,3.8-0.7,4.9-2.3l2.7,3 c-0.8,1.2-1.9,2.1-3.3,2.7C255.5,134.2,254,134.5,252.3,134.5z M251.6,117.7c-1.1,0-2,0.4-2.7,1.1c-0.7,0.7-1.1,1.8-1.3,3.2h7.6 v-0.4c0-1.3-0.4-2.1-1-2.8C253.7,118.1,252.8,117.7,251.6,117.7z"></path> <path d="M282.2,124.1c0,3.2-0.7,5.7-2.1,7.6c-1.4,1.9-3.4,2.9-5.8,2.9c-2.1,0-3.8-0.7-5-2.1v9.7h-5.5v-28.5h5.1l0.2,2 c1.3-1.6,3-2.4,5.2-2.4c2.5,0,4.5,1,5.9,2.8c1.4,1.8,2.1,4.4,2.1,7.7L282.2,124.1L282.2,124.1z M276.8,123.7c0-1.9-0.4-3.4-1-4.4 s-1.6-1.5-2.9-1.5c-1.7,0-2.9,0.7-3.5,2v8.4c0.7,1.3,1.8,2.1,3.6,2.1C275.4,130.2,276.8,128.1,276.8,123.7z"></path> <path d="M295.1,134.5c-3,0-5.5-0.9-7.4-2.8c-1.9-1.8-2.8-4.3-2.8-7.4v-0.5c0-2.1,0.4-3.9,1.2-5.5s1.9-2.9,3.4-3.8s3.1-1.3,5-1.3 c2.8,0,5,0.9,6.6,2.7c1.6,1.8,2.4,4.3,2.4,7.5v2.2h-13c0.1,1.3,0.7,2.4,1.6,3.2c0.9,0.8,2,1.2,3.4,1.2c2.1,0,3.8-0.7,4.9-2.3l2.7,3 c-0.8,1.2-1.9,2.1-3.3,2.7C298.3,134.2,296.8,134.5,295.1,134.5z M286.6,108.4c0-0.7,0.2-1.3,0.7-1.7c0.5-0.4,1.1-0.7,1.9-0.7 c0.8,0,1.4,0.2,1.9,0.7c0.5,0.4,0.7,1,0.7,1.7c0,0.7-0.2,1.3-0.7,1.7c-0.5,0.4-1.1,0.7-1.9,0.7c-0.7,0-1.4-0.2-1.8-0.7 C286.8,109.6,286.6,109,286.6,108.4z M294.5,117.7c-1.1,0-2,0.4-2.7,1.1c-0.7,0.7-1.1,1.8-1.3,3.2h7.6v-0.4c0-1.3-0.4-2.1-1-2.8 C296.5,118.1,295.6,117.7,294.5,117.7z M295.8,108.4c0-0.7,0.2-1.3,0.7-1.7c0.5-0.4,1.1-0.7,1.8-0.7s1.3,0.2,1.8,0.7 c0.5,0.4,0.7,1,0.7,1.7s-0.2,1.3-0.7,1.7c-0.5,0.4-1.1,0.7-1.9,0.7s-1.4-0.2-1.9-0.7C295.9,109.5,295.8,109,295.8,108.4z"></path> <path d="M319.1,127.8l5.4-14h6.9v20.5h-5.5v-12.6l-4.9,12.6h-3.7l-4.8-12.4v12.4H307v-20.6h6.8L319.1,127.8z"></path> <path d="M346.1,134.2v-20.5h8.6c2.8,0,4.9,0.5,6.4,1.5c1.5,1,2.2,2.4,2.2,4.3c0,1-0.3,1.8-1,2.6c-0.6,0.7-1.5,1.3-2.7,1.8 c1.5,0.3,2.6,0.8,3.5,1.6c0.8,0.8,1.3,1.8,1.3,3c0,1.9-0.7,3.4-2.1,4.3c-1.4,1-3.5,1.5-6.3,1.5L346.1,134.2L346.1,134.2 L346.1,134.2z M351.5,122h3.4c1.9,0,2.9-0.7,2.9-1.8c0-0.7-0.3-1.3-0.8-1.5c-0.5-0.3-1.3-0.4-2.4-0.4h-3.1V122L351.5,122z M351.5,125.7v4.1h4.4c1.9,0,2.9-0.7,2.9-2s-0.9-2.1-2.8-2.1H351.5z"></path> <path d="M379.5,134.2c-0.2-0.5-0.4-1.1-0.5-1.8c-1.3,1.5-3,2.2-5.2,2.2c-2,0-3.7-0.6-5-1.8c-1.3-1.2-2-2.7-2-4.4 c0-2.1,0.8-3.8,2.4-5c1.6-1.2,3.9-1.8,7-1.8h2.5v-1.2c0-1-0.2-1.7-0.7-2.3s-1.3-0.9-2.3-0.9c-0.9,0-1.6,0.2-2.1,0.7 c-0.5,0.4-0.8,1-0.8,1.8h-5.5c0-1.2,0.4-2.3,1.1-3.3c0.7-1,1.8-1.8,3.1-2.4c1.3-0.6,2.9-0.9,4.5-0.9c2.5,0,4.5,0.7,6,1.9 c1.5,1.3,2.2,3,2.2,5.4v8.8c0,1.9,0.3,3.4,0.8,4.4v0.3h-5.6V134.2z M375,130.4c0.8,0,1.5-0.1,2.2-0.5s1.2-0.8,1.5-1.5v-3.5h-2.1 c-2.7,0-4.2,1-4.3,2.9v0.3c0,0.7,0.2,1.3,0.7,1.7C373.5,130.2,374.2,130.4,375,130.4z"></path> <path d="M393.9,113.7v16.1h5.6v-16.1h5.5v16.1h5.6v-16.1h5.5v20.5h-27.7v-20.5C388.3,113.7,393.9,113.7,393.9,113.7z"></path> <path d="M428.1,126.4l3.8-12.8h5.9l-8.3,23.7l-0.4,1.1c-1.3,2.7-3.2,4-6,4c-0.8,0-1.6-0.1-2.4-0.4v-4.1h0.8c1,0,1.8-0.1,2.3-0.4 c0.5-0.3,0.9-0.8,1.2-1.5l0.7-1.7l-7.2-20.6h5.9L428.1,126.4z"></path> <path d="M457.7,126.7h-2.2v7.5H450v-20.5h5.5v7.7h1.9l4.5-7.7h6.9l-6.7,9.7l7.3,10.8h-7.3L457.7,126.7z"></path> <path d="M471.8,134.2v-20.5h8.6c2.8,0,4.9,0.5,6.4,1.5s2.2,2.4,2.2,4.3c0,1-0.3,1.8-1,2.6c-0.6,0.7-1.5,1.3-2.7,1.8 c1.5,0.3,2.6,0.8,3.5,1.6c0.9,0.8,1.3,1.8,1.3,3c0,1.9-0.7,3.4-2.1,4.3c-1.4,1-3.5,1.5-6.3,1.5L471.8,134.2L471.8,134.2 L471.8,134.2z M477.3,122h3.4c1.9,0,2.9-0.7,2.9-1.8c0-0.7-0.3-1.3-0.8-1.5c-0.5-0.3-1.3-0.4-2.4-0.4h-3.1L477.3,122L477.3,122z M477.3,125.7v4.1h4.4c1.9,0,2.9-0.7,2.9-2s-0.9-2.1-2.8-2.1H477.3z"></path> <path d="M505.3,134.2c-0.2-0.5-0.4-1.1-0.5-1.8c-1.3,1.5-3,2.2-5.2,2.2c-2,0-3.7-0.6-5-1.8c-1.3-1.2-2-2.7-2-4.4 c0-2.1,0.8-3.8,2.4-5c1.6-1.2,3.9-1.8,7-1.8h2.5v-1.2c0-1-0.2-1.7-0.7-2.3c-0.5-0.6-1.3-0.9-2.3-0.9c-0.9,0-1.6,0.2-2.1,0.7 s-0.8,1-0.8,1.8h-5.5c0-1.2,0.4-2.3,1.1-3.3c0.7-1,1.8-1.8,3.1-2.4c1.3-0.6,2.9-0.9,4.5-0.9c2.5,0,4.5,0.7,6,1.9 c1.5,1.3,2.2,3,2.2,5.4v8.8c0,1.9,0.3,3.4,0.8,4.4v0.3h-5.6V134.2z M500.8,130.4c0.8,0,1.5-0.1,2.2-0.5s1.2-0.8,1.5-1.5v-3.5h-2.1 c-2.7,0-4.2,1-4.3,2.9v0.3c0,0.7,0.2,1.3,0.7,1.7C499.3,130.2,499.9,130.4,500.8,130.4z"></path> <path d="M532.7,124.1c0,3.2-0.7,5.7-2.1,7.6c-1.4,1.9-3.4,2.9-5.8,2.9c-2.1,0-3.8-0.7-5-2.1v9.7h-5.5v-28.5h5.1l0.2,2 c1.3-1.6,3-2.4,5.2-2.4c2.5,0,4.5,1,5.9,2.8c1.4,1.8,2.1,4.4,2.1,7.7L532.7,124.1L532.7,124.1z M527.2,123.7c0-1.9-0.4-3.4-1-4.4 s-1.6-1.5-2.9-1.5c-1.7,0-2.9,0.7-3.5,2v8.4c0.7,1.3,1.8,2.1,3.6,2.1C525.9,130.2,527.2,128.1,527.2,123.7z"></path> <path d="M552.3,118.1h-6.6v16.1h-5.5v-16.1h-6.5v-4.4h18.5V118.1z"></path> <path d="M567.4,113.7h5.5v20.5h-5.5v-12.6l-6.9,12.7h-5.5v-20.6h5.5v12.6L567.4,113.7z"></path> <path d="M595.5,124.1c0,3.2-0.7,5.7-2.1,7.6c-1.4,1.9-3.4,2.9-5.8,2.9c-2.1,0-3.8-0.7-5-2.1v9.7H577v-28.5h5.1l0.2,2 c1.3-1.6,3-2.4,5.2-2.4c2.5,0,4.5,1,5.9,2.8c1.4,1.8,2.1,4.4,2.1,7.7L595.5,124.1L595.5,124.1z M590,123.7c0-1.9-0.4-3.4-1-4.4 s-1.6-1.5-2.9-1.5c-1.7,0-2.9,0.7-3.5,2v8.4c0.7,1.3,1.8,2.1,3.6,2.1C588.7,130.2,590,128.1,590,123.7z"></path> <path d="M606.3,126.4l3.8-12.8h5.9l-8.3,23.7l-0.4,1.1c-1.3,2.7-3.2,4-6,4c-0.8,0-1.6-0.1-2.4-0.4v-4.1h0.8c1,0,1.8-0.1,2.3-0.4 c0.5-0.3,0.9-0.8,1.2-1.5l0.7-1.7l-7.2-20.6h5.9L606.3,126.4z"></path> <path d="M201.6,175.6h-5.5v-16.1h-6.9v16.1h-5.5v-20.5h17.8L201.6,175.6L201.6,175.6z"></path> <path d="M205,165.1c0-2.1,0.4-3.8,1.2-5.5s1.9-2.8,3.4-3.7c1.5-0.9,3.2-1.3,5.1-1.3c2.8,0,5,0.8,6.8,2.5c1.8,1.7,2.7,4,2.9,6.9 l0.1,1.4c0,3.2-0.9,5.7-2.7,7.6s-4.1,2.9-7.1,2.9c-2.9,0-5.3-1-7.1-2.9c-1.8-1.9-2.7-4.5-2.7-7.7V165.1L205,165.1z M210.4,165.5 c0,1.9,0.4,3.5,1.1,4.5c0.7,1,1.8,1.5,3.2,1.5c1.3,0,2.4-0.5,3.1-1.5c0.7-1,1.1-2.7,1.1-4.9c0-1.9-0.4-3.4-1.1-4.4 c-0.7-1-1.8-1.5-3.2-1.5c-1.3,0-2.4,0.5-3.1,1.5C210.8,161.7,210.4,163.4,210.4,165.5z"></path> <path d="M236.2,171.5c1,0,1.8-0.3,2.4-0.8c0.7-0.6,1-1.3,1-2.2h5.2c0,1.4-0.4,2.7-1.1,3.8c-0.7,1.2-1.8,2.1-3,2.7 c-1.3,0.7-2.7,1-4.3,1c-2.9,0-5.2-1-6.9-2.8c-1.7-1.8-2.5-4.4-2.5-7.7v-0.4c0-3.2,0.8-5.7,2.5-7.5c1.7-1.9,4-2.8,6.9-2.8 c2.6,0,4.6,0.7,6.2,2.2c1.5,1.5,2.4,3.4,2.4,5.8h-5.2c0-1-0.4-1.9-1-2.6c-0.7-0.7-1.5-1-2.5-1c-1.3,0-2.2,0.4-2.9,1.4 c-0.7,1-1,2.4-1,4.5v0.6c0,2.1,0.3,3.6,1,4.6C233.9,171.1,235,171.5,236.2,171.5z"></path> <path d="M265.8,155.1v20.5h-5.5v-16.1h-4.8l-0.4,6.3c-0.2,3.4-0.9,5.8-2,7.4s-2.8,2.4-4.9,2.4h-1.9l-0.1-4.4l0.7-0.1 c1-0.1,1.7-0.7,2.1-1.8s0.7-2.9,0.9-5.5l0.4-8.7H265.8z"></path> <path d="M279.4,176c-3,0-5.5-0.9-7.4-2.8c-1.9-1.8-2.8-4.3-2.8-7.4v-0.5c0-2.1,0.4-3.9,1.2-5.5s1.9-2.9,3.4-3.8 c1.5-0.9,3.1-1.3,5-1.3c2.8,0,5,0.9,6.6,2.7c1.6,1.8,2.4,4.3,2.4,7.5v2.2h-13c0.1,1.3,0.7,2.4,1.6,3.2c0.9,0.8,2,1.2,3.4,1.2 c2.1,0,3.8-0.7,4.9-2.3l2.7,3c-0.8,1.2-1.9,2.1-3.3,2.7C282.7,175.6,281.1,176,279.4,176z M278.8,159.2c-1.1,0-2,0.4-2.7,1.1 c-0.7,0.7-1.1,1.8-1.3,3.2h7.6V163c0-1.3-0.4-2.1-1-2.8C280.8,159.5,279.9,159.2,278.8,159.2z"></path> <path d="M319.1,165.5c0,3.2-0.7,5.7-2.1,7.6c-1.4,1.9-3.4,2.9-5.8,2.9c-2.1,0-3.8-0.7-5-2.1v9.7h-5.5v-28.4h5.1l0.2,2 c1.3-1.6,3-2.4,5.2-2.4c2.5,0,4.5,1,5.9,2.8c1.4,1.8,2.1,4.4,2.1,7.7L319.1,165.5L319.1,165.5L319.1,165.5z M313.6,165.1 c0-1.9-0.4-3.4-1-4.4c-0.7-1-1.6-1.5-2.9-1.5c-1.7,0-2.9,0.7-3.5,2v8.4c0.7,1.3,1.8,2.1,3.6,2.1 C312.3,171.5,313.6,169.4,313.6,165.1z"></path> <path d="M331.9,176c-3,0-5.5-0.9-7.4-2.8c-1.9-1.8-2.8-4.3-2.8-7.4v-0.5c0-2.1,0.4-3.9,1.2-5.5s1.9-2.9,3.4-3.8 c1.5-0.9,3.1-1.3,5-1.3c2.8,0,5,0.9,6.6,2.7c1.6,1.8,2.4,4.3,2.4,7.5v2.2h-13c0.1,1.3,0.7,2.4,1.6,3.2c0.9,0.8,2,1.2,3.4,1.2 c2.1,0,3.8-0.7,4.9-2.3l2.7,3c-0.8,1.2-1.9,2.1-3.3,2.7C335.2,175.6,333.6,176,331.9,176z M331.3,159.2c-1.1,0-2,0.4-2.7,1.1 c-0.7,0.7-1.1,1.8-1.3,3.2h7.6V163c0-1.3-0.4-2.1-1-2.8C333.3,159.5,332.4,159.2,331.3,159.2z"></path> <path d="M355.9,169.1l5.4-14h6.9v20.5h-5.5V163l-4.9,12.6H354l-4.8-12.4v12.4h-5.5v-20.5h6.8L355.9,169.1z"></path> <path d="M372,165.1c0-2.1,0.4-3.8,1.2-5.5s1.9-2.8,3.4-3.7s3.2-1.3,5.1-1.3c2.8,0,5,0.8,6.8,2.5c1.8,1.7,2.7,4,2.9,6.9l0.1,1.4 c0,3.2-0.9,5.7-2.7,7.6s-4.1,2.9-7.1,2.9s-5.3-1-7.1-2.9c-1.8-1.9-2.7-4.5-2.7-7.7V165.1z M377.5,165.5c0,1.9,0.4,3.5,1.1,4.5 s1.8,1.5,3.2,1.5c1.3,0,2.4-0.5,3.1-1.5c0.7-1,1.1-2.7,1.1-4.9c0-1.9-0.4-3.4-1.1-4.4c-0.7-1-1.8-1.5-3.2-1.5 c-1.3,0-2.4,0.5-3.1,1.5S377.5,163.4,377.5,165.5z"></path> <path d="M412.6,175.6H407v-7.9h-6.8v7.9h-5.5v-20.5h5.5v8.2h6.8v-8.2h5.5L412.6,175.6L412.6,175.6z"></path> <path d="M433.8,159.5h-6.6v16.1h-5.5v-16.1h-6.5v-4.4h18.5L433.8,159.5L433.8,159.5z"></path> <path d="M448.1,175.6c-0.2-0.5-0.4-1.1-0.5-1.8c-1.3,1.5-3,2.2-5.2,2.2c-2,0-3.7-0.6-5-1.8c-1.3-1.2-2-2.7-2-4.4 c0-2.1,0.8-3.8,2.4-5c1.6-1.2,3.9-1.8,7-1.8h2.5v-1.2c0-1-0.2-1.7-0.7-2.3s-1.3-0.9-2.3-0.9c-0.9,0-1.6,0.2-2.1,0.7 c-0.5,0.4-0.8,1-0.8,1.8h-5.5c0-1.2,0.4-2.3,1.1-3.3c0.7-1,1.8-1.8,3.1-2.4c1.3-0.6,2.9-0.9,4.5-0.9c2.5,0,4.5,0.7,6,1.9 c1.5,1.3,2.2,3,2.2,5.4v8.8c0,1.9,0.3,3.4,0.8,4.4v0.3h-5.6V175.6z M443.6,171.8c0.8,0,1.5-0.1,2.2-0.5s1.2-0.8,1.5-1.5v-3.5h-2.1 c-2.7,0-4.2,1-4.3,2.9v0.3c0,0.7,0.2,1.3,0.7,1.7C442.1,171.5,442.7,171.8,443.6,171.8z"></path> <path d="M484.5,175.6h-5.5v-16.1h-6.9v16.1h-5.5v-20.5h17.8L484.5,175.6L484.5,175.6z"></path> <path d="M487.8,165.1c0-2.1,0.4-3.8,1.2-5.5c0.8-1.6,1.9-2.8,3.4-3.7s3.2-1.3,5.1-1.3c2.8,0,5,0.8,6.8,2.5c1.8,1.7,2.7,4,2.9,6.9 l0.1,1.4c0,3.2-0.9,5.7-2.7,7.6s-4.1,2.9-7.1,2.9s-5.3-1-7.1-2.9c-1.8-1.9-2.7-4.5-2.7-7.7L487.8,165.1L487.8,165.1z M493.3,165.5 c0,1.9,0.4,3.5,1.1,4.5s1.8,1.5,3.2,1.5c1.3,0,2.4-0.5,3.1-1.5c0.7-1,1.1-2.7,1.1-4.9c0-1.9-0.4-3.4-1.1-4.4 c-0.7-1-1.8-1.5-3.2-1.5c-1.3,0-2.4,0.5-3.1,1.5S493.3,163.4,493.3,165.5z"></path> <path d="M509.5,171.2c1.3-1.3,2.1-2.6,2.5-3.9c0.4-1.3,0.7-3.1,0.7-5.5l0.1-6.7h15v16.1h2.9v10.5h-5.5v-6.1h-12.2v6.1h-5.6v-10.5 H509.5z M516,171.2h6.6v-11.6h-4.3l-0.1,2.4C518.1,165.9,517.4,168.9,516,171.2z"></path> <path d="M551.4,168h-2.2v7.5h-5.5V155h5.5v7.7h1.9l4.5-7.7h6.9l-6.7,9.7l7.3,10.8h-7.3L551.4,168z"></path> <path d="M583.1,155.1v20.5h-5.5v-16.1h-4.8l-0.4,6.3c-0.2,3.4-0.9,5.8-2,7.4c-1.1,1.5-2.8,2.4-4.9,2.4h-1.8l-0.1-4.4l0.7-0.1 c1-0.1,1.7-0.7,2.1-1.8c0.4-1.1,0.7-2.9,0.9-5.5l0.4-8.7H583.1z"></path> <path d="M593.2,162.9h2.9c0.4-2.6,1.5-4.6,3.2-6c1.7-1.5,3.8-2.2,6.3-2.2c2.8,0,5,0.8,6.8,2.5c1.8,1.7,2.7,4,2.9,6.9l0.1,1.4 c0,3.2-0.9,5.7-2.7,7.6c-1.8,1.9-4.1,2.9-7.1,2.9c-2.7,0-4.9-0.7-6.6-2.3s-2.7-3.6-3-6.3h-2.9v8.2h-5.5V155h5.5L593.2,162.9 L593.2,162.9z M601.4,165.5c0,1.9,0.4,3.5,1.1,4.5c0.7,1,1.8,1.5,3.2,1.5c1.3,0,2.4-0.5,3.1-1.5c0.7-1,1.1-2.7,1.1-4.9 c0-1.9-0.4-3.4-1.1-4.4c-0.7-1-1.8-1.5-3.2-1.5c-1.3,0-2.4,0.5-3.1,1.5C601.8,161.7,601.4,163.4,601.4,165.5z"></path> <path d="M636,175.6h-5.5v-6.4c-1,0.2-2,0.3-2.9,0.3c-3.1,0-5.5-0.7-7-2c-1.5-1.3-2.4-3.2-2.4-5.8v-6.6h5.5v6.6 c0,1.2,0.3,2.1,0.9,2.6c0.6,0.5,1.5,0.7,3,0.7c0.9,0,1.8-0.1,2.9-0.3v-9.6h5.5V175.6z"></path> </g> <g> <g> <path class="st2" d="M225.6,255.5l7.1,17.6l7.1-17.6h3.7v21.6h-2.9v-8.4l0.3-9.1l-7.1,17.5h-2.2l-7.1-17.5l0.3,9v8.4h-2.9v-21.6 h3.7L225.6,255.5L225.6,255.5z"></path> <path class="st2" d="M247.3,268.9c0-1.6,0.3-3,0.9-4.2c0.6-1.3,1.5-2.2,2.6-2.9c1.1-0.7,2.4-1,3.8-1c2.2,0,4,0.8,5.3,2.3 s2,3.5,2,6v0.2c0,1.6-0.3,3-0.9,4.2c-0.6,1.2-1.5,2.2-2.6,2.9c-1.1,0.7-2.4,1-3.8,1c-2.2,0-3.9-0.8-5.3-2.3c-1.4-1.5-2-3.5-2-6 L247.3,268.9L247.3,268.9z M250.1,269.2c0,1.8,0.4,3.2,1.2,4.3s1.9,1.6,3.3,1.6c1.4,0,2.5-0.5,3.3-1.6s1.2-2.6,1.2-4.6 c0-1.8-0.4-3.2-1.3-4.3c-0.8-1.1-1.9-1.6-3.3-1.6c-1.4,0-2.5,0.5-3.3,1.6S250.1,267.2,250.1,269.2z"></path> <path class="st2" d="M275.8,261h2.7v16.1h-2.7v-11.7l-7.4,11.7h-2.7V261h2.7v11.8L275.8,261z M276.6,255.2c0,1.2-0.4,2.2-1.2,2.9 c-0.8,0.7-1.9,1.1-3.2,1.1s-2.4-0.4-3.2-1.1c-0.8-0.7-1.2-1.7-1.2-2.9h2.2c0,0.7,0.2,1.2,0.6,1.6c0.4,0.4,0.9,0.6,1.6,0.6 s1.2-0.2,1.6-0.6s0.6-0.9,0.6-1.6H276.6z"></path> <path class="st2" d="M288,270.3h-2v6.8h-2.8V261h2.8v6.8h1.8l5.4-6.8h3.3l-6.4,7.7l6.9,8.3h-3.5L288,270.3z"></path> <path class="st2" d="M309.3,277.1c-0.2-0.3-0.3-0.9-0.4-1.7c-1.3,1.3-2.8,2-4.6,2c-1.6,0-2.9-0.4-3.9-1.3c-1-0.9-1.5-2-1.5-3.4 c0-1.7,0.6-3,1.9-3.9s3.1-1.4,5.4-1.4h2.7v-1.3c0-1-0.3-1.7-0.9-2.3s-1.4-0.9-2.5-0.9c-1,0-1.8,0.2-2.5,0.7s-1,1.1-1,1.8h-2.8 c0-0.8,0.3-1.6,0.9-2.3c0.6-0.7,1.3-1.3,2.3-1.8c1-0.4,2-0.7,3.2-0.7c1.9,0,3.3,0.5,4.4,1.4c1,0.9,1.6,2.2,1.6,3.8v7.4 c0,1.5,0.2,2.6,0.6,3.5v0.2h-2.9L309.3,277.1L309.3,277.1z M304.8,275c0.9,0,1.7-0.2,2.5-0.7s1.3-1,1.7-1.7v-3.3h-2.2 c-3.4,0-5.1,1-5.1,3c0,0.9,0.3,1.5,0.9,2C303.1,274.8,303.9,275,304.8,275z"></path> <path class="st2" d="M322.8,268.9c0-1.6,0.3-3,0.9-4.2c0.6-1.3,1.5-2.2,2.6-2.9c1.1-0.7,2.4-1,3.8-1c2.2,0,4,0.8,5.3,2.3 s2,3.5,2,6v0.2c0,1.6-0.3,3-0.9,4.2c-0.6,1.2-1.5,2.2-2.6,2.9c-1.1,0.7-2.4,1-3.8,1c-2.2,0-3.9-0.8-5.3-2.3s-2-3.5-2-6V268.9z M325.5,269.2c0,1.8,0.4,3.2,1.2,4.3c0.8,1.1,1.9,1.6,3.3,1.6s2.5-0.5,3.3-1.6s1.2-2.6,1.2-4.6c0-1.8-0.4-3.2-1.3-4.3 c-0.8-1.1-1.9-1.6-3.3-1.6s-2.5,0.5-3.3,1.6S325.5,267.2,325.5,269.2z"></path> <path class="st2" d="M345.8,270.3h-2v6.8H341V261h2.8v6.8h1.8l5.4-6.8h3.3l-6.3,7.8l6.9,8.3h-3.5L345.8,270.3z"></path> <path class="st2" d="M356.2,268.9c0-1.6,0.3-3,0.9-4.2c0.6-1.3,1.5-2.2,2.6-2.9c1.1-0.7,2.4-1,3.8-1c2.2,0,4,0.8,5.3,2.3 s2,3.5,2,6v0.2c0,1.6-0.3,3-0.9,4.2c-0.6,1.2-1.5,2.2-2.6,2.9c-1.1,0.7-2.4,1-3.8,1c-2.2,0-3.9-0.8-5.3-2.3s-2-3.5-2-6V268.9z M359,269.2c0,1.8,0.4,3.2,1.2,4.3c0.8,1.1,1.9,1.6,3.3,1.6s2.5-0.5,3.3-1.6s1.2-2.6,1.2-4.6c0-1.8-0.4-3.2-1.3-4.3 c-0.8-1.1-1.9-1.6-3.3-1.6s-2.5,0.5-3.3,1.6S359,267.2,359,269.2z"></path> <path class="st2" d="M387.4,277.1h-2.7v-6.9h-7.4v6.9h-2.8V261h2.8v7h7.4v-7h2.7V277.1z"></path> <path class="st2" d="M399.6,277.1V261h6.3c2.1,0,3.8,0.4,4.9,1.1s1.7,1.8,1.7,3.3c0,0.7-0.2,1.4-0.7,2c-0.4,0.6-1.1,1.1-2,1.4 c1,0.2,1.8,0.7,2.3,1.3c0.6,0.7,0.9,1.5,0.9,2.4c0,1.5-0.5,2.6-1.6,3.4c-1.1,0.8-2.6,1.2-4.6,1.2H399.6L399.6,277.1z M402.4,267.8 h3.6c2.6,0,3.9-0.8,3.9-2.3s-1.2-2.3-3.7-2.3h-3.8V267.8z M402.4,270v4.8h4.5c1.1,0,2-0.2,2.6-0.6c0.6-0.4,0.9-1,0.9-1.8 c0-1.6-1.2-2.4-3.5-2.4H402.4z"></path> <path class="st2" d="M441.2,277.1h-2.9v-19.3h-10.7v19.3h-2.9v-21.6h16.4v21.6H441.2z"></path> <path class="st2" d="M463.1,267c0,2.1-0.4,4-1.1,5.5s-1.7,2.8-3,3.6c-1.3,0.8-2.8,1.2-4.6,1.2c-1.7,0-3.2-0.4-4.5-1.3 c-1.3-0.8-2.3-2-3.1-3.6c-0.7-1.5-1.1-3.3-1.1-5.4v-1.6c0-2.1,0.4-3.9,1.1-5.5s1.7-2.8,3.1-3.7s2.8-1.3,4.5-1.3s3.3,0.4,4.6,1.3 c1.3,0.8,2.3,2.1,3.1,3.6c0.7,1.6,1.1,3.4,1.1,5.5v1.7H463.1z M460.2,265.6c0-2.6-0.5-4.5-1.5-5.9s-2.5-2.1-4.3-2.1 s-3.2,0.7-4.3,2.1c-1,1.4-1.6,3.3-1.6,5.7v1.6c0,2.5,0.5,4.4,1.6,5.9c1,1.4,2.5,2.1,4.3,2.1s3.3-0.7,4.3-2c1-1.3,1.5-3.3,1.6-5.8 v-1.6H460.2z"></path> <path class="st2" d="M486.3,282.4h-2.8v-5.3H468v5.3h-2.9v-7.7h1.8c0.9-1,1.7-2.5,2.2-4.2c0.5-1.7,0.9-3.7,1-5.8l0.5-9.3h12.9 v19.4h2.8V282.4z M470.1,274.8h10.5v-17h-7.3l-0.3,6.4c-0.1,2.5-0.5,4.6-1,6.4S470.9,273.7,470.1,274.8z"></path> <path class="st2" d="M501.9,271.4h-9.1l-2,5.7h-2.9l8.3-21.6h2.5l8.3,21.6h-3L501.9,271.4z M493.7,269.1h7.4l-3.7-10.1 L493.7,269.1z"></path> <path class="st2" d="M512.7,268.6v8.5h-2.9v-21.6h8c2.4,0,4.2,0.6,5.6,1.8c1.3,1.2,2,2.8,2,4.8c0,2.1-0.7,3.7-2,4.9 c-1.3,1.1-3.2,1.7-5.6,1.7L512.7,268.6L512.7,268.6z M512.7,266.3h5.1c1.5,0,2.7-0.4,3.5-1.1s1.2-1.8,1.2-3.1 c0-1.3-0.4-2.3-1.2-3.1c-0.8-0.8-1.9-1.2-3.3-1.2h-5.3V266.3z"></path> <path class="st2" d="M545.7,267c0,2.1-0.4,4-1.1,5.5s-1.7,2.8-3,3.6c-1.3,0.8-2.8,1.2-4.6,1.2c-1.7,0-3.2-0.4-4.5-1.3 c-1.3-0.8-2.3-2-3.1-3.6c-0.7-1.5-1.1-3.3-1.1-5.4v-1.6c0-2.1,0.4-3.9,1.1-5.5c0.7-1.6,1.7-2.8,3.1-3.7s2.8-1.3,4.5-1.3 s3.3,0.4,4.6,1.3c1.3,0.8,2.3,2.1,3.1,3.6c0.7,1.6,1.1,3.4,1.1,5.5L545.7,267L545.7,267z M542.8,265.6c0-2.6-0.5-4.5-1.5-5.9 s-2.5-2.1-4.3-2.1s-3.2,0.7-4.3,2.1c-1,1.4-1.6,3.3-1.6,5.7v1.6c0,2.5,0.5,4.4,1.6,5.9c1,1.4,2.5,2.1,4.3,2.1s3.3-0.7,4.3-2 c1-1.3,1.5-3.3,1.6-5.8L542.8,265.6L542.8,265.6z"></path> <path class="st2" d="M555.5,267.4h-2.6v9.7H550v-21.6h2.9v9.5h2.2l7.6-9.5h3.6L558,266l8.9,11.1h-3.5L555.5,267.4z"></path> </g> </g> <g> <path class="st3" d="M503.7,314.9v115.3h82.7V314.9H503.7z M565.3,367.5c0,1.1-0.9,2-2,2s-2-0.9-2-2v-1.1c0-1.1,0.9-2,2-2 s2,0.9,2,2V367.5z"></path> <path class="st4" d="M508.3,319.5v103.4h72.4V319.5H508.3z M565.3,367.5c0,1.1-0.9,2-2,2s-2-0.9-2-2v-1.1c0-1.1,0.9-2,2-2 s2,0.9,2,2V367.5z"></path> <path class="st5" d="M510,320.8v103.4h70.7V320.8H510z M565.3,367.5c0,1.1-0.9,2-2,2s-2-0.9-2-2v-1.1c0-1.1,0.9-2,2-2s2,0.9,2,2 V367.5z"></path> <polygon class="st3" points="537.6,321.7 532.5,321.7 579.8,371.1 579.8,366.1 "></polygon> <path class="st3" d="M529.6,321.7h-17.9l68.1,73v-19.8L529.6,321.7z"></path> </g> <g> <g class="st6"> <path class="st7" d="M135.8,410.1c0,1.8-13.5,3.3-30,3.3c-16.6,0-30-1.5-30-3.3s13.5-3.3,30-3.3 C122.3,406.7,135.8,408.2,135.8,410.1z"></path> </g> <g> <g> <polygon class="st8" points="76.1,394.8 76.2,395.9 76.6,399.2 76.7,400.1 77.9,410.4 89.4,410.4 89.7,406.7 89.7,406.7 90.8,395.9 90.9,394.8 "></polygon> <rect x="75.7" y="394.8" class="st9" width="15.4" height="1.1"></rect> <path class="st10" d="M75.7,400.7l8.1-4.2c0.3-0.2,0.5-0.6,0.2-0.9l0,0c-0.2-0.3-0.6-0.4-0.9-0.2l-7.8,4.7L75.7,400.7z"></path> <path class="st11" d="M89.4,410.4H77.9c5.9-3.3,10.7-7.9,13-15.6L89.4,410.4z"></path> </g> <path class="st12" d="M89.5,344.7l0.6,6.7l0,0l0.2,1.9l0.1,1.4l0.4,4.4l0.7,7.9v7.1h15.4v-7l0.2-2.5l0.2-1.9l0,0l0.1-1.4l0.8-9.1 v-0.5l0.6-6.9l0,0l-6.6-1.5l-0.3-0.1l0,0l-2.1,0.6l0,0l-0.7,0.2l-0.7-0.2l-2.1-0.6h-0.1l-0.3,0.1L89.5,344.7L89.5,344.7 L89.5,344.7z"></path> <g> <path class="st10" d="M111.6,410.5h-8.2c-0.1-1.8,0-2.6,0.4-3.8c1.4-0.8,3.7-0.7,5.9,0.3l0.9,0.4c0.6,0.4,1,1.1,1,1.9 L111.6,410.5L111.6,410.5z"></path> <path class="st12" d="M99.2,373.8c0,0.1,0,0.2,0.1,0.4l0,0v0.1c0,0.1,0,0.1,0,0.2c0.1,0.7,0.2,1.3,0.3,2 c0.6,4.6,1.1,8.6,2.3,12.1l0.8-0.1l1.1-0.1l1.9-0.1l1.4-0.1l1-0.1c0.7-5.5,0.1-10.2-0.8-13.7c0-0.1,0-0.2-0.1-0.3l0,0l0,0l0,0 l0,0c-0.5-0.6-1.1-1-1.8-1.2c-1.1-0.4-2.3-0.4-3.6-0.1c-0.5,0.1-1,0.3-1.5,0.5l0,0c-0.1,0.1-0.3,0.1-0.4,0.2 C99.6,373.6,99.4,373.6,99.2,373.8C99.2,373.7,99.2,373.8,99.2,373.8z"></path> <path class="st12" d="M101.8,388.5c0,6.6,1.5,18.6,1.6,19.2l0,0l0,0c1.3-1.4,4.4-1.5,6.3-0.6l0,0c0.1-0.4,0.1-0.9,0.2-1.3l0,0 c0.7-5.7-0.4-12.6-2.1-17.7c-0.2-0.5-0.4-0.8-0.7-1s-0.7-0.3-1-0.4c-0.8-0.1-1.8,0.4-3,1c-0.2,0.1-0.4,0.2-0.7,0.4 C102.3,388.2,102.1,388.4,101.8,388.5z"></path> <path class="st10" d="M87,410.5h8.2c0.1-1.8,0-2.6-0.4-3.8c-1.4-0.8-3.7-0.7-5.9,0.3l-0.9,0.4c-0.6,0.4-1,1.1-1,1.9L87,410.5 L87,410.5z"></path> <path class="st12" d="M90.6,388.1l0.9,0.1l1.4,0.1l1.9,0.1l1.1,0.1l0.8,0.1c1.2-3.4,1.7-7.4,2.3-12.1c0.1-0.7,0.2-1.3,0.3-2 c0-0.1,0-0.1,0-0.2v-0.1l0,0c0-0.1,0-0.3,0.1-0.4h-0.1c-0.2-0.1-0.3-0.2-0.5-0.2c-0.1-0.1-0.3-0.1-0.4-0.2l0,0 c-0.5-0.2-1-0.4-1.5-0.5c-1.3-0.3-2.5-0.4-3.6,0.1c-0.6,0.3-1.2,0.7-1.8,1.2l0,0l0,0l0,0l0,0c0,0.1,0,0.1,0,0.2l0,0 C90.6,377.8,89.9,382.5,90.6,388.1z"></path> <path class="st12" d="M88.5,405.6L88.5,405.6c0.1,0.5,0.1,1,0.2,1.5l0,0c0.3-0.1,0.6-0.3,1-0.3c1.9-0.5,4.2-0.2,5.3,1l0,0l0,0 c0.1-0.6,1.6-12.6,1.6-19.2c-0.3-0.1-0.5-0.3-0.8-0.4c-0.2-0.1-0.4-0.2-0.6-0.3c-1.2-0.7-2.2-1.2-3-1.1c-0.3,0-0.7,0.1-1,0.4 c-0.3,0.2-0.5,0.5-0.7,1c-0.7,2-1.3,4.3-1.7,6.7c-0.1,0.4-0.1,0.8-0.2,1.1c-0.2,1.6-0.4,3.1-0.4,4.7l0,0 C88.3,402.4,88.3,404,88.5,405.6z"></path> </g> <g> <path class="st13" d="M96.4,339.8v0.8l0,0v1.2l0,0v1.4l0,0c0.1,0.9,1.1,1.5,2.2,1.7c0.2,0,0.4,0,0.6,0c0.1,0,0.3,0,0.4,0 c1.2-0.1,2.2-0.6,2.4-1.7l0,0v-1.4v-1.3l0,0v-0.9L96.4,339.8z"></path> <g> <path class="st14" d="M94.2,336.4c0.1,0.6,0.4,1.4,0.8,1.5c0.4,0.1,0.5-0.1,0.5-0.1c0.2,0.9,0.3,1.7,0.6,2.1 c0.4,0.5,0.7,1,0.9,1.3c0.6,0.7,1.1,0.9,2.2,0.9l0,0l0,0c1.1,0,1.6-0.2,2.3-0.9c0.3-0.3,0.6-0.7,0.9-1.3 c0.3-0.5,0.4-1.2,0.6-2.1c0,0,0.1,0.3,0.5,0.1c0.3-0.1,0.6-0.9,0.8-1.5c0.1-0.5,0-0.9-0.3-1.1c-0.1-0.1-0.2-0.1-0.3-0.1l0,0 c-0.1,0-0.2,0-0.3,0.1c0.1-0.4,0.1-0.7,0.1-1c0.1-0.7,0-1.2-0.2-1.8c-0.2-0.7-0.5-1.2-0.9-1.6l0,0c-0.7-0.8-1.7-1.2-2.9-1.3l0,0 c-0.1,0-0.2,0-0.4,0c-2,0-3.7,1-4.3,3c-0.1,0.5-0.2,1.1-0.2,1.7c0,0.4,0.1,0.7,0.1,1c-0.1-0.1-0.2-0.1-0.3-0.1s-0.2,0-0.3,0.1 C94.2,335.5,94.1,335.9,94.2,336.4z"></path> <path class="st10" d="M94.7,335.2c0.3,0.1,0.4,0.3,0.6,0.8c0.1,0.2,0.1,0.5,0.2,0.9c0.3,0.1,0.4,0.1,0.7,0.2 c-0.1-0.3-0.1-0.5-0.2-0.7c-0.3-1.3-0.4-2.3-0.3-3c0-0.3,0-0.6,0.1-0.8c0.3-1.8,1.5-1.9,2-1.9c0.5-0.1,2.7-0.1,3.3,0 c0.4,0.1,1.4,0.2,1.8,1.5c0,0.1,0.1,0.3,0.1,0.4c0.2,0.8,0.1,2-0.3,3.8c-0.1,0.3-0.1,0.5-0.2,0.8c0.3-0.1,0.4-0.1,0.7-0.2 c0.1-0.4,0.1-0.7,0.2-1c0.1-0.4,0.3-0.6,0.6-0.7l0,0c0.2-1.2,0.2-2,0-2.7c-0.1-0.8-0.4-1.4-0.9-2.1c-1.2-1.7-5.6-2.1-7.4-0.1 c-0.5,0.6-0.9,1.3-1,2.1C94.5,333.3,94.6,334.1,94.7,335.2z"></path> <path class="st10" d="M100.8,329.6c0.3,0,0.6,0.1,0.9,0.3c0.4,0.2,1.4,1.7,1.2,2c-0.9,1.4-3.5,1.8-5.4,1.8 c0.2-0.2,0.6-0.5,0.6-0.8c-1,0.4-2.2,0.5-3.2,0.3c0.3-0.9,0.7-1.9,1.4-2.5c0.6-0.5,1.3-0.8,2.1-1S100,329.6,100.8,329.6z"></path> </g> <path class="st15" d="M94.7,335.2c0.3,0.1,0.4,0.3,0.6,0.8c0.1,0.1,0.2,0.1,0.3,0.2s0.2,0.1,0.3,0.1c2.2,1,4.4,1,6.7,0 c0.1,0,0.2-0.1,0.3-0.1c0.1-0.1,0.3-0.1,0.4-0.2c0.1-0.4,0.3-0.6,0.6-0.7l0,0c0.2-1.2,0.2-2,0-2.7h-9.2 C94.5,333.3,94.6,334.1,94.7,335.2z"></path> <g> <g> <path class="st12" d="M98.6,328.4h1.3c2.3,0,4.1,1.8,4.1,4.1l-0.1,1.4c-3.2-0.6-6.2-0.6-9.4-0.1l-0.1-1.4 C94.5,330.2,96.3,328.4,98.6,328.4z"></path> <path class="st12" d="M103.7,333.8c-0.1,0.4-0.1,0.3-0.2,0.4c-0.3,0.7-1.1,1.2-1.8,1c-0.4-0.1-0.8-0.3-1.2-0.5 s-0.8-0.3-1.2-0.3s-0.8,0.1-1.2,0.3c-0.4,0.2-0.8,0.4-1.2,0.5c-0.7,0.1-1.5-0.3-1.8-1c-0.1-0.1,0,0-0.2-0.4 C96.3,332.1,102.2,332.1,103.7,333.8z"></path> </g> <g> <path class="st12" d="M98.6,328.4h1.3c2.3,0,4.1,1.8,4.1,4.1l-0.1,1.4c-3.2-0.6-6.2-0.6-9.4-0.1l-0.1-1.4 C94.5,330.2,96.3,328.4,98.6,328.4z"></path> <path class="st16" d="M103.7,333.8c-0.1,0.4-0.1,0.3-0.2,0.4c-0.3,0.7-1.1,1.2-1.8,1c-0.4-0.1-0.8-0.3-1.2-0.5 s-0.8-0.3-1.2-0.3s-0.8,0.1-1.2,0.3c-0.4,0.2-0.8,0.4-1.2,0.5c-0.7,0.1-1.5-0.3-1.8-1c-0.1-0.1,0,0-0.2-0.4 C96.3,332.1,102.2,332.1,103.7,333.8z"></path> </g> </g> <path class="st12" d="M100.6,343.1c0.6-0.3,1.1-0.8,1.5-1.3l0.3,1.5c-0.2,1.3-1.8,2.1-2.8,1.7l0.2-1 C99.9,343.6,100.2,343.2,100.6,343.1z"></path> <path class="st12" d="M97.8,343c-0.6-0.2-1.1-0.7-1.4-1.2l-0.3,1.5c0.2,1.3,1.6,2,2.6,1.6l-0.1-0.9 C98.5,343.5,98.2,343.2,97.8,343z"></path> </g> <rect x="99" y="344.9" class="st17" width="0.5" height="22.4"></rect> <path class="st3" d="M101.8,351.6h3.3c0.2,0,0.3-0.1,0.3-0.3v-1.1c0-0.2-0.1-0.3-0.3-0.3h-3.3c-0.2,0-0.3,0.1-0.3,0.3v1.1 C101.5,351.4,101.7,351.6,101.8,351.6z"></path> <path class="st18" d="M88.3,353l0.3,2l0.2,1.5l0.5,3.2c0.5-0.2,1-0.3,1.5-0.5l0.7,7.9v7l0,0l0,0c0,0,0,0,0-0.1 c0.3-3.3,0.9-6.1,2.5-7.7c-1.3-1.3-1.9-3.4-2.1-5.9c-0.2-1.5,4.4-2.9,6-3.4c0.2-0.1,0.3-0.1,0.4-0.1c0-0.1,0-0.3,0-0.4 c-0.2-1.1-0.8-1.6-1.7-1.9c-0.6-0.2-1.4-0.3-2.3-0.5c-3-0.5-2.5-3.4-2.5-4.1l0,0l-1.6,1.4l0,0L88.3,353z"></path> <path class="st18" d="M104.3,366.4l0.1,0.1c0.1,0.1,0.2,0.2,0.3,0.3l0,0c0.1,0.1,0.2,0.3,0.3,0.4l0,0c0.3,0.4,0.5,0.8,0.7,1.3 c0.5,1.2,0.9,2.5,1.1,4.1l0,0c0.1,0.5,0.1,1,0.2,1.5l0,0l0,0l0.1-0.9l0.5-3.3l0,0l-0.6-1v-1.3l0.3-0.2c0.6-0.4,0.9-1,0.7-1.5v-0.1 l0.1-0.1l0,0v-0.1l0.4-2.6l0.5-3.7c-0.5,0.6-1,1.2-1.5,1.9l0.8-9.1l1.4,2.1l0.2-1.3l-1.5-1.3l-0.9-0.8l-0.7-0.6 c-0.1,4.9,0.2,9.7-0.8,13l0,0c-0.2,0.8-0.5,1.5-0.9,2.1c-0.2,0.3-0.4,0.6-0.6,0.8C104.4,366.3,104.3,366.3,104.3,366.4z"></path> <g> <path class="st12" d="M106.1,348.8l1.4,2.1l0.9,1.3l1.4,2.1l1.7,2.5l1.2,1.8c0.8,1.2,2.4,1.5,3.7,0.7l0,0 c0.7-0.5,1.2-1.3,1.2-2.2V357c0-0.5-0.2-1-0.4-1.4l-6.5-9.8c-0.4-0.5-0.9-0.9-1.5-1.1c-0.7-0.2-1.5-0.1-2.2,0.3l0,0 C105.6,346,105.3,347.6,106.1,348.8z"></path> <path class="st12" d="M84.1,360.5L84.1,360.5c1.4,0.6,2.9,0,3.5-1.3l4.8-10.7c0.6-1.3,0-2.9-1.3-3.5l0,0c-1.3-0.6-2.9,0-3.5,1.3 L82.8,357C82.2,358.3,82.8,359.9,84.1,360.5z"></path> <path class="st19" d="M105.1,364.5c0.3-0.2,0.5-0.6,0.3-0.9l0,0c-0.1-0.1-0.2-0.2-0.3-0.3c-0.1-0.1-0.3,0-0.5,0l-2,1 c-0.3,0.2-0.5,0.5-0.3,0.9l0,0c0.1,0.3,0.5,0.4,0.8,0.3L105.1,364.5z"></path> <path class="st19" d="M95.7,353.8c-0.3,0.2-0.7,0.1-0.9-0.2l0,0c-0.1-0.1-0.1-0.3-0.1-0.4c0-0.2,0.1-0.3,0.3-0.4l1.9-1.2 c0.3-0.2,0.7-0.1,0.9,0.2l0,0c0.2,0.3,0.1,0.6-0.2,0.8L95.7,353.8z"></path> <polygon class="st10" points="91.9,346.6 92.6,347.8 95.3,352.5 95.3,352.6 95.9,353.6 96.5,354.7 97.7,356.7 97.9,357.1 99,359 99.5,359.9 102.2,364.6 102.4,365 102.4,365 102.8,365.5 103.1,366.1 103.1,366.1 103.7,367.1 103.7,367.2 103.7,367.2 103.7,367.2 104.2,368.1 104.3,368.3 104.3,368.3 104.3,368.3 104.8,369.2 106.8,372.6 106.8,372.6 107,372.9 107.1,373.2 121.9,399 122.3,399.7 124.1,398.7 123.7,398.1 107.6,369.9 107.6,369.9 107,368.9 106.5,368 105,365.4 104.6,364.7 104.1,363.7 104,363.6 99.6,356 99.5,355.8 99.4,355.7 99.2,355.2 99.1,355.1 99.1,355.1 99,355 99,354.9 98.5,354 98.5,354 98.5,353.9 98.5,353.9 97.9,352.9 97.9,352.9 97.6,352.5 97.2,351.8 97.2,351.8 97,351.5 93.6,345.5 92.4,346.2 "></polygon> <g> <path class="st19" d="M97.9,352.9c-0.3,0.1-0.7,0-0.9-0.4l0,0c-0.1-0.1-0.1-0.3,0-0.4s0.2-0.3,0.3-0.3l1-0.4 c0.3-0.1,0.7,0,0.8,0.3l0,0c0.1,0.3,0,0.7-0.3,0.8L97.9,352.9z"></path> <path class="st19" d="M98.1,354.2c-0.1,0.1-0.3,0.1-0.4,0c-0.1-0.1-0.3-0.2-0.3-0.3l0,0c-0.1-0.3,0-0.7,0.3-0.9l1.3-0.6 c0.1-0.1,0.3-0.1,0.4,0c0.1,0.1,0.2,0.2,0.3,0.3v0.1c0.1,0.3,0,0.7-0.3,0.8L98.1,354.2z"></path> <path class="st19" d="M98.8,355.2c-0.3,0.1-0.7,0-0.9-0.4l0,0c-0.1-0.1-0.1-0.3,0-0.4s0.2-0.3,0.3-0.3l1-0.4 c0.3-0.1,0.7,0,0.8,0.3v0.1c0.1,0.1,0.1,0.3,0,0.4s-0.1,0.2-0.3,0.3L98.8,355.2z"></path> <path class="st19" d="M99.1,356.2c-0.2,0.1-0.5,0-0.6-0.3v-0.1c-0.1-0.2,0-0.5,0.2-0.6l0.8-0.3c0.2-0.1,0.5,0,0.6,0.2l0.1,0.2 c0.1,0.2,0,0.4-0.2,0.5L99.1,356.2z"></path> <path class="st20" d="M92.4,355l1.7-0.7c0,0,0.1,0,0.1-0.1V354l0,0c0.1-0.5,0.3-0.9,0.6-1.2c0.1-0.1,1.7-0.7,2.4-1l0,0l0.3-0.2 c0.3-0.1,0.6,0,0.8,0.3l0,0c0.1,0.3,0,0.7-0.3,0.8c0.3-0.1,0.6,0,0.8,0.3l0,0c0.1,0.3,0,0.7-0.3,0.8l-0.2,0.1 c0.3-0.1,0.6,0,0.8,0.3l0,0c0.1,0.3,0,0.7-0.3,0.8l-0.2,0.1c0.3-0.1,0.6,0,0.7,0.3l0,0c0.1,0.3,0,0.6-0.2,0.7l-0.2,0.1l0,0 l-2,0.8c-0.7,0.3-1.4,0.3-1.6-0.1c0,0-0.1-0.1-0.1,0l-1.8,0.7c-0.1,0-0.1,0-0.1-0.1l-1-2.5C92.3,355,92.4,355,92.4,355z"></path> </g> <g> <path class="st19" d="M103.2,366c0.3-0.2,0.4-0.7,0.2-1l0,0c-0.1-0.1-0.2-0.2-0.4-0.2s-0.3,0-0.4,0.1l-0.9,0.6 c-0.3,0.2-0.4,0.6-0.1,0.9l0,0c0.2,0.3,0.6,0.3,0.9,0.1L103.2,366z"></path> <path class="st19" d="M104.2,366.9c0.1-0.1,0.2-0.2,0.2-0.4c0-0.2,0-0.3-0.1-0.4l0,0c-0.2-0.3-0.6-0.4-1-0.2l-1.1,0.8 c-0.1,0.1-0.2,0.2-0.2,0.4c0,0.1,0,0.3,0.1,0.4l0.1,0.1c0.2,0.3,0.6,0.3,0.9,0.1L104.2,366.9z"></path> <path class="st19" d="M104.7,368c0.3-0.2,0.4-0.7,0.2-1l0,0c-0.1-0.1-0.2-0.2-0.4-0.2s-0.3,0-0.4,0.1l-0.9,0.6 c-0.3,0.2-0.4,0.6-0.1,0.9l0.1,0.1c0.1,0.1,0.2,0.2,0.3,0.2s0.3,0,0.4-0.1L104.7,368z"></path> <path class="st19" d="M105.4,368.8c0.2-0.1,0.2-0.4,0.1-0.7l-0.1-0.1c-0.2-0.2-0.5-0.3-0.7-0.1l-0.7,0.5 c-0.2,0.1-0.2,0.4-0.1,0.6l0.1,0.1c0.1,0.2,0.4,0.2,0.6,0.1L105.4,368.8z"></path> <path class="st20" d="M102.1,365.9L102.1,365.9c0.2,0.3,0.6,0.4,0.9,0.2c-0.1,0-0.1,0.1-0.2,0.2l0,0c-0.1,0.2-0.1,0.4,0,0.6l0,0 c0.2,0.3,0.5,0.3,0.8,0.2l0,0l0.2-0.1c-0.1,0-0.1,0.1-0.2,0.2l0,0c0,0,0,0,0,0.1c-0.1,0.2-0.1,0.4,0.1,0.6l0,0 c0.1,0.2,0.3,0.3,0.5,0.3c0.1,0,0.2,0,0.3-0.1l0.2-0.1c-0.1,0.1-0.1,0.1-0.2,0.2c0,0,0,0,0,0.1c-0.1,0.2,0,0.3,0.1,0.5l0,0 c0.2,0.2,0.5,0.3,0.7,0.2l0.1-0.1l0.1-0.1l0.2-0.1l0.8-0.6l0.5-0.4l0.3-0.2c0.6-0.4,0.9-1,0.7-1.5v-0.1l0.1-0.1l0,0h0.1l1.4-1 c0,0,0.1-0.1,0-0.1l-1.1-1.4l-0.6-0.7c0,0-0.1-0.1-0.1,0l-0.4,0.3l0,0l-1.1,0.8h-0.1l-0.1-0.1l0,0l0,0c0,0,0,0-0.1,0l0,0 c-0.4-0.2-0.8-0.2-1.2,0h-0.1c0,0-0.3,0.2-0.6,0.4c-0.5,0.4-1.1,0.8-1.5,1.1l-0.2,0.1l-0.1-0.1l0,0c0,0,0,0-0.1,0.1 C102,365.4,102,365.7,102.1,365.9z"></path> </g> <path class="st12" d="M82.6,358.4L82.6,358.4c0.2,1.5,1.5,2.5,3,2.3c0.1,0,0.2,0,0.2-0.1c0.1,0,0.2-0.1,0.3-0.1 c1.1-0.3,2.2-0.6,3.3-0.9c0.5-0.2,1-0.3,1.5-0.5c1.3-0.5,2.5-1,3.6-1.6l-0.1-0.3l-0.6-2.8v-0.2l-3.3,0.4l-0.8,0.1l-1,0.1 l-3.8,0.5c-0.8,0.1-1.5,0.6-1.9,1.2C82.6,357.2,82.5,357.8,82.6,358.4z"></path> <path class="st12" d="M106,363.3L106,363.3l1.2,1.2l1,1v0.1l0.4,0.4c2.6-1.4,5.4-4.1,8.3-7.1c0.5-0.5,0.7-1.2,0.7-1.8V357 c0-0.7-0.3-1.3-0.9-1.8l0,0c-1.1-1-2.8-0.9-3.7,0.2c-0.5,0.5-1,0.9-1.4,1.4c-0.8,0.8-1.6,1.7-2.4,2.6c-0.5,0.6-1,1.2-1.5,1.9 C107,361.9,106.5,362.6,106,363.3z"></path> <g> <polygon class="st21" points="118.9,408.9 133.6,400.8 132.7,399.6 131.6,398.1 131.3,397.6 117.5,405.2 117.7,405.7 118.4,407.5 "></polygon> <path class="st10" d="M117.3,406l14.7-8.1l-0.5-0.8c-0.5-0.9-1.7-1.3-2.6-0.8l-11.4,6.2c-0.9,0.5-1.3,1.7-0.8,2.6L117.3,406z"></path> <rect x="121.3" y="398.6" transform="matrix(0.8764 -0.4816 0.4816 0.8764 -176.9844 108.5475)" class="st22" width="3.4" height="1"></rect> <polygon class="st11" points="118.4,407.5 132.7,399.6 131.6,398.1 117.7,405.7 "></polygon> </g> </g> <path class="st18" d="M95.1,407.7c0.1-0.6,1.6-12.6,1.6-19.2c1.2-3.4,1.7-7.4,2.3-12.1c0.1-0.7,0.2-1.3,0.3-2 c0.1,0.7,0.2,1.3,0.3,2c0.6,4.6,1.1,8.6,2.3,12.1c0,6.6,1.5,18.6,1.6,19.2c-0.5-7.9-1.3-16.9,0.2-19.3c-0.1-0.2-0.3-0.4-0.4-0.6 c-1.4-2.5-2.3-8-3.2-13.2l0.3-0.4l1.2-1.4l0.8-0.9c-2.2,1.1-4.3,1.1-6.2,0l0.7,0.9l1.1,1.4l0.3,0.3c-0.8,5.1-1.3,10.9-3,13.3 c-0.2,0.2-0.3,0.4-0.5,0.6C96.4,390.7,95.4,400,95.1,407.7z"></path> <path class="st18" d="M106.9,388.3c2,5.1,3,10.9,3.1,17.5l0,0c0.7-5.7-0.4-12.6-2.1-17.7c0.7-5.5,0.1-10.2-0.8-13.7l-0.1-0.3 c0.4,5,0.7,9.8,0.2,12.9c-0.1,0.4-0.1,0.8-0.2,1.1C106.9,388.2,106.9,388.2,106.9,388.3z"></path> <path class="st18" d="M86.5,394.8c0,0.4,0.1,0.8,0.1,1.1c0.2,2,0.5,4,1,6c0.3,1.3,0.6,2.5,1,3.8v-0.1l0,0c0-2.1,0.2-4,0.4-5.9 c0.1-1.3,0.3-2.5,0.6-3.7c0.1-0.4,0.1-0.8,0.2-1.1c0.5-2.3,1.1-4.5,1.9-6.5v-0.1c-0.1-0.3-0.2-0.7-0.2-1.1 c-0.5-3.1-0.2-7.9,0.2-12.9l-0.1,0.2l0,0c-0.9,3.5-1.5,8.2-0.8,13.7c-0.7,2-1.3,4.3-1.7,6.7h-2.6L86.5,394.8L86.5,394.8z"></path> </g> </g> <g> <g class="st6"> <path class="st7" d="M491.5,494.9c0,2.9-17.1,5.3-38.3,5.3c-21.1,0-38.3-2.4-38.3-5.3s17.1-5.3,38.3-5.3 C474.3,489.6,491.5,492,491.5,494.9z"></path> </g> <g> <g> <rect x="420.5" y="314.9" class="st3" width="82.7" height="115.3"></rect> <rect x="425.2" y="319.5" class="st4" width="72.4" height="103.4"></rect> <rect x="426.8" y="320.8" class="st5" width="70.7" height="103.4"></rect> <polygon class="st3" points="454.5,321.7 449.3,321.7 496.6,371.1 496.6,366.1 "></polygon> <polygon class="st3" points="428.5,321.7 496.6,394.7 496.6,374.9 446.4,321.7 "></polygon> </g> <g class="st23"> <path class="st8" d="M461.8,362.3c-2.9-0.6-6.9-0.7-11.4,0c-0.8,0.1-1.5-0.4-1.6-1.2l-0.7-5.6c-0.1-0.7,0.4-1.4,1.1-1.6 c4.9-1.1,10.3-1,13.8,0c0.7,0.2,1.1,0.8,1.1,1.5l-0.5,5.6C463.5,361.9,462.7,362.5,461.8,362.3z"></path> <g> <path class="st24" d="M454.5,354.3L454.5,354.3c-0.1-0.4-0.4-0.7-0.8-0.7l0,0c-0.5,0-0.8,0.4-0.8,0.8v4.3v2l0,0v1.3v0.1 c0,0.1,0,0.1,0,0.2l0,0c0.1,0.3,0.4,0.6,0.8,0.6l0,0c0.3,0,0.6-0.2,0.7-0.5v-0.1c0-0.1,0.1-0.2,0.1-0.3v-0.2v-1.4l0,0v-1l0,0 L454.5,354.3C454.6,354.4,454.6,354.3,454.5,354.3z"></path> <path class="st24" d="M455.4,361L455.4,361c-0.5,0-0.9-0.4-0.9-0.8l0.1-6.6c0-0.5,0.4-0.8,0.9-0.8l0,0c0.5,0,0.9,0.4,0.9,0.8 l-0.1,6.6C456.2,360.7,455.8,361.1,455.4,361z"></path> <path class="st24" d="M457.1,361.5L457.1,361.5c-0.5,0-0.8-0.4-0.8-0.8l0.1-6.6c0-0.5,0.4-0.8,0.8-0.8l0,0 c0.5,0,0.8,0.4,0.8,0.8l-0.1,6.6C457.9,361.1,457.5,361.5,457.1,361.5z"></path> <path class="st24" d="M454.2,364.9L454.2,364.9c-0.5,0.2-1-0.1-1.1-0.6c-0.5-1.9-1.3-3.7-2.1-5.4c-0.2-0.4-0.1-1,0.4-1.2l0,0 c0.4-0.2,1-0.1,1.2,0.4c0.9,1.7,1.7,3.6,2.3,5.6C454.9,364.1,454.7,364.8,454.2,364.9z"></path> <path class="st24" d="M458.6,361.1L458.6,361.1c-0.4,0-0.7-0.3-0.7-0.7l0.1-4.4c0-0.4,0.3-0.7,0.7-0.7l0,0 c0.4,0,0.7,0.3,0.7,0.7l-0.1,4.4C459.3,360.9,459,361.1,458.6,361.1z"></path> <rect x="453.8" y="363.8" transform="matrix(1.026558e-02 -0.9999 0.9999 1.026558e-02 85.4643 818.174)" class="st25" width="4.4" height="4.2"></rect> <path class="st25" d="M458.6,359.6L458.6,359.6c-0.4,0-0.7,0.3-0.7,0.7V360c0-0.5-0.4-0.8-0.8-0.8l0,0c-0.5,0-0.8,0.4-0.8,0.8 v-0.2c0-0.5-0.4-0.8-0.8-0.8l0,0c-0.5,0-0.8,0.4-0.8,0.8c0-0.5-0.4-0.8-0.8-0.8l0,0c-0.5,0-0.8,0.4-0.8,0.8v1.7v0.3v1.7 c0,1.3,1.1,2.4,2.4,2.4h1.6c1.3,0,2.4-1.1,2.4-2.4v-1.7v-0.3v-1.2C459.3,359.9,459,359.6,458.6,359.6z"></path> </g> <polygon class="st14" points="434.4,389.5 426.3,392.1 424.1,384.4 430.8,381.5 "></polygon> <g> <path class="st14" d="M437.1,385.1c-0.1,0.7-0.5,1.3-1.2,1.6l-1.6,0.6c-0.5,0.2-1.2,0.2-1.9,0.2l0,0c-2-0.2-4.3-1.4-5.2-3.7 h-0.1l0,0c-1.2,0.5-2.5,2.4-3.1,1.3c-0.7-1.2-2.8-2.4-3.7-4c-3-7.4,1.6-9,4.3-10.2c2.2-0.9,4.8-0.8,6.9,0.9 c0.6,0.5,1.2,1.2,1.8,2c0.3,0.4,0.5,0.9,0.8,1.4c0,0.5,0,1,0,1l0.3,0.3l1.5,1.4c0.4,0.4,0.3,1-0.1,1.3l-0.6,0.5 c0.2,0.5,1.6,3.1,1.6,3.1C437.1,383.5,437.3,384.3,437.1,385.1z"></path> <path class="st26" d="M424.9,386.7c5.4-1.1,0.1-5.5,0.1-5.5s1.9,1.3,2.5,1.6c0.8-0.4,0.8-0.4,1.5-0.7c-2.5-6.3-4.9-8.5,2.5-10.2 c-2.2-2.3-6.1-3-8-1.5c-3.1,2.5-5.9,5.1-4.6,8.9C419.7,381.5,420,382.8,424.9,386.7z"></path> <path class="st14" d="M424.4,382.1c0.5,1.1,2.1,2,2.8,1.7c0.7-0.3,0.2-1.2-0.3-2.4c-0.3-0.8-0.6-1.9-1.6-1.8 C424.6,379.7,423.6,380.4,424.4,382.1z"></path> </g> <path class="st12" d="M432.6,373l-5.1,3.4l0,0l-5,3.3l-0.2,0.1l-0.2,0.1l-2.4,1.6l-1.3-2.7c-0.9-2.1-0.2-5,1.6-6.5l2.9-2.3 c2.5-2.1,6.1-1.3,8.2,1.2c0.1,0.1,0.1,0.1,0.2,0.2l0.5,0.6L432.6,373z"></path> <path class="st12" d="M437.8,369.6c-0.1,1.3-0.8,2.2-2.1,3c-0.8,0.5-1.8,1-3,1.6s-4.9,2.1-5.1,2.2c1.2-1.6,2.4-3,4.3-4.4 c0,0,1.3-0.6,2.6-1.1C436,370.1,437.7,369.5,437.8,369.6z"></path> <path class="st27" d="M434.1,376.3l0.3,0.3c-3.9,1.7-8.2,2.3-12.2,3.3l0.2-0.1h0.2c0,0,0,0,0-0.1l5-3.3l0,0 c0.2-0.1,3.9-1.6,5.1-2.2c0.2-0.1,0.4-0.2,0.6-0.3c0.3,0.4,0.5,0.9,0.8,1.4C434.1,375.8,434.1,376.3,434.1,376.3z"></path> <path class="st27" d="M437.1,385.1c-0.1,0.7-0.5,1.3-1.2,1.6l-1.6,0.6c-0.5,0.2-1.2,0.2-1.9,0.2l0,0c-0.7-0.4-1.3-1.1-1.8-1.8 c-0.5-0.7-0.8-1.6-1.2-2.4c0.4,0.7,1,1.2,1.7,1.6s1.5,0.6,2.2,0.7c0.8,0.1,1.6,0.2,2.3,0C436.2,385.5,436.7,385.3,437.1,385.1z"></path> <path class="st12" d="M426.8,403.4l-1.6,3.4l-1.9,4l-0.7,1.4l-2.1,4.5v-11.6c-0.2-0.7-0.3-1.3-0.5-2c-0.6-2.4-1.2-4.9-1.7-7.4 l2.2,2l4.7,4.2L426.8,403.4z"></path> <path class="st12" d="M459.6,383.7c-3.6,6.6-9.7,10.7-13.3,16.1c-0.4-1.1-0.7-2.1-1-3.1c-1.2-3.7-2.2-6.8-2.3-10.7 c2.5-2.3,6.4-5,9.3-6.1c-0.2-4.2,0.7-9.2,1.5-14l4.9,0.2c0.1,1.2,0.3,2.4,0.4,3.7C459.5,374,459.9,378.8,459.6,383.7z"></path> <polygon class="st12" points="448.6,424.1 448.1,421.8 444.1,422.5 435.5,424.1 "></polygon> <path class="st28" d="M424.1,407.4l-0.8,3.4l-0.5,2.1c-0.1-0.2-0.1-0.4-0.2-0.6l-2.1,4.5v-11.6c-0.2-0.7-0.3-1.3-0.5-2l0.2-1.2 l0.3,0.4L424.1,407.4z"></path> <path class="st12" d="M422.8,412.9L422.8,412.9c0.8,2.3,1.5,4.6,2.4,6.9c0.5,1.4,1.1,2.9,1.6,4.3h13.7c1.1-0.3,2.1-0.5,3.2-0.8 c1.4-0.4,2.9-0.9,4.4-1.4c0.4-6.9-0.3-14.2-1.7-22.1c-0.2-1.1-0.4-2.2-0.7-3.3c0-0.2-0.1-0.4-0.1-0.6l0,0 c-0.7-3.2-1.5-6.5-2.5-9.9c-3.4,0.2-6.3,0.6-9,2.3l-0.5-0.6l0,0l-0.1-0.1l-0.2-0.2c-0.4-0.6-1-0.6-1.8-0.4c0,0,0,0-0.1,0 c-0.3,0.1-0.6,0.1-0.9,0.2c-1.5,0.3-2.8,0.6-3.7,0.9c-0.7,0.2-1.2,0.4-1.6,0.7c0,0-0.1,0-0.1,0.1c-0.1,0.1-0.2,0.1-0.2,0.2v2.5 c-2,1.5-3.4,2.2-4.4,2.9c-0.9,0.5-1.6,1-2.2,1.6c0.5,2.5,1.1,4.9,1.7,7.4c0.2,0.7,0.3,1.3,0.5,2c0.6,2.4,1.4,4.8,2.1,7.2 C422.7,412.5,422.7,412.7,422.8,412.9z"></path> <path class="st28" d="M444.1,422.5c-0.1,0.2-0.2,0.4-0.4,0.7l0,0c0.2,0.3,0.4,0.6,0.5,0.8h4.4l-0.6-2.3 c0.4-6.9-0.3-14.2-1.7-22.1c3.6-5.4,9.7-9.5,13.3-16.1c0.3-4.9-0.2-9.6-0.6-14l0,0l-0.8,13.7c-1.8,3.9-7.3,9.6-12.7,12.5l0,0 c-0.1,0.1-0.3,0.2-0.4,0.2c-1,0.5-2,0.9-3,1.2C446.5,406.7,447.4,416.5,444.1,422.5z"></path> </g> <g> <path class="st8" d="M458,361.1c-2.9-0.6-6.9-0.7-11.4,0c-0.8,0.1-1.5-0.4-1.6-1.2l-0.7-5.6c-0.1-0.7,0.4-1.4,1.1-1.6 c4.9-1.1,10.3-1,13.8,0c0.7,0.2,1.1,0.8,1.1,1.5l-0.5,5.6C459.7,360.7,458.9,361.3,458,361.1z"></path> <g> <path class="st20" d="M411.6,436.4L411.6,436.4c0.4,0,0.7,0.4,0.7,0.8l-0.3,5.7c0,0.4-0.4,0.7-0.8,0.7l0,0 c-0.4,0-0.7-0.4-0.7-0.8l0.3-5.8C410.9,436.6,411.2,436.3,411.6,436.4z"></path> <path class="st20" d="M412.8,436L412.8,436c0.4,0,0.7,0.3,0.8,0.7l0.3,5.8c0,0.4-0.3,0.7-0.7,0.7l0,0c-0.4,0-0.7-0.3-0.7-0.7 l-0.3-5.8C412.1,436.3,412.4,436,412.8,436z"></path> <path class="st20" d="M410.2,436.3L410.2,436.3c0.4,0,0.7,0.4,0.7,0.8l-0.5,5.3c0,0.4-0.4,0.7-0.8,0.6l0,0 c-0.4,0-0.7-0.4-0.6-0.8l0.5-5.3C409.5,436.5,409.8,436.1,410.2,436.3z"></path> <path class="st20" d="M408.9,436.1L408.9,436.1c0.4,0.1,0.6,0.4,0.5,0.7l-0.7,3.8c-0.1,0.3-0.4,0.6-0.7,0.5l0,0 c-0.3-0.1-0.6-0.4-0.5-0.7l0.7-3.8C408.3,436.4,408.6,436.1,408.9,436.1z"></path> <path class="st29" d="M413.6,424.8l-0.4,8c0.7,0.3,1.2,0.6,1.3,1.3c0,0.2,0,0.3,0,0.5l-0.1,1.5l-0.7,0.2l-0.2,2.2 c-2,0-3.7-0.5-5.5-1.3l0.4-2.9c0-0.7,0.4-1.2,0.9-1.6l0.2-8.2L413.6,424.8z"></path> <path class="st20" d="M415.4,435.8c0,0.8,0.6,1.9,0.9,2.4c0.5,0.7-0.7,1.9-1.7,0.1c-0.3-0.5-0.8-1.3-0.8-1.9 c-1.1,0.2-2.2-0.5-2.6-1.5l3.4-1.4C415,433.8,415.3,434.8,415.4,435.8z"></path> <path class="st20" d="M413.2,432.7c0.7,0.1,1.3,0.6,1.7,1.3l-0.5,1.5l-1.1,0.6c-1.2-0.2-2.5-0.8-2.3-2.2l0,0l0.5-9.2l2.1,0.1 L413.2,432.7z"></path> </g> <g> <path class="st24" d="M449.9,361.8L449.9,361.8c-0.5,0-0.8-0.4-0.8-0.8v-7.7c0-0.5,0.4-0.8,0.8-0.8l0,0c0.5,0,0.8,0.4,0.8,0.8 v7.7C450.7,361.4,450.3,361.8,449.9,361.8z"></path> <path class="st24" d="M451.5,359.8L451.5,359.8c-0.5,0-0.9-0.4-0.9-0.8l0.1-6.6c0-0.5,0.4-0.8,0.9-0.8l0,0 c0.5,0,0.9,0.4,0.9,0.8l-0.1,6.6C452.4,359.5,452,359.8,451.5,359.8z"></path> <path class="st24" d="M453.2,360.3L453.2,360.3c-0.5,0-0.8-0.4-0.8-0.8l0.1-6.6c0-0.5,0.4-0.8,0.8-0.8l0,0 c0.5,0,0.8,0.4,0.8,0.8l-0.1,6.6C454.1,360,453.7,360.3,453.2,360.3z"></path> <path class="st24" d="M450.4,363.7C450.4,363.7,450.3,363.7,450.4,363.7c-0.5,0.2-1-0.1-1.1-0.6c-0.5-1.9-1.3-3.7-2.1-5.4 c-0.2-0.4-0.1-1,0.4-1.2l0,0c0.4-0.2,1-0.1,1.2,0.4c0.9,1.7,1.7,3.6,2.3,5.6C451.1,363,450.8,363.6,450.4,363.7z"></path> <path class="st24" d="M454.7,360L454.7,360c-0.4,0-0.7-0.3-0.7-0.7l0.1-4.4c0-0.4,0.3-0.7,0.7-0.7l0,0c0.4,0,0.7,0.3,0.7,0.7 l-0.1,4.4C455.5,359.7,455.1,360,454.7,360z"></path> <rect x="450.1" y="362.6" transform="matrix(1.037054e-02 -0.9999 0.9999 1.037054e-02 82.9205 813.1068)" class="st25" width="4.4" height="4.2"></rect> <path class="st25" d="M454.8,358.4L454.8,358.4c-0.4,0-0.7,0.3-0.7,0.7v-0.3c0-0.5-0.4-0.8-0.8-0.8l0,0c-0.5,0-0.8,0.4-0.8,0.8 v-0.2c0-0.5-0.4-0.8-0.8-0.8l0,0c-0.5,0-0.8,0.4-0.8,0.8c0-0.5-0.4-0.8-0.8-0.8l0,0c-0.5,0-0.8,0.4-0.8,0.8v1.7v0.3v1.7 c0,1.3,1.1,2.4,2.4,2.4h1.6c1.3,0,2.4-1.1,2.4-2.4v-1.7v-0.3v-1.2C455.5,358.7,455.2,358.4,454.8,358.4z"></path> </g> <polygon class="st14" points="430.6,388.3 422.4,391 420.3,383.1 426.9,380.3 "></polygon> <g> <path class="st14" d="M433.3,383.9c-0.1,0.7-0.5,1.3-1.2,1.6l-1.6,0.6c-0.5,0.2-1.2,0.2-1.9,0.2l0,0c-2-0.2-4.3-1.4-5.2-3.7 h-0.1l0,0c-1.2,0.5-2.5,2.4-3.1,1.3c-0.7-1.2-2.8-2.4-3.7-4c-3-7.4,1.6-9,4.3-10.2c2.2-0.9,4.8-0.8,6.9,0.9 c0.6,0.5,1.2,1.2,1.8,2c0.3,0.4,0.5,0.9,0.8,1.4c0,0.5,0,1,0,1l0.3,0.3l1.5,1.4c0.4,0.4,0.3,1-0.1,1.3l-0.6,0.5 c0.2,0.5,1.6,3.1,1.6,3.1C433.3,382.3,433.4,383.1,433.3,383.9z"></path> <path class="st26" d="M421.1,385.5c5.4-1.1,0.1-5.5,0.1-5.5s1.9,1.3,2.5,1.6c0.8-0.4,0.8-0.4,1.5-0.7c-2.5-6.3-4.9-8.5,2.5-10.2 c-2.2-2.3-6.1-3-8-1.5c-3.1,2.5-5.9,5.1-4.6,8.9C415.9,380.3,416.2,381.6,421.1,385.5z"></path> <path class="st14" d="M420.5,380.9c0.5,1.1,2.1,2,2.8,1.7c0.7-0.3,0.2-1.2-0.3-2.4c-0.3-0.8-0.6-1.9-1.6-1.8 C420.7,378.5,419.8,379.1,420.5,380.9z"></path> </g> <path class="st12" d="M428.8,371.8l-5.1,3.4l0,0l-5,3.3l-0.2,0.1l-0.2,0.1l-2.4,1.6l-1.3-2.7c-0.9-2.1-0.2-5,1.6-6.5l2.9-2.3 c2.5-2.1,6.1-1.3,8.2,1.2c0.1,0.1,0.1,0.1,0.2,0.2l0.5,0.6L428.8,371.8z"></path> <path class="st12" d="M433.9,368.4c-0.1,1.3-0.8,2.2-2.1,3c-0.8,0.5-1.8,1-3,1.6s-4.9,2.1-5.1,2.2c1.2-1.6,2.4-3,4.3-4.4 c0,0,1.3-0.6,2.6-1.1C432.2,369,433.9,368.3,433.9,368.4z"></path> <path class="st27" d="M430.3,375.1l0.3,0.3c-3.9,1.7-8.2,2.3-12.2,3.3l0.2-0.1h0.2c0,0,0,0,0-0.1l5-3.3l0,0 c0.2-0.1,3.9-1.6,5.1-2.2c0.2-0.1,0.4-0.2,0.6-0.3c0.3,0.4,0.5,0.9,0.8,1.4C430.3,374.6,430.3,375.1,430.3,375.1z"></path> <path class="st27" d="M433.3,383.9c-0.1,0.7-0.5,1.3-1.2,1.6l-1.6,0.6c-0.5,0.2-1.2,0.2-1.9,0.2l0,0c-0.7-0.4-1.3-1.1-1.8-1.8 c-0.5-0.7-0.8-1.6-1.2-2.4c0.4,0.7,1,1.2,1.7,1.6s1.5,0.6,2.2,0.7c0.8,0.1,1.6,0.2,2.3,0C432.4,384.3,432.9,384.1,433.3,383.9z"></path> <path class="st10" d="M463.3,495.1h-17.4c-0.4-1.9-0.5-3.7,0-5.6c2.3-2.2,5.3-3.2,9-2.9c1.1,1.8,4.1,3.3,6.2,4.3 c1.4,0.6,2.3,2,2.3,3.5v0.7H463.3z"></path> <path class="st10" d="M431.8,495.1h-13.2c-0.2-2.9,0.3-5.2,1-7.1c2.2-1.3,5.2-1,8.7,0.7l2,1.4c1,0.7,1.5,1.8,1.5,3V495.1z"></path> <path class="st12" d="M423,402.1l-3.5,7.4l-0.7,1.4l-2.6,5.5c0.2,4.1-0.3,7.9-1.1,11.8v0.1c-0.3,1.5-0.7,3.1-1.1,4.6l0,0h-0.3 l-2.6-0.1l-1.7-0.1h-0.2c-0.9-8.2-1.2-15.3-0.5-20c1.4-6.8,3.3-12.9,5.8-18.2L423,402.1z"></path> <path class="st12" d="M455.8,382.5c-3.6,6.6-9.7,10.7-13.3,16.1c-0.4-1.1-0.7-2.1-1-3.1c-1.2-3.7-2.2-6.8-2.3-10.7 c2.5-2.3,6.4-5,9.3-6.1c-0.2-4.2,0.7-9.2,1.5-14l4.9,0.2c0.1,1.2,0.3,2.4,0.4,3.7C455.7,372.8,456.1,377.6,455.8,382.5z"></path> <path class="st12" d="M448.2,436.1L448.2,436.1l-1.9,0.1l-6.8,0.4l-3.5,0.3l-1.3,0.1l-5.7,0.3l-5.3,0.3c-0.1-0.2-0.2-0.5-0.3-0.7 c-1.1-3-0.8-8.1,0.2-12.6l16.7-3l4-0.7l3,12l0.6,2.6c0,0.1,0.1,0.2,0.1,0.4L448.2,436.1z"></path> <path class="st12" d="M436.1,436.3c0,0.2-0.1,0.4-0.1,0.6c-0.2,1.3-0.3,2.5-0.5,3.8c-1,7.5-1.8,13.9-3.7,19.4l-1.3-0.1l-8.6-0.6 c-1.1-9.2,0-16.8,1.4-22.5l0,0c2.9-3.2,6.8-3.2,11.1-1.3l0,0c0.2,0.1,0.4,0.2,0.6,0.3C435.5,436,435.8,436.1,436.1,436.3z"></path> <path class="st12" d="M431.8,460.1c-1.2,8.3-1.5,17.4-2.9,25.5c-0.2,1-0.4,2.1-0.6,3.1c-3.1,0.6-5.6-2.1-8.7-0.7 c-1.7-9.5-1.3-24.6,2.4-28.6c3-3.3,4.6-2.1,8.6,0.1C430.9,459.7,431.3,459.9,431.8,460.1z"></path> <path class="st12" d="M452,456.3l-1.5,0.5l-5.7,1.8l-2.2,0.7c-0.1-0.3-0.3-0.5-0.4-0.8l0,0c-3.1-5.9-5.4-12.5-6.7-17.8 c-0.3-1.3-0.6-2.6-0.7-3.7c-0.1-0.4-0.1-0.7-0.2-1.1c0-0.1,0-0.2,0-0.3l0,0c1.5-3.9,5.8-3.7,10.5-3.2c0.7,0.1,1.5,0.2,2.2,0.2 l0,0c0.2,0.9,0.4,1.7,0.6,2.5c0,0.1,0.1,0.2,0.1,0.4c0.1,0.2,0.1,0.4,0.2,0.6c1.8,7.4,3.5,13.8,3.8,19.7 C451.9,456,451.9,456.1,452,456.3z"></path> <path class="st12" d="M454.9,486.6c-2.9,1.2-6.2,0.8-9,2.9c-0.1-0.2-0.2-0.5-0.3-0.7c-3.5-9.1-6.1-26-3.5-30.3l0,0 c0.5-0.8,1-1.5,1.5-2c1.6-1.7,3.3-1.8,6.3-1.1c0.6,0.1,1.3,0.3,2,0.5l0,0C452.6,465.3,455,477.6,454.9,486.6z"></path> <path class="st28" d="M420.3,406.1l-0.8,3.4l-0.5,2.1c-0.1-0.2-0.1-0.4-0.2-0.6l-2.6,5.5c0.2,4.1-0.3,7.9-1.1,11.8v0.1L414,433 l-0.2-17.5l2.4-13.6l0.2-1.2L420.3,406.1z"></path> <path class="st28" d="M442.1,458.5L442.1,458.5c-3.1-5.9-5.4-12.5-6.7-17.8c-1,7.5-1.8,13.9-3.7,19.4c-1.2,8.3-1.5,17.4-2.9,25.5 l1.6-25.6v-0.6l0.1-1.1c1.6-10,1.2-17.2-1.6-21c-0.3-0.3-0.5-0.7-0.8-1l6.4-0.5h0.6l4.6-0.3c-0.1,0.4-0.2,0.8-0.3,1.2 c-1.3,6.4,0.9,13.4,4.1,19.8c0.4,0.7,0.7,1.4,1.1,2.1c0,0.1,0.1,0.1,0.1,0.2c-2.6,7.7-1.8,18.7,0.8,30 C442.1,479.6,439.5,462.8,442.1,458.5z"></path> <path class="st12" d="M444.2,420.6c-1.5,0.5-2.9,1-4.4,1.4c-5.6,1.7-11.1,2.5-16.3,2.3c-1.6-4.1-3.2-8.3-4.6-12.6l0,0 c-0.1-0.2-0.1-0.4-0.2-0.6c-0.9-3-1.8-6-2.6-9.1c-0.6-2.4-1.2-4.9-1.7-7.4c1.4-1.4,3-1.8,6.6-4.5v-2.5c0.7-0.8,3-1.2,6.5-2 c0.8-0.2,1.4-0.2,1.8,0.4l0.7,1c2.7-1.7,5.6-2.1,9-2.3c1,3.6,1.9,7.1,2.7,10.6c0.2,1.1,0.5,2.2,0.7,3.3 C444,406.4,444.6,413.8,444.2,420.6z"></path> <path class="st28" d="M455.8,382.5c-3.6,6.6-9.7,10.7-13.3,16.1c1.5,7.9,2.1,15.2,1.7,22.1l3,12l0,0c0.2,0.9,0.4,1.7,0.6,2.5 c0,0.1,0.1,0.2,0.1,0.4l0.2,0.6l0,0c1.8,7.4,3.5,13.8,3.8,19.7l0,0c0.7,9.4,3,21.7,2.9,30.7c-1-11.4-2.1-22.4-4.5-29.8 c-0.2-0.5-0.3-1-0.5-1.5c-0.3-0.7-0.6-1.4-0.8-2c-0.5-6-1.4-11.8-2.8-17c-0.4-1.3-0.8-2.6-1.2-3.9c-1.3-3.8-3-7.2-5.1-10.3l0,0 c0.1-0.2,0.3-0.4,0.4-0.7c3.3-6.1,2.4-15.9-1.9-25.2c6.3-1.8,13.9-9.2,16.1-14l0.8-13.7l0,0C455.7,372.8,456.1,377.6,455.8,382.5 z"></path> </g> </g> </g> <g> <g class="st6"> <ellipse class="st7" cx="301.6" cy="555.8" rx="121.5" ry="9.4"></ellipse> </g> <g> <g> <g> <g> <path class="st8" d="M256.9,507.8v-12.2l-8.6-65.2c-0.5-5.6-5.5-8.5-10.6-8.5c-6.4,0-13.1,4.6-11.6,14.3l8.6,59.5v58.2h80v-46 L256.9,507.8L256.9,507.8z"></path> <rect x="238.7" y="553.8" class="st10" width="8.4" height="3.7"></rect> <rect x="302.6" y="553.8" class="st10" width="8.1" height="3.7"></rect> </g> <path class="st8" d="M238.4,486c-4.5,0-8.2,5.7-8.2,12.8c0,7,3.7,12.7,8.2,12.7s8.2-5.7,8.2-12.7 C246.6,491.7,242.9,486,238.4,486z"></path> <rect x="301.9" y="506.8" class="st8" width="12.7" height="46.9"></rect> <rect x="237.1" y="486" class="st8" width="73" height="25.5"></rect> <path class="st9" d="M310.1,486c-4.5,0-8.2,5.7-8.2,12.8c0,7,3.7,12.7,8.2,12.7s8.2-5.7,8.2-12.7 C318.3,491.7,314.6,486,310.1,486z"></path> </g> <path class="st9" d="M285.9,498.8h-7.6v55h23.6v-39C301.9,505.9,294.8,498.8,285.9,498.8z"></path> <polygon class="st8" points="201.4,421.8 237.6,421.8 248.4,489.1 213.2,489.1 "></polygon> <path class="st9" d="M250.9,489.1h-26l-6.8-51.1c-0.3-2.6,1.7-5,4.3-5h17c2.4,0,4.5,1.8,4.8,4.2L250.9,489.1z"></path> <path class="st9" d="M220.7,507.8v-12.2l-8.6-65.2c-0.5-5.6-5.5-8.5-10.6-8.5c-6.4,0-13.1,4.6-11.6,14.3l8.6,59.5v58.2h80v-46 L220.7,507.8L220.7,507.8z"></path> <rect x="202.5" y="553.8" class="st10" width="8.4" height="3.7"></rect> <rect x="266.4" y="553.8" class="st10" width="8.1" height="3.7"></rect> <path class="st8" d="M202.2,486c-4.5,0-8.2,5.7-8.2,12.8c0,7,3.7,12.7,8.2,12.7s8.2-5.7,8.2-12.7 C210.3,491.7,206.7,486,202.2,486z"></path> <rect x="265.7" y="506.8" class="st8" width="12.7" height="46.9"></rect> <rect x="200.9" y="486" class="st8" width="73" height="25.5"></rect> <path class="st9" d="M273.9,486c-4.5,0-8.2,5.7-8.2,12.8c0,7,3.7,12.7,8.2,12.7s8.2-5.7,8.2-12.7C282,491.7,278.4,486,273.9,486z "></path> </g> <g> <path class="st10" d="M332.6,526.2c-2.7,0-5.4-0.9-7.5-2.7s-3.8-4.3-5.2-7.8c-3.1-7.5-4-15.6-4.8-23.9l-0.1-1.4 c-0.6-7.3-1.3-14.8-3.6-21.7l3.6-1.2c2.5,7.3,3.2,15.1,3.8,22.6l0.1,1.4c0.7,8,1.6,15.8,4.5,22.8c1.2,3,2.6,5,4.2,6.3 c1.7,1.4,4.1,2,6.4,1.6c2.5-0.5,4.3-2.6,5.2-6.4c0.9-3.7,2-7.5,4.3-10.6c2.9-4,7.4-6.2,11.7-5.8c3.8,0.4,6.2,2.5,8.9,4.9 c0.7,0.6,1.4,1.3,2.2,1.9l-2.4,3c-0.8-0.7-1.6-1.4-2.3-2c-2.5-2.2-4.2-3.7-6.8-4c-3-0.3-6.1,1.3-8.3,4.2 c-1.8,2.4-2.8,5.5-3.7,9.2c-1.6,6.8-5.4,8.8-8.2,9.3C334,526.1,333.3,526.2,332.6,526.2z"></path> <path class="st22" d="M366,504.2c-4.2,4.9,0,0.2-4.2,4.9l-1.7-1.5l4.2-4.9L366,504.2z"></path> <path class="st30" d="M395.2,518.9v24h-34.3v-24c0-9.4,7.6-17,17-17h0.3C387.6,501.9,395.2,509.5,395.2,518.9z"></path> <g> <path class="st31" d="M366.5,555.4c0,1.9-1.6,3.5-3.5,3.5s-3.5-1.6-3.5-3.5s1.6-3.5,3.5-3.5C365,552,366.5,553.5,366.5,555.4z"></path> <path class="st10" d="M364.2,556.3l-0.2,0.2c-0.4,0.4-1.1,0.5-1.6,0.2l-3.9-2.6v-3.8h3.8v2.5l1.8,1.9 C364.7,555.1,364.7,555.8,364.2,556.3z"></path> <path class="st31" d="M363.7,555.4c0,0.4-0.3,0.7-0.7,0.7c-0.4,0-0.7-0.3-0.7-0.7s0.3-0.7,0.7-0.7 C363.4,554.8,363.7,555.1,363.7,555.4z"></path> <polygon class="st10" points="401.6,550.2 382.7,550.2 391,541.6 401.6,533 "></polygon> <path class="st21" d="M398.5,515.9h-6.1c-2,0-3.6,1.6-3.6,3.6V540c0,1.6-1.3,2.8-2.8,2.8h-26.6c-1.8,0-3.2,1.4-3.2,3.2v5.3h33.3 c1.2,0,2.1-1,2.1-2.1v-0.6h0.1c0-6.3,5.1-11.4,11.4-11.4v-16.8C403.1,517.9,401,515.9,398.5,515.9z"></path> <path class="st31" d="M413.8,548.6c0,5.7-4.6,10.3-10.3,10.3s-10.3-4.6-10.3-10.3s4.6-10.3,10.3-10.3S413.8,543,413.8,548.6z"></path> <circle class="st10" cx="403.5" cy="548.6" r="8"></circle> <path class="st32" d="M405.8,548.6c0,1.3-1,2.3-2.3,2.3s-2.3-1-2.3-2.3s1-2.3,2.3-2.3S405.8,547.4,405.8,548.6z"></path> <path class="st3" d="M399,530.5h-7.4c-0.3,0-0.6-0.3-0.6-0.6v-11.4c0-0.3,0.3-0.6,0.6-0.6h7.4c0.3,0,0.6,0.3,0.6,0.6v11.4 C399.6,530.2,399.3,530.5,399,530.5z"></path> <path class="st10" d="M398.6,519.4c0,0.3-0.3,0.6-0.6,0.6h-5.7c-0.3,0-0.6-0.3-0.6-0.6l0,0c0-0.3,0.3-0.6,0.6-0.6h5.7 C398.3,518.9,398.6,519.1,398.6,519.4L398.6,519.4z"></path> <path class="st10" d="M398.6,521.3c0,0.3-0.3,0.6-0.6,0.6h-5.7c-0.3,0-0.6-0.3-0.6-0.6l0,0c0-0.3,0.3-0.6,0.6-0.6h5.7 C398.3,520.7,398.6,521,398.6,521.3L398.6,521.3z"></path> <path class="st10" d="M398.6,523.2c0,0.3-0.3,0.6-0.6,0.6h-5.7c-0.3,0-0.6-0.3-0.6-0.6l0,0c0-0.3,0.3-0.6,0.6-0.6h5.7 C398.3,522.6,398.6,522.8,398.6,523.2L398.6,523.2z"></path> <path class="st10" d="M398.6,525c0,0.3-0.3,0.6-0.6,0.6h-5.7c-0.3,0-0.6-0.3-0.6-0.6l0,0c0-0.3,0.3-0.6,0.6-0.6h5.7 C398.3,524.5,398.6,524.7,398.6,525L398.6,525z"></path> <path class="st10" d="M398.6,526.9c0,0.3-0.3,0.6-0.6,0.6h-5.7c-0.3,0-0.6-0.3-0.6-0.6l0,0c0-0.3,0.3-0.6,0.6-0.6h5.7 C398.3,526.3,398.6,526.6,398.6,526.9L398.6,526.9z"></path> <path class="st10" d="M398.6,528.8c0,0.3-0.3,0.6-0.6,0.6h-5.7c-0.3,0-0.6-0.3-0.6-0.6l0,0c0-0.3,0.3-0.6,0.6-0.6h5.7 C398.3,528.2,398.6,528.5,398.6,528.8L398.6,528.8z"></path> </g> <g> <polygon class="st10" points="234.1,472.5 223.7,458 227.9,453.9 235.3,458.5 238.4,469.2 "></polygon> <g> <path class="st33" d="M230.7,461.5l-0.6-3.3l59.3-10.9c2.9-0.5,5.8-0.2,8.5,1l8.9,4l-1.4,3.1l-8.9-4c-2.1-0.9-4.3-1.2-6.5-0.8 L230.7,461.5z"></path> <polygon class="st33" points="235.9,471.5 224.6,456.4 227.9,453.9 235.6,457.3 238.4,469.2 "></polygon> <polygon class="st31" points="226.5,456.7 228.1,455.5 234.5,458.3 236.9,468.8 236.1,469.5 "></polygon> </g> </g> <g> <path class="st12" d="M321.9,423.4l-7.8,29.9l6.1,3.4l12.7-27.5c1.2-2.2,1.5-5,0.3-7.3c-0.8-1.6-2.2-2.9-3.8-3.3h-0.1 C325.9,417.9,322.6,420.1,321.9,423.4z"></path> <path class="st12" d="M313.5,402.9l18.4,17.3l-6.9,11.3l-20.1-18.3c-2.7-2.2-6-7.7-3-11C301.8,402.2,306.8,396.7,313.5,402.9z"></path> <path class="st12" d="M326.7,461.4c1.1,5.3,1.4,36.4-1.3,42.3c-0.3,4.5-13,6.3-14.3,0.8l-1.4-38.6 C309.4,463.5,326.7,461.4,326.7,461.4z"></path> <path class="st10" d="M338,549.5c-2.9-0.9-9.3-2.9-13.1,0.4c-3.1,2.7-6.5,3-7.8,4.1c-1.9,1.6-1.1,3.5-1.1,3.5h23.1v-1.7 C339.1,550,338.4,549.7,338,549.5z"></path> <path class="st12" d="M339,552.3c-0.8-13.8-4.2-30.6-12.3-53.1c-2.7-6.4-3.6-9.2-9.2-6.5h-0.2c-4.7,0.9-7.3,7-6.3,11.8 l13.5,45.3C329.7,551.2,333.5,553.6,339,552.3z"></path> <path class="st10" d="M306.9,549.5c-2.9-0.9-9.3-2.9-13.1,0.4c-3.1,2.7-7.8,3-9.1,4.1c-1.9,1.6-1.1,3.5-1.1,3.5H308v-1.7 C308.1,550,307.4,549.7,306.9,549.5z"></path> <path class="st14" d="M255,453.8c-0.4,1.4-0.5,1.6-1.7,2.3c-2,1.1-2.6,1.4-4.8,2.4c1.2,0.7,1.7,1.8,3.1,2 c1.4,0.2,2.8-0.2,4.2-0.5c1.5-0.4,3.1-0.9,4.5-1.7c1.6-1,2.8-2.4,4-3.8c0.2-0.3,0.4-0.5,0.5-0.9c0-0.4-0.2-0.7-0.4-1 c-1.2-1.6-3.1-2.5-5-3.1c-1.1-0.3-2.2-0.6-3.4-0.3c-2.6,0.5-4.6,3.1-7.1,3.9c-0.4,0.2-1,0.3-1.2,0.7c-0.2,0.4,0,0.9,0.3,1.1 c0.3,0.3,0.8,0.3,1.2,0.3c0.9-0.1,1.7-0.5,2.6-0.9C252.7,454,254.2,453.5,255,453.8z"></path> <g> <polygon class="st14" points="295.8,405.7 306.9,400.9 302,390.2 291.8,393.3 "></polygon> <g> <path class="st14" d="M288.1,403.3c0.8,0.7,1.8,1,2.9,0.7l2.4-0.8c0.8-0.3,1.6-0.9,2.3-1.6l0,0c2-2.1,3.5-5.6,2.3-9.1h0.1l0,0 c1.7-0.6,5.1,0.3,4.7-1.5c-0.4-2,0.9-5.4,0.4-7.9c-3.6-11.1-10.3-8.5-14.5-7.2c-3.3,1.1-6,3.6-6.8,7.6 c-0.2,1.2-0.3,2.5-0.1,3.9c0.1,0.7,0.2,1.5,0.4,2.3c0.5,0.7,0.9,1.2,0.9,1.2l-0.1,0.7l-0.4,2.9c-0.1,0.8,0.6,1.4,1.3,1.3h1.2 c0.2,0.7,1.2,5,1.2,5C286.6,401.6,287.2,402.6,288.1,403.3z"></path> <path class="st26" d="M303.3,393.6c-7.1,3.8-5.3-6-5.3-6s-0.9,3.2-1.3,4.1c-1.2,0.3-1.2,0.3-2.4,0.6 c-3.2-9.4-2.6-14.2-12.4-8.9c0.3-4.6,4-9.1,7.5-9.2c5.8-0.1,11.4,0.1,13.5,5.6C304.1,382.8,305,384.6,303.3,393.6z"></path> <path class="st14" d="M299.5,387.9c0.5,1.8-0.4,4.2-1.6,4.5c-1.1,0.3-1.4-1.1-1.9-2.9c-0.3-1.2-1.1-2.7,0-3.4 C297,385.5,298.7,385.3,299.5,387.9z"></path> </g> <path class="st12" d="M281.7,385.6l8.8-1l0,0l8.7-1h0.3h0.4l4.2-0.5l-1.1-4.2c-1-3.2-4.5-5.8-7.9-5.7l-5.4,0.1 c-4.8,0.1-8,4.3-8,9.1c0,0.1,0,0.3,0,0.4v1.1V385.6z"></path> <path class="st12" d="M272.7,386.7c1.3,1.4,3,1.6,5.2,1.3c1.4-0.2,3-0.6,4.8-1.1c1.9-0.5,7.5-2.3,7.8-2.4 c-2.9-0.7-5.6-1.1-8.9-0.8c0,0-1.9,0.6-4,1.2C275.3,385.7,272.7,386.5,272.7,386.7z"></path> <path class="st27" d="M283.1,390.6l-0.1,0.7c5.9-1.8,11.2-5.2,16.8-7.9h-0.4l-0.2,0.1c0,0,0,0-0.1-0.1l-8.7,1l0,0 c-0.3,0.1-5.8,1.9-7.8,2.4c-0.3,0.1-0.7,0.2-1,0.3c0.1,0.7,0.2,1.5,0.4,2.3C282.6,390.1,283.1,390.6,283.1,390.6z"></path> <path class="st27" d="M288.1,403.3c0.8,0.7,1.8,1,2.9,0.7l2.4-0.8c0.8-0.3,1.6-0.9,2.3-1.6l0,0c0.4-1.2,0.4-2.4,0.3-3.7 c-0.2-1.3-0.6-2.5-0.9-3.7c0.2,1.1,0,2.3-0.4,3.3c-0.4,1.1-1.1,2-1.8,2.9c-0.7,0.9-1.6,1.7-2.6,2.2 C289.5,403,288.8,403.2,288.1,403.3z"></path> </g> <path class="st12" d="M326.2,451.8c-5.7,3.2-11.5,5.4-17.7,5.2c-1.9,0-3.9-0.3-5.9-0.8c-2-3.8-5.3-15-7.2-21.5 c-0.8-2.8-1.3-4.7-1.3-4.7c-2.8-12.5,1.8-24.3,1.8-24.3l0.9-0.5v-0.9c0-1.5,0.7-2.9,2-3.7l6.4-4.1l1.4,2.7 C324.9,402.4,325.2,440.8,326.2,451.8z"></path> <path class="st12" d="M322,471.7c0,0.2,0,0.4-0.1,0.6c-1,6.2-8.9,25.6-13.1,30.3c-1.6,4.2-15,1-14.7-4.6l1.1-3.9V494l7.4-26.9 l1-3.5c0.1-0.8,2-0.2,4.5,0.9C313.5,466.7,322,471.7,322,471.7z"></path> <path class="st12" d="M308.2,553c3.2-13.4,1.8-32.4,0.6-50.4c0.4-5-0.7-10.7-5.5-11.2h-0.2c-4.7-0.5-8.9,3.2-9.4,8.2l0.9,49.7 C299.2,552,302.5,552.7,308.2,553z"></path> <path class="st12" d="M321.9,472.3c-1.8,1.3-3.9,2.2-6.2,2.3l-13.1,0.8v-19.3l5-0.9l18.5-3.5l0.5,9.6 C327,465.8,325.1,469.9,321.9,472.3z"></path> <path class="st18" d="M310.9,460.5c-0.9,1.1-1.9,2.4-2.8,3.9c-1.8,2.9-3.6,6.4-5.4,10.4c-2.5,5.6-5,12.1-7.4,19.2l7.4-26.9 v-10.9c-2-3.8-5.3-15-7.2-21.5v-6.9l9.7-12.1c-2.4,11.3-2,28.9,2.6,39.5c0.3,0.6,0.6,1.2,0.9,1.8 C309.2,458.4,310,459.5,310.9,460.5z"></path> <path class="st12" d="M288.2,435.6L260.8,450l1.6,6.8l28.9-9.1c2.5-0.6,4.7-2.3,5.6-4.7c0.7-1.7,0.7-3.6-0.1-5l-0.1-0.1 C294.9,434.9,291.1,433.9,288.2,435.6z"></path> <path class="st12" d="M305.9,419.9l-9.3,23.4l-13.1-2.3l9.6-25.4c1.1-3.3,4.9-8.4,9.2-6.9C302.3,408.8,309.2,411.4,305.9,419.9z "></path> </g> <rect x="360.9" y="520.6" class="st10" width="27.9" height="10.1"></rect> <rect x="360.9" y="531.5" class="st34" width="27.9" height="3.6"></rect> <path class="st10" d="M368.2,505.1c1,2.6-3.2,6.3-5.3,6.1l-2.1-1.9l5.3-6.1L368.2,505.1z"></path> <path class="st35" d="M383.2,518.9h-10.3c-0.7,0-1.2-0.5-1.2-1.2v-4c0-0.7,0.6-1.2,1.2-1.2h10.3c0.7,0,1.2,0.5,1.2,1.2v4 C384.4,518.3,383.9,518.9,383.2,518.9z"></path> <rect x="373.1" y="513.9" class="st36" width="2.2" height="2"></rect> <rect x="376.2" y="513.9" class="st12" width="2.2" height="2"></rect> </g> </g> </g> <g> <g class="st6"> <ellipse class="st7" cx="683.4" cy="555.8" rx="70.3" ry="8.7"></ellipse> </g> <g> <path class="st12" d="M688.2,452.4c-0.1,0-0.1-0.1-0.2-0.1c-0.9-0.4-1.8-0.4-2.6-0.1l0,0c-1.4,0.5-2.5,1.8-3.1,3.1 c-0.2,0.4-0.3,0.9-0.4,1.3c0,0.3,0,0.6,0,0.8c0,0-0.1,0-0.1-0.1c-0.4-0.2-0.9-0.5-1.3-0.8c-0.3-0.2-0.6-0.4-0.9-0.6l-0.1-0.1 l-1.4-1l-0.1-0.1c-5.6-4.3-7.8-9-10.6-13.4l0,0c-0.2-0.4-0.5-0.8-0.8-1.2c-0.2-0.5-0.4-0.9-0.5-1.4c-2.9-7.4-2.3-9.4-4.7-20.4 c-1.1-4.5,1-8.8,5.3-10.4c0,0,4.2,0.9,5.6,6.2c2.9,10.7,3,13.9,3.5,20.1L688.2,452.4z"></path> <path class="st28" d="M679.6,456.1l-0.1-0.1l-1.4-1l-0.1-0.1c-5.6-4.3-7.8-9-10.6-13.4c-0.1,1.8-0.3,3.7-0.4,5.5l-1.6-1.1l0.7-6.9 l2.1-20.7l2.7,22.4L679.6,456.1z"></path> <path class="st12" d="M669,476.7L669,476.7l-2.6,0.2l-6.1,0.4l-3.2,0.2l-3.4,0.2l-1.4,0.1l-1.7,0.1l-4.5,0.3l0,0l-3.4,0.2 l-3.4,0.2l-3.9,0.2c-0.1-0.3-0.3-0.6-0.4-1l0,0c-1.5-4.2-0.9-13.2,0.4-19.4l2-0.1l16.3-1l2.6-0.2h0.6l1.9-0.1l1.1-0.1h0.7l1.8-0.1 h0.6l1.2-0.1l1.6-0.1v0.1l0.2,1.7l0.2,1.7l0.4,2.9l1.3,8.8l0.9,3.5c0,0.2,0.1,0.3,0.1,0.5c0,0.1,0.1,0.3,0.1,0.4L669,476.7z"></path> <path class="st12" d="M652.2,476.9c0,0.3-0.1,0.6-0.1,0.8c0,0.1,0,0.2,0,0.3c-0.2,1.7-0.4,3.3-0.7,4.9 c-1.4,10.3-2.4,19.2-5.1,26.9l-1.7-0.1l-6.6-0.5l-5.3-0.4c-1.5-12.7-0.1-23.2,2-31l0,0c1.2-1.3,2.6-2.3,4-2.9 c3.3-1.3,7.2-0.8,11.4,1l0,0c0.3,0.1,0.6,0.2,0.9,0.4C651.4,476.5,651.8,476.7,652.2,476.9z"></path> <path class="st12" d="M646.3,509.8c-1.6,11.5-2,24-4,35.2c-0.3,1.4-0.4,3.7-0.7,5.1c-4.3,0.8-8.7-0.9-13,1 c-2.4-13.1-1.5-32.9,4.2-42.4c1.2-2,2.4-2.9,3.8-3.1c2.2-0.3,4.7,1.3,8.1,3.1C645.2,509.2,645.7,509.5,646.3,509.8z"></path> <path class="st10" d="M646.3,558.1H628c-0.3-4-0.1-5.8,0.9-8.5c3.1-1.8,8.3-1.5,13.2,0.8l2,0.8c1.3,1,2.1,2.5,2.1,4.1L646.3,558.1 L646.3,558.1z"></path> <path class="st12" d="M667.3,441.4L667.3,441.4c-0.1,1.8-0.3,3.7-0.4,5.5c-0.2,2.1-0.4,4.1-0.5,6.2c-0.1,1.2-0.2,2.4-0.3,3.5 c-0.1,0.6-0.1,1.1-0.1,1.7h-30.7l-0.9-11.4l-1.8-22.7l-1.2-15.1l0.3-0.1l11.3-3.2h12.5l11.1,2.2c0.9,2.7,1.3,6.1,1.5,10.1 C668.4,424.8,667.9,432.9,667.3,441.4z"></path> <path class="st28" d="M665.3,452.6L665.3,452.6l-3.1,4.1l-0.1,0.1l-1.2,1.6l-1.4-0.4h-0.1l-0.8-0.2l-0.7-0.2l-0.3-0.1l-1.6-0.4 l-2.7-0.7l-16.6-4.3l0.4,6.1v0.1v0.6c-0.4,3.8,0.3,11,1.6,15.9c0.2,1,0.5,1.9,0.8,2.7c-0.2,0.3-0.4,0.6-0.5,0.9 c-4.4,7.8-5,19.5-2.5,27.2c0.4,1.3,0.9,2.4,1.5,3.4c0.7,1.2,1.4,2.1,2.3,2.9c-11.1,0.3-10.7,22.8-11.8,39.1 c-2.4-13.1-1.5-32.9,4.2-42.4c-1.5-12.7-0.1-23.2,2-31l0,0c-1.5-4.2-0.9-13.2,0.4-19.4l-0.9-11.4c-3.2-4.5-5.4-10.5-7.2-18 l5.5-4.7l6.3-5.4l7.5,16.7l6.3,5.6L665.3,452.6z"></path> <path class="st14" d="M673.5,461.5c-0.8,0-1.4-0.6-1.9-1.2s-0.9-1.3-1.5-1.7c-0.4-0.2-0.9-0.4-1.2-0.7c-0.3-0.4-0.4-0.9-0.2-1.3 c0.1-0.4,0.4-0.8,0.7-1.2c1,0.6,2.3,0.8,3.1,1.7c0.8,0.9,0.9,2.1,1.5,3.1c0.2,0.3,0.4,0.6,0.3,0.9 C674.1,461.4,673.7,461.5,673.5,461.5z"></path> <path class="st14" d="M685.1,462.1c0.4-0.7,0.2-1.5-0.1-2.2s-0.6-1.4-0.7-2.2c0-0.5,0.1-0.9,0-1.4c-0.1-0.4-0.6-0.7-1-0.9 c-0.4-0.1-0.9-0.1-1.4,0c0,1.2-0.5,2.4-0.1,3.6c0.3,1.1,1.4,1.8,1.9,2.8c0.2,0.3,0.3,0.7,0.7,0.7 C684.7,462.6,685,462.3,685.1,462.1z"></path> <path class="st4" d="M714.5,530.3c-0.6,0-1.2-0.3-1.5-0.9l-36.4-70.2c-0.4-0.8-0.1-1.9,0.7-2.3s1.9-0.1,2.3,0.7l36.4,70.2 c0.4,0.8,0.1,1.9-0.7,2.3C715,530.3,714.7,530.3,714.5,530.3z"></path> <path class="st10" d="M689.9,558.1h-24.1c-0.6-2.6-0.7-5.2,0-7.7c3.2-3.1,7.3-4.4,12.4-4c1.5,2.5,5.6,4.6,8.5,5.9 c1.9,0.8,3.1,2.7,3.1,4.8L689.9,558.1L689.9,558.1z"></path> <path class="st12" d="M674.2,504.6l-2.1,0.7l-7.9,2.4l-3,0.9c-0.2-0.4-0.4-0.7-0.6-1.1l0,0c-4.2-8.1-7.5-17.3-9.2-24.7 c-0.4-1.7-0.7-3.2-1-4.7c0-0.1-0.1-0.3-0.1-0.4c-0.1-0.5-0.2-1-0.2-1.5c0-0.1,0-0.3-0.1-0.4l0,0c1.7-4.4,6-5,11.1-4.7 c0.2,0,0.3,0,0.5,0c1,0.1,1.9,0.2,3,0.3c1,0.1,2.1,0.2,3.1,0.3c0,0,0,0,0.1,0c0.3,1.2,0.6,2.4,0.8,3.5c0,0.2,0.1,0.3,0.1,0.5 c0,0.1,0.1,0.3,0.1,0.4s0.1,0.3,0.1,0.4c2.5,10.3,4.8,19.1,5.2,27.2C674.2,504.2,674.2,504.4,674.2,504.6z"></path> <path class="st12" d="M678.3,546.4c-3.9,1.7-8.5,1.2-12.3,3.9l-0.1,0.1c-0.1-0.3-0.3-0.7-0.4-1c-0.5-1.2-0.9-2.6-1.4-4 c0-0.1-0.1-0.3-0.1-0.4c-1.2-3.9-2.3-8.4-3.1-12.9c0-0.1,0-0.1,0-0.1c-1.9-10.4-2.4-20.7-0.1-24.4l0,0c0.7-1.2,1.3-2.1,2-2.8 l0.1-0.1c2.2-2.3,4.6-2.4,8.6-1.4c0.9,0.2,1.8,0.4,2.8,0.7l0,0C675.2,517,678.4,533.9,678.3,546.4z"></path> <path class="st13" d="M642.9,398l0.1,7.9c0.5,5.5,12.4,4.9,12.5,0l0.1-7.5L642.9,398z"></path> <g> <path class="st14" d="M660.7,390.9c-0.3,1.4-1,3.2-1.7,3.5c-0.9,0.3-1.2-0.2-1.2-0.2c-0.4,1.9-0.6,3.7-1.3,4.7 c-0.8,1.2-1.5,2.1-2.1,2.8c-1.3,1.6-2.4,2-5,2l0,0l0,0c-2.6,0-3.7-0.4-5-1.9c-0.6-0.7-1.3-1.6-2.1-2.8c-0.7-1-0.9-2.8-1.3-4.7 c-0.1,0-0.3,0.6-1.2,0.3c-0.8-0.3-1.4-2.1-1.8-3.4c-0.3-1.2,0-2.1,0.6-2.5c0.2-0.1,0.4-0.2,0.6-0.2l0,0c0.2,0,0.5,0.1,0.7,0.2 c-0.2-0.8-0.3-1.5-0.3-2.3c-0.1-1.5,0-2.8,0.3-4c0.4-1.4,1.1-2.7,2-3.7l0,0c1.6-1.7,3.9-2.7,6.5-2.9l0,0c0.3,0,0.5,0,0.8,0 c4.5,0,8.3,2.3,9.5,6.6c0.3,1.1,0.4,2.4,0.4,3.8c-0.1,0.8-0.1,1.5-0.3,2.3c0.2-0.1,0.5-0.2,0.7-0.2c0.3,0,0.5,0.1,0.7,0.3 C660.7,388.9,660.9,389.8,660.7,390.9z"></path> <path class="st10" d="M659.4,388.3c-0.6,0.3-1,0.7-1.3,1.8c-0.1,0.5-0.2,1.1-0.4,1.9c-0.6,0.2-0.9,0.2-1.5,0.4 c0.1-0.6,0.3-1.1,0.4-1.6c0.6-2.8,0.8-5,0.7-6.7c0-0.7-0.1-1.2-0.2-1.8c-0.8-4-3.4-4.2-4.4-4.3c-1.2-0.2-6.1-0.2-7.3,0 c-0.9,0.2-3.1,0.4-4,3.3c-0.1,0.3-0.2,0.6-0.2,1c-0.4,1.8-0.3,4.5,0.6,8.4c0.1,0.6,0.3,1.2,0.4,1.8c-0.6-0.2-0.8-0.2-1.5-0.4 c-0.1-0.9-0.3-1.6-0.4-2.1c-0.3-0.9-0.7-1.3-1.2-1.6l0,0c-0.3-2.6-0.4-4.5-0.1-6.1c0.3-1.8,1-3.1,2-4.6 c2.6-3.9,12.5-4.7,16.4-0.1c1.2,1.4,1.9,2.8,2.2,4.7C659.8,383.9,659.7,385.8,659.4,388.3z"></path> <path class="st10" d="M645.8,375.7c-0.7,0-1.4,0.3-2,0.6c-0.9,0.5-3.1,3.7-2.7,4.5c1.9,3.1,7.8,4,11.9,4.1 c-0.5-0.4-1.2-1.1-1.4-1.7c2.2,1,4.8,1.2,7.2,0.6c-0.7-2-1.5-4.1-3.1-5.6c-1.3-1.2-3-1.9-4.7-2.2 C649.3,375.7,647.5,375.7,645.8,375.7z"></path> </g> <g> <path class="st22" d="M720.6,522.5h-7.8c-2.4,0-4.4,2-4.4,4.4v9.1H725v-9.1C725,524.5,723.1,522.5,720.6,522.5z"></path> <rect x="708.4" y="529.3" class="st31" width="16.6" height="13.5"></rect> <path class="st33" d="M738.6,547.1h-43.8l7.2-6.4c0.8-0.7,1.8-1.1,2.9-1.1h23.6c1.1,0,2.1,0.4,2.9,1.1L738.6,547.1z"></path> <path class="st31" d="M739.9,550.2h-46.3v-1.8c0-1.5,1.3-2.8,2.8-2.8h40.8c1.5,0,2.8,1.3,2.8,2.8L739.9,550.2L739.9,550.2z"></path> <g> <path class="st22" d="M710.8,536.7c0,0.2-0.2,0.4-0.4,0.4l0,0c-0.2,0-0.4-0.2-0.4-0.4v-5.5c0-0.2,0.2-0.4,0.4-0.4l0,0 c0.2,0,0.4,0.2,0.4,0.4V536.7z"></path> <path class="st22" d="M712.3,536.7c0,0.2-0.2,0.4-0.4,0.4l0,0c-0.2,0-0.4-0.2-0.4-0.4v-5.5c0-0.2,0.2-0.4,0.4-0.4l0,0 c0.2,0,0.4,0.2,0.4,0.4V536.7z"></path> <path class="st22" d="M713.9,536.7c0,0.2-0.2,0.4-0.4,0.4l0,0c-0.2,0-0.4-0.2-0.4-0.4v-5.5c0-0.2,0.2-0.4,0.4-0.4l0,0 c0.2,0,0.4,0.2,0.4,0.4V536.7z"></path> <path class="st22" d="M715.5,536.7c0,0.2-0.2,0.4-0.4,0.4l0,0c-0.2,0-0.4-0.2-0.4-0.4v-5.5c0-0.2,0.2-0.4,0.4-0.4l0,0 c0.2,0,0.4,0.2,0.4,0.4V536.7z"></path> <path class="st22" d="M717.1,536.7c0,0.2-0.2,0.4-0.4,0.4l0,0c-0.2,0-0.4-0.2-0.4-0.4v-5.5c0-0.2,0.2-0.4,0.4-0.4l0,0 c0.2,0,0.4,0.2,0.4,0.4V536.7z"></path> <path class="st22" d="M718.7,536.7c0,0.2-0.2,0.4-0.4,0.4l0,0c-0.2,0-0.4-0.2-0.4-0.4v-5.5c0-0.2,0.2-0.4,0.4-0.4l0,0 c0.2,0,0.4,0.2,0.4,0.4V536.7z"></path> <path class="st22" d="M720.3,536.7c0,0.2-0.2,0.4-0.4,0.4l0,0c-0.2,0-0.4-0.2-0.4-0.4v-5.5c0-0.2,0.2-0.4,0.4-0.4l0,0 c0.2,0,0.4,0.2,0.4,0.4V536.7z"></path> <path class="st22" d="M721.8,536.7c0,0.2-0.2,0.4-0.4,0.4l0,0c-0.2,0-0.4-0.2-0.4-0.4v-5.5c0-0.2,0.2-0.4,0.4-0.4l0,0 c0.2,0,0.4,0.2,0.4,0.4V536.7z"></path> <path class="st22" d="M723.4,536.7c0,0.2-0.2,0.4-0.4,0.4l0,0c-0.2,0-0.4-0.2-0.4-0.4v-5.5c0-0.2,0.2-0.4,0.4-0.4l0,0 c0.2,0,0.4,0.2,0.4,0.4V536.7z"></path> </g> <rect x="705.9" y="538" class="st22" width="21.6" height="1.5"></rect> <rect x="695.2" y="550.2" class="st22" width="43.1" height="1.2"></rect> <polygon class="st21" points="739.8,558.1 693.7,558.1 695.2,551.4 738.3,551.4 "></polygon> <polygon class="st11" points="695.9,552.5 696.3,558.1 694,558.1 "></polygon> <polygon class="st11" points="700.1,552.5 700.6,558.1 696.3,558.1 697.3,555.1 698.4,557.6 "></polygon> <polygon class="st11" points="704.3,552 705.4,558.1 703.6,558.1 "></polygon> <polygon class="st11" points="706.3,553.6 707.1,558.1 705.7,558.1 "></polygon> <polygon class="st11" points="714.8,553.6 715.7,558.1 711.1,558.1 712.4,552 713.6,557.6 "></polygon> <polygon class="st11" points="716.7,555.7 717.7,558.1 716,558.1 "></polygon> <polygon class="st11" points="719.5,551.7 721.3,558.1 718.1,558.1 "></polygon> <polygon class="st11" points="725,551.9 726.2,558.1 724.3,558.1 "></polygon> <polygon class="st11" points="726.9,552.1 728.3,558.1 726.3,558.1 "></polygon> <polygon class="st11" points="729.7,552.4 731.3,558.1 728.6,558.1 730.2,557.8 "></polygon> <polygon class="st11" points="734.8,554.5 735.9,558.1 733,558.1 732.7,552.1 734.8,558.1 "></polygon> <polygon class="st11" points="739.4,558.1 737.7,558.1 737.6,552.4 "></polygon> </g> <path class="st4" d="M695.3,460.1h-34.1c-1,0-1.7-0.8-1.7-1.7c0-1,0.8-1.7,1.7-1.7h34.1c1,0,1.7,0.8,1.7,1.7 C697,459.4,696.2,460.1,695.3,460.1z"></path> <path class="st14" d="M685.2,461.3c-0.2-0.1-0.9-0.6-1-0.8c-0.4-0.6,0.5-1.2,0-1.6c-0.2-0.2-0.5-0.2-0.7-0.3 c-0.6-0.1-1.3-0.4-1.6-1c-0.1-0.2-0.1-0.5-0.1-0.7c0-1.1,0.4-2.2,1.2-3s1.8-1.3,2.9-1.6c0.3-0.1,0.7-0.1,1-0.1 c0.9,0,1.7,0.5,2.4,0.9c1.6,0.9,3.2,1.8,4.8,2.7c0.4,0.2,0.7,0.4,0.9,0.8c0.1,0.2,0.1,0.5,0.1,0.7c0,1.1,0,2.2,0,3.3 c0,0.3,0,0.6-0.1,0.9c-0.2,0.4-0.7,0.6-1.2,0.4c-0.1-0.1-0.3-0.2-0.4-0.1c-0.1,0-0.2,0.1-0.3,0.2c-0.4,0.3-1,0.3-1.4,0 c-0.1-0.1-0.2-0.2-0.3-0.2c-0.2,0-0.3,0.2-0.4,0.3c-0.5,0.5-1.5,0.5-1.9-0.1c-0.5,0.4-1,0.7-1.7,0.5 C686.6,462.3,685.7,461.7,685.2,461.3z"></path> <path class="st4" d="M686,460.1h-7c-1,0-1.7-0.8-1.7-1.7c0-1,0.8-1.7,1.7-1.7h7c1,0,1.7,0.8,1.7,1.7 C687.7,459.4,687,460.1,686,460.1z"></path> <path class="st15" d="M659.4,388.3c-0.6,0.3-1,0.7-1.3,1.8c-0.2,0.1-0.5,0.3-0.8,0.4c-0.2,0.1-0.5,0.2-0.7,0.3 c-4.8,2.3-9.8,2.3-14.9-0.1c-0.2-0.1-0.4-0.2-0.6-0.3c-0.3-0.1-0.6-0.3-0.8-0.5c-0.3-0.9-0.7-1.3-1.2-1.6l0,0 c-0.3-2.6-0.4-4.5-0.1-6.1h20.6C659.8,383.9,659.7,385.8,659.4,388.3z"></path> <g> <g> <path class="st12" d="M650.8,373h-3c-5.1,0-9.2,4.1-9.2,9.2l0.2,3.2c7.1-1.3,13.8-1.4,21-0.1l0.2-3 C659.9,377.1,655.8,373,650.8,373z"></path> <path class="st12" d="M639.5,385c0.2,0.8,0.2,0.6,0.3,0.8c0.7,1.6,2.4,2.6,4,2.3c1-0.2,1.8-0.8,2.7-1.2c0.9-0.4,1.8-0.6,2.8-0.7 c0.9,0,1.9,0.3,2.8,0.7c0.9,0.4,1.7,1,2.7,1.2c1.6,0.3,3.3-0.7,4-2.3c0.1-0.3,0.1,0,0.3-0.8C655.9,381.2,642.7,381.2,639.5,385z "></path> </g> <g> <path class="st12" d="M650.8,373h-3c-5.1,0-9.2,4.1-9.2,9.2l0.2,3.2c7.1-1.3,13.8-1.4,21-0.1l0.2-3 C659.9,377.1,655.8,373,650.8,373z"></path> <path class="st16" d="M639.5,385c0.2,0.8,0.2,0.6,0.3,0.8c0.7,1.6,2.4,2.6,4,2.3c1-0.2,1.8-0.8,2.7-1.2c0.9-0.4,1.8-0.6,2.8-0.7 c0.9,0,1.9,0.3,2.8,0.7c0.9,0.4,1.7,1,2.7,1.2c1.6,0.3,3.3-0.7,4-2.3c0.1-0.3,0.1,0,0.3-0.8C655.9,381.2,642.7,381.2,639.5,385z "></path> </g> </g> <path class="st12" d="M646.3,405.8c-1.4-0.6-2.5-1.8-3.4-2.9l-0.8,3.3c0.3,2.8,4,4.7,6.2,3.9l-0.4-2.3 C647.8,406.9,647.1,406.1,646.3,405.8z"></path> <path class="st12" d="M652.6,405.6c1.4-0.5,2.4-1.5,3-2.7l0.8,3.3c-0.3,2.8-3.6,4.5-5.8,3.7l0.2-2 C650.9,406.8,651.6,405.9,652.6,405.6z"></path> <path class="st37" d="M654.7,461.5h-2.3c0-9.3-2.2-41.5-3.9-51.4l2.3-0.4C652.5,419.7,654.7,452.1,654.7,461.5z"></path> <path class="st14" d="M662,461.8c-0.2-0.1-0.9-0.7-1-0.9c-0.4-0.6,0.5-1.2,0-1.7c-0.2-0.2-0.5-0.2-0.7-0.3c-0.6-0.1-1.3-0.4-1.6-1 c-0.1-0.2-0.1-0.5-0.1-0.8c0-1.2,0.4-2.3,1.2-3.2c0.8-0.9,1.8-1.4,2.9-1.7c0.3-0.1,0.7-0.1,1-0.1c0.9,0,1.7,0.5,2.4,1 c1.6,1,3.2,1.9,4.8,2.9c0.4,0.2,0.7,0.5,0.9,0.9c0.1,0.2,0.1,0.5,0.1,0.8c0,1.2,0,2.4,0,3.5c0,0.3,0,0.6-0.1,0.9 c-0.2,0.4-0.7,0.7-1.2,0.5c-0.1-0.1-0.3-0.2-0.4-0.1c-0.1,0-0.2,0.1-0.3,0.2c-0.4,0.3-1,0.3-1.4,0c-0.1-0.1-0.2-0.2-0.3-0.2 c-0.2,0-0.3,0.2-0.4,0.3c-0.5,0.6-1.5,0.5-1.9-0.2c-0.5,0.5-1,0.7-1.7,0.5C663.5,462.8,662.6,462.2,662,461.8z"></path> <path class="st12" d="M665.3,452.6L665.3,452.6c-2.7-0.1-4.9,2-5.5,4.1c0,0.1-0.1,0.2-0.1,0.3c-0.1,0.3-0.1,0.6-0.1,0.9l0,0 c0,0.1,0,0.1,0,0.2s0,0.2,0,0.4l-0.1-0.1l-0.6-0.2l-0.9-0.4l-0.3-0.1l-1-0.5l-3.3-1.5l-18.9-8.4c-0.1-0.1-0.1-0.2-0.2-0.3 c-3.2-4.5-5.4-10.5-7.2-18c-0.7-2.7-1.3-5.5-1.9-8.6c-1.1-4.5,0.3-9.1,4.6-10.7l1.7-0.5l0.3-0.1l2.7-0.7c1.7,3.5,3.2,7.1,4.5,10.5 c2.5,6.8,4.2,13.2,4.5,17.9l9.4,6.7L665.3,452.6z"></path> <path class="st4" d="M662.3,460.1h-2.7c-1,0-1.7-0.8-1.7-1.7c0-1,0.8-1.7,1.7-1.7h2.7c1,0,1.7,0.8,1.7,1.7 C664,459.4,663.2,460.1,662.3,460.1z"></path> <polygon class="st3" points="664,424.6 656.3,425 656,421.9 663.6,421.6 "></polygon> <path class="st28" d="M666,550.3C666,550.5,665.9,550.5,666,550.3c-0.6-0.6-1.2-2.4-1.9-4.9c0-0.1-0.1-0.3-0.1-0.4 c-0.9-3.3-2-7.8-3.1-12.9c0-0.1,0-0.1,0-0.1c-1.9-10.4-2.4-20.7-0.1-24.4l0,0c-4.2-8.1-7.5-17.3-9.2-24.7l-5.5-4.8 c1.7,0.2,3.2,0.3,4.6,0.1c0.6-0.1,1.1-0.1,1.6-0.2s1-0.2,1.5-0.4c3-1,5.4-3.1,7.6-6.5c0.3-0.5,0.7-1.1,1-1.7 c-0.2,0.6-0.3,1.1-0.5,1.7c-0.6,2.1-1.1,4.1-1.5,6l0,0c-2.2,10.6-1.4,18.5,2.6,27.4c0.4,1,0.9,2,1.5,3 C660.4,519,666.1,547.9,666,550.3z"></path> </g> </g> <g> <path class="st2" d="M336.3,224.8h-3.7v-14.3l-4.4,1.4v-3l7.7-2.8h0.4V224.8z"></path> <path class="st2" d="M354.5,211.1c0,0.9-0.2,1.7-0.7,2.4c-0.5,0.7-1.1,1.3-1.9,1.7c0.9,0.4,1.6,1,2.2,1.8c0.5,0.8,0.8,1.7,0.8,2.7 c0,1.7-0.6,3-1.7,3.9c-1.1,1-2.7,1.4-4.6,1.4c-1.9,0-3.5-0.5-4.6-1.4c-1.1-1-1.7-2.3-1.7-3.9c0-1,0.3-1.9,0.8-2.7 c0.5-0.8,1.2-1.4,2.1-1.8c-0.8-0.4-1.4-1-1.9-1.7c-0.4-0.7-0.7-1.5-0.7-2.4c0-1.6,0.5-2.9,1.6-3.8c1.1-0.9,2.5-1.4,4.3-1.4 c1.8,0,3.2,0.5,4.3,1.4C353.9,208.3,354.5,209.5,354.5,211.1z M351.2,219.4c0-0.8-0.2-1.5-0.7-1.9s-1.1-0.7-1.9-0.7 c-0.8,0-1.4,0.2-1.9,0.7c-0.5,0.5-0.7,1.1-0.7,2c0,0.8,0.2,1.4,0.7,1.9c0.5,0.5,1.1,0.7,1.9,0.7c0.8,0,1.4-0.2,1.9-0.7 C350.9,220.9,351.2,220.3,351.2,219.4z M350.8,211.3c0-0.7-0.2-1.3-0.6-1.7s-0.9-0.7-1.6-0.7c-0.7,0-1.2,0.2-1.6,0.6 c-0.4,0.4-0.6,1-0.6,1.8c0,0.7,0.2,1.3,0.6,1.8c0.4,0.5,0.9,0.7,1.6,0.7c0.7,0,1.2-0.2,1.6-0.7 C350.6,212.7,350.8,212.1,350.8,211.3z"></path> <path class="st2" d="M369.9,217.1c0,2.6-0.5,4.5-1.6,5.9c-1.1,1.4-2.6,2-4.7,2c-2,0-3.6-0.7-4.7-2c-1.1-1.3-1.6-3.3-1.7-5.8v-3.4 c0-2.6,0.5-4.6,1.6-5.9c1.1-1.3,2.6-2,4.7-2c2,0,3.6,0.7,4.7,2c1.1,1.3,1.6,3.3,1.7,5.8V217.1z M366.2,213.3c0-1.5-0.2-2.7-0.6-3.4 c-0.4-0.7-1.1-1.1-2-1.1c-0.9,0-1.5,0.3-1.9,1c-0.4,0.7-0.6,1.7-0.7,3.1v4.5c0,1.5,0.2,2.6,0.6,3.4s1.1,1.1,2,1.1 c0.9,0,1.6-0.4,2-1.1c0.4-0.7,0.6-1.8,0.6-3.3V213.3z"></path> <path class="st2" d="M388.8,222.3h-4.1v2.5h-3.8v-2.5h-2.6v-3.1h2.6v-1h-2.6v-3.1h2.6v-9h7.2c1.4,0,2.6,0.3,3.7,0.8 s1.9,1.2,2.5,2.2c0.6,0.9,0.9,2,0.9,3.2c0,1.8-0.6,3.3-1.9,4.4c-1.2,1.1-3,1.6-5.2,1.6h-3.3v1h4.1V222.3z M384.8,215.1h3.3 c2.2,0,3.2-0.9,3.2-2.8c0-0.9-0.3-1.6-0.8-2.2s-1.3-0.8-2.3-0.8h-3.5V215.1z"></path> <path class="st2" d="M398.7,226.4H396l6.9-20.2h2.8L398.7,226.4z"></path> <path class="st2" d="M415.8,220.5l3.6-9.5h4.6v13.8h-3.7v-8.5l-3.3,8.5h-2.5l-3.2-8.4v8.4h-3.7V211h4.6L415.8,220.5z"></path> <path class="st2" d="M434.7,216.3h-7.9v-1.8l3.7-3.3c0.5-0.4,0.8-0.8,1-1.2c0.2-0.4,0.3-0.6,0.3-0.8c0-0.7-0.4-1.1-1.2-1.1 c-0.4,0-0.8,0.1-1,0.4c-0.3,0.3-0.4,0.6-0.4,1h-2.6c0-1,0.4-1.8,1.1-2.5c0.7-0.7,1.7-1,2.8-1c1.3,0,2.2,0.3,2.9,0.8s1,1.3,1,2.3 c0,0.6-0.2,1.1-0.5,1.6c-0.3,0.5-0.9,1.1-1.8,1.9l-1.9,1.5h4.5V216.3z"></path> </g> <g> <path d="M454.1,222.4h-7.5v-1l3.9-4.4c0.6-0.7,1-1.2,1.2-1.6c0.2-0.4,0.3-0.8,0.3-1.3c0-0.6-0.2-1.1-0.5-1.5s-0.8-0.6-1.4-0.6 c-0.7,0-1.3,0.2-1.7,0.6c-0.4,0.4-0.6,1-0.6,1.7h-1.4c0-1,0.3-1.9,1-2.5s1.6-1,2.7-1c1.1,0,1.9,0.3,2.5,0.8 c0.6,0.6,0.9,1.3,0.9,2.2c0,1.1-0.7,2.5-2.1,4l-3,3.3h5.7V222.4z"></path> <path d="M462.8,217.6c0,1.7-0.3,3-0.9,3.8s-1.5,1.2-2.7,1.2c-1.2,0-2.1-0.4-2.7-1.2s-0.9-2-0.9-3.6v-1.9c0-1.7,0.3-2.9,0.9-3.7 s1.5-1.2,2.7-1.2c1.2,0,2.1,0.4,2.7,1.2c0.6,0.8,0.9,2,0.9,3.6V217.6z M461.3,215.6c0-1.2-0.2-2.1-0.5-2.7s-0.9-0.8-1.6-0.8 c-0.7,0-1.3,0.3-1.6,0.8c-0.3,0.6-0.5,1.4-0.5,2.6v2.3c0,1.2,0.2,2.1,0.5,2.7s0.9,0.9,1.6,0.9c0.7,0,1.2-0.3,1.6-0.8 c0.3-0.6,0.5-1.4,0.5-2.6V215.6z"></path> <path d="M471.7,217.6c0,1.7-0.3,3-0.9,3.8s-1.5,1.2-2.7,1.2c-1.2,0-2.1-0.4-2.7-1.2s-0.9-2-0.9-3.6v-1.9c0-1.7,0.3-2.9,0.9-3.7 s1.5-1.2,2.7-1.2c1.2,0,2.1,0.4,2.7,1.2c0.6,0.8,0.9,2,0.9,3.6V217.6z M470.3,215.6c0-1.2-0.2-2.1-0.5-2.7s-0.9-0.8-1.6-0.8 c-0.7,0-1.3,0.3-1.6,0.8c-0.3,0.6-0.5,1.4-0.5,2.6v2.3c0,1.2,0.2,2.1,0.5,2.7s0.9,0.9,1.6,0.9c0.7,0,1.2-0.3,1.6-0.8 c0.3-0.6,0.5-1.4,0.5-2.6V215.6z"></path> <path d="M482.6,220.3H480v2.2h-1.5v-2.2h-1.6v-1.2h1.6V218h-1.6v-1.2h1.6v-5.7h4.2c1.2,0,2.2,0.3,2.9,0.9c0.7,0.6,1.1,1.5,1.1,2.5 c0,1.1-0.3,2-1,2.6c-0.7,0.6-1.7,0.9-2.9,0.9H480v1.1h2.6V220.3z M480,216.8h2.7c0.8,0,1.4-0.2,1.8-0.6s0.6-0.9,0.6-1.7 c0-0.7-0.2-1.2-0.7-1.6s-1-0.6-1.8-0.6H480V216.8z"></path> <path d="M488.6,223.4h-1.2l4.8-12.4h1.2L488.6,223.4z"></path> <path d="M499.8,220.5l2.9-6.5h1.8v8.5H503v-6.1l-2.7,6.1h-1l-2.8-6.3v6.3h-1.4V214h1.9L499.8,220.5z"></path> <path d="M511,217.2h-4.7v-0.8l2.3-2.2c0.6-0.5,0.9-1,0.9-1.3c0-0.3-0.1-0.5-0.2-0.6c-0.2-0.2-0.4-0.2-0.7-0.2 c-0.4,0-0.7,0.1-0.9,0.3c-0.2,0.2-0.3,0.4-0.3,0.7h-1.2c0-0.6,0.2-1.1,0.7-1.5s1-0.6,1.7-0.6s1.2,0.2,1.6,0.5s0.6,0.8,0.6,1.4 c0,0.5-0.3,1.1-0.8,1.6l-0.7,0.6l-1.4,1.1h3.1V217.2z"></path> <path d="M445.7,218.6v-0.8h69.8v0.8H445.7z"></path> </g> </svg> 